<svg id="Capa_1" enable-background="new 0 0 512 512" height="512" viewBox="0 0 512 512" width="512" xmlns="http://www.w3.org/2000/svg"><path d="m318.449 304.402c-4.142 0-7.5 3.358-7.5 7.5v12c0 4.142 3.358 7.5 7.5 7.5s7.5-3.358 7.5-7.5v-12c0-4.142-3.358-7.5-7.5-7.5zm128.473 179.595-2.05-7.735c-3.479-13.13-14.474-22.727-27.611-24.671v-15.163c0-12.78-10.397-23.177-23.177-23.177h-.028c-14.848-45.126-17.083-129.546-17.418-155.286h4.81c19.119 0 34.673-15.554 34.673-34.672v-12.378c0-18.363-14.352-33.429-32.427-34.592 2.309-9.527 5.197-20.298 8.028-29.861 5.585-18.865-6.208-38.587-25.672-42.476-29.089-5.812-62.344-7.994-85.449-8.799v-18.06h4.262c7.207 0 13.07-5.863 13.07-13.07v-23.066c0-7.207-5.863-13.07-13.07-13.07h-4.262v-14.851c0-7.207-5.863-13.07-13.07-13.07h-23.066c-7.206 0-13.07 5.863-13.07 13.07v14.85h-4.262c-7.207 0-13.07 5.863-13.07 13.07v23.066c0 7.207 5.863 13.07 13.07 13.07h4.262v18.045c-11.105.383-24.28 1.08-38.285 2.327-4.125.367-7.172 4.01-6.805 8.136.368 4.126 4.017 7.18 8.136 6.805 62.069-5.528 127.26-2.017 168.669 6.256 10.776 2.153 17.338 13.005 14.228 23.509-3.243 10.954-6.56 23.466-9.045 34.038h-224.588c-2.485-10.572-5.803-23.084-9.046-34.038-3.108-10.499 3.447-21.355 14.228-23.509 3.486-.696 7.159-1.362 10.915-1.979 4.087-.672 6.856-4.53 6.185-8.617-.672-4.087-4.535-6.853-8.617-6.185-3.925.645-7.768 1.342-11.422 2.072-19.315 3.859-31.3 23.465-25.671 42.476 2.831 9.563 5.719 20.333 8.028 29.861-18.075 1.162-32.426 16.228-32.426 34.592v12.378c0 19.119 15.554 34.672 34.673 34.672h4.825c-.208 18.722-1.179 45.422-3.404 71.716-3.05 36.042-7.881 64.744-14.037 83.57h-.019c-12.78 0-23.177 10.397-23.177 23.177v15.163c-13.138 1.944-24.133 11.541-27.611 24.67l-2.05 7.736c-3.749 14.145 6.905 28.003 21.549 28.003h257.53c4.142 0 7.5-3.358 7.5-7.5s-3.358-7.5-7.5-7.5h-257.53c-4.789 0-8.277-4.531-7.05-9.162l2.05-7.736c2.165-8.173 9.583-13.881 18.038-13.881h312.67c8.455 0 15.872 5.708 18.038 13.881l2.05 7.736c1.226 4.628-2.26 9.162-7.05 9.162h-45.317c-4.142 0-7.5 3.358-7.5 7.5s3.358 7.5 7.5 7.5h45.317c14.631 0 25.298-13.848 21.548-28.003zm-181.319-414.37v25.181c-6.402-.097-12.229-.106-19.206-.006v-25.175c0-4.142-3.358-7.5-7.5-7.5h-9.832v-19.207h9.832c4.142 0 7.5-3.358 7.5-7.5v-20.42h19.206v20.42c0 4.142 3.358 7.5 7.5 7.5h9.832v19.206h-9.832c-4.142 0-7.5 3.358-7.5 7.501zm-135.052 173.338c-10.848 0-19.673-8.825-19.673-19.672v-12.378c0-10.847 8.825-19.672 19.673-19.672h250.898c10.848 0 19.673 8.825 19.673 19.672v12.378c0 10.847-8.825 19.672-19.673 19.672zm19.809 15h211.279c.331 25.245 2.508 107.063 16.722 155.286h-244.723c14.214-48.222 16.391-130.041 16.722-155.286zm251.901 193.256h-292.522v-14.793c0-4.509 3.668-8.177 8.177-8.177 14.028 0 268.054.003 276.169 0 4.509 0 8.177 3.668 8.177 8.177v14.793zm-208.71-146.819c-4.142 0-7.5 3.358-7.5 7.5v12c0 4.142 3.358 7.5 7.5 7.5s7.5-3.358 7.5-7.5v-12c0-4.142-3.358-7.5-7.5-7.5zm83.841 13.49c-3.122-2.722-7.86-2.398-10.582.726-2.73 3.132-6.67 4.928-10.81 4.928-4.141 0-8.081-1.796-10.811-4.928-2.722-3.123-7.46-3.448-10.582-.726s-3.448 7.459-.726 10.582c5.579 6.401 13.641 10.073 22.118 10.073s16.539-3.671 22.118-10.073c2.723-3.123 2.397-7.861-.725-10.582z"/></svg>