<svg id="Capa_1" enable-background="new 0 0 512 512" height="512" viewBox="0 0 512 512" width="512" xmlns="http://www.w3.org/2000/svg"><path d="m303.758 327.689c4.143 0 7.5-3.358 7.5-7.5 0-3.455 2.811-6.265 6.265-6.265s6.265 2.811 6.265 6.265c0 4.142 3.357 7.5 7.5 7.5s7.5-3.358 7.5-7.5c0-11.726-9.539-21.265-21.265-21.265s-21.265 9.54-21.265 21.265c0 4.142 3.357 7.5 7.5 7.5zm-47.758 22.74c7.763 0 15.145-3.362 20.255-9.225 2.722-3.122 2.397-7.86-.726-10.582s-7.861-2.396-10.581.726c-2.261 2.593-5.522 4.081-8.948 4.081s-6.688-1.487-8.948-4.081c-2.722-3.122-7.459-3.446-10.582-.726-3.122 2.722-3.447 7.46-.726 10.582 5.111 5.863 12.493 9.225 20.256 9.225zm190.923 133.568-2.05-7.736c-3.48-13.13-14.475-22.726-27.612-24.67v-15.163c0-12.78-10.397-23.177-23.177-23.177h-5.253l8.277-18.561c5.97-13.385 6.811-28.428 2.37-42.36-7.304-22.915-20.741-69.06-30.818-126.496 11.671-3.31 20.248-14.055 20.248-26.772v-16.617c14.481-.917 25.984-12.983 25.984-27.692v-13.827c0-13.782-10.099-25.245-23.284-27.39l10.114-22.071c4.75-10.366 7.159-21.405 7.159-32.81v-31.609c.001-14.913-12.132-27.046-27.045-27.046h-67.943c-14.913 0-27.046 12.133-27.046 27.046v19.97c0 4.701-3.824 8.525-8.524 8.525h-44.645c-4.701 0-8.525-3.824-8.525-8.525v-19.97c0-14.913-12.133-27.046-27.046-27.046h-23.585c-4.142 0-7.5 3.358-7.5 7.5s3.358 7.5 7.5 7.5h23.585c6.642 0 12.046 5.404 12.046 12.046v19.97c0 12.972 10.553 23.525 23.525 23.525h44.645c12.972 0 23.524-10.553 23.524-23.525v-19.97c0-6.642 5.403-12.046 12.046-12.046h67.943c6.643 0 12.046 5.404 12.046 12.046v31.608c0 9.233-1.95 18.169-5.796 26.561l-12.809 27.955h-238.553l-12.81-27.955c-3.846-8.393-5.796-17.33-5.796-26.561v-31.608c0-6.642 5.404-12.046 12.046-12.046h8.863c4.142 0 7.5-3.358 7.5-7.5s-3.358-7.5-7.5-7.5h-8.863c-14.913 0-27.046 12.133-27.046 27.046v31.608c0 11.404 2.409 22.442 7.159 32.81l10.114 22.071c-13.186 2.145-23.285 13.608-23.285 27.39v13.827c0 14.709 11.503 26.776 25.985 27.692v16.617c0 12.717 8.577 23.462 20.248 26.772-10.077 57.436-23.514 103.581-30.818 126.496-4.441 13.931-3.599 28.974 2.37 42.359l8.278 18.561h-5.253c-12.78 0-23.177 10.397-23.177 23.177v15.163c-13.137 1.944-24.133 11.54-27.612 24.671l-2.049 7.735c-3.748 14.147 6.906 28.005 21.55 28.005h261.404c4.143 0 7.5-3.358 7.5-7.5s-3.357-7.5-7.5-7.5h-261.404c-4.787 0-8.278-4.53-7.05-9.162l2.049-7.735c2.165-8.173 9.583-13.881 18.038-13.881h312.67c8.455 0 15.872 5.708 18.038 13.881l2.05 7.735c1.225 4.628-2.26 9.162-7.051 9.162h-41.503c-4.142 0-7.5 3.358-7.5 7.5s3.358 7.5 7.5 7.5h41.503c6.975 0 13.414-3.17 17.668-8.697 4.253-5.527 5.669-12.564 3.883-19.306zm-322.062-316.49c-7.033 0-12.755-5.722-12.755-12.755v-13.827c0-7.033 5.722-12.755 12.755-12.755.396 0 7.531 0 7.091 0 .106 0 260.517.003 255.187 0 7.033 0 12.755 5.722 12.755 12.755v13.827c0 7.033-5.722 12.755-12.755 12.755zm13.23 31.555v-16.555h235.818v16.555c0 7.075-5.756 12.831-12.83 12.831h-210.158c-7.074 0-12.83-5.756-12.83-12.831zm-11.278 157.824c7.485-23.485 21.313-70.974 31.572-129.993h195.232c10.258 59.019 24.086 106.508 31.572 129.993 3.321 10.42 2.69 21.676-1.778 31.694l-11.002 24.671h-232.816l-11.003-24.671c-4.467-10.019-5.099-21.275-1.777-31.694zm275.448 94.335h-292.522v-14.793c0-4.509 3.668-8.177 8.177-8.177.509 0 262.456.004 276.169 0 4.509 0 8.177 3.668 8.177 8.177v14.793zm-221.549-123.532c4.142 0 7.5-3.358 7.5-7.5 0-3.455 2.811-6.265 6.265-6.265 3.455 0 6.265 2.811 6.265 6.265 0 4.142 3.358 7.5 7.5 7.5s7.5-3.358 7.5-7.5c0-11.726-9.54-21.265-21.265-21.265s-21.265 9.54-21.265 21.265c0 4.142 3.358 7.5 7.5 7.5z"/></svg>