<svg id="Capa_1" enable-background="new 0 0 512 512" height="512" viewBox="0 0 512 512" width="512" xmlns="http://www.w3.org/2000/svg"><path d="m177.325 353.909c4.143 0 7.5-3.358 7.5-7.5v-12c0-4.142-3.357-7.5-7.5-7.5s-7.5 3.358-7.5 7.5v12c0 4.142 3.357 7.5 7.5 7.5zm269.598 130.088-2.05-7.736c-3.907-14.743-17.287-25.039-32.538-25.039h-1.994l1.885-8.063c3.255-13.923-6.113-27.528-20.052-29.625 9.867-23.718.646-52.837-8.331-81.14-8.321-26.237-16.903-53.308-9.703-74.428h14.807c14.984 0 27.176-12.191 27.176-27.175v-2.559c0-14.278-11.072-26.012-25.079-27.087 2.164-4.776 2.812-10.143 1.755-15.416-3.901-19.474-21.15-33.609-41.01-33.609h-3.118c8.546-22.673 3.349-48.552-10.556-69.611-2.282-3.457-6.937-4.408-10.392-2.126-3.456 2.282-4.408 6.935-2.126 10.392 12.225 18.515 16.778 41.941 6.668 61.345h-152.53c-8.347-16.019-6.641-34.816.914-51.064l10.158 10.158c9.8 9.8 26.193 10.179 36.015-.016 9.382-9.742 9.232-25.45-.335-35.015l-12.08-12.081c12.81-7.64 27.165-11.672 41.593-11.672 16.118 0 31.968 4.969 45.834 14.37 3.431 2.324 8.093 1.429 10.417-2s1.429-8.092-1.999-10.416c-5.623-3.812-11.534-6.99-17.641-9.541.943-3.102 1.439-6.323 1.439-9.573 0-19.448-17.07-35.27-38.05-35.27s-38.05 15.822-38.05 35.271c0 3.253.496 6.476 1.441 9.581-4.76 1.985-9.4 4.346-13.867 7.095-7.738 4.762-8.985 15.503-2.564 21.922l12.922 12.922c3.826 3.826 3.888 10.107.137 14.003-3.893 4.041-10.64 3.78-14.604-.185l-11.093-11.093c-6.809-6.809-18.354-4.915-22.573 3.745-8.897 18.262-11.67 39.622-4.419 58.86h-3.118c-19.86 0-37.108 14.135-41.01 33.609-1.056 5.273-.409 10.639 1.755 15.415-14.008 1.075-25.079 12.808-25.079 27.087v2.559c0 14.984 12.191 27.175 27.176 27.175h14.807c7.2 21.12-1.382 48.191-9.703 74.428-8.976 28.303-18.198 57.422-8.331 81.14-13.918 2.094-23.313 15.676-20.052 29.625l1.885 8.063h-1.994c-15.251 0-28.631 10.296-32.538 25.04l-2.05 7.736c-3.748 14.144 6.906 28.002 21.55 28.002h47.638c4.143 0 7.5-3.358 7.5-7.5s-3.357-7.5-7.5-7.5h-47.638c-4.788 0-8.277-4.53-7.051-9.162l2.05-7.735c2.166-8.173 9.583-13.882 18.038-13.882 1.452 0 310.146.003 312.67 0 8.455 0 15.872 5.708 18.038 13.881l2.05 7.735c1.225 4.628-2.26 9.162-7.051 9.162h-254.845c-4.143 0-7.5 3.358-7.5 7.5s3.357 7.5 7.5 7.5h254.845c14.633.001 25.301-13.847 21.551-28.002zm-190.923-468.997c12.71 0 23.05 9.093 23.05 20.271 0 1.67-.231 3.3-.679 4.88-7.317-1.791-14.814-2.72-22.371-2.72-7.531 0-15.037.927-22.37 2.725-.448-1.582-.68-3.212-.68-4.885 0-11.178 10.34-20.271 23.05-20.271zm-122.091 173.676c2.503-12.491 13.564-21.556 26.303-21.556 23.596.001 174.146 0 191.576 0 12.738 0 23.8 9.066 26.303 21.556 1.284 6.408-3.621 12.38-10.146 12.38h-223.889c-6.535 0-11.429-5.982-10.147-12.38zm-10.855 54.289c-6.714 0-12.176-5.462-12.176-12.175v-2.559c0-6.713 5.462-12.175 12.176-12.175h265.893c6.714 0 12.176 5.462 12.176 12.175v2.559c0 6.713-5.462 12.175-12.176 12.175zm19.402 93.963c8.51-26.832 17.265-54.458 11.051-78.963h204.987c-6.214 24.504 2.541 52.131 11.051 78.963 9.315 29.369 18.12 57.181 5.89 76.323h-238.869c-12.23-19.143-3.425-46.954 5.89-76.323zm255.164 102.816-2.683 11.477h-277.874l-2.683-11.477c-1.374-5.88 3.091-11.493 9.117-11.493.122 0 266.288.001 265.006 0 6.038 0 10.488 5.626 9.117 11.493zm-141.62-56.657c13.191 0 23.923-11.608 23.923-25.877s-10.731-25.877-23.923-25.877c-13.191 0-23.923 11.608-23.923 25.877 0 14.268 10.731 25.877 23.923 25.877zm0-36.754c4.92 0 8.923 4.879 8.923 10.877 0 5.997-4.003 10.877-8.923 10.877s-8.923-4.879-8.923-10.877 4.003-10.877 8.923-10.877zm78.675 7.576c4.143 0 7.5-3.358 7.5-7.5v-12c0-4.142-3.357-7.5-7.5-7.5s-7.5 3.358-7.5 7.5v12c0 4.142 3.357 7.5 7.5 7.5z"/></svg>