<svg id="Capa_1" enable-background="new 0 0 512 512" height="512" viewBox="0 0 512 512" width="512" xmlns="http://www.w3.org/2000/svg"><path d="m467.778 220.264c-33.469-44.587-79.383-94.584-112.418-127.771 1.882-7.835 2.814-16.948 2.814-27.727-.001-36.317-18.138-64.766-41.292-64.766-7.866 0-16.847 4.259-25.625 12.067-31.164-8.196-60.595-10.716-87.553-7.517-4.754-2.931-9.962-4.55-15.457-4.55-9.336 0-20.196 6.008-30.185 16.437-19.283 8.132-36.81 20.063-52.111 35.501-2.916 2.942-2.895 7.69.048 10.606 2.932 2.906 7.681 2.904 10.606-.048 7.272-7.338 15.091-13.798 23.389-19.351-13.486 29.5-7.026 56.697 8.306 72.135-3.851 5.793-7.425 11.864-10.77 18.161h-26.156c-4.143 0-7.5 3.358-7.5 7.5s3.357 7.5 7.5 7.5h18.828c-3.695 8.258-7.028 16.87-10.044 25.781h-21.81c-4.142 0-7.5 3.358-7.5 7.5s3.358 7.5 7.5 7.5h17.106c-2.421 8.37-4.59 16.974-6.535 25.78h-17.944c-4.143 0-7.5 3.358-7.5 7.5s3.357 7.5 7.5 7.5h14.875c-5.741 30.487-9.066 63.094-10.905 96.67-18.808-29.492-29.85-66.832-31.457-107.347-1.868-47.07 9.632-94.217 31.55-129.353 2.192-3.515 1.121-8.141-2.394-10.333-3.516-2.193-8.141-1.121-10.333 2.394-23.817 38.181-35.825 87.15-33.812 137.888 2.016 50.82 18.108 97.177 45.371 130.934-.72 20.633-.977 41.518-.979 62.398h-5.928c-12.779 0-23.177 10.397-23.177 23.177v15.163c-13.138 1.944-24.132 11.54-27.611 24.671l-2.05 7.736c-3.747 14.142 6.908 28 21.55 28h264.935c4.143 0 7.5-3.358 7.5-7.5s-3.357-7.5-7.5-7.5h-264.935c-4.787 0-8.278-4.53-7.05-9.162l2.05-7.736c2.165-8.173 9.582-13.881 18.037-13.881h312.671c8.455 0 15.872 5.708 18.037 13.881l2.05 7.736c1.227 4.628-2.258 9.162-7.051 9.162h-37.766c-4.143 0-7.5 3.358-7.5 7.5s3.357 7.5 7.5 7.5h37.766c14.634 0 25.302-13.846 21.551-28.003l-2.05-7.735c-3.479-13.13-14.474-22.727-27.611-24.671v-15.163c0-12.78-10.397-23.177-23.177-23.177h-8.509c-1.061-28.985-7.766-68.747-19.664-100.034 13.479 2.236 24.506 5.066 34.075 8.713 27.658 10.542 59.345 3.684 80.721-17.471 4.261-4.216 8.573-8.486 12.761-12.637 19.279-19.107 21.542-49.87 5.262-71.558zm-150.896-205.264c8.452 0 14.551 8.198 17.435 13.084 8.856 15.008 10.129 34.912 7.977 52.337-10.398-8.443-22.006-15.208-34.426-20.093l3.66-8.475c4.708-10.903 2.298-23.555-6.097-31.965 4.895-3.512 8.919-4.888 11.451-4.888zm-28.347 11.854c8.244 2.202 12.605 11.219 9.222 19.052l-4.197 9.72c-21.491-5.693-43.65-5.73-64.467-.569-1.322-14.364-5.545-27.055-11.739-36.624 22.136-1.119 46.008 1.696 71.181 8.421zm74.597 401.397c4.509 0 8.177 3.668 8.177 8.177v14.793h-292.523v-14.793c0-4.509 3.668-8.177 8.177-8.177zm88.824-147.083c-4.184 4.148-8.495 8.416-12.752 12.629-17.207 17.027-42.652 22.569-64.828 14.116-45.364-17.29-103.544-11.875-149.14-24.322-4-1.09-8.12 1.263-9.211 5.26-1.091 3.996 1.265 8.12 5.26 9.21 29.921 8.167 63.87 8.983 96.515 12.787 11.675 27.034 20.565 68.913 21.821 102.402h-231.73c.011-110.072 7.044-220.054 52.444-288.983 2.764 1.489 5.577 2.68 8.361 3.575 3.953 1.269 8.17-.908 9.435-4.844 1.269-3.943-.9-8.168-4.844-9.436-6.013-1.933-25.629-10.486-25.629-39.369 0-29.479 27.829-59.193 40.588-59.193 13.946 0 26.377 22.934 26.289 49.988.094 4.722-.365 13.14-1.472 19.568-.702 4.082 2.037 7.961 6.119 8.664 4.081.701 7.961-2.037 8.664-6.118.858-4.986 1.39-10.561 1.594-16.623 39.564-11.072 82.579-.026 112.186 29.493.002.002.003.003.005.005.008.008.017.016.025.025 32.846 32.75 80.065 83.897 114.125 129.268 11.805 15.726 10.162 38.038-3.825 51.898zm-214.772-158.515c-4.143 0-7.5 3.358-7.5 7.5v12c0 4.142 3.357 7.5 7.5 7.5s7.5-3.358 7.5-7.5v-12c0-4.142-3.357-7.5-7.5-7.5zm100.421 0c-4.143 0-7.5 3.358-7.5 7.5v12c0 4.142 3.357 7.5 7.5 7.5s7.5-3.358 7.5-7.5v-12c0-4.142-3.358-7.5-7.5-7.5zm80.075 117.661c-5.448-2.763-11.994-3.329-20.146-3.329s-14.697.566-20.146 3.329c-5.04 2.556-11.048 8.133-11.048 20.189 0 18.755 13.993 34.013 31.193 34.013s31.193-15.258 31.193-34.013c.002-12.056-6.006-17.633-11.046-20.189zm-20.145 39.202c-8.929 0-16.193-8.529-16.193-19.013 0-5.907.655-8.518 16.193-8.518s16.193 2.611 16.193 8.518c0 10.484-7.265 19.013-16.193 19.013z"/></svg>