<svg id="Capa_1" enable-background="new 0 0 512 512" height="512" viewBox="0 0 512 512" width="512" xmlns="http://www.w3.org/2000/svg"><path d="m446.922 483.997-2.05-7.735c-3.076-11.61-12.028-20.458-23.142-23.697l2.867-8.556c9.217-27.513-8.285-55.153-34.411-60.804-14.162-47.062-26.074-121.901-27.855-154.985h5.54c13.347 0 25.723-7.215 32.299-18.83 7.783-13.745 6.001-30.948-4.433-42.807-9.042-10.276-21.302-17.016-34.608-19.257 11.463-19.109-2.232-44.002-24.958-44.002h-12.691c9.347-21.241 7.869-45.211-2.599-64.599-1.969-3.646-6.518-5.004-10.163-3.037-3.645 1.968-5.004 6.518-3.037 10.163 9.57 17.725 9.441 39.636-1.024 57.473h-101.315c-22.802-38.864 5.321-88.324 50.658-88.324 10.45 0 20.708 2.779 29.664 8.036 3.571 2.096 8.167.901 10.265-2.671 2.097-3.572.901-8.168-2.671-10.265-11.257-6.607-24.14-10.1-37.258-10.1-53.153 0-88.805 54.863-67.48 103.325h-12.691c-22.716 0-36.428 24.882-24.958 44.002-13.307 2.241-25.566 8.981-34.608 19.257-10.435 11.859-12.216 29.062-4.434 42.807 6.576 11.615 18.952 18.83 32.299 18.83h5.54c-1.781 33.083-13.693 107.923-27.855 154.985-26.153 5.657-43.619 33.318-34.411 60.804l2.867 8.556c-11.114 3.238-20.066 12.087-23.142 23.696l-2.05 7.736c-3.747 14.144 6.907 28.002 21.551 28.002h44.824c4.142 0 7.5-3.358 7.5-7.5s-3.358-7.5-7.5-7.5h-44.824c-4.789 0-8.277-4.531-7.05-9.162l2.05-7.736c2.165-8.173 9.583-13.881 18.038-13.881.101 0 .844 0 .743 0 22.848 0 330.945.004 311.927 0 8.455 0 15.872 5.708 18.038 13.881l2.05 7.736c1.226 4.628-2.26 9.162-7.05 9.162h-258.36c-4.142 0-7.5 3.358-7.5 7.5s3.358 7.5 7.5 7.5h258.358c14.633 0 25.3-13.848 21.55-28.003zm-271.093-365.672h160.342c7.767 0 14.086 6.319 14.086 14.086s-6.319 14.086-14.086 14.086h-160.342c-7.767 0-14.086-6.319-14.086-14.086s6.319-14.086 14.086-14.086zm-31.701 94.895c-18.997 0-29.148-22.472-16.604-36.727 8.385-9.53 20.475-14.996 33.169-14.996h190.614c12.694 0 24.783 5.466 33.169 14.996 12.549 14.262 2.383 36.727-16.605 36.727zm20.563 15h182.619c1.713 34.65 13.841 107.711 26.939 153.892h-236.497c13.098-46.182 25.226-119.242 26.939-153.892zm245.683 211.023-4.013 11.978h-300.723l-4.013-11.978c-6.948-20.739 8.452-42.132 30.319-42.132h248.111c21.872 0 37.266 21.398 30.319 42.132zm-91.925-134.84c-4.142 0-7.5 3.358-7.5 7.5v12c0 4.142 3.358 7.5 7.5 7.5s7.5-3.358 7.5-7.5v-12c0-4.142-3.358-7.5-7.5-7.5zm-124.898 0c-4.142 0-7.5 3.358-7.5 7.5v12c0 4.142 3.358 7.5 7.5 7.5s7.5-3.358 7.5-7.5v-12c0-4.142-3.358-7.5-7.5-7.5zm83.841 13.488c-3.124-2.721-7.861-2.396-10.582.727-2.729 3.132-6.669 4.928-10.81 4.928s-8.081-1.796-10.81-4.928c-2.722-3.123-7.459-3.447-10.582-.727-3.122 2.722-3.448 7.459-.727 10.582 5.579 6.401 13.641 10.073 22.119 10.073s16.54-3.671 22.119-10.073c2.721-3.123 2.395-7.86-.727-10.582z"/></svg>