<svg id="Capa_1" enable-background="new 0 0 512.003 512.003" height="512" viewBox="0 0 512.003 512.003" width="512" xmlns="http://www.w3.org/2000/svg"><path d="m511.411 477.511-2.963-13.004c-3.107-13.631-15.04-23.151-29.021-23.151h-.088c-9.504-33.222-18.032-76.56-20.786-97.953 19.373-1.999 34.534-18.416 34.534-38.309 0-19.234-14.172-35.219-32.622-38.064 2.747-15.13.965-30.595-5.161-44.635v-150.351c0-36.411-29.622-66.034-66.033-66.034h-267.641c-4.142 0-7.5 3.358-7.5 7.5s3.358 7.5 7.5 7.5h267.64c28.14 0 51.033 22.894 51.033 51.034v127.833c-6.243-6.536-13.609-11.985-21.799-16.02v-111.814c0-16.12-13.114-29.234-29.234-29.234-13.762 0-310.609 0-323.237 0-16.12 0-29.234 13.114-29.234 29.234v323.237c0 16.12 13.114 29.234 29.234 29.234h228.13c-1.471 5.792-2.989 11.446-4.532 16.841-.405.061-8.456-.456-16.603 4.958h-206.995c-28.14 0-51.033-22.893-51.033-51.033v-323.236c0-28.14 22.893-51.034 51.033-51.034h20.15c4.142 0 7.5-3.358 7.5-7.5s-3.358-7.5-7.5-7.5h-20.15c-36.411 0-66.033 29.623-66.033 66.034v323.237c0 36.411 29.622 66.033 66.033 66.033h195.427c-1.07 3.087-.941 3.529-3.9 16.197-3.328 14.603 7.776 28.482 22.722 28.482h155.005c4.142 0 7.5-3.358 7.5-7.5s-3.358-7.5-7.5-7.5h-155.006c-5.337 0-9.28-4.956-8.097-10.149l2.963-13.004c1.541-6.762 7.461-11.484 14.396-11.484h189.883c6.935 0 12.854 4.723 14.396 11.484l2.963 13.004c1.186 5.203-2.771 10.149-8.097 10.149h-17.286c-4.142 0-7.5 3.358-7.5 7.5s3.358 7.5 7.5 7.5h17.286c14.979 0 26.044-13.911 22.723-28.482zm-382.936-67.996h-62.442c-7.849 0-14.234-6.386-14.234-14.234v-62.442h76.676zm0-91.676h-76.676v-76.677h76.676zm0-91.677h-76.676v-76.676h76.676zm0-91.676h-76.676v-62.443c0-7.849 6.386-14.234 14.234-14.234h62.442zm91.676 275.029h-76.676v-76.676h76.676zm0-91.676h-76.676v-76.677h76.676zm0-91.677h-76.676v-76.676h76.676zm0-91.676h-76.676v-76.677h76.676zm106.677-76.677h62.442c7.849 0 14.234 6.385 14.234 14.234v62.442h-76.676zm0 91.677h76.676v28.829c-27.324-6.946-56.988 1.447-76.676 23.545zm57.657 41.453c39.409 0 69.367 36.527 60.774 75.64h-121.548c-8.591-39.107 21.358-75.64 60.774-75.64zm70.086 90.64c12.966 0 23.515 10.549 23.515 23.515s-10.549 23.515-23.515 23.515h-140.172c-12.966 0-23.515-10.549-23.515-23.515s10.549-23.515 23.515-23.515zm-219.42-223.77h76.677v76.676h-76.677zm0 91.677h76.677v76.676h-76.677zm0 91.676h73.039c-1.35 8.605-1.245 17.283.317 25.868-18.451 2.844-32.624 18.83-32.624 38.064 0 4.466.772 8.753 2.177 12.745h-42.909zm0 168.353v-76.676h52.575c6.027 5.796 13.924 9.66 22.691 10.564-1.925 14.959-6.675 40.647-12.607 66.112zm70.066 31.841c9.557-34.43 17.738-76.784 20.285-97.747h117.965c2.547 20.963 10.728 63.317 20.286 97.747z"/></svg>