<svg id="Capa_1" enable-background="new 0 0 512 512" height="512" viewBox="0 0 512 512" width="512" xmlns="http://www.w3.org/2000/svg"><path d="m142.712 373.092c31.535 0 57.191-25.656 57.191-57.19 0-31.535-25.656-57.191-57.191-57.191s-57.191 25.656-57.191 57.191c0 31.534 25.656 57.19 57.191 57.19zm0-99.382c23.264 0 42.191 18.927 42.191 42.191s-18.927 42.19-42.191 42.19-42.191-18.927-42.191-42.19c0-23.264 18.927-42.191 42.191-42.191zm350.665-138.563c-3.535-2.153-8.151-1.032-10.306 2.507-2.154 3.538-1.031 8.152 2.507 10.306 7.152 4.353 11.422 11.942 11.422 20.301v14.529c0 6.795-5.528 12.323-12.323 12.323h-457.354c-6.795 0-12.323-5.528-12.323-12.323v-14.529c0-13.093 10.651-23.744 23.744-23.744h415.638c4.143 0 7.5-3.358 7.5-7.5s-3.357-7.5-7.5-7.5h-48.354v-18.18h12.101c16.423 0 27.841-16.389 22.158-31.794-9.513-25.782-34.367-43.104-61.848-43.104h-18.3c-27.48 0-52.336 17.322-61.849 43.104-5.684 15.408 5.738 31.794 22.158 31.794h12.101v18.18h-153.098v-18.18h12.101c16.423 0 27.842-16.39 22.158-31.794-9.512-25.782-34.367-43.104-61.848-43.104h-18.3c-27.481 0-52.336 17.322-61.848 43.104-5.685 15.407 5.738 31.794 22.158 31.794h12.101v18.18h-67.229c-21.364 0-38.744 17.381-38.744 38.744v14.529c0 13.218 9.435 24.271 21.924 26.785v166.203c0 4.142 3.358 7.5 7.5 7.5s7.5-3.358 7.5-7.5v-165.665h438.152v179.125c0 17.893-14.558 32.451-32.451 32.451h-373.25c-11.286 0-21.592-5.728-27.569-15.322-2.189-3.516-6.815-4.589-10.331-2.4-3.516 2.19-4.591 6.815-2.4 10.331 8.17 13.116 21.883 21.285 37.127 22.284v17.465c0 11.863 9.651 21.514 21.513 21.514h29.638c11.862 0 21.513-9.651 21.513-21.514v-17.357h234.268v17.358c0 11.863 9.651 21.514 21.514 21.514h29.638c11.862 0 21.514-9.651 21.514-21.514v-17.476c24.689-1.64 44.277-22.236 44.277-47.333v-179.664c12.488-2.514 21.923-13.567 21.923-26.785v-14.529c0-13.637-6.962-26.016-18.623-33.114zm-102.35-5.63h-43.479v-18.18h43.479zm-70.579-33.18c-5.983 0-10.171-5.949-8.086-11.602 7.349-19.916 26.549-33.296 47.776-33.296h18.3c21.227 0 40.427 13.381 47.775 33.296 2.07 5.612-2.058 11.602-8.086 11.602zm-155.997 33.18h-43.478v-18.18h43.478zm-70.579-33.18c-5.999 0-10.167-5.962-8.086-11.602 7.348-19.916 26.548-33.296 47.776-33.296h18.3c21.228 0 40.428 13.381 47.776 33.296 2.071 5.612-2.058 11.602-8.086 11.602zm29.994 357.711c0 3.592-2.922 6.514-6.513 6.514h-29.638c-3.591 0-6.513-2.922-6.513-6.514v-17.358h42.664zm306.933 0c0 3.592-2.922 6.514-6.514 6.514h-29.638c-3.592 0-6.514-2.922-6.514-6.514v-17.358h42.665v17.358zm27.642-138.147c0-49.159-39.994-89.153-89.153-89.153s-89.153 39.994-89.153 89.153 39.994 89.153 89.153 89.153 89.153-39.994 89.153-89.153zm-163.306 0c0-40.888 33.265-74.153 74.153-74.153s74.153 33.265 74.153 74.153-33.265 74.153-74.153 74.153-74.153-33.264-74.153-74.153zm81.653 0v-11.346c0-4.142-3.357-7.5-7.5-7.5s-7.5 3.358-7.5 7.5v8.24l-10.585 10.585c-2.929 2.929-2.929 7.678 0 10.606 2.93 2.929 7.678 2.929 10.607 0l12.781-12.781c1.407-1.407 2.197-3.314 2.197-5.304zm49.69 0c0-31.535-25.655-57.191-57.19-57.191s-57.19 25.656-57.19 57.191 25.655 57.19 57.19 57.19c31.535.001 57.19-25.655 57.19-57.19zm-99.38 0c0-23.264 18.927-42.191 42.19-42.191 23.264 0 42.19 18.927 42.19 42.191s-18.927 42.19-42.19 42.19c-23.264.001-42.19-18.926-42.19-42.19zm-184.386 89.154c49.159 0 89.153-39.994 89.153-89.153s-39.994-89.153-89.153-89.153-89.153 39.994-89.153 89.153c0 49.158 39.994 89.153 89.153 89.153zm0-163.307c40.888 0 74.153 33.265 74.153 74.153s-33.265 74.153-74.153 74.153-74.153-33.265-74.153-74.153 33.265-74.153 74.153-74.153zm-11.346 81.653h11.346c1.989 0 3.897-.79 5.303-2.197l12.781-12.781c2.929-2.929 2.929-7.678 0-10.606-2.929-2.929-7.678-2.929-10.606 0l-10.584 10.585h-8.24c-4.142 0-7.5 3.358-7.5 7.5s3.358 7.499 7.5 7.499z"/></svg>