<svg id="Capa_1" enable-background="new 0 0 512.002 512.002" height="512" viewBox="0 0 512.002 512.002" width="512" xmlns="http://www.w3.org/2000/svg"><path d="m236.407 99.343h39.189c4.143 0 7.5-3.358 7.5-7.5s-3.357-7.5-7.5-7.5h-39.189c-4.143 0-7.5 3.358-7.5 7.5s3.357 7.5 7.5 7.5zm19.595-47.778c4.007 0 7.255-3.248 7.255-7.255s-3.248-7.255-7.255-7.255-7.255 3.248-7.255 7.255 3.248 7.255 7.255 7.255zm190.876 83.321c-4.143 0-7.5 3.358-7.5 7.5v304.088c0 27.861-22.667 50.528-50.528 50.528h-246.666c-4.143 0-7.5 3.358-7.5 7.5s3.357 7.5 7.5 7.5h246.665c36.133 0 65.528-29.396 65.528-65.528v-304.088c.001-4.142-3.357-7.5-7.499-7.5zm-272.987-42.358h-45.174c-20.337 0-36.883 16.545-36.883 36.883v311.5c0 20.337 16.546 36.883 36.883 36.883h254.568c20.337 0 36.883-16.545 36.883-36.883v-311.5c0-20.337-16.546-36.883-36.883-36.883h-45.173c-.032-18.191.066-17.302-.081-19.209h50.817c22.261 0 41.654 14.266 48.259 35.5.999 3.214 3.961 5.274 7.159 5.274.737 0 1.488-.11 2.229-.34 3.955-1.23 6.164-5.434 4.934-9.389-8.565-27.541-33.715-46.045-62.581-46.045h-57.427c-4.526-4.839-10.96-7.872-18.093-7.872h-13.444c3.544-25.366-15.044-47.674-39.128-50.196-28.862-3.031-52.603 21.769-48.636 50.197h-13.445c-7.132 0-13.566 3.033-18.092 7.872h-57.429c-36.133 0-65.528 29.396-65.528 65.528v322.626c0 29.058 18.663 54.256 46.441 62.703 3.956 1.204 8.15-1.026 9.357-4.994 1.205-3.963-1.031-8.153-4.994-9.358-21.415-6.512-35.804-25.943-35.804-48.351v-322.626c0-27.861 22.667-50.528 50.528-50.528h50.819c-.15 1.938-.05 1.221-.082 19.208zm15-17.296c0-5.395 4.389-9.784 9.783-9.784h17.813c7.41 0 12.834-6.944 11.062-14.102-4.822-19.471 11.024-38.328 31.644-36.177 17.168 1.799 29.618 18.623 25.255 36.197-1.779 7.151 3.671 14.082 11.068 14.082h17.811c5.395 0 9.784 4.389 9.784 9.784 0 1.045 0 33.327 0 33.222 0 5.394-4.39 9.784-9.784 9.784h-114.652c-5.395 0-9.783-4.389-9.783-9.784v-33.222zm9.784 58.005h114.654c13.666 0 24.784-11.118 24.784-24.784v-.925h45.173c12.066 0 21.883 9.816 21.883 21.883v311.5c0 12.066-9.816 21.883-21.883 21.883h-254.569c-12.066 0-21.883-9.816-21.883-21.883v-311.5c0-12.066 9.816-21.883 21.883-21.883h45.174v.925c0 13.666 11.118 24.784 24.784 24.784zm-67.254 55.786c0 21.447 17.448 38.896 38.896 38.896 8.018 0 15.476-2.44 21.674-6.615l22.786 22.785c-7.779 10.446-11.452 23.603-9.726 37.156-11.586 3.042-20.158 13.602-20.158 26.13 0 12.966 9.184 23.824 21.388 26.42-1.948 13.554-6.727 37.437-12.09 56.637-9.189.871-16.804 7.457-18.894 16.624l-1.864 8.182c-2.49 10.931 5.82 21.319 17.008 21.319h131.125c11.209 0 19.493-10.409 17.008-21.32l-1.864-8.182c-2.09-9.167-9.706-15.753-18.894-16.624-5.363-19.2-10.142-43.083-12.09-56.637 12.204-2.596 21.388-13.454 21.388-26.42 0-12.527-8.572-23.087-20.158-26.13 1.721-13.497-1.916-26.668-9.726-37.157l22.785-22.785c25.522 17.192 60.57-1.022 60.57-32.281 0-21.447-17.448-38.895-38.896-38.895-21.447 0-38.895 17.448-38.895 38.895 0 8.018 2.44 15.476 6.615 21.674l-22.785 22.785c-17.886-13.319-42.783-13.743-61.238 0l-22.785-22.785c4.175-6.197 6.615-13.656 6.615-21.674 0-21.447-17.449-38.895-38.896-38.895-21.451.002-38.899 17.45-38.899 38.897zm210.266-23.895c13.176 0 23.896 10.719 23.896 23.895s-10.72 23.896-23.896 23.896-23.895-10.719-23.895-23.896 10.719-23.895 23.895-23.895zm-25.95 240.199c3.057 0 5.666 2.082 6.346 5.063l1.864 8.181c.349 1.532-.811 2.987-2.383 2.987h-131.125c-1.568 0-2.733-1.453-2.383-2.987l1.864-8.181c.68-2.981 3.289-5.063 6.347-5.063.175.001-2.267.001 119.47 0zm-105.974-15c5.056-18.998 9.721-42.182 11.582-55.938h69.313c1.861 13.756 6.527 36.94 11.582 55.938zm90.335-94.965c6.624 0 12.014 5.389 12.014 12.014 0 6.624-5.39 12.014-12.014 12.014h-88.193c-6.624 0-12.014-5.389-12.014-12.014s5.39-12.014 12.014-12.014c4.209.001 92.633.001 88.193 0zm-44.096-57.028c22.296 0 39.38 19.947 35.933 42.028h-71.866c-3.446-22.091 13.648-42.028 35.933-42.028zm-61.789-49.311c0 13.176-10.72 23.896-23.896 23.896s-23.896-10.719-23.896-23.896 10.72-23.895 23.896-23.895 23.896 10.719 23.896 23.895z"/></svg>