<svg id="Capa_1" enable-background="new 0 0 512 512" height="512" viewBox="0 0 512 512" width="512" xmlns="http://www.w3.org/2000/svg"><path d="m381.574 146.679c-1.808-.266-3.315-1.291-4.031-2.741-9.049-18.326-24.549-32.464-43.314-39.838 5.727-16.757-4.46-34.595-21.439-38.5 4.991-34.694-21.995-65.6-56.79-65.6-34.775 0-61.783 30.882-56.79 65.601-16.987 3.907-27.164 21.75-21.439 38.5-18.765 7.374-34.265 21.512-43.314 39.838-.716 1.451-2.223 2.475-4.032 2.741-6.423.943-12.764 2.553-18.847 4.784-3.889 1.426-5.886 5.735-4.459 9.624 1.429 3.897 5.744 5.883 9.623 4.46 5.12-1.877 10.456-3.232 15.862-4.026 6.684-.981 12.404-5.071 15.303-10.941 7.888-15.975 21.776-28.049 38.498-33.662 3.961 3.447 8.839 5.86 14.217 6.823-2.154 15.438-7.792 43.76-14.105 66.193-10.318.674-18.947 7.941-21.275 18.156l-2.12 9.302c-2.685 11.784 6.275 22.984 18.335 22.984h149.085c12.087 0 21.015-11.225 18.336-22.984l-2.12-9.302c-2.328-10.215-10.957-17.482-21.275-18.156-6.312-22.431-11.95-50.754-14.104-66.193 5.378-.963 10.256-3.376 14.217-6.823 16.722 5.614 30.61 17.687 38.498 33.663 2.899 5.869 8.619 9.959 15.302 10.94 39.221 5.76 68.441 39.561 68.441 79.322 0 30.61-17.828 58.983-45.419 72.286-6.986 3.368-11.874 9.625-13.408 17.166-1.985 9.754-5.737 18.952-11.15 27.34-2.246 3.48-1.246 8.122 2.235 10.369 3.474 2.241 8.118 1.252 10.369-2.235 6.43-9.962 10.886-20.891 13.246-32.483.592-2.909 2.495-5.331 5.223-6.646 32.312-15.578 53.905-48.467 53.905-85.797-.002-47.25-34.726-87.331-81.264-94.165zm-125.574-131.679c26.156 0 46.37 23.678 41.723 49.839h-83.445c-4.647-26.166 15.569-49.839 41.722-49.839zm67.917 189.866c3.958 0 7.337 2.695 8.216 6.555l2.12 9.301c.543 2.386-1.265 4.652-3.711 4.652h-149.084c-2.441 0-4.255-2.262-3.71-4.651l2.12-9.302c.879-3.86 4.258-6.555 8.216-6.555zm-121.829-15c5.984-22.21 11.55-49.889 13.611-65.653h80.602c2.06 15.765 7.627 43.444 13.611 65.653zm104.048-80.654h-100.272c-8.098 0-14.687-6.588-14.687-14.687 0-8.098 6.588-14.687 14.687-14.687 6.514 0 106.689.002 100.272 0 8.098 0 14.687 6.588 14.687 14.687s-6.589 14.687-14.687 14.687zm48.874 271.669c-26.633 17.85-61.575 18.09-88.491.427-6.39-4.194-14.648-4.193-21.038 0-47.251 31.009-111.255 4.189-122.49-51.013-1.535-7.541-6.422-13.798-13.408-17.166-27.591-13.302-45.419-41.676-45.419-72.286 0-22.081 8.788-42.652 24.747-57.924 2.993-2.864 3.097-7.611.233-10.604s-7.612-3.097-10.604-.233c-18.943 18.128-29.376 42.548-29.376 68.761 0 37.328 21.591 70.218 53.906 85.797 2.728 1.315 4.631 3.737 5.223 6.646 7.795 38.301 38.409 67.469 75.848 74.488 5.401 14.444 15.539 26.571 28.487 34.986l4.668 41.993c1.725 15.534 14.812 27.247 30.441 27.247h16.525c15.629 0 28.717-11.713 30.443-27.247l4.668-41.993c12.936-8.407 23.067-20.519 28.472-34.946 12.653-2.34 24.708-7.229 35.516-14.472 3.44-2.306 4.36-6.965 2.054-10.406s-6.963-4.361-10.405-2.055zm-75.213 102.216c-.881 7.926-7.559 13.903-15.535 13.903h-16.525c-7.976 0-14.654-5.977-15.535-13.904l-3.599-32.382c17.631 6.401 37.139 6.409 54.794 0zm-23.797-42.579c-23.418 0-44.47-12.367-54.677-31.116 18.769.054 36.868-5.368 52.388-15.553 1.391-.912 3.187-.913 4.578 0 15.476 10.157 33.573 15.608 52.387 15.554-10.207 18.748-31.258 31.115-54.676 31.115zm-145.146-191.304c11.173 0 20.263 9.09 20.263 20.263 0 4.142 3.358 7.5 7.5 7.5s7.5-3.358 7.5-7.5c0-19.444-15.819-35.263-35.263-35.263-4.142 0-7.5 3.358-7.5 7.5s3.357 7.5 7.5 7.5zm270.029 20.263c0-11.173 9.09-20.263 20.263-20.263 4.142 0 7.5-3.358 7.5-7.5s-3.358-7.5-7.5-7.5c-19.444 0-35.263 15.819-35.263 35.263 0 4.142 3.358 7.5 7.5 7.5s7.5-3.358 7.5-7.5zm-124.883 27.643c8.477 0 16.539-3.671 22.118-10.073 2.722-3.123 2.396-7.86-.726-10.582-3.123-2.722-7.86-2.398-10.582.726-2.73 3.132-6.67 4.928-10.81 4.928s-8.081-1.796-10.811-4.928c-2.722-3.123-7.46-3.448-10.582-.726s-3.448 7.459-.726 10.582c5.58 6.402 13.642 10.073 22.119 10.073zm-54.949-14.643v-12c0-4.142-3.358-7.5-7.5-7.5s-7.5 3.358-7.5 7.5v12c0 4.142 3.358 7.5 7.5 7.5s7.5-3.358 7.5-7.5zm124.898 0v-12c0-4.142-3.358-7.5-7.5-7.5s-7.5 3.358-7.5 7.5v12c0 4.142 3.358 7.5 7.5 7.5s7.5-3.358 7.5-7.5zm-104.714 42.88c0 4.142 3.358 7.5 7.5 7.5 10.898 0 19.765 8.866 19.765 19.764 0 4.142 3.358 7.5 7.5 7.5s7.5-3.358 7.5-7.5c0-10.898 8.866-19.764 19.765-19.764 4.142 0 7.5-3.358 7.5-7.5s-3.358-7.5-7.5-7.5c-11.039 0-20.892 5.17-27.265 13.218-6.373-8.048-16.226-13.218-27.265-13.218-4.142 0-7.5 3.358-7.5 7.5z"/></svg>