<svg id="Capa_1" enable-background="new 0 0 512.003 512.003" height="512" viewBox="0 0 512.003 512.003" width="512" xmlns="http://www.w3.org/2000/svg"><path d="m172.322 205.1h.016c4.135 0 7.491-3.347 7.5-7.484.004-1.753.689-3.399 1.932-4.636 1.239-1.233 2.883-1.912 4.63-1.912h.015c3.619.008 6.557 2.959 6.549 6.577-.009 4.142 3.342 7.507 7.484 7.516h.016c4.135 0 7.491-3.347 7.5-7.484.025-11.889-9.627-21.583-21.516-21.609h-.049c-5.741 0-11.143 2.23-15.212 6.282-4.082 4.064-6.336 9.474-6.349 15.233-.009 4.143 3.342 7.508 7.484 7.517zm339.179 272.8-2.302-10.098c-2.497-10.956-11.845-18.701-22.961-19.231-6.996-24.747-13.248-56.252-15.539-73.003 15.062-2.392 26.613-15.466 26.613-31.191 0-15.186-10.773-27.899-25.077-30.908 3.419-22.258-5.482-44.555-23.529-58.376 24.77-6.934 43.993-27.951 43.993-54.074 0-21.73-14.044-41.667-35.43-51.015-.068-.413-.143-.825-.234-1.236-3.449-15.564-15.875-55.448-56.645-89.547-39.1-32.703-90.927-49.285-154.039-49.285-34.878 0-66.869 5.331-95.087 15.846-3.881 1.446-5.855 5.765-4.409 9.646 1.447 3.882 5.768 5.857 9.647 4.409 26.536-9.888 56.766-14.901 89.849-14.901 59.499 0 108.088 15.407 144.417 45.792 37.235 31.144 48.507 67.222 51.624 81.288 1.248 5.633-3.539 10.712-9.257 9.854-37.57-5.641-82.159-27.433-108.434-52.994-6.357-6.184-16.373-6.648-23.299-1.077-18.595 14.959-52.263 31.197-72.042 36.978-1.167.339-2.318-.53-2.307-1.745.085-10.142 1.114-22.335 2.048-30.362 1.304-11.194-10.51-19.273-20.471-14.01-38.852 20.516-109.723 52.743-153.537 57.867-6.171.719-10.716-5.637-8.279-11.393 11.43-26.975 34.364-64.595 78.72-90.629 3.572-2.097 4.768-6.692 2.671-10.265s-6.691-4.767-10.265-2.672c-47.894 28.112-72.624 68.654-84.937 97.714-1.737 4.099-2.247 8.448-1.604 12.633-19.282 10.013-31.399 28.645-31.399 49.106 0 28.682 23.81 53.12 55.693 56.265 11.22 37.467 36.642 70.763 74.793 94.032-23.575 24.162-39.165 55.256-44.237 88.594-2.56 16.828 10.46 32.048 27.534 32.048h198.668l-1.354 5.941c-2.822 12.391 6.598 24.167 19.279 24.167h114.05c4.143 0 7.5-3.358 7.5-7.5s-3.357-7.5-7.5-7.5h-114.05c-3.061 0-5.337-2.837-4.654-5.833 2.741-11.371 1.891-9.998 3.63-13.256 1.759-2.728 4.801-4.458 8.217-4.458h147.459c4.599 0 8.524 3.131 9.546 7.616l2.302 10.097c.682 2.992-1.586 5.835-4.654 5.835h-11.629c-4.143 0-7.5 3.358-7.5 7.5s3.357 7.5 7.5 7.5h11.629c12.707-.002 22.095-11.803 19.279-24.169zm-459.646-236.352c-21.03-4.305-36.855-20.97-36.855-40.527 0-14.788 9.003-28.361 23.339-35.804 4.176 4.024 9.637 6.288 15.451 6.365-3.123 13.102-4.709 26.584-4.709 40.222-.001 10.121.943 20.059 2.774 29.744zm413.872 86.245c9.146 0 16.586 7.44 16.586 16.586 0 9.145-7.44 16.585-16.586 16.585h-108.855c-9.146 0-16.586-7.44-16.586-16.585s7.44-16.586 16.586-16.586c.67 0 108.932 0 108.855 0zm-11.208-162.505c14.289 7.428 23.181 20.829 23.181 35.732 0 19.559-15.827 36.226-36.86 40.528 1.833-9.724 2.78-19.677 2.78-29.745 0-12.009-1.243-23.917-3.664-35.528 5.986-1.48 11.314-5.312 14.563-10.987zm2.615 147.505h-91.668c-5.481-28.917 16.8-55.389 45.834-55.389 29.076-.001 51.306 26.516 45.834 55.389zm-393.054-100.989c0-14.461 1.96-28.719 5.792-42.461 54.827-10.819 129.411-48.871 144.121-56.557-1.147 10.386-1.866 21.515-1.939 30.119-.094 11.269 10.691 19.436 21.514 16.27 21.076-6.16 56.6-23.085 77.237-39.688 1.025-.826 2.505-.767 3.438.141 27.264 26.524 70.813 48.507 110.217 55.97 2.758 11.777 4.161 23.933 4.161 36.206 0 10.939-1.223 21.719-3.599 32.158-4.416-1.008-9.005-1.558-13.723-1.558-37.789 0-66.663 33.782-60.935 71.067-17.454 3.671-28.703 21.343-24.023 38.996-24.545 9.785-52.031 14.947-79.99 14.947-98.782 0-182.271-63.341-182.271-155.61zm49.703 245.156c-7.866 0-13.887-7.015-12.704-14.792 4.805-31.583 20.028-60.948 43.042-83.257 15.061 7.626 31.322 13.485 48.411 17.444 15.042 35.149 19.77 62.277 20.732 80.605zm114.496 0c-.87-18.073-5.09-44.124-18.152-77.253 11.8 1.784 23.909 2.707 36.223 2.707 12.212 0 24.35-.924 36.233-2.733-13.071 33.141-17.293 59.201-18.163 77.279zm108.081-8.389c-6.908.329-13.129 3.44-17.45 8.388h-39.475c.963-18.337 5.695-45.48 20.753-80.652 11.548-2.678 22.749-6.22 33.425-10.585 4.714 5.133 11.1 8.705 18.286 9.847-2.292 16.753-8.545 48.259-15.539 73.002zm15.575-.051c6.644-24.484 12.856-55.389 15.051-72.557h88.627c2.195 17.166 8.406 48.07 15.051 72.557zm-105.598-191.877h.018c20.649-.01 37.439-18.417 37.429-41.032-.015-27.749-25.305-27.732-37.464-27.73-12.155.006-37.448.019-37.436 27.768.011 22.608 16.81 40.994 37.453 40.994zm-.01-53.762h.124c17.019 0 22.326 1.774 22.332 12.737.007 14.344-10.059 26.018-22.437 26.025h-.01c-12.373 0-22.445-11.663-22.453-26.001-.004-9.723 3.091-12.751 22.444-12.761zm65.696 3.379h.014c4.136 0 7.492-3.349 7.5-7.486l.022-12c.008-4.142-3.344-7.506-7.486-7.514h-.014c-4.136 0-7.492 3.349-7.5 7.486l-.022 12c-.008 4.142 3.344 7.506 7.486 7.514z"/></svg>