<svg id="Capa_1" enable-background="new 0 0 512.008 512.008" height="512" viewBox="0 0 512.008 512.008" width="512" xmlns="http://www.w3.org/2000/svg"><path d="m310.007 285.627c4.142 0 7.5-3.358 7.5-7.5 0-3.532 2.874-6.406 6.406-6.406s6.406 2.874 6.406 6.406c0 4.142 3.358 7.5 7.5 7.5s7.5-3.358 7.5-7.5c0-11.803-9.603-21.406-21.406-21.406s-21.406 9.603-21.406 21.406c0 4.143 3.358 7.5 7.5 7.5zm-119.601.335c4.142 0 7.5-3.358 7.5-7.5v-12c0-4.142-3.358-7.5-7.5-7.5s-7.5 3.358-7.5 7.5v12c0 4.142 3.358 7.5 7.5 7.5zm255.874 109.327c-15.07-15.072-38.504-11.253-53.209 6.315l-24.066-24.066h8.989c15.508 0 26.806-14.675 22.833-29.671l-2.233-8.43c-2.918-11.013-10.781-19.701-20.814-23.944 6.387-20.378-1.26-44.512-8.689-67.95-6.734-21.246-13.678-43.167-9.657-60.743 9.002-3.685 15.362-12.536 15.362-22.849v-9.464c0-13.609-11.072-24.682-24.682-24.682h-16.423c1.806-5.488 2.723-11.293 2.723-17.367 0-11.128-3.117-22.635-9.014-33.276-2.008-3.623-6.572-4.933-10.195-2.925s-4.933 6.572-2.925 10.195c4.667 8.422 7.134 17.414 7.134 26.005 0 6.24-1.323 12.058-3.896 17.367h-123.033c-2.573-5.309-3.896-11.127-3.896-17.367 0-6.238 1.269-12.585 3.775-18.892l6.551 6.551c9.567 9.566 25.277 9.714 35.018.33 10.255-9.879 9.74-26.284.013-36.01l-6.932-6.932c20.865-9.698 44.065-7.495 62.97 5.008 3.454 2.287 8.108 1.337 10.393-2.118s1.336-8.108-2.119-10.393c-4.64-3.069-9.513-5.623-14.543-7.669 9.356-19.808-6.257-42.312-29.714-42.312-23.4 0-39.096 22.463-29.711 42.321-1.788.731-3.564 1.521-5.321 2.387-8.544 4.21-10.333 15.614-3.627 22.319l7.997 7.998c3.928 3.928 4.26 10.677.187 14.601-3.895 3.752-10.178 3.691-14.005-.135l-7.677-7.677c-6.971-6.971-18.797-4.683-22.678 4.393-3.701 8.654-5.577 17.479-5.577 26.231 0 6.074.916 11.879 2.723 17.367h-16.424c-13.609 0-24.682 11.072-24.682 24.682v9.464c0 10.313 6.36 19.164 15.362 22.849 4.021 17.576-2.924 39.497-9.657 60.743-7.428 23.438-15.075 47.573-8.689 67.95-10.033 4.243-17.896 12.931-20.814 23.944l-2.233 8.43c-3.971 14.989 7.319 29.671 22.834 29.671h8.988l-24.071 24.071c-5.372-6.419-12.238-11.336-19.775-13.853-3.93-1.313-8.177.81-9.489 4.738-1.312 3.929.81 8.177 4.738 9.489 9.108 3.042 16.198 11.283 19.267 20.294 4.449 13.062 14.491 23.104 27.552 27.552 16.804 5.723 28.53 25.19 16.382 37.339-8.423 8.423-35.906 13.982-76.335 6.289-5.729-1.09-10.136-5.497-11.227-11.227-4.81-25.275-5.653-57.474 3.307-72.432 2.128-3.553.973-8.16-2.58-10.288-3.553-2.129-8.16-.973-10.288 2.58-15.139 25.274-6.966 73.528-5.174 82.945 2.25 11.819 11.339 20.909 23.158 23.158 25.826 4.915 71.171 8.157 89.746-10.417 15.101-15.101 11.219-38.533-6.315-53.21l67.027-67.027h54.163l67.027 67.027c-17.558 14.696-21.395 38.129-6.315 53.21 18.577 18.577 63.925 15.332 89.745 10.417 11.819-2.249 20.909-11.339 23.158-23.158 4.9-25.748 8.179-71.149-10.418-89.746zm-190.279-380.289c13.502 0 21.88 12.845 14.974 22.907-9.972-1.951-20.051-1.947-29.953-.007-6.908-10.078 1.498-22.9 14.979-22.9zm-103.794 148.951v-9.464c0-5.338 4.343-9.682 9.682-9.682 44.767 0 159.5.001 188.226 0 5.338 0 9.682 4.343 9.682 9.682v9.464c0 5.358-4.367 9.682-9.682 9.682-203.535-.068-187.893.173-190.22-.209-4.386-.922-7.688-4.818-7.688-9.473zm5.004 88.124c6.767-21.35 13.722-43.32 10.929-63.442h175.722c-2.793 20.122 4.162 42.091 10.929 63.442 7.246 22.863 14.112 44.555 8.096 60.577h-213.772c-6.016-16.022.85-37.714 8.096-60.577zm-8.568 184.527c-.852-.345-1.713-.674-2.588-.972-8.622-2.937-15.251-9.566-18.188-18.189-.298-.875-.62-1.74-.966-2.593l37.31-37.31h43.496zm-14.634-74.064c-5.658 0-9.785-5.354-8.334-10.829l2.233-8.43c2.487-9.389 11.03-15.627 20.307-15.627 235.253.083 214.722-.191 218.508.222 8.258 1.167 15.186 7.166 17.369 15.405l2.233 8.43c1.449 5.47-2.67 10.829-8.333 10.829zm170.287 15h43.496l37.316 37.315c-.345.852-.674 1.713-.972 2.588-2.936 8.623-9.566 15.252-18.188 18.189-.875.298-1.736.626-2.588.972zm137.667 104.692c-1.091 5.73-5.497 10.137-11.227 11.227-40.432 7.694-67.912 2.134-76.334-6.289-12.158-12.159-.442-31.61 16.382-37.339 13.061-4.448 23.104-14.491 27.552-27.552 5.714-16.778 25.178-28.542 37.339-16.382 8.421 8.423 13.982 35.904 6.288 76.335zm-185.962-188.462c8.795 0 17.16-3.81 22.948-10.451 2.721-3.123 2.396-7.86-.727-10.582-3.123-2.721-7.86-2.396-10.582.727-2.939 3.373-7.181 5.307-11.64 5.307s-8.701-1.934-11.64-5.307c-2.721-3.123-7.459-3.447-10.582-.727-3.122 2.722-3.448 7.459-.727 10.582 5.79 6.641 14.155 10.451 22.95 10.451z"/></svg>