<svg id="Capa_1" enable-background="new 0 0 512 512" height="512" viewBox="0 0 512 512" width="512" xmlns="http://www.w3.org/2000/svg"><path d="m476.142 411.487h-13.799v-15.396c0-17.757-13.376-32.204-29.818-32.204h-34.779v-18.075c0-17.757-13.377-32.204-29.819-32.204h-104.427v-24.843c35.036-1.457 67.779-13.103 92.882-33.169 27.379-21.886 42.457-51.135 42.457-82.358 0-15.883-3.893-31.27-11.568-45.733-1.942-3.659-6.481-5.052-10.142-3.108-3.658 1.942-5.05 6.482-3.108 10.141 6.515 12.274 9.818 25.295 9.818 38.701 0 55.519-57.349 100.686-127.839 100.686s-127.839-45.168-127.839-100.686c0-33.113 20.656-63.804 54.724-82.546 1.644 11.619 10.516 20.946 21.908 23.26-2.003 14.051-7.004 39.081-12.614 59.124-9.487.819-17.369 7.593-19.521 17.036l-1.932 8.476c-2.541 11.154 5.94 21.756 17.356 21.756h135.834c11.439 0 19.893-10.623 17.356-21.756l-1.932-8.475c-2.153-9.443-10.034-16.217-19.521-17.036-5.611-20.048-10.612-45.078-12.613-59.125 11.383-2.313 20.25-11.627 21.904-23.234 9.189 5.054 17.51 11.017 24.803 17.855 3.02 2.833 7.768 2.682 10.6-.34 2.834-3.021 2.681-7.768-.341-10.601-11.112-10.424-24.269-19.033-39.093-25.666-3.747-5.894-9.652-10.285-16.6-12.044 4.241-31.874-20.693-59.923-52.479-59.923-31.785 0-56.702 28.036-52.492 59.926-6.934 1.759-12.828 6.141-16.574 12.02-45.569 20.379-73.774 58.98-73.774 101.291 0 31.224 15.078 60.472 42.457 82.358 25.102 20.067 57.846 31.712 92.882 33.169v24.843h-104.425c-16.442 0-29.819 14.447-29.819 32.204v18.075h-34.779c-16.442 0-29.818 14.447-29.818 32.204v15.396h-13.8c-15.968 0-28.958 12.991-28.958 28.958v42.597c0 9.69 4.813 18.694 12.877 24.085 3.444 2.301 8.103 1.378 10.403-2.066 2.303-3.443 1.378-8.101-2.066-10.404-3.892-2.602-6.215-6.944-6.215-11.616v-42.597c0-7.696 6.262-13.958 13.958-13.958h42.597c7.696 0 13.958 6.262 13.958 13.958v42.597c0 7.696-6.262 13.958-13.958 13.958h-20.025c-4.143 0-7.5 3.358-7.5 7.5s3.357 7.5 7.5 7.5h20.026c15.968 0 28.958-12.991 28.958-28.958v-42.597c0-15.967-12.99-28.958-28.958-28.958h-13.798v-15.396c0-9.486 6.647-17.204 14.818-17.204h84.56c8.171 0 14.818 7.718 14.818 17.204v15.396h-13.798c-15.968 0-28.959 12.991-28.959 28.958v42.597c0 15.967 12.991 28.958 28.959 28.958h42.596c15.968 0 28.958-12.991 28.958-28.958v-42.597c0-15.967-12.99-28.958-28.958-28.958h-13.798v-15.396c0-17.757-13.377-32.204-29.818-32.204h-34.78v-18.075c0-9.486 6.647-17.204 14.819-17.204h223.852c8.172 0 14.819 7.718 14.819 17.204v18.075h-34.779c-16.442 0-29.819 14.447-29.819 32.204v15.396h-13.798c-15.968 0-28.958 12.991-28.958 28.958v42.597c0 15.967 12.99 28.958 28.958 28.958h42.596c15.968 0 28.959-12.991 28.959-28.958v-42.597c0-15.967-12.991-28.958-28.959-28.958h-13.798v-15.396c0-9.486 6.647-17.204 14.819-17.204h84.559c8.171 0 14.818 7.718 14.818 17.204v15.396h-13.798c-15.968 0-28.958 12.991-28.958 28.958v42.597c0 15.967 12.99 28.958 28.958 28.958h42.597c15.968 0 28.958-12.991 28.958-28.958v-42.597c0-15.965-12.991-28.956-28.958-28.956zm-158.262-223.496c3.294 0 6.105 2.243 6.837 5.454l1.932 8.474c.4 1.755-.93 3.424-2.731 3.424h-135.835c-1.796 0-3.132-1.665-2.731-3.423l1.932-8.475c.731-3.211 3.543-5.454 6.837-5.454zm-110.129-15c5.299-19.843 10.199-44.2 12.112-58.485h72.274c1.914 14.286 6.814 38.644 12.113 58.485zm48.249-157.991c23.142 0 41.233 20.747 37.446 44.077h-74.891c-3.784-23.302 14.276-44.077 37.445-44.077zm-45.681 59.077h91.361c7.011 0 12.714 5.704 12.714 12.714 0 7.011-5.703 12.715-12.714 12.715h-91.361c-7.011 0-12.714-5.704-12.714-12.715s5.704-12.714 12.714-12.714zm-2.668 352.41c7.696 0 13.958 6.262 13.958 13.958v42.597c0 7.696-6.262 13.958-13.958 13.958h-42.596c-7.697 0-13.959-6.262-13.959-13.958v-42.597c0-7.696 6.262-13.958 13.959-13.958zm139.293 0c7.697 0 13.959 6.262 13.959 13.958v42.597c0 7.696-6.262 13.958-13.959 13.958h-42.596c-7.696 0-13.958-6.262-13.958-13.958v-42.597c0-7.696 6.262-13.958 13.958-13.958zm143.156 56.555c0 7.696-6.262 13.958-13.958 13.958h-42.597c-7.696 0-13.958-6.262-13.958-13.958v-42.597c0-7.696 6.262-13.958 13.958-13.958h42.597c7.696 0 13.958 6.262 13.958 13.958z"/></svg>