<svg id="Capa_1" enable-background="new 0 0 512.017 512.017" height="512" viewBox="0 0 512.017 512.017" width="512" xmlns="http://www.w3.org/2000/svg"><path d="m501.279 373.158-89.954-155.804c-13.892-24.062-38.447-38.713-66.052-39.562.584-4.048.286-5.919.369-12.905 0-13.402-9.352-24.654-21.87-27.593l10.728-23.41c4.876-10.643 7.349-21.975 7.349-33.68v-32.535c0-11.68-7.395-22.145-18.4-26.041-3.909-1.383-8.191.664-9.573 4.568-1.382 3.905.663 8.19 4.567 9.573 5.028 1.779 8.406 6.562 8.406 11.9v32.535c0 9.534-2.014 18.763-5.985 27.431l-13.245 28.903h-245.829l-13.244-28.903c-3.972-8.667-5.985-17.896-5.985-27.431v-32.535c0-6.958 5.66-12.619 12.618-12.619h69.936c6.958 0 12.618 5.661 12.618 12.619v20.556c0 13.23 10.765 23.995 23.995 23.995h45.953c13.23 0 23.994-10.764 23.994-23.995v-20.556c0-6.958 5.661-12.619 12.619-12.619h41.432c4.143 0 7.5-3.358 7.5-7.5s-3.357-7.5-7.5-7.5h-41.432c-15.23 0-27.619 12.39-27.619 27.619v20.556c0 4.959-4.035 8.995-8.994 8.995h-45.953c-4.96 0-8.995-4.035-8.995-8.995v-20.556c0-15.229-12.39-27.619-27.618-27.619h-69.937c-15.229 0-27.618 12.39-27.618 27.619v32.535c0 11.707 2.473 23.039 7.349 33.68l10.727 23.41c-12.519 2.939-21.871 14.191-21.871 27.593v7.974c0 19.082 15.524 34.606 34.606 34.606h2.565c-5.082 56.796-18.75 102.862-26.684 125.819-5.856 16.94-4.934 35.248 2.595 51.551l6.985 15.129c-18.869 1.892-34.892 15.312-39.829 33.944l-3.012 11.37c-4.916 18.557 9.06 36.733 28.269 36.733h16.03c4.143 0 7.5-3.358 7.5-7.5s-3.357-7.5-7.5-7.5h-16.03c-9.35 0-16.165-8.848-13.769-17.892l3.012-11.37c3.592-13.556 15.895-23.023 29.918-23.023h125.055c.508 20.006 8.776 38.59 21.513 52.285h-114.176c-4.143 0-7.5 3.358-7.5 7.5s3.357 7.5 7.5 7.5h133.283c11.55 6.446 24.759 9.954 38.681 9.954h179.907c60.951 0 99.109-65.953 68.595-118.809zm-442.907-180.691c-10.811 0-19.607-8.795-19.607-19.606v-7.974c0-7.36 5.988-13.349 13.349-13.349 6.526 0 274.383.003 265.18 0 7.36 0 13.348 5.988 13.348 13.349-.171 6.73.481 9.535-.908 13.904-12.132 1.962-23.433 6.658-33.188 13.676zm125.809 180.691c-4.865 8.427-8.072 17.41-9.631 26.57h-114.305l-9.78-21.179c-5.896-12.768-6.619-27.103-2.035-40.362 10.025-29.007 22.735-74.809 27.569-130.72h204.865c-2.45 3.09-4.705 6.385-6.727 9.887zm248.503 103.809h-179.907c-49.409 0-80.342-53.463-55.605-96.309l89.955-155.804c24.705-42.791 86.472-42.842 111.208 0l89.954 155.804c24.702 42.788-6.131 96.309-55.605 96.309zm-326.655-217.053c-4.143 0-7.5 3.358-7.5 7.5v12c0 4.142 3.357 7.5 7.5 7.5s7.5-3.358 7.5-7.5v-12c0-4.142-3.357-7.5-7.5-7.5zm278.572-27.132c-18.603-32.221-65.115-32.263-83.742 0l-89.954 155.805c-18.603 32.223 4.617 72.523 41.871 72.523h179.908c37.207 0 60.497-40.26 41.871-72.523zm48.083 213.328h-179.908c-25.666 0-41.727-27.773-28.881-50.023l89.954-155.805c12.832-22.225 44.913-22.253 57.762 0l89.954 155.805c12.833 22.227-3.187 50.023-28.881 50.023zm-247.98-181.773c-13.191 0-23.923 11.608-23.923 25.877 0 14.268 10.731 25.877 23.923 25.877 13.191 0 23.923-11.608 23.923-25.877 0-14.268-10.732-25.877-23.923-25.877zm0 36.754c-4.92 0-8.923-4.879-8.923-10.877s4.003-10.877 8.923-10.877 8.923 4.879 8.923 10.877-4.003 10.877-8.923 10.877zm158.026 89.325c-4.188 0-7.583 3.395-7.583 7.583s3.395 7.583 7.583 7.583 7.583-3.395 7.583-7.583-3.395-7.583-7.583-7.583zm.111-127.78c-4.143 0-7.5 3.358-7.5 7.5v97.084c0 4.142 3.357 7.5 7.5 7.5s7.5-3.358 7.5-7.5v-97.084c0-4.143-3.357-7.5-7.5-7.5z"/></svg>