<svg id="Capa_1" enable-background="new 0 0 512 512" height="512" viewBox="0 0 512 512" width="512" xmlns="http://www.w3.org/2000/svg"><path d="m319.1 116.771c4.14 0 7.497-3.354 7.5-7.495l.009-11.876c.003-4.142-3.353-7.502-7.495-7.505h-.005c-4.14 0-7.497 3.354-7.5 7.495l-.009 11.876c-.003 4.142 3.353 7.503 7.495 7.505zm-46.624 5.225h.006c4.139 0 7.497-3.354 7.5-7.494.003-4.142-3.352-7.503-7.494-7.506l-33.378-.029h-.006c-4.139 0-7.497 3.354-7.5 7.494-.003 4.142 3.352 7.503 7.494 7.506zm-16.697 122.029c-49.296 0-89.402 40.106-89.402 89.402s40.106 89.401 89.402 89.401 89.402-40.105 89.402-89.401-40.106-89.402-89.402-89.402zm0 163.804c-41.025 0-74.402-33.376-74.402-74.401s33.377-74.402 74.402-74.402 74.402 33.377 74.402 74.402-33.377 74.401-74.402 74.401zm-63.281-291.182c4.14 0 7.497-3.354 7.5-7.494l.009-11.876c.003-4.142-3.352-7.502-7.494-7.506h-.006c-4.14 0-7.497 3.354-7.5 7.494l-.009 11.876c-.003 4.142 3.352 7.503 7.494 7.506zm256.61 324.364c-5.239-17.087-18.87-29.597-35.608-33.63-8.546-24.996-14.01-46.719-16.671-66.259.138-2.548.212-5.113.212-7.695 0-9.596-.966-18.97-2.798-28.035-1.175-29.879-.772-55.37-.349-69.502 19.591-.936 35.242-17.165 35.242-36.983v-13.451c0-17.707-12.496-32.543-29.132-36.173 2.06-8.636 4.585-18.328 7.188-27.583 25.421 7.855 51.185-11.277 51.185-37.781 0-16.603-12.714-33.411-24.588-51.55-7.108-10.857-22.909-10.668-29.893-.001-7.361 11.247-15.809 23.031-20.53 34.082-.722-.19-1.446-.372-2.18-.518-43.326-8.657-94.814-10.249-117.906-10.501v-22.146h3.364c4.142 0 7.5-3.358 7.5-7.5s-3.358-7.5-7.5-7.5h-3.364v-10.785c0-4.142-3.358-7.5-7.5-7.5s-7.5 3.358-7.5 7.5v10.785h-3.364c-4.142 0-7.5 3.358-7.5 7.5s3.358 7.5 7.5 7.5h3.364v22.145c-15.18.154-39.181.835-65.62 3.245-4.125.376-7.164 4.025-6.788 8.15s4.027 7.161 8.15 6.788c71.02-6.475 146.595-2.486 194.224 7.03.404.081.802.183 1.201.286-1.088 12.25 4.047 25.033 14.229 33.459-3.243 11.326-6.439 23.583-8.881 34.041h-258.032c-2.851-12.214-6.721-26.841-10.501-39.61-3.724-12.578 4.127-25.593 17.048-28.175 4.97-.993 10.275-1.932 15.767-2.791 4.092-.641 6.891-4.477 6.25-8.569s-4.478-6.893-8.569-6.25c-5.699.892-11.211 1.868-16.387 2.902-21.436 4.283-34.74 26.04-28.492 47.142 3.443 11.632 6.96 24.824 9.675 36.208-16.635 3.629-29.132 18.465-29.132 36.173v13.451c0 19.818 15.651 36.047 35.242 36.983.424 14.13.826 39.617-.349 69.499-1.833 9.065-2.799 18.44-2.799 28.038 0 2.583.075 5.148.212 7.697-2.661 19.541-8.126 41.263-16.671 66.257-16.738 4.033-30.369 16.543-35.608 33.63l-7.182 23.424c-7.255 23.661 10.411 47.562 35.168 47.562h277.565c4.142 0 7.5-3.358 7.5-7.5s-3.358-7.5-7.5-7.5h-277.565c-14.659 0-25.124-14.151-20.827-28.168l7.182-23.424c4.538-14.802 17.98-24.419 33.027-24.419h35.19c25.896 32.69 65.925 53.7 110.771 53.7 44.847 0 84.875-21.01 110.771-53.7 37.101.116 35.574-.271 40.266.373 13.078 1.906 23.978 11.086 27.951 24.046l7.182 23.424c4.296 14.015-6.165 28.168-20.827 28.168h-16.858c-4.142 0-7.5 3.358-7.5 7.5s3.358 7.5 7.5 7.5h16.858c24.752 0 42.424-23.896 35.167-47.565zm-32.663-400.424c.938-1.432 2.498-1.312 2.397-1.302.577 0 1.655.169 2.397 1.302 10.174 15.539 22.137 31.604 22.137 43.334 0 13.528-11.006 24.534-24.535 24.534-13.528 0-24.534-11.006-24.534-24.534 0-11.716 11.758-27.482 22.138-43.334zm-319.023 158.321v-13.451c0-12.146 9.882-22.029 22.029-22.029.981.001 288.828.003 272.655 0 12.146 0 22.029 9.882 22.029 22.029v13.451c0 12.146-9.882 22.028-22.029 22.028h-50.988c-23.725-18.043-53.301-28.771-85.34-28.771s-61.614 10.728-85.34 28.771h-50.988c-12.146 0-22.028-9.881-22.028-22.028zm281.463 37.028c-.202 6.891-.395 16.315-.415 27.541-5.729-10.009-12.644-19.254-20.557-27.541zm-225.241 0c-7.913 8.286-14.828 17.532-20.557 27.54-.02-11.226-.213-20.65-.415-27.54zm-39.296 170.053c3.041-9.253 5.655-18.075 7.873-26.537 3.222 9.324 7.394 18.208 12.401 26.537zm141.431 53.7c-67.1 0-122.135-52.616-126.033-118.755-.002-.028-.003-.055-.005-.083-.143-2.457-.224-4.931-.224-7.423 0-69.622 56.65-126.262 126.262-126.262 69.621 0 126.262 56.649 126.262 126.262 0 2.495-.081 4.971-.225 7.431-.002.022-.003.043-.004.065-3.893 66.143-58.929 118.765-126.033 118.765zm121.156-53.7c5.007-8.329 9.179-17.213 12.401-26.537 2.218 8.462 4.831 17.284 7.873 26.537zm-121.156-110.104c-20.701 0-37.542 16.841-37.542 37.542s16.841 37.543 37.542 37.543 37.542-16.841 37.542-37.543c0-20.701-16.841-37.542-37.542-37.542zm0 60.085c-12.43 0-22.542-10.112-22.542-22.543 0-12.43 10.112-22.542 22.542-22.542s22.542 10.112 22.542 22.542-10.112 22.543-22.542 22.543z"/></svg>