<svg id="Capa_1" enable-background="new 0 0 512.004 512.004" height="512" viewBox="0 0 512.004 512.004" width="512" xmlns="http://www.w3.org/2000/svg"><path d="" fill="#4e5660"/><path d="m18.763 234.418c-5.884-17.599-4.832-36.555 2.961-53.374 23.197-50.06 78.839-118.468 121.504-149.381 19.933-14.443 45.228-17.445 67.348-9.311 13.659 5.024 27.71 11.561 41.762 19.43 2.276 1.274 5.053 1.274 7.329 0 14.053-7.87 28.104-14.407 41.761-19.43 22.03-8.101 47.337-5.188 67.347 9.309 5.143 3.726 10.612 8.109 16.256 13.027 3.123 2.722 7.86 2.396 10.582-.727 2.721-3.123 2.396-7.86-.727-10.582-5.981-5.212-11.805-9.876-17.309-13.866-24.109-17.466-54.652-21.049-81.325-11.24-13.204 4.856-26.726 11.038-40.248 18.397-13.521-7.359-27.044-13.541-40.249-18.397-26.63-9.793-57.179-6.253-81.326 11.242-44.382 32.157-102.227 103.24-126.315 155.222-9.41 20.308-10.68 43.192-3.577 64.437 24.225 72.461 87.251 156.171 143.726 208.997 3.025 2.83 7.771 2.671 10.601-.354s2.671-7.771-.354-10.6c-54.383-50.87-116.258-132.539-139.747-202.799zm485.126-59.683c-15.979-34.483-47.188-78.432-81.448-114.694-2.845-3.011-7.592-3.147-10.602-.301-3.011 2.845-3.146 7.591-.301 10.602 33.224 35.167 63.396 77.584 78.741 110.7 7.794 16.82 8.846 35.776 2.963 53.376-28.698 85.837-121.182 201.91-199.504 249.167-23.209 14.005-52.235 14.022-75.473 0-10.454-6.307-21.393-13.979-32.513-22.802-3.246-2.574-7.963-2.031-10.537 1.214s-2.031 7.962 1.214 10.537c11.62 9.219 23.088 17.259 34.087 23.895 27.975 16.879 62.966 16.9 90.972 0 81.282-49.044 176.124-167.95 205.98-257.254 7.103-21.246 5.832-44.131-3.579-64.44zm-225.71 283.065c71.92-43.397 160.08-153.906 186.499-232.93 3.438-10.28 2.825-21.348-1.724-31.165-21.038-45.403-73.304-109.728-111.848-137.655-11.396-8.257-26.081-10.288-39.282-5.433-13.623 5.01-27.718 11.734-41.896 19.984-8.59 4.998-19.262 4.998-27.852 0-14.178-8.25-28.274-14.974-41.895-19.984-13.201-4.854-27.886-2.824-39.282 5.433-38.544 27.926-90.809 92.251-111.849 137.654-4.549 9.816-5.161 20.884-1.724 31.165 26.42 79.029 114.585 189.537 186.5 232.931 13.678 8.253 30.673 8.254 44.353 0zm-58.077-219.452h71.801c1.905 14.201 6.768 38.371 12.028 58.079h-95.857c5.26-19.71 10.122-43.879 12.028-58.079zm-22.13-27.604c0-6.949 5.653-12.602 12.603-12.602h90.855c6.949 0 12.603 5.654 12.603 12.603s-5.653 12.603-12.603 12.603h-90.855c-6.95 0-12.603-5.654-12.603-12.604zm119.568 100.682c3.256 0 6.035 2.217 6.758 5.391l1.92 8.43c.392 1.718-.911 3.353-2.675 3.353h-135.082c-1.764 0-3.067-1.633-2.675-3.354l1.92-8.428c.724-3.174 3.502-5.391 6.758-5.391.106-.001 131.002.002 123.076-.001zm132.912-91.313c-25.472 76.193-111.277 183.362-180.023 224.844-2.199 1.327-4.53 2.323-6.928 2.995v-104.353h60.041c11.403 0 19.83-10.59 17.3-21.686l-1.92-8.429c-2.142-9.399-9.981-16.143-19.421-16.97-5.571-19.909-10.536-44.754-12.53-58.725 10.12-2.071 18.233-9.7 21.017-19.543h123.009c-.161.625-.338 1.249-.545 1.867zm-186.95-131.448c4.852-.862 9.588-2.55 13.97-5.1 13.425-7.813 26.725-14.162 39.53-18.871 8.503-3.127 17.961-1.818 25.303 3.502 36.211 26.237 87.23 89.064 107.04 131.815.49 1.057.902 2.138 1.25 3.234h-122.606c-2.666-9.429-10.222-16.824-19.747-19.251 3.828-29.15-16.769-55.055-44.739-59.059v-36.27zm-7.5 50.727c23.002 0 40.938 20.616 37.204 43.75h-74.408c-3.741-23.166 14.235-43.75 37.204-43.75zm-193.343 60.619c19.811-42.751 70.83-105.579 107.04-131.815 7.194-5.213 16.634-6.689 25.304-3.502 12.804 4.71 26.103 11.059 39.529 18.871 4.382 2.55 9.118 4.237 13.97 5.1v36.27c-27.966 4.003-48.567 29.903-44.739 59.059-9.525 2.427-17.081 9.822-19.747 19.251h-122.606c.347-1.096.76-2.177 1.249-3.234zm-1.107 20.102c-.207-.618-.383-1.242-.545-1.868h123.009c2.784 9.844 10.897 17.473 21.017 19.543-1.994 13.971-6.96 38.816-12.53 58.725-9.44.827-17.279 7.572-19.421 16.971l-1.92 8.428c-2.534 11.118 5.92 21.686 17.3 21.686h60.041v104.352c-2.397-.671-4.728-1.667-6.927-2.994-68.746-41.481-154.551-148.649-180.024-224.843z"/></svg>