<svg id="Capa_1" enable-background="new 0 0 512.003 512.003" height="512" viewBox="0 0 512.003 512.003" width="512" xmlns="http://www.w3.org/2000/svg"><path d="m511.25 476.081-7.517-32.848c-5.129-22.414-24.469-38.201-47.317-38.855-12.816-38.379-16.76-122.118-17.117-172.232h2.955c15.311 0 28.558-9.853 32.961-24.516 7.019-23.369-9.502-46.932-33.479-48.647 5.1-8.677 9.542-18.104 13.23-28.201 1.421-3.891-.581-8.197-4.472-9.618-3.893-1.42-8.197.581-9.618 4.472-4.479 12.262-10.128 23.415-16.794 33.237h-207.469c-10.765-15.884-18.938-35.554-23.722-57.153-2.881-13.008 10.148-23.941 22.49-18.853 33.333 13.744 66.597 12.346 94.981-8.99 5.977-4.494 14.01-4.494 19.986 0 18.871 14.186 50.665 27.263 94.982 8.99 10.321-4.254 21.039 2.729 22.683 12.529.685 4.084 4.55 6.844 8.637 6.156 4.085-.685 6.842-4.552 6.156-8.637-3.231-19.27-23.952-31.848-43.194-23.915-19.354 7.981-35.795 9.018-49.355 6.547 15.277-35.726-11.109-75.544-49.901-75.544-38.852 0-65.145 39.887-49.901 75.543-13.56 2.47-30.002 1.434-49.355-6.546-23.482-9.685-48.353 11.132-42.854 35.963 4.463 20.151 11.415 38.256 20.705 54.023-19.193 1.386-33.18 16.612-34.893 33.98h-30.651c-23.166 0-42.013 18.847-42.013 42.013s18.847 42.013 42.013 42.013h66.893c-.728 17.47-1.846 35.954-3.472 53.72h-115.33c-23.166 0-42.013 18.847-42.013 42.013 0 5.47 1.057 10.818 3.07 15.784h-.542c-23.166-.002-42.013 18.845-42.013 42.012 0 18.375 11.755 34.465 29.252 40.038 3.938 1.255 8.163-.917 9.422-4.871 1.257-3.947-.924-8.165-4.871-9.422-11.246-3.583-18.803-13.929-18.803-25.745 0-14.895 12.118-27.013 27.013-27.013h51.95c4.142 0 7.5-3.358 7.5-7.5s-3.358-7.5-7.5-7.5h-34.378c-12.792-17.728-.131-42.796 21.913-42.796h113.809c-2.594 23.194-6.17 44.166-11.012 58.667-22.849.653-42.188 16.44-47.318 38.855l-3.272 14.3h-66.524c-4.142 0-7.5 3.358-7.5 7.5s3.358 7.5 7.5 7.5h63.092c-.05 1.405-5.704 15.162 4.851 28.404 5.604 7.032 13.976 11.065 22.967 11.065h324.531c18.884-.001 32.835-17.549 28.628-35.922zm-190.895-461.079c28.951 0 47.852 30.396 35.374 56.266-6.366-2.64-11.825-5.967-16.367-9.382-11.368-8.545-26.646-8.546-38.014 0-4.542 3.415-10 6.742-16.367 9.381-12.477-25.87 6.421-56.265 35.374-56.265zm-118.594 158.87c20.141.001 233.894 0 237.191 0 15.329 0 26.31 14.756 21.898 29.443-2.485 8.273-9.958 13.831-18.596 13.831h-243.797c-8.638 0-16.111-5.559-18.596-13.832-4.409-14.681 6.564-29.442 21.9-29.442zm-68.354 88.119c-14.895 0-27.013-12.118-27.013-27.013s12.118-27.013 27.013-27.013h32.197c4.506 14.477 17.661 24.181 32.854 24.181h2.955c-.064 9.013-.245 19.117-.572 29.845zm82.997-29.845h207.899c.178 22.398 1.141 54.388 3.414 84.796 2.875 38.476 7.233 67.787 12.98 87.406h-240.681c14.229-48.519 16.142-143.013 16.388-172.202zm266.217 264.855h-324.531c-9.222 0-16.069-8.569-14.008-17.575l7.517-32.847c3.67-16.034 17.72-27.232 34.168-27.232.106 0 263.256.003 269.176 0 16.448 0 30.499 11.198 34.168 27.232l7.518 32.848c2.061 9.007-4.787 17.574-14.008 17.574zm-224.381-186.255c-11.726 0-21.265 9.539-21.265 21.265 0 4.142 3.358 7.5 7.5 7.5s7.5-3.358 7.5-7.5c0-3.455 2.81-6.265 6.265-6.265 3.454 0 6.265 2.81 6.265 6.265 0 4.142 3.357 7.5 7.5 7.5s7.5-3.358 7.5-7.5c0-11.726-9.539-21.265-21.265-21.265zm62.115 6.383c-13.19 0-23.922 11.608-23.922 25.877s10.731 25.877 23.922 25.877 23.923-11.608 23.923-25.877-10.731-25.877-23.923-25.877zm0 36.754c-4.92 0-8.922-4.879-8.922-10.877s4.002-10.877 8.922-10.877 8.923 4.879 8.923 10.877-4.003 10.877-8.923 10.877zm60.93-43.137c-11.726 0-21.266 9.539-21.266 21.265 0 4.142 3.358 7.5 7.5 7.5 4.143 0 7.5-3.358 7.5-7.5 0-3.455 2.811-6.265 6.266-6.265 3.454 0 6.265 2.81 6.265 6.265 0 4.142 3.357 7.5 7.5 7.5s7.5-3.358 7.5-7.5c0-11.726-9.539-21.265-21.265-21.265z"/></svg>