<svg id="Capa_1" enable-background="new 0 0 512 512" height="512" viewBox="0 0 512 512" width="512" xmlns="http://www.w3.org/2000/svg"><path d="m277.302 301.357c-6.21-3.326-13.963-3.796-21.348-3.763-9.773.015-32.661.048-32.624 25.313.03 20.042 14.682 36.329 32.67 36.327h.045c18.792-.028 32.636-17.128 32.607-36.426-.015-10.208-3.834-17.426-11.35-21.451zm-3.65 21.474c.017 11.072-7.393 21.387-17.629 21.402-.008 0-.015 0-.022 0-9.727 0-17.652-9.572-17.67-21.35-.011-7.293 1.582-10.266 17.646-10.29h.247c5.129 0 10.754.25 13.995 1.986 1.111.595 3.423 1.834 3.433 8.252zm96.265-286.415c-.072 0-.145 0-.217 0-30.425.046-60.175 9.972-84.507 28.067-17-14.113-41.621-14.07-58.58.195-24.36-18.051-54.108-27.922-84.529-27.922-.068 0-.141 0-.208 0-21.621.032-42.379 4.797-61.697 14.162-3.728 1.807-5.284 6.293-3.478 10.021 1.806 3.727 6.291 5.284 10.021 3.478 17.269-8.372 35.833-12.631 55.176-12.66h.186c26.853 0 53.122 8.604 74.746 24.351-7.38 12.216-8.503 27.001-3.548 39.935-10.548 1.603-23.19.545-37.957-5.543-20.236-8.341-41.651 9.592-36.914 30.981 3.512 15.855 8.891 30.184 16.035 42.773-19.258 2.664-32.238 22.028-26.442 41.326 3.778 12.579 15.141 21.03 28.274 21.03h1.038c-.085 8.904-.347 22.888-1.105 39.489-4.576 6.768-5.548 15.285-1.417 24.459-2.309 32.508-5.959 57.425-10.647 72.828-36.379-30.658-67.381-64.353-89.816-97.7-26.05-38.721-39.283-74.603-39.331-106.653-.054-36.72 15.777-71.662 43.435-95.865 3.117-2.728 3.433-7.466.704-10.583-2.727-3.117-7.466-3.433-10.583-.705-30.918 27.058-48.616 66.122-48.556 107.176.053 35.078 14.146 73.77 41.886 115.002 21.756 32.337 51.216 64.915 85.661 94.86-11.327 5.416-19.93 15.76-22.9 28.734l-6.148 26.875c-3.645 15.917 8.458 31.058 24.753 31.058h211.675c4.143 0 7.5-3.358 7.5-7.5s-3.357-7.5-7.5-7.5h-211.676c-6.682 0-11.62-6.21-10.132-12.712l6.149-26.875c2.86-12.496 13.809-21.223 26.628-21.223 6.567 0 215.495.003 220.238 0 12.817 0 23.767 8.727 26.627 21.222l6.149 26.875c1.491 6.514-3.461 12.712-10.132 12.712h-17.933c-4.143 0-7.5 3.358-7.5 7.5s3.357 7.5 7.5 7.5h17.933c16.299 0 28.396-15.142 24.754-31.058l-6.15-26.876c-2.96-12.935-11.521-23.255-22.797-28.685 34.488-30.095 63.972-62.837 85.727-95.33 27.714-41.395 41.74-80.203 41.688-115.345-.117-78.275-63.835-141.874-142.083-141.874zm-113.901 32.527c21.977 0 36.984 22.572 28.24 42.882-4.572-2.018-8.531-4.466-11.868-6.976-9.793-7.36-22.949-7.36-32.742 0-3.337 2.509-7.297 4.957-11.868 6.975-8.754-20.332 6.278-42.881 28.238-42.881zm-102.96 69.293c-2.122-9.581 7.489-17.606 16.551-13.87 36.85 15.194 63.329 4.293 79.052-7.526 4.4-3.308 10.314-3.308 14.715 0 23.873 17.947 51.592 18.848 79.052 7.526 9.076-3.742 18.669 4.302 16.55 13.87-3.817 17.238-10.297 32.944-18.813 45.693h-168.294c-8.515-12.749-14.995-28.455-18.813-45.693zm3.223 93.372c-6.461 0-12.05-4.157-13.909-10.345-3.344-11.138 4.979-22.335 16.612-22.335.102 0 195.964.001 194.066 0 11.629 0 19.958 11.193 16.612 22.334-1.859 6.188-7.448 10.345-13.909 10.345h-199.472zm188.458 67.478c.012 7.242-10.637 19.623-22.384 26.056-11.767-6.398-22.452-18.747-22.463-25.99-.008-4.81 3.88-8.712 8.693-8.719.105.028 4.677-.203 7.378 4.067 2.95 4.663 9.771 4.626 12.689-.02 4.627-7.358 16.076-4.156 16.087 4.606zm-168.87-8.455c.105.028 4.677-.202 7.378 4.067 2.949 4.664 9.771 4.627 12.689-.018 2.729-4.344 7.481-4.117 7.381-4.09 4.794 0 8.699 3.897 8.706 8.694.011 7.242-10.638 19.622-22.385 26.056-11.767-6.398-22.452-18.746-22.463-25.989-.007-4.745 3.821-8.712 8.694-8.72zm-16.506 94.144c3.798-13.649 6.823-32.548 9.04-56.471 4.861 4.439 10.026 8.037 14.288 10.332 4.365 2.351 9.575 2.345 13.936-.021 11.765-6.382 30.421-22.709 30.396-39.353-.029-19.29-21.998-30.316-37.453-19.294-5.091-3.608-11.508-5.108-17.933-3.952.44-12.161.615-22.366.682-29.407h167.396c.066 6.997.24 17.121.674 29.186-6.357-1.174-12.876.246-18.102 3.974-15.432-10.937-37.425-.052-37.395 19.406.024 16.645 18.73 32.916 30.515 39.263 4.365 2.351 9.575 2.345 13.936-.021 4.257-2.309 9.414-5.925 14.264-10.382 2.219 24.051 5.253 43.04 9.065 56.739h-193.309zm298.487-99.484c-22.442 33.52-53.484 67.395-89.925 98.216-4.728-15.46-8.402-40.567-10.716-73.374 4.006-9.058 3.006-17.477-1.389-24.103-.756-16.575-1.017-30.532-1.102-39.422h1.038c13.134 0 24.496-8.451 28.274-21.03 5.797-19.298-7.185-38.662-26.442-41.325 7.145-12.589 12.524-26.919 16.035-42.773 4.732-21.364-16.657-39.335-36.913-30.981-14.766 6.088-27.409 7.146-37.957 5.543 4.981-13.004 3.827-27.902-3.702-40.186 21.591-15.762 47.839-24.399 74.676-24.44h.193c69.981 0 126.979 56.89 127.083 126.897.046 31.658-13.492 68.65-39.153 106.978z"/></svg>