<svg id="Capa_1" enable-background="new 0 0 511.968 511.968" height="512" viewBox="0 0 511.968 511.968" width="512" xmlns="http://www.w3.org/2000/svg"><path d="m281.516 474.588-6.686 6.686c-20.982 20.983-54.945 20.987-75.931 0l-155.307-155.307c-5.681-5.683-5.687-14.885 0-20.569l18.811-18.811 151.054 151.054c2.93 2.929 7.678 2.928 10.606 0 2.929-2.93 2.929-7.678 0-10.607-12.726-12.727-174.575-174.577-181.512-181.514-5.684-5.681-5.685-14.884 0-20.568l119.168-119.167c2.929-2.93 2.929-7.678 0-10.608-2.929-2.928-7.678-2.928-10.606 0l-119.169 119.169c-11.545 11.546-11.547 30.235 0 41.782l19.851 19.852-18.81 18.81c-11.545 11.545-11.548 30.234 0 41.783l155.308 155.308c26.784 26.783 70.361 26.782 97.144 0l6.686-6.686c2.929-2.93 2.929-7.678 0-10.607-2.929-2.928-7.678-2.928-10.607 0zm-64.87-352.758c-7.306-7.306-19.196-7.308-26.503 0l-97.823 97.824c-7.307 7.308-7.307 19.196 0 26.504l32.428 32.428c7.305 7.305 19.196 7.307 26.503 0l97.824-97.823c7.307-7.308 7.307-19.196 0-26.504zm21.822 48.325-97.824 97.823c-1.459 1.459-3.831 1.459-5.29 0l-32.428-32.428c-1.459-1.458-1.459-3.831 0-5.289l97.824-97.824c1.457-1.457 3.831-1.46 5.29 0l32.428 32.429c1.459 1.458 1.459 3.831 0 5.289zm-68.354 138.131c2.93 2.929 7.678 2.928 10.607 0l98.054-98.054c2.929-2.93 2.929-7.678 0-10.607-2.929-2.928-7.678-2.928-10.607 0l-98.054 98.054c-2.929 2.929-2.929 7.677 0 10.607zm158.419-36.649-34.067 34.066c-2.929 2.93-2.929 7.678 0 10.607 2.93 2.929 7.678 2.928 10.606 0l34.067-34.066c2.929-2.93 2.929-7.678 0-10.607-2.928-2.928-7.677-2.928-10.606 0zm-.973 77.768c2.93 2.929 7.678 2.928 10.607 0l34.067-34.067c2.929-2.93 2.929-7.678 0-10.607-2.929-2.928-7.678-2.928-10.606 0l-34.067 34.067c-2.93 2.93-2.93 7.678-.001 10.607zm160.628-119.382-2.246-9.858c-2.446-10.731-11.578-18.331-22.451-18.905-6.789-24.049-12.855-54.589-15.105-70.944 14.703-2.421 25.957-15.215 25.957-30.593 0-14.851-10.496-27.292-24.458-30.309 5.51-36.54-22.842-69.414-59.684-69.414-36.801 0-65.2 32.831-59.684 69.414-13.962 3.017-24.458 15.457-24.458 30.309 0 15.378 11.254 28.172 25.957 30.593-1.079 7.84-3.032 18.931-5.524 31.015l-99.876-99.875c-11.52-11.518-30.263-11.518-41.782.001l-8.474 8.474c-2.929 2.929-2.928 7.678.001 10.606s7.678 2.929 10.606-.001l8.473-8.473c5.672-5.672 14.899-5.67 20.569 0l106.661 106.661c-1.804 7.725-3.75 15.415-5.76 22.537-10.874.574-20.005 8.173-22.451 18.906l-2.246 9.857c-.852 3.737-.582 7.553.703 11.041l-89.709 89.708c-2.929 2.93-2.929 7.678 0 10.607 2.93 2.929 7.678 2.928 10.606 0l89.303-89.303c2.501 1.141 5.247 1.755 8.089 1.755h86.572l14.281 14.281c20.983 20.982 20.986 54.945 0 75.93l-104.599 104.6c-2.929 2.93-2.929 7.678 0 10.607 2.93 2.929 7.678 2.928 10.606 0l104.599-104.6c26.845-26.846 26.848-70.295 0-97.145l-3.674-3.674h50.201c12.523.001 21.773-11.626 18.997-23.808zm-97.987-215.023c28.223 0 49.808 25.681 44.591 53.711h-89.182c-5.225-28.073 16.417-53.711 44.591-53.711zm-69.142 84.723c0-8.829 7.183-16.012 16.011-16.012.975 0 112.851.002 106.261 0 8.829 0 16.011 7.183 16.011 16.012s-7.183 16.012-16.011 16.012h-106.26c-8.829-.001-16.012-7.183-16.012-16.012zm126.858 101.481h-115.432c6.444-23.797 12.461-53.724 14.616-70.47h86.199c2.155 16.744 8.172 46.672 14.617 70.47zm21.278 37.628h-157.988c-2.875 0-5.008-2.67-4.369-5.477l2.246-9.857c.979-4.295 4.739-7.295 9.144-7.295h143.944c4.405 0 8.165 3 9.144 7.294l2.246 9.857c.64 2.804-1.482 5.478-4.367 5.478zm-168.194 120.775-16.742-16.742c-7.449-7.449-19.508-7.451-26.959 0l-12.823 12.823c-7.433 7.433-7.433 19.527 0 26.96l16.742 16.742c7.449 7.449 19.508 7.451 26.959 0l12.823-12.823c7.45-7.45 7.451-19.509 0-26.96zm-10.607 16.353-12.823 12.823c-1.589 1.589-4.158 1.588-5.746 0l-16.742-16.742c-1.581-1.58-1.594-4.153 0-5.745l12.823-12.823c1.583-1.584 4.161-1.585 5.746 0l16.742 16.742c1.582 1.58 1.594 4.152 0 5.745z"/></svg>