<svg id="Capa_1" enable-background="new 0 0 512 512" height="512" viewBox="0 0 512 512" width="512" xmlns="http://www.w3.org/2000/svg"><path d="m200.854 301.973c-1.845 2.116-4.506 3.33-7.302 3.33s-5.457-1.214-7.301-3.33c-2.722-3.123-7.459-3.447-10.582-.727-3.123 2.722-3.448 7.459-.727 10.582 4.694 5.386 11.477 8.475 18.61 8.475 7.132 0 13.916-3.089 18.61-8.475 2.722-3.122 2.396-7.859-.726-10.581s-7.861-2.397-10.582.726zm55.146 2.612c-9.783 0-25.037-9.25-34.753 5.125-3.672 5.433-3.846 12.188-.477 18.53 5.672 10.68 20.159 18.139 35.231 18.139 15.071 0 29.559-7.459 35.23-18.139 3.369-6.344 3.194-13.098-.478-18.529-9.699-14.353-24.893-5.126-34.753-5.126zm21.983 16.62c-2.619 4.932-11.214 10.174-21.982 10.174-10.769 0-19.363-5.242-21.983-10.174-1.071-2.018-.542-2.8-.343-3.096.656-.971 1.144-1.524 2.765-1.524 1.319 0 3.391.367 6.914 1.175 3.737.855 7.973 1.825 12.647 1.825 4.673 0 8.909-.97 12.645-1.825 7.856-1.799 8.489-1.411 9.68.351.199.294.728 1.077-.343 3.094zm163.903-117.708c-6.216-18.828-15.338-36.114-27.217-51.345-2.548-3.267-7.26-3.849-10.526-1.302-3.267 2.548-3.849 7.261-1.302 10.526 23.419 30.028 33.811 67.169 33.811 105.096 0 95.592-85.083 147.28-180.651 147.28-95.62 0-180.651-51.729-180.651-147.28 0-68.289 33.508-126.589 97.806-152.737 4.195 9.665 13.111 16.821 23.823 18.542-2.279 16.628-8.473 47.833-15.404 72.361-11.04.544-20.321 8.243-22.802 19.13l-2.284 10.023c-2.81 12.332 6.566 24.055 19.19 24.055h160.643c12.649 0 21.995-11.747 19.19-24.055l-2.284-10.023c-2.48-10.887-11.762-18.586-22.802-19.13-6.93-24.527-13.125-55.733-15.405-72.361 10.715-1.721 19.633-8.88 23.827-18.549 14.76 6.021 28.181 13.837 39.975 23.307 3.217 2.582 7.941 2.089 10.544-1.153 2.593-3.23 2.077-7.95-1.153-10.544-13.78-11.064-29.543-20.051-46.909-26.773-1.19-13.865-11.421-25.184-24.758-28.013 5.685-37.235-23.237-70.552-60.547-70.552-37.362 0-66.228 33.367-60.547 70.552-13.337 2.829-23.568 14.148-24.758 28.013-49.452 19.156-84.571 56.468-100.59 104.933-34.427 3.96-60.68 30.726-60.68 62.974 0 33.25 28.275 60.703 64.003 63.274 14.493 32.168 40 56.607 70.639 72.955-18.614 20.413-31.184 45.242-36.533 72.416-3.759 19.092 10.951 36.883 30.454 36.883h18.79c4.142 0 7.5-3.357 7.5-7.5s-3.358-7.5-7.5-7.5h-18.79c-10.065 0-17.668-9.174-15.737-18.985 5.104-25.929 17.505-49.501 35.966-68.48 28.8 12.536 62.268 19.219 97.783 19.219s68.983-6.683 97.784-19.219c18.46 18.979 30.862 42.552 35.966 68.48 1.927 9.8-5.66 18.985-15.737 18.985h-180.644c-4.142 0-7.5 3.357-7.5 7.5s3.358 7.5 7.5 7.5h180.644c19.531 0 34.207-17.82 30.454-36.882-5.348-27.174-17.918-52.003-36.533-72.416 30.635-16.347 56.145-40.785 70.639-72.955 35.726-2.571 64.002-30.025 64.002-63.274 0-32.252-26.257-59.02-60.689-62.976zm-112.704 16.089c4.539 0 8.413 3.09 9.421 7.515l2.284 10.023c.668 2.933-1.555 5.723-4.565 5.723h-160.643c-3.009 0-5.234-2.789-4.565-5.723l2.284-10.022c1.008-4.425 4.882-7.516 9.42-7.516 19.637 0 155.037.003 146.364 0zm-132.033-15c6.583-24.272 12.734-54.871 14.916-71.906h87.871c2.182 17.036 8.333 47.635 14.916 71.906zm58.851-189.586c28.741 0 50.852 26.183 45.447 54.866h-90.894c-5.409-28.697 16.719-54.866 45.447-54.866zm-54.023 69.866c2.062.001 106.884 0 108.047 0 9.047 0 16.406 7.359 16.406 16.406s-7.359 16.407-16.406 16.407h-108.047c-9.046 0-16.406-7.36-16.406-16.407 0-9.046 7.359-16.406 16.406-16.406zm-177.552 181.607c0-22.641 17.41-41.769 41.199-47.05-3.475 14.852-5.274 30.594-5.274 47.05 0 16.713 2.373 32.57 7.03 47.388-24.506-4.734-42.955-24.223-42.955-47.388zm420.197 47.387c4.657-14.818 7.03-30.674 7.03-47.388 0-16.35-1.786-32.107-5.283-47.052 23.794 5.279 41.207 24.409 41.207 47.052-.001 23.166-18.45 42.654-42.954 47.388zm-118.871-11.887c-1.846 2.116-4.507 3.33-7.303 3.33-2.795 0-5.456-1.214-7.302-3.33-2.721-3.123-7.459-3.448-10.581-.726-3.123 2.722-3.447 7.459-.726 10.581 4.694 5.386 11.477 8.475 18.608 8.475 7.133 0 13.915-3.089 18.609-8.475 2.722-3.122 2.397-7.859-.726-10.581-3.119-2.723-7.858-2.398-10.579.726z"/></svg>