<svg id="Capa_1" enable-background="new 0 0 512 512" height="512" viewBox="0 0 512 512" width="512" xmlns="http://www.w3.org/2000/svg"><path d="m251.719 342.453h-4.936c.147-24.108.244-51.664-.049-55.18-.529-6.354-4.245-11.505-9.465-13.122-2.464-.763-8.84-1.739-14.858 5.645-5.505 6.755-33.1 56.609-38.576 66.534-2.753 4.99.863 11.123 6.567 11.123h41.28c-.053 7.535-.11 14.798-.166 21.254-.036 4.142 3.293 7.528 7.435 7.565h.066c4.111 0 7.463-3.315 7.498-7.436.022-2.533.092-10.789.168-21.383h5.036c4.142 0 7.5-3.357 7.5-7.5s-3.358-7.5-7.5-7.5zm-19.938 0h-28.645c10.419-18.706 23.265-41.359 28.747-50.013.097 8.541.025 28.958-.102 50.013zm262.043 144.016-1.777-6.707c-2.873-10.84-11.461-18.988-21.998-21.573l2.444-5.294c4.776-10.341 5.36-21.955 1.646-32.702-4.48-12.962-12.091-38.542-15.273-70.214 12.084-.953 21.627-11.084 21.627-23.409v-4.702c.001-7.96-4.683-14.938-11.763-18.087 2.993-7.704 9.525-16.372 9.525-31.864v-19.191c0-10.679-8.688-19.367-19.367-19.367h-20.096v-92.97c0-13.48-4.299-26.657-12.154-37.534 1.435-6.135 2.219-12.517 2.219-19.083 0-12.026-2.508-23.646-7.454-34.535-1.713-3.771-6.159-5.437-9.93-3.728-3.771 1.713-5.44 6.159-3.727 9.931 20.623 45.408-12.854 97.104-62.661 97.104-5.764 0-10.453-4.689-10.453-10.453s4.689-10.453 10.453-10.453c26.393 0 47.865-21.473 47.865-47.866s-21.472-47.864-47.865-47.864c-23.842 0-43.66 17.523-47.27 40.365h-21.084c3.749-34.406 32.968-61.273 68.354-61.273 15.67 0 30.44 5.156 42.713 14.912 3.243 2.576 7.96 2.038 10.538-1.204 2.578-3.243 2.038-7.961-1.204-10.538-14.74-11.717-33.224-18.17-52.047-18.17-43.663 0-79.612 33.583-83.419 76.271h-16.368c-3.808-42.688-39.756-76.271-83.419-76.271-43.69 0-79.655 33.625-83.425 76.351-33.897 1.648-60.967 29.739-60.967 64.036v234.305c0 47.213 33.007 87.265 77.813 97.322 4.076.914 8.061-1.668 8.96-5.676.907-4.042-1.634-8.054-5.675-8.961-38.136-8.558-66.098-42.649-66.098-82.685v-174.226h391.305v32.892h-6.155c-10.679 0-19.367 8.688-19.367 19.367v12.125c0 1.229-1 2.229-2.229 2.229h-27.105c-1.229 0-2.229-1-2.229-2.229v-12.125c0-10.679-8.688-19.367-19.367-19.367h-41.251c-10.054 0-18.337 7.702-19.273 17.514-16.841-12.58-37.156-19.371-58.674-19.371-54.286 0-98.45 44.165-98.45 98.45s44.165 98.449 98.45 98.449c26.189 0 50.662-10.359 68.704-27.937-2.178 8.14-4.317 14.836-6.009 19.73-7.053 20.409 3.347 35.399 4.09 37.996-1.325.325-2.613.751-3.869 1.246h-158.681c-4.142 0-7.5 3.357-7.5 7.5 0 4.142 3.358 7.5 7.5 7.5h142.536c-1.977 4.113-2.177 6.475-3.762 12.034-3.418 12.897 6.297 25.531 19.647 25.531h183.378c13.341 0 23.066-12.625 19.648-25.531zm-33.862-61.376c2.442 7.066 2.057 14.707-1.087 21.513l-4.944 10.706h-142.889l-4.944-10.706c-3.143-6.806-3.529-14.446-1.087-21.513 5.802-16.785 13.115-43.013 16.166-75.034h122.619c3.051 32.02 10.364 58.248 16.166 75.034zm-114.877-374.187c15.559 0 28.618 10.872 32.003 25.415-2.295-.091.742-.032-63.996-.05 3.404-14.518 16.452-25.365 31.993-25.365zm-183.206-35.906c37.921 0 68.772 30.851 68.772 68.771 0 37.921-30.851 68.772-68.772 68.772-5.764 0-10.453-4.689-10.453-10.453s4.689-10.453 10.453-10.453c26.393 0 47.866-21.473 47.866-47.866s-21.473-47.864-47.866-47.864c-23.842 0-43.663 17.523-47.273 40.365h-21.082c3.749-34.405 32.969-61.272 68.355-61.272zm31.992 61.271h-63.984c3.403-14.518 16.45-25.365 31.992-25.365s28.589 10.847 31.992 25.365zm-161.384 109.195v-45.078c0-27.083 22.033-49.116 49.116-49.116h112.268c-3.404 14.518-16.451 25.365-31.992 25.365-14.035 0-25.453 11.418-25.453 25.453s11.419 25.453 25.453 25.453c43.662 0 79.611-33.582 83.419-76.271 137.595.025 129.355-.058 131.764.064-3.427 14.486-16.458 25.302-31.977 25.302-14.035 0-25.453 11.418-25.453 25.453s11.418 25.453 25.453 25.453c32.686 0 61.041-18.829 74.839-46.2 2.523 5.991 3.867 12.469 3.867 19.045v45.078h-391.304zm269.232 67.259c0-2.408 1.959-4.367 4.367-4.367h41.251c2.408 0 4.367 1.959 4.367 4.367v12.125c0 9.5 7.729 17.229 17.229 17.229h27.105c9.5 0 17.229-7.729 17.229-17.229v-12.125c0-2.408 1.959-4.367 4.367-4.367h41.251c2.408 0 4.367 1.959 4.367 4.367v19.191c0 5.179-1.094 10.191-3.251 14.899l-6.989 15.253h-141.052l-6.989-15.253c-2.157-4.708-3.251-9.721-3.251-14.899v-19.191zm-2.238 69.141c0-2.646 2.152-4.798 4.798-4.798.367 0 166.414.003 156.417 0 2.65 0 4.797 2.144 4.797 4.798v4.703c0 4.681-3.808 8.489-8.489 8.489h-149.034c-4.681 0-8.489-3.809-8.489-8.489zm-71.342 91.533c-46.015 0-83.45-37.436-83.45-83.449 0-46.015 37.436-83.45 83.45-83.45 22.194 0 42.874 8.531 58.58 24.053v1.363c0 15.453 6.489 24.051 9.528 31.871-6.922 3.088-11.766 10.022-11.766 18.079v4.703c0 12.325 9.544 22.456 21.628 23.409-.479 4.769-1.056 9.404-1.711 13.874-13.41 30.128-43.232 49.547-76.259 49.547zm246.037 83.601h-183.378c-3.486 0-6.048-3.293-5.148-6.69l1.777-6.707c1.762-6.648 7.795-11.292 14.673-11.292.112 0 170.736.003 160.773 0 6.878 0 12.912 4.644 14.674 11.292l1.777 6.707c.893 3.371-1.634 6.69-5.148 6.69z"/></svg>