<svg id="Capa_1" enable-background="new 0 0 511.984 511.984" height="512" viewBox="0 0 511.984 511.984" width="512" xmlns="http://www.w3.org/2000/svg"><path d="m209.622 370.803c88.875 0 161.181-72.305 161.181-161.18s-72.306-161.181-161.181-161.181-161.18 72.306-161.18 161.181 72.305 161.18 161.18 161.18zm0-15c-29.993 0-57.901-9.085-81.128-24.64 4.801-16.537 10.292-40.061 12.868-67.527h136.519c2.577 27.466 8.069 50.99 12.87 67.527-23.227 15.555-51.136 24.64-81.129 24.64zm-82.113-107.167c-5.58 0-10.119-4.539-10.119-10.118v-5.184c0-3.336 2.714-6.051 6.051-6.051h172.364c3.336 0 6.051 2.715 6.051 6.051v5.184c0 5.579-4.539 10.118-10.119 10.118zm67.18-59.91h29.869c10.047 0 18.221-8.174 18.221-18.221v-13.361c0-3.075 2.502-5.577 5.577-5.577h45.457c3.075 0 5.577 2.502 5.577 5.577v21.147c0 5.816-1.228 11.447-3.652 16.737l-7.907 17.255h-156.416l-7.907-17.255c-2.424-5.29-3.652-10.921-3.652-16.737v-21.147c0-3.075 2.502-5.577 5.577-5.577h45.457c3.075 0 5.577 2.502 5.577 5.577v13.361c0 10.047 8.174 18.221 18.222 18.221zm14.933-125.284c80.605 0 146.181 65.576 146.181 146.181 0 44.842-20.302 85.025-52.19 111.861-4.106-15.085-8.419-35.023-10.659-57.879 13.287-.638 23.901-11.645 23.901-25.087v-5.184c0-8.84-5.484-16.412-13.224-19.526 3.589-9.185 10.758-18.542 10.758-35.517v-21.147c0-11.347-9.23-20.577-20.577-20.577h-45.457c-11.347 0-20.577 9.23-20.577 20.577v13.361c0 1.776-1.444 3.221-3.221 3.221h-29.869c-1.776 0-3.222-1.444-3.222-3.221v-13.361c0-11.347-9.23-20.577-20.577-20.577h-45.457c-11.347 0-20.577 9.23-20.577 20.577v21.147c0 16.894 7.179 26.358 10.758 35.517-7.74 3.114-13.224 10.685-13.224 19.526v5.184c0 13.443 10.616 24.452 23.905 25.087-2.24 22.871-6.56 42.79-10.667 57.875-31.885-26.836-52.185-67.018-52.185-111.857.001-80.604 65.577-146.181 146.18-146.181zm281.668 320.899-94.783-79.829c14.533-28.507 22.738-60.757 22.738-94.889 0-115.587-94.036-209.623-209.623-209.623-37.741 0-74.745 10.144-107.012 29.336-3.561 2.118-4.729 6.721-2.612 10.28 2.118 3.562 6.721 4.729 10.28 2.612 29.948-17.813 64.3-27.228 99.344-27.228 107.315 0 194.623 87.308 194.623 194.623s-87.308 194.622-194.623 194.622-194.622-87.306-194.622-194.622c0-56.638 24.613-110.362 67.53-147.4 3.136-2.706 3.483-7.442.777-10.578-2.707-3.138-7.444-3.481-10.578-.777-46.22 39.889-72.729 97.753-72.729 158.755 0 115.586 94.036 209.622 209.622 209.622 34.132 0 66.382-8.205 94.89-22.738l79.829 94.783c21.972 26.089 61.603 27.733 85.674 3.662l24.937-24.938c24.097-24.095 22.397-63.726-3.662-85.673zm-6.945 75.066-24.938 24.939c-17.774 17.776-47.14 16.816-63.594-2.718l-6.91-8.205c1.986-5.362 4.517-10.86 7.567-16.399 1.998-3.628.678-8.189-2.951-10.188-3.627-1.997-8.189-.676-10.188 2.951-1.972 3.58-3.731 7.153-5.319 10.706l-60.15-71.418c29.101-17.618 53.594-42.112 71.212-71.212l71.394 60.13c-19.127 8.542-40.087 23.547-55.68 41.331-2.731 3.114-2.421 7.853.694 10.584 3.127 2.743 7.865 2.405 10.584-.695 14.723-16.786 36.307-32.555 57.352-40.312l8.208 6.913c19.273 16.232 20.744 45.571 2.719 63.593z"/></svg>