<svg id="Capa_1" enable-background="new 0 0 512 512" height="512" viewBox="0 0 512 512" width="512" xmlns="http://www.w3.org/2000/svg"><path d="m451.85 474.818-3.061-11.557c-4.006-15.117-15.213-26.849-29.335-31.916 9.94-27.621-.724-61.285-11.077-93.947-5.01-15.805-10.179-32.116-12.942-47.46 8.989-13.955 9.317-28.228 4.902-40.946 9.559-5.387 15.735-15.556 15.735-27.015v-12.974c0-17.124-13.931-31.055-31.055-31.055h-26.47c9.676-24.677 4.372-52.721-9.871-75.566-2.192-3.515-6.818-4.587-10.332-2.396-3.515 2.191-4.588 6.817-2.396 10.332 12.823 20.57 17.343 46.257 6.142 67.631h-172.18c-9.111-17.385-7.806-37.656-.151-55.559.363-.85 1.474-1.134 2.166-.439l10.524 10.523c12.052 12.05 31.839 12.239 44.108.417 12.93-12.456 12.228-33.149-.019-45.397l-10.964-10.963c-.63-.63-.495-1.701.258-2.073 33.345-16.428 70.217-10.736 97.708 10.943 3.25 2.563 7.967 2.006 10.533-1.246 2.564-3.252 2.007-7.968-1.246-10.533-9.176-7.236-19.345-12.909-30.027-16.896 14.689-25.407-5.213-56.726-36.8-56.726-31.552 0-51.484 31.272-36.825 56.692-3.362 1.264-6.689 2.694-9.971 4.311-10.007 4.932-12.081 18.289-4.234 26.136l10.963 10.963c6.461 6.459 6.953 17.503.219 23.987-6.423 6.189-16.785 6.09-23.096-.222l-10.523-10.522c-8.16-8.162-22.017-5.489-26.565 5.149-8.337 19.501-10.317 41.559-2.51 61.455h-26.474c-17.124 0-31.055 13.931-31.055 31.055v12.974c0 11.459 6.173 21.633 15.733 27.021-4.413 12.717-4.083 26.987 4.904 40.94-2.763 15.345-7.932 31.655-12.942 47.46-10.353 32.663-21.017 66.327-11.077 93.947-14.122 5.067-25.329 16.799-29.335 31.916l-3.062 11.557c-4.978 18.782 9.171 37.181 28.613 37.181h32.648c4.143 0 7.5-3.357 7.5-7.5s-3.357-7.5-7.5-7.5h-32.648c-9.584 0-16.57-9.07-14.113-18.34l3.062-11.557c3.665-13.832 16.219-23.492 30.527-23.492h34.453c1.662 6.785 7.883 10.953 14.402 10.464l20.32-1.535 13.522 13.756c7.731 7.863 21.199 3.894 23.319-6.97.979-5.007 2.394-10.298 4.13-15.715h75.229c1.736 5.416 3.151 10.707 4.13 15.714 2.119 10.847 15.576 14.847 23.32 6.971l13.522-13.756 20.32 1.535c6.558.49 12.749-3.717 14.402-10.464h34.453c14.31 0 26.862 9.66 30.527 23.492l3.061 11.557c2.455 9.263-4.522 18.34-14.113 18.34h-265.662c-4.143 0-7.5 3.357-7.5 7.5s3.357 7.5 7.5 7.5h265.663c19.431 0 33.594-18.388 28.613-37.182zm-195.85-459.818c21.824 0 34.217 21.902 21.702 37.292-14.938-3.205-29.553-2.999-43.431-.035-12.489-15.412-.05-37.257 21.729-37.257zm-145.072 206.977v-12.974c0-8.853 7.202-16.055 16.055-16.055h258.035c8.853 0 16.055 7.202 16.055 16.055v12.974c0 5.643-2.894 10.682-7.437 13.556-20.494-31.285-56.011-35.123-83.227-13.033-5.833 4.735-10.995 9.993-15.538 15.531h-77.74c-4.543-5.538-9.705-10.797-15.538-15.531-27.19-22.07-62.712-18.283-83.227 13.033-4.544-2.873-7.438-7.913-7.438-13.556zm204.641 82.635 31.522-31.522c2.929-2.93 2.929-7.678 0-10.607-2.93-2.928-7.678-2.928-10.607 0l-30.858 30.858c-6.66-4.664-12.266-5.355-19.733-6.328 4.733-16.614 15.634-37.985 33.969-52.867 14.181-11.512 36.997-16.35 53.577.233 8.005 8.004 24.666 29.033 6.539 51.366-15.505 19.103-40.226 31.43-60.69 36.359-.141-1.363.878-8.779-3.719-17.492zm-150.66-31.521 31.522 31.522c-4.554 8.631-3.586 16.212-3.718 17.493-20.464-4.929-45.186-17.257-60.69-36.359-18.127-22.333-1.466-43.362 6.539-51.366 16.581-16.582 39.396-11.743 53.577-.233 18.334 14.882 29.235 36.253 33.968 52.867-7.438.968-13.036 1.638-19.733 6.328l-30.858-30.858c-2.93-2.928-7.678-2.928-10.607 0s-2.929 7.676 0 10.606zm42.804 46.631c0-8.528 6.114-15.682 14.538-17.011 22.387-3.53 45.101-3.53 67.497 0 8.425 1.329 14.539 8.482 14.539 17.011v23.715c0 8.528-6.114 15.682-14.538 17.01-22.395 3.53-45.104 3.531-67.498 0-8.424-1.328-14.538-8.481-14.538-17.01zm19.916-66.691h56.742c-6.604 11.114-11.063 22.492-13.628 32.511-9.821-.628-19.665-.628-29.487 0-2.564-10.019-7.023-21.397-13.627-32.511zm-81.931 175.58c-19.795.006-36.355-.011-38.114.014-9.83-23.048-.021-54.016 10.338-86.693 3.924-12.381 7.929-25.06 10.916-37.592 18.425 17.603 43.429 28.812 63.875 33.127.198 3.994-.77 9.487 1.898 16.936-19.555 19.157-38.602 48.103-48.913 74.208zm54.313 25.52-12.304-12.517c-2.849-2.895-6.793-4.376-10.855-4.074l-19.029 1.438c8.669-24.577 26.566-52.838 45.239-71.826 4.54 4.178 10.324 7.082 16.853 8.111 4.696.741 9.405 1.331 14.121 1.781-13.73 20.841-28.583 51.897-34.025 77.087zm23.857-25.52c7.813-19.163 18.467-38.16 27.747-50.56 3.005.057 5.763.057 8.77 0 9.28 12.4 19.934 31.396 27.746 50.56zm111.281 8.929c-4.05-.3-8.007 1.178-10.858 4.076l-12.302 12.515c-5.442-25.189-20.295-56.245-34.025-77.087 4.716-.45 9.425-1.04 14.121-1.781 6.529-1.029 12.313-3.933 16.853-8.111 18.674 18.988 36.569 47.248 45.239 71.826zm69.267-8.915c-1.724-.024-21.919-.009-38.115-.014-10.311-26.106-29.358-55.049-48.914-74.206 2.655-7.409 1.692-12.761 1.899-16.939 20.446-4.315 45.452-15.525 63.877-33.129 2.987 12.534 6.989 25.213 10.914 37.595 10.36 32.678 20.169 63.645 10.339 86.693z"/></svg>