<svg id="Capa_1" enable-background="new 0 0 512.065 512.065" height="512" viewBox="0 0 512.065 512.065" width="512" xmlns="http://www.w3.org/2000/svg"><path d="m377.658 372.817c-17.078-9.861-38.439 2.448-38.439 22.193v42.552c0 19.703 21.324 32.072 38.439 22.193l36.851-21.276c17.079-9.859 17.101-34.514 0-44.386zm29.351 52.672-36.851 21.276c-7.083 4.088-15.939-1.015-15.939-9.203v-42.552c0-8.179 8.848-13.297 15.939-9.203l36.851 21.276c7.082 4.09 7.091 14.312 0 18.406zm-295.884-157.219c-4.142 0-7.5 3.358-7.5 7.5v12c0 4.143 3.358 7.5 7.5 7.5s7.5-3.357 7.5-7.5v-12c0-4.143-3.358-7.5-7.5-7.5zm157.349 0c-4.143 0-7.5 3.358-7.5 7.5v12c0 4.143 3.357 7.5 7.5 7.5s7.5-3.357 7.5-7.5v-12c0-4.143-3.357-7.5-7.5-7.5zm210.565 62.858c-35.115-7.353-70.487-10.878-105.85-10.595 11.316-6.578 22.098-14.234 32.031-22.79 12.114-10.438 13.48-28.784 3.044-40.898-5.056-5.869-12.094-9.419-19.819-9.994-7.719-.575-15.212 1.893-21.08 6.949-22.965 19.784-45.702 28.061-59.342 31.474-1.317-24.81-1.687-46.376-1.787-58.032h2.71c15.041 0 28.054-9.678 32.379-24.083 6.923-23.045-9.414-45.907-32.587-47.742 9.024-15.372 15.784-33.003 20.129-52.622 5.397-24.371-19.006-44.87-42.117-35.344-18.786 7.745-34.757 8.786-47.944 6.425 14.806-34.988-11.047-73.876-49.006-73.876-38.061 0-63.771 39.002-49.01 73.877-9.013 1.624-19.385 1.674-31.088-.998-4.038-.924-8.059 1.604-8.981 5.642s1.604 8.06 5.643 8.981c34.124 7.794 58.952-3.853 73.77-14.991 5.782-4.347 13.551-4.347 19.333 0 18.481 13.894 49.615 26.699 93.003 8.809 11.913-4.912 24.544 5.631 21.754 18.233-4.664 21.059-12.628 40.237-23.112 55.731h-202.623c-10.485-15.494-18.449-34.673-23.112-55.731-2.048-9.249 4.09-16.555 10.905-18.733 3.945-1.261 6.122-5.481 4.86-9.427-1.261-3.945-5.481-6.122-9.428-4.86-15.446 4.937-24.467 20.527-20.982 36.264 4.345 19.618 11.105 37.249 20.13 52.621-23.179 1.834-39.509 24.704-32.589 47.742 4.327 14.405 17.339 24.083 32.38 24.083h2.713c-.171 20.938-1.048 50.248-3.073 78.568-3.751 1.701-7.197 4.224-10.043 7.558-10.382 12.161-8.935 30.502 3.226 40.885.52.444 1.083.919 1.676 1.415-2.396 16.597-5.236 29.863-8.465 39.584-22.359.692-41.269 16.161-46.291 38.106l-7.347 32.106c-4.142 18.1 9.619 35.316 28.148 35.316h241.372c.871.248 1.752.475 2.649.663 33.812 7.08 67.86 10.62 101.91 10.62s68.1-3.54 101.911-10.62c10.261-2.148 19.327-8.485 24.876-17.387 2.191-3.516 1.118-8.142-2.397-10.332-3.515-2.191-8.142-1.118-10.332 2.397-3.396 5.448-8.944 9.326-15.222 10.641-65.584 13.734-132.09 13.734-197.674 0-10.889-2.279-18.791-12.009-18.791-23.134v-94.685c0-11.125 7.903-20.854 18.792-23.135 65.582-13.733 132.089-13.733 197.673 0 10.889 2.28 18.792 12.01 18.792 23.135v75.426c0 4.143 3.357 7.5 7.5 7.5s7.5-3.357 7.5-7.5v-75.426c.001-18.184-12.918-34.089-30.717-37.816zm-254.749-261.52c-6.145-2.564-11.417-5.785-15.812-9.088-11.173-8.398-26.187-8.398-37.359 0-4.269 3.21-9.549 6.466-15.815 9.078-11.993-25.152 6.378-54.598 34.496-54.598 28.147 0 46.485 29.47 34.49 54.608zm-153.637 142.634c-8.368 0-15.607-5.384-18.014-13.398-4.277-14.241 6.366-28.561 21.242-28.561h231.836c14.87 0 25.52 14.313 21.242 28.561-2.407 8.014-9.646 13.398-18.014 13.398zm1.004 110.865c5.012-5.872 13.867-6.569 19.738-1.558 20.773 17.736 61.378 46.054 88.465 55.216 7.313 2.474 11.25 10.436 8.777 17.748-2.473 7.313-10.434 11.251-17.748 8.777h.001c-36.506-12.348-82.886-47.82-97.676-60.446-5.87-5.011-6.569-13.866-1.557-19.737zm49.031 72.112h-48.298c2.324-7.984 4.422-17.614 6.276-28.817 11.225 8.559 26.118 19.158 42.022 28.817zm-89.491 90.562c-8.923 0-15.513-8.29-13.526-16.971l7.347-32.106c3.568-15.594 17.233-26.485 33.231-26.485h90.048c6.049 2.847 12.027 5.333 17.787 7.281h.001c10.727 3.628 22.354.642 30.075-7.281h48.34v53.41c0 8.138 2.593 15.815 7.047 22.152zm244.02-154.653c-17.799 3.728-30.717 19.632-30.717 37.816v26.275h-40.595c2.54-13.915-5.45-27.998-19.239-32.662-27.697-9.367-68.238-39.358-83.532-52.415-4.586-3.915-10.051-6.146-15.636-6.757 1.881-27.616 2.704-55.798 2.868-76.143h202.87c.152 17.912.936 59.2 4.785 99.989-6.943 1.153-13.879 2.447-20.804 3.897zm35.661-6.134c-.768-8.224-1.41-16.464-1.947-24.519 14.811-3.384 41.513-12.298 68.227-35.31 2.832-2.44 6.445-3.635 10.175-3.354 3.729.277 7.127 1.99 9.567 4.825 2.441 2.833 3.632 6.446 3.354 10.176-.277 3.73-1.99 7.127-4.824 9.567-18.249 15.722-39.557 28.166-61.682 36.053-7.63.674-15.254 1.53-22.87 2.562zm-121.078-52.302c-13.191 0-23.923 11.608-23.923 25.877s10.732 25.877 23.923 25.877 23.922-11.608 23.922-25.877c0-14.268-10.731-25.877-23.922-25.877zm0 36.754c-4.92 0-8.923-4.879-8.923-10.877s4.003-10.877 8.923-10.877 8.922 4.879 8.922 10.877-4.002 10.877-8.922 10.877z"/></svg>