<svg id="Capa_1" enable-background="new 0 0 512.002 512.002" height="512" viewBox="0 0 512.002 512.002" width="512" xmlns="http://www.w3.org/2000/svg"><path d="m317.507 387.441c0-3.532 2.874-6.406 6.406-6.406s6.406 2.874 6.406 6.406c0 4.143 3.357 7.5 7.5 7.5 4.142 0 7.5-3.357 7.5-7.5 0-11.804-9.603-21.406-21.406-21.406s-21.406 9.603-21.406 21.406c0 4.143 3.357 7.5 7.5 7.5 4.142 0 7.5-3.357 7.5-7.5zm-61.506 15.641c8.796 0 17.16-3.81 22.948-10.451 2.722-3.123 2.396-7.86-.727-10.582-3.125-2.722-7.861-2.396-10.582.727-2.938 3.372-7.182 5.307-11.64 5.307s-8.701-1.935-11.64-5.307c-2.723-3.122-7.46-3.447-10.582-.727-3.122 2.722-3.448 7.459-.727 10.582 5.79 6.641 14.154 10.451 22.95 10.451zm189.399 65.062c1.428 3.903 5.744 5.885 9.62 4.466 3.89-1.423 5.89-5.73 4.466-9.62-6.431-17.574-7.837-37.47-4.217-59.152 21.477-27.732 32.635-61.923 32.635-100.968 0-77.377-43.267-134.438-122.1-161.529 1.829-5.756 1.005-9.535 1.213-16.231 0-12.756-9.261-23.383-21.411-25.528 1.43-5.726 3.108-11.913 4.763-17.502 4.194-14.164-4.672-28.949-19.253-31.861-24.245-4.844-52.687-5.999-67.616-6.255v-14.475h1.108c4.143 0 7.5-3.358 7.5-7.5 0-4.143-3.357-7.5-7.5-7.5h-1.108v-6.989c0-4.143-3.357-7.5-7.5-7.5s-7.5 3.357-7.5 7.5v6.989h-1.108c-4.143 0-7.5 3.357-7.5 7.5 0 4.142 3.357 7.5 7.5 7.5h1.108v14.473c-14.929.256-43.372 1.411-67.616 6.255-14.513 2.898-23.466 17.633-19.253 31.861 1.654 5.587 3.334 11.776 4.764 17.502-12.15 2.145-21.412 12.772-21.412 25.529.209 6.718-.616 10.487 1.219 16.247-10.103 3.478-19.735 7.48-28.707 11.966-3.704 1.853-5.206 6.357-3.353 10.063 1.839 3.679 6.33 5.218 10.063 3.354 9.6-4.8 20.022-9.028 31.028-12.601 1.963 1.496 4.145 2.716 6.488 3.608-.345 19.051-2.222 74.363-12.412 105.963-7.834 4.06-13.931 11.152-16.667 20.075l-4.482 14.62c-5.082 16.582 7.296 33.332 24.645 33.332h206.395c17.343 0 29.729-16.744 24.645-33.332l-4.482-14.62c-2.736-8.923-8.833-16.014-16.667-20.075-10.19-31.6-12.067-86.912-12.412-105.963 2.336-.889 4.512-2.105 6.47-3.594 72.293 23.433 116.153 73.623 116.153 148.718 0 114.368-101.195 163.313-216.903 163.313-115.248 0-216.903-48.579-216.903-163.313 0-49.9 18.947-89.696 56.315-118.283 3.29-2.517 3.917-7.225 1.4-10.514-2.517-3.29-7.224-3.916-10.514-1.4-40.693 31.13-62.202 76.151-62.202 130.197 0 57.094 23.843 103.819 68.95 135.126 40.709 28.253 97.057 43.187 162.953 43.187 32.473 0 62.62-3.634 89.727-10.693 18.298 14.895 47.524 33.16 87.205 40.974 8.928 1.76 17.887-.82 24.537-7.186 2.992-2.864 3.096-7.612.231-10.604s-7.612-3.095-10.604-.232c-1.786 1.711-5.625 4.415-11.265 3.305-31.191-6.142-55.388-19.267-72.336-31.524 27.584-9.218 53.734-23.091 74.892-42.88-.492 16.324 1.838 31.665 7.01 45.801zm-261.576-403.217c39.913-7.974 104.355-7.991 144.354 0 5.911 1.182 9.517 7.126 7.809 12.894-2.025 6.841-4.092 14.569-5.727 21.357h-148.518c-1.635-6.788-3.702-14.516-5.727-21.357-1.71-5.774 1.905-11.714 7.809-12.894zm181.195 223.253 4.482 14.62c2.126 6.932-3.049 13.936-10.303 13.936h-206.394c-7.252 0-12.429-7.002-10.303-13.936l4.482-14.62c2.43-7.924 9.63-13.248 17.918-13.248h182.199c8.289 0 15.489 5.324 17.919 13.248zm-199.031-28.248c7.394-28.79 10.125-70.71 10.708-100.497h158.609c.582 29.72 3.302 71.653 10.712 100.497zm186.03-126.428c0 6.027-4.903 10.931-10.93 10.931h-170.174c-6.026 0-10.93-4.903-10.93-10.931v-8.395c0-6.027 4.903-10.931 10.93-10.931h170.174c6.026 0 10.93 4.903 10.93 10.931zm-154.112 254.272v-12c0-4.143-3.357-7.5-7.5-7.5s-7.5 3.357-7.5 7.5v12c0 4.143 3.357 7.5 7.5 7.5s7.5-3.357 7.5-7.5z"/></svg>