<svg id="Capa_1" enable-background="new 0 0 512 512" height="512" viewBox="0 0 512 512" width="512" xmlns="http://www.w3.org/2000/svg"><path d="m259.337 366.502h-10.681c-4.142 0-7.5 3.357-7.5 7.5 0 4.142 3.358 7.5 7.5 7.5h3.181v42.472c0 4.143 3.358 7.5 7.5 7.5s7.5-3.357 7.5-7.5v-49.972c0-4.143-3.358-7.5-7.5-7.5zm192.362-256.591c-5.441-15.941-13.542-30.653-24.075-43.725-2.6-3.226-7.322-3.732-10.546-1.134-3.225 2.6-3.733 7.32-1.134 10.546 9.432 11.704 16.685 24.879 21.559 39.158 17.658 51.734 4.796 125.916-57.763 193.725-2.644-6.02-8.128-10.511-14.751-11.773l18.05-58.495c3.816-12.369-5.411-24.882-18.36-24.882h-19.768c14.324-26.807 26.134-60.907 28.592-92.492 2.786-35.801-5.909-70.897-32.718-94.136 18.085 5.719 35.276 13.849 50.645 25.352 3.315 2.482 8.017 1.806 10.499-1.51 2.483-3.315 1.807-8.016-1.509-10.498-40.493-30.313-93.626-40.047-144.423-40.047-42.497 0-87.006 6.833-124.169 27.079-34.765 18.939-59.501 47.582-71.533 82.832-20.441 59.885-3.642 145.378 71.195 219.364 1.922 7.016 6.654 12.882 12.911 16.3-15.448 37.469-11.389 82.24 14.426 117.282 2.449 3.324 7.14 4.056 10.487 1.59 3.335-2.456 4.047-7.151 1.59-10.486-13.427-18.227-20.524-39.865-20.524-62.576 0-14.861 3.015-29.16 8.95-42.579h28.19c-7.915 12.688-12.172 27.363-12.172 42.579 0 44.47 36.179 80.648 80.648 80.648s80.648-36.179 80.648-80.648c0-15.217-4.258-29.892-12.172-42.579h28.19c5.935 13.419 8.95 27.718 8.95 42.579 0 58.237-47.379 105.616-105.616 105.616-21.894 0-42.894-6.637-60.73-19.194-3.386-2.383-8.065-1.572-10.45 1.815s-1.572 8.065 1.815 10.45c20.378 14.345 44.364 21.928 69.366 21.928 66.508 0 120.616-54.108 120.616-120.616 0-15.931-3.039-31.3-9.021-45.809 6.257-3.418 10.988-9.284 12.911-16.3 74.896-74.043 91.63-159.499 71.196-219.364zm-87.021 118.421c2.853 0 4.862 2.755 4.027 5.459l-19.301 62.549h-186.814l-19.301-62.55c-.837-2.712 1.182-5.458 4.027-5.458h30.916c1.86 0 3.479 1.194 4.028 2.972l8.693 28.173c1.913 6.196 7.555 10.359 14.04 10.359h16.094c8.102 0 14.692-6.591 14.692-14.692v-22.596c0-2.324 1.891-4.216 4.215-4.216h32.006c2.324 0 4.215 1.892 4.215 4.216v22.596c0 8.101 6.591 14.692 14.692 14.692h16.094c6.484 0 12.126-4.163 14.039-10.36l8.693-28.171c.549-1.778 2.167-2.973 4.028-2.973zm-37.789-13.73c-5.403 2.055-9.697 6.479-11.488 12.28l-8.626 27.954h-15.56v-22.288c0-10.596-8.62-19.216-19.215-19.216h-32.006c-10.595 0-19.215 8.62-19.215 19.216v22.288h-15.56l-8.626-27.955c-1.79-5.8-6.085-10.225-11.488-12.279-15.609-25.363-21.797-51.079-16.156-67.604 9.286-27.2 58.25-32.189 87.048-32.189s77.762 4.99 87.048 32.189c5.641 16.525-.547 42.241-16.156 67.604zm-70.892-199.602c78.848 0 114.276 48.31 99.945 123.805-14.755-33.832-68.54-38.996-99.945-38.996-31.404 0-85.19 5.164-99.945 38.996-14.268-75.164 20.769-123.805 99.945-123.805zm-123.743 293.482c-62.661-67.921-75.379-142.115-57.763-193.725 10.797-31.632 33.105-57.395 64.513-74.506 9.859-5.371 20.613-9.882 32.204-13.547-50.796 44.032-35.975 127.019-4.125 186.628h-19.768c-12.944 0-22.178 12.509-18.36 24.882l18.05 58.495c-6.622 1.262-12.107 5.753-14.751 11.773zm123.743 148.55c-36.199 0-65.648-29.45-65.648-65.648 0-15.697 5.555-30.696 15.704-42.579h99.889c10.149 11.883 15.704 26.882 15.704 42.579-.001 36.198-29.45 65.648-65.649 65.648zm110.234-132.552c-.565 4.092-4.473 8.529-9.838 9.219-1.232.161-199.57.155-200.803-.002-5.654-.734-10.043-5.565-10.043-11.424v-5.679c0-2.897 2.357-5.255 5.254-5.255.103 0 6.344 0 6.242 0 10.723 0 210.663.003 204.151 0 2.898 0 5.254 2.357 5.254 5.255-.058 5.317.139 6.055-.217 7.886z"/></svg>