<svg id="Capa_1" enable-background="new 0 0 511.992 511.992" height="512" viewBox="0 0 511.992 511.992" width="512" xmlns="http://www.w3.org/2000/svg"><path d="m348.47 346.033h-.006c-4.14 0-7.497 3.354-7.5 7.494l-.009 11.876c-.003 4.143 3.353 7.503 7.494 7.506h.006c4.14 0 7.497-3.354 7.5-7.494l.009-11.876c.003-4.143-3.353-7.503-7.494-7.506zm23.806-148.464c0 4.143 3.357 7.5 7.5 7.5h66.744c4.143 0 7.5-3.357 7.5-7.5s-3.357-7.5-7.5-7.5h-66.744c-4.142 0-7.5 3.357-7.5 7.5zm97.108 270.043-6.577-21.454c-3.875-12.638-12.697-22.577-23.979-27.993-16.711-50.266-18.688-143.377-18.916-161.863-.104-8.606-7.197-15.607-15.81-15.607-3.213.202-12.317-.981-24.319 3.386l-162.659 59.203 84.136-180.432 19.624-19.624v-.001c13.469-13.47 13.468-35.386-.001-48.854l-8.711-8.71c-12.937-12.939-33.582-13.5-47.184-1.555-5.076-8.323-10.613-17.921-15.342-26.628-9.442-17.381-31.706-22.715-48.013-11.839-2.647 1.767-5.396 3.66-8.166 5.63-3.377 2.399-4.168 7.082-1.769 10.458s7.082 4.168 10.458 1.769c2.651-1.884 5.275-3.693 7.8-5.378 9.083-6.055 21.314-3.045 26.509 6.521 5.421 9.98 11.886 21.111 17.575 30.299l-158.025 158.025c-9.188-5.689-20.32-12.154-30.3-17.575-9.559-5.191-12.581-17.421-6.521-26.509 23.429-35.127 67.518-84.189 115.517-124.12 3.185-2.648 3.619-7.378.97-10.563s-7.378-3.618-10.563-.969c-17.516 14.571-32.555 28.734-42.123 38.084l-19.935-19.936 3.628-3.629c2.93-2.929 2.93-7.678.001-10.606-2.929-2.929-7.678-2.93-10.606-.001l-3.63 3.629-9.732-9.732c-2.93-2.928-7.678-2.928-10.607 0-2.929 2.93-2.929 7.678 0 10.607l9.731 9.731-3.629 3.629c-2.93 2.929-2.93 7.678-.001 10.607 2.928 2.928 7.677 2.931 10.606.001l3.63-3.63 19.939 19.939c-14.386 14.745-44.581 47.009-65.674 78.635-10.891 16.326-5.52 38.582 11.839 48.013 8.707 4.73 18.304 10.267 26.628 15.342-5.534 6.301-8.564 14.294-8.565 22.756 0 9.228 3.594 17.903 10.118 24.428l8.711 8.711c11.028 11.026 27.698 13.028 40.794 5.992 7.125 7.328 18.95 19.759 32.51 35.09l-6.546 2.383c-9.396 3.421-15.896 11.741-16.966 21.714-3.328 31.045-7.968 55.632-13.801 73.18-11.282 5.416-20.104 15.354-23.979 27.992l-6.577 21.454c-6.769 22.081 9.714 44.38 32.813 44.38h251.03c4.143 0 7.5-3.357 7.5-7.5s-3.357-7.5-7.5-7.5h-251.03c-13.001 0-22.285-12.55-18.472-24.983l6.577-21.454c4.066-13.262 16.167-21.919 29.646-21.919h267.369c13.713 0 25.627 8.809 29.646 21.919l6.577 21.454c3.812 12.43-5.467 24.983-18.472 24.983h-15.884c-4.143 0-7.5 3.357-7.5 7.5s3.357 7.5 7.5 7.5h15.884c23.1 0 39.588-22.295 32.818-44.38zm-335.688-198.411c-7.619 7.621-20.021 7.621-27.641 0l-8.712-8.711c-3.691-3.691-5.725-8.6-5.725-13.82s2.033-10.129 5.726-13.82c6.997-6.997 163.904-163.904 176.58-176.58 7.637-7.639 20.001-7.641 27.642 0l8.711 8.711c7.621 7.62 7.621 20.021 0 27.641zm14.173 7.042 122.381-122.381-73.059 156.676-13.308 4.844c-14.811-16.943-27.993-30.865-36.014-39.139zm.576 137.497c4.873-17.548 8.803-40.046 11.709-67.155.455-4.238 3.207-7.771 7.183-9.218 26.462-9.631 215.655-78.492 217.576-79.191 9.123-3.318 15.91-2.295 19.189-2.482.441 0 .806.354.812.791.153 12.525.882 45.525 4.311 81.358 2.972 31.042 7.194 56.486 12.586 75.896-2.211-.14-270.669-.171-273.366.001zm197.673-252.462 61.514-61.514c2.929-2.93 2.929-7.678 0-10.607-2.93-2.928-7.678-2.928-10.607 0l-61.514 61.514c-2.929 2.93-2.929 7.678 0 10.607 2.93 2.929 7.677 2.928 10.607 0zm-124.25 184.631h-.006c-4.14 0-7.497 3.354-7.5 7.494l-.009 11.877c-.003 4.143 3.353 7.503 7.494 7.506h.006c4.14 0 7.497-3.354 7.5-7.494l.009-11.877c.003-4.143-3.352-7.503-7.494-7.506zm79.977 17.225-33.378-.028h-.007c-4.139 0-7.496 3.354-7.5 7.493-.004 4.143 3.352 7.503 7.493 7.507l33.378.028h.007c4.139 0 7.496-3.353 7.5-7.493.004-4.142-3.352-7.503-7.493-7.507z"/></svg>