<svg id="Capa_1" enable-background="new 0 0 512.048 512.048" height="512" viewBox="0 0 512.048 512.048" width="512" xmlns="http://www.w3.org/2000/svg"><path d="m510.006 129.962c-2.404-15.725-15.133-27.414-30.953-28.426-4.13-.273-7.699 2.872-7.964 7.006-.264 4.134 2.873 7.699 7.006 7.963 8.729.559 15.753 7.024 17.083 15.725 5.274 34.5-.262 61.887-19.108 94.528-4.942 8.56-11.987 15.576-20.144 20.308.084-.689.171-1.377.247-2.072 1.473-13.325-4.958-25.554-15.566-32.173l20.128-34.861c2.071-3.587.842-8.174-2.745-10.245s-8.174-.843-10.245 2.745l-21.636 37.475c-2.285-.216-4.61-.212-6.948.047-10.202 1.128-19.7 2.969-28.699 5.609-.9-10.809 1.64-22.115 7.354-32.013 14.512-25.135 30.358-41.746 51.379-53.859 3.589-2.067 4.822-6.653 2.754-10.243-2.069-3.589-6.653-4.82-10.243-2.753-23.434 13.503-40.976 31.81-56.88 59.355-7.918 13.715-11.029 29.652-8.873 44.652-13.388 5.603-25.808 13.329-38.035 23.555-.871-14.764-1.29-29.079-1.416-40.564 10.882-.288 20.226-7.383 23.375-17.866 4.711-15.686-5.23-31.309-20.268-34.603 5.282-9.749 9.298-20.723 11.97-32.787 4.047-18.278-14.246-33.64-31.568-26.496-10.69 4.408-19.94 5.435-27.775 4.564 8.062-24.693-10.448-49.925-36.209-49.925-25.771 0-44.269 25.238-36.209 49.925-7.835.871-17.085-.157-27.775-4.565-17.302-7.137-35.62 8.199-31.568 26.495 2.672 12.064 6.687 23.039 11.969 32.788-15.039 3.295-24.978 18.918-20.267 34.603 3.149 10.483 12.492 17.578 23.374 17.866-.127 11.484-.545 25.797-1.416 40.561-12.227-10.226-24.647-17.954-38.035-23.555 2.154-14.999-.956-30.935-8.874-44.648-20.443-35.409-44.324-56.429-79.849-70.286-9.564-3.73-20.123-2.941-28.97 2.167-8.847 5.107-14.811 13.856-16.362 24.004-5.762 37.695.502 68.887 20.946 104.296 8.299 14.375 21.354 25.38 36.273 30.773 5.846 25.141 17.424 46.542 36.147 67.208-2.408 9.419 1.246 15.966 1.953 19.319-9.587 4.56-18.872 9.582-28.211 15.275-3.537 2.156-4.656 6.771-2.5 10.309 2.151 3.528 6.765 4.66 10.308 2.5 8.224-5.013 16.398-9.482 24.793-13.556l10.13 33.525c4.09 13.536 18.448 21.316 31.873 17.572 2.445-.681 4.96-1.361 7.551-2.034l.949 2.868c1.758 5.31-1.076 11.159-6.318 13.039-19.195 6.882-34.665 13.564-47.295 20.431-5.416 2.944-11.858-1.297-11.182-7.388l1.65-14.86c.811-7.304-3.373-14.349-10.173-17.133l-21.74-8.898c-2.98-1.22-3.829-4.174-3.356-6.402.859-4.052-1.729-8.033-5.781-8.893-4.054-.855-8.033 1.729-8.893 5.781-2.073 9.779 3.12 19.619 12.348 23.396l21.74 8.898c.633.259 1.022.915.947 1.596l-1.65 14.859c-1.497 13.482 9.112 24.995 22.395 24.995 11.751-.003 9.167-5.453 56.053-22.264 12.838-4.603 19.789-18.901 15.495-31.872l-.531-1.604c9.032-1.889 19.24-3.569 31.259-4.819 5.276 9.23 16.418 13.375 26.452 9.804l30.01-10.672c1.51-.537 3.172-.537 4.681 0l30.01 10.672c10.112 3.596 21.228-.643 26.463-9.821 11.988 1.246 22.199 2.931 31.25 4.829l-.533 1.611c-4.293 12.971 2.658 27.269 15.496 31.872 46.105 16.531 44.546 22.263 56.053 22.263 13.282 0 23.893-11.501 22.395-24.993l-1.65-14.861c-.076-.68.314-1.336.947-1.595l21.74-8.898c15.036-6.155 17.378-26.435 4.13-35.859-17.017-12.105-33.052-21.632-49.975-29.677.729-3.459 4.343-9.964 1.957-19.322 18.719-20.664 30.296-42.063 36.141-67.202 14.919-5.393 27.973-16.397 36.273-30.773 20.439-35.409 26.703-66.6 20.941-104.296zm-253.982-70.354c15.867 0 27.084 15.725 21.779 30.776-2.95-1.425-5.546-3.069-7.781-4.748-8.373-6.293-19.624-6.292-27.997 0-2.234 1.68-4.83 3.324-7.78 4.749-5.315-15.08 5.947-30.777 21.779-30.777zm-69.702 44.227c30.133 12.426 51.825 3.481 64.717-6.209 2.981-2.242 6.988-2.242 9.97 0 12.892 9.691 34.584 18.635 64.717 6.209 6.133-2.529 12.639 2.91 11.205 9.385-2.949 13.314-7.903 25.457-14.396 35.382h-133.023c-6.493-9.926-11.447-22.068-14.395-35.382-1.432-6.461 5.06-11.918 11.205-9.385zm-19.783 75.704c-2.387-7.946 3.551-15.938 11.854-15.938 5.693 0 160.449.002 155.262 0 8.297 0 14.242 7.986 11.853 15.938-1.295 4.312-5.189 7.208-9.691 7.208h-159.586c-4.502 0-8.397-2.896-9.692-7.208zm162.729 120.336c-2.393-.263-1.262-.094-2.765-.537l-30.551-9.005c-1.537-.454-2.882-1.431-3.787-2.752l-18.006-26.273c-8.727-12.733-27.546-12.728-36.269 0l-18.006 26.273c-.905 1.321-2.251 2.298-3.787 2.751-35.787 10.351-29.996 9.166-33.315 9.533 6.332-32.104 7.535-79.261 7.76-98.118h130.964c.224 18.859 1.428 66.024 7.762 98.128zm-273.394-54.88c.078.706.166 1.403.251 2.102-8.161-4.737-15.203-11.774-20.148-20.338-18.846-32.642-24.382-60.029-19.108-94.528.859-5.622 4.152-10.463 9.034-13.281 4.881-2.818 10.719-3.251 16.019-1.183 32.515 12.683 53.464 31.17 72.31 63.811 5.714 9.897 8.254 21.202 7.354 32.011-8.999-2.639-18.496-4.478-28.699-5.606-2.338-.259-4.663-.264-6.948-.048l-21.635-37.475c-2.071-3.588-6.658-4.815-10.245-2.745-3.587 2.071-4.817 6.658-2.745 10.245l20.127 34.861c-10.585 6.606-17.043 18.822-15.567 32.174zm14.91-1.649c-1.311-11.855 8.584-21.757 20.456-20.456 32.317 3.573 56.891 15.059 81.526 38.23-1.316 15.082-3.178 29.533-5.756 40.778-1.911.285-3.814.586-5.714.898l-38.092-38.091c-2.929-2.928-7.678-2.928-10.606 0-2.929 2.93-2.929 7.678 0 10.608l30.846 30.846c-9.536 2.024-19.294 4.448-29.775 7.383-3.765 1.055-7.165 2.893-10.03 5.371-19.604-22.663-29.554-45.71-32.855-75.567zm123.637 148.75c-23.351 2.508-40.088 6.569-54.694 10.637-5.714 1.586-11.765-1.756-13.489-7.461l-16.147-53.44c-1.791-5.926 1.632-12.169 7.623-13.846 18.87-5.284 35.32-8.871 52.404-11.374-1.064 6.033.426 12.289 4.219 17.22l19.424 25.245c.977 1.269 1.49 2.849 1.446 4.45zm111.978-42.167c-3.075 3.996-4.691 8.972-4.552 14.011l.875 31.839c.135 4.894-4.673 8.425-9.322 6.773l-30.01-10.672c-4.75-1.689-9.981-1.689-14.731 0l-30.011 10.672c-4.616 1.638-9.458-1.844-9.322-6.773l.875-31.838c.139-5.041-1.478-10.017-4.552-14.011l-19.423-25.244c-2.991-3.888-1.163-9.567 3.56-10.959l30.552-9.007c4.836-1.426 9.068-4.501 11.918-8.658l18.006-26.273c2.767-4.038 8.734-4.069 11.522 0l18.006 26.273c2.85 4.157 7.082 7.232 11.918 8.659l30.551 9.006c4.707 1.387 6.563 7.056 3.561 10.959zm11.227 42.142-.785-28.544c-.044-1.601.469-3.181 1.446-4.45l19.423-25.244c3.793-4.931 5.284-11.187 4.219-17.22 17.158 2.509 33.623 6.103 52.475 11.389 5.937 1.664 9.344 7.9 7.554 13.826l-16.149 53.445c-1.725 5.706-7.771 9.054-13.479 7.465-19.616-5.467-35.954-8.67-54.704-10.667zm138.344 1.384c3.603 2.563 2.976 8.079-1.118 9.754l-21.739 8.898c-6.801 2.784-10.985 9.83-10.173 17.133l1.65 14.861c.676 6.084-5.759 10.333-11.182 7.387-12.629-6.866-28.1-13.549-47.294-20.431-5.242-1.88-8.077-7.729-6.319-13.039l.95-2.869c7.666 1.992 9.818 2.977 14.422 2.977 11.182 0 21.624-7.334 25.002-18.516l10.13-33.525c15.375 7.46 30.076 16.276 45.671 27.37zm-14.706-150.109c-3.3 29.85-13.247 52.894-32.844 75.551-2.848-2.462-6.225-4.29-9.963-5.339-10.497-2.943-20.278-5.374-29.85-7.403l30.843-30.842c2.929-2.93 2.929-7.678 0-10.608-2.928-2.927-7.677-2.929-10.607 0l-38.094 38.094c-1.898-.311-3.8-.611-5.71-.895-2.579-11.246-4.441-25.699-5.757-40.783 24.636-23.171 49.209-34.658 81.526-38.23 11.858-1.3 21.768 8.585 20.456 20.455zm-167.358 84.015h-35.761c-4.142 0-7.5 3.357-7.5 7.5s3.358 7.5 7.5 7.5h35.761c4.142 0 7.5-3.357 7.5-7.5s-3.358-7.5-7.5-7.5z"/></svg>