<svg id="Capa_1" enable-background="new 0 0 512.002 512.002" height="512" viewBox="0 0 512.002 512.002" width="512" xmlns="http://www.w3.org/2000/svg"><path d="m502.779 311.65-8.727-5.488c-9.476-5.956-21.511-4.832-29.717 2.612-22.317-12.483-48.853-30.228-62.257-40.404 2.376-3.27 4.085-6.938 5.048-10.838l52.593-44.677c10.763-9.144 6.61-26.659-7.113-29.996l-69.872-16.99c-1.128-.275-1.878-1.352-1.742-2.505l8.653-73.561c1.783-15.152-15.482-25.028-27.639-15.803l-56.718 43.037c-1.135.864-2.755.49-3.417-.746l-30.623-57.131c-6.513-12.151-23.978-12.161-30.496 0l-30.623 57.131c-.666 1.242-2.285 1.605-3.417.746l-56.718-43.037c-12.183-9.246-29.419.684-27.64 15.803l1.249 10.619c.484 4.114 4.212 7.061 8.325 6.572 4.114-.483 7.057-4.211 6.573-8.324l-1.249-10.619c-.147-1.249.54-1.922 1.142-2.267s1.53-.595 2.532.165l56.718 43.037c8.473 6.432 20.687 3.755 25.706-5.609l30.623-57.131c.871-1.625 3.183-1.626 4.055 0l30.623 57.131c5.025 9.375 17.243 12.033 25.706 5.609l56.718-43.037c1.001-.76 1.929-.51 2.532-.165s1.29 1.018 1.143 2.267l-8.653 73.561c-1.02 8.672 4.609 16.768 13.094 18.832l69.873 16.991c1.835.445 2.385 2.765.946 3.988l-43.986 37.366c-7.068-18.714-29.794-26.197-46.618-15.237-6.764-9.244-15.886-16.313-26.297-20.556l5.603-29.82c2.7-14.368-11.42-26.101-25.053-20.801l-56.344 21.895c-.849.33-1.782.329-2.627 0l-56.345-21.895c-13.637-5.294-27.752 6.433-25.052 20.802l5.603 29.82c-10.411 4.244-19.533 11.312-26.297 20.556-16.828-10.964-39.552-3.474-46.618 15.237l-43.986-37.366c-1.439-1.222-.891-3.543.945-3.988l69.874-16.992c8.484-2.064 14.113-10.159 13.093-18.831l-3.207-27.265c-.484-4.114-4.218-7.062-8.325-6.572-4.114.483-7.057 4.211-6.573 8.324l3.207 27.265c.136 1.153-.613 2.23-1.741 2.504l-69.872 16.991c-13.723 3.337-17.877 20.852-7.113 29.996l52.592 44.677c.963 3.899 2.672 7.567 5.048 10.838-13.404 10.175-39.939 27.921-62.257 40.404-8.207-7.444-20.243-8.57-29.717-2.611l-8.726 5.487c-10.725 6.743-12.387 21.689-3.446 30.631l113.9 113.9c8.933 8.932 23.88 7.29 30.631-3.447l5.487-8.726c5.583-8.878 4.944-20.006-1.283-28.126l55.791-3.598c.733-.037 1.455.265 1.924.833l30.421 36.926c6.928 8.409 19.793 8.392 26.706 0l30.422-36.927c.468-.568 1.185-.879 1.922-.832l55.793 3.598c-6.227 8.119-6.866 19.248-1.283 28.126l5.487 8.726c6.739 10.717 21.681 12.396 30.631 3.447l79.289-79.289c2.929-2.93 2.929-7.678 0-10.607-2.929-2.928-7.678-2.928-10.606 0l-79.289 79.289c-2.142 2.143-5.713 1.743-7.326-.825l-5.487-8.725c-2.427-3.86-1.871-8.809 1.354-12.033.108-.108 108.988-108.986 103.776-103.776 3.225-3.226 8.173-3.778 12.033-1.354l8.726 5.487c2.561 1.611 2.971 5.179.824 7.327l-9.125 9.125c-2.929 2.929-2.929 7.678 0 10.606s7.678 2.929 10.606-.001l9.124-9.124c8.961-8.96 7.261-23.902-3.444-30.632zm-139.778-71.441c1.001-.721 5.053-6.747 13.577-6.747 14.635 0 21.972 17.788 11.647 28.11l-76.608 76.608c-6.421 6.425-16.871 6.422-23.294 0-6.422-6.422-6.422-16.871 0-23.293 18.486-18.486 74.578-74.578 74.678-74.678zm-14.769-6.445-64.424 64.424c-12.637-8.589-20.308-22.826-20.308-38.335 0-29.014 27.07-52.973 59.139-44.621 10.368 2.95 19.43 9.465 25.593 18.532zm-109.825 75.593c7.348-5.377 13.321-12.245 17.594-20.066 4.272 7.821 10.245 14.689 17.594 20.066-8.492 12.984-6.387 30.953 6.398 41.496l-21.584 19.149c-1.372 1.217-3.442 1.217-4.813 0l-21.588-19.152c12.709-10.457 14.945-28.427 6.399-41.493zm-45.498-143 56.346 21.896c4.349 1.688 9.14 1.691 13.492-.001l56.344-21.895c2.646-1.029 5.405 1.243 4.878 4.05l-5.386 28.662c-26.172-3.708-50.631 9.567-62.582 31.405-11.955-21.846-36.418-35.113-62.583-31.405l-5.386-28.662c-.525-2.795 2.221-5.081 4.877-4.05zm-3.548 48.875c32.031-8.342 59.139 15.569 59.139 44.621 0 15.509-7.671 29.745-20.308 38.335l-64.424-64.424c6.164-9.067 15.226-15.582 25.593-18.532zm-65.585 23.047c6.435-6.436 16.857-6.438 23.294 0l76.608 76.608c6.422 6.422 6.422 16.871 0 23.293-6.422 6.423-16.872 6.423-23.294 0l-76.608-76.608c-6.291-6.29-6.568-16.727 0-23.293zm19.32 197.744-5.487 8.727c-1.61 2.561-5.179 2.973-7.326.824l-113.9-113.9c-2.143-2.143-1.742-5.713.825-7.326l8.726-5.486c3.86-2.428 8.809-1.872 12.033 1.353 11.909 11.909 86.609 86.608 103.776 103.776 3.224 3.223 3.78 8.173 1.353 12.032zm-.89-32.782-83.491-83.491c21.889-12.547 47.969-29.898 61.594-40.431l62.328 62.328c-10.533 13.626-27.884 39.706-40.431 61.594zm160.456-5.926c-5.538-.36-10.941 1.986-14.464 6.265l-30.422 36.926c-.919 1.116-2.627 1.12-3.55 0l-30.42-36.925c-3.523-4.279-8.922-6.619-14.467-6.266l-48.067 3.1c11.246-18.615 24.194-37.682 32.316-48.383 6.613 4.789 14.979 6.896 23.414 5.558l26.639 23.633c7.045 6.251 17.674 6.252 24.722 0l26.618-23.615c8.258 1.309 16.64-.637 23.435-5.574 8.123 10.701 21.069 29.767 32.315 48.381zm67.133 5.926c-12.547-21.888-29.898-47.968-40.431-61.594l62.328-62.328c13.625 10.533 39.705 27.884 61.594 40.431z"/></svg>