<svg id="Capa_1" enable-background="new 0 0 512 512" height="512" viewBox="0 0 512 512" width="512" xmlns="http://www.w3.org/2000/svg"><path d="m231.256 455.59c-4.142 0-7.5 3.357-7.5 7.5s3.358 7.5 7.5 7.5h49.488c4.143 0 7.5-3.357 7.5-7.5s-3.357-7.5-7.5-7.5zm151.69-272.299c0 4.143 3.357 7.5 7.5 7.5h25.518c4.143 0 7.5-3.357 7.5-7.5s-3.357-7.5-7.5-7.5h-25.518c-4.143 0-7.5 3.357-7.5 7.5zm-77.148 238.936c0-4.143-3.358-7.5-7.5-7.5h-84.595c-4.142 0-7.5 3.357-7.5 7.5s3.358 7.5 7.5 7.5h84.595c4.142 0 7.5-3.358 7.5-7.5zm118.749-422.227h-11.618c-4.143 0-7.5 3.357-7.5 7.5s3.357 7.5 7.5 7.5h11.618c13.061 0 23.688 10.626 23.688 23.687v71.328c-22.369-13.766-50.336-16.757-75.649-7.078 1.193-7.698.546-10.925.732-33.317 0-12.276-9.988-22.264-22.265-22.264h-51.323c-12.276 0-22.264 9.987-22.264 22.264v15.086c0 2.539-2.066 4.604-4.605 4.604h-33.723c-2.539 0-4.605-2.065-4.605-4.604v-15.087c0-12.276-9.988-22.264-22.265-22.264h-51.322c-12.276 0-22.264 9.987-22.264 22.264v23.877c0 8.88 1.876 17.476 5.575 25.547l6.911 15.081c-8.882 3.117-15.27 11.583-15.27 21.517l.001 5.852c0 15.002 12.126 27.221 27.09 27.384-1.134 11.899-2.777 23.125-4.675 33.471-30.947-9.443-62.226-19.079-94.548-19.511v-164.15c0-13.061 10.626-23.687 23.687-23.687h290.061c4.143 0 7.5-3.357 7.5-7.5s-3.357-7.5-7.5-7.5h-290.061c-21.332 0-38.687 17.354-38.687 38.687v434.627c0 21.332 17.355 38.686 38.687 38.686h29.373c4.142 0 7.5-3.357 7.5-7.5s-3.358-7.5-7.5-7.5h-29.373c-13.061 0-23.687-10.626-23.687-23.686v-255.483c31.013.411 61.437 10.118 91.555 19.284-3.98 17.917-8.432 32.239-11.617 41.455-4.466 12.92-3.764 26.885 1.979 39.32l3.999 8.66c-13.46 2.417-24.622 12.432-28.219 26.003l-2.211 8.344c-3.943 14.883 7.265 29.465 22.674 29.465h228.146c15.395 0 26.622-14.571 22.675-29.465l-2.211-8.344c-3.596-13.571-14.759-23.586-28.219-26.003l3.999-8.66c5.743-12.435 6.446-26.399 1.98-39.32-2.204-6.375-4.265-12.972-6.173-19.735 12.214 6.668 26.212 10.464 41.08 10.464 16.031 0 31.575-4.452 45.029-12.731v126.294c0 13.766-7.807 31.638-44.996 38.605-15.382 2.883-27.653 15.154-30.536 30.537-6.965 37.189-24.837 44.996-38.604 44.996h-180.643c-4.142 0-7.5 3.357-7.5 7.5s3.358 7.5 7.5 7.5h215.312c52.09 0 94.469-42.379 94.469-94.469v-378.844c0-21.333-17.355-38.687-38.687-38.687zm23.687 417.531c0 43.819-35.649 79.469-79.469 79.469h-.08c8.931-9.691 15.329-23.917 18.761-42.232 1.751-9.348 9.208-16.805 18.555-18.556 18.316-3.432 32.543-9.83 42.233-18.761zm-294.551-347.912c0-4.005 3.259-7.264 7.264-7.264h51.322c4.006 0 7.265 3.259 7.265 7.264v15.086c0 10.81 8.794 19.604 19.605 19.604h33.723c10.811 0 19.605-8.795 19.605-19.604v-15.086c0-4.005 3.259-7.264 7.264-7.264h51.322c4.006 0 7.265 3.259 7.265 7.264v23.877c0 6.677-1.407 13.141-4.174 19.213-7.916 5.52-14.861 12.331-20.532 20.132h-166.532l-9.186-20.047c-2.794-6.097-4.211-12.59-4.211-19.298zm-2.784 91.873-.001-5.852c0-4.301 3.499-7.8 7.8-7.8h166.176c-3.679 8.096-6.148 16.851-7.153 26.044h-154.43c-6.833.001-12.392-5.558-12.392-12.392zm6.981 121.979c7.285-21.077 16.492-54.178 20.173-94.586h139.346c1.405 21.768 10.935 41.35 25.593 55.743 3.144 13.492 6.88 26.554 11.128 38.843 3.194 9.24 2.689 19.23-1.42 28.131l-6.642 14.383h-180.116l-6.642-14.383c-4.109-8.901-4.614-18.891-1.42-28.131zm218.157 72.925 2.211 8.344c1.422 5.366-2.619 10.623-8.175 10.623h-228.146c-5.553 0-9.597-5.254-8.174-10.623l2.21-8.344c2.404-9.073 10.639-15.411 20.026-15.411h200.022c9.386-.001 17.622 6.336 20.026 15.411zm72.197-118.207c-12.679 10.412-28.543 16.11-45.029 16.11-39.154 0-71.008-31.854-71.008-71.008 0-38.976 31.719-71.008 71.008-71.008 16.487 0 32.351 5.699 45.029 16.111z"/></svg>