<svg id="Capa_1" enable-background="new 0 0 512.003 512.003" height="512" viewBox="0 0 512.003 512.003" width="512" xmlns="http://www.w3.org/2000/svg"><g><path d="m66.033 453.813c-32.275 0-58.533-26.257-58.533-58.533v-323.236c0-32.275 26.257-58.533 58.533-58.533h323.237c32.275 0 58.533 26.258 58.533 58.533v323.237c0 32.275-26.258 58.533-58.533 58.533h-323.237z" fill="#daa985"/><path d="m234.65 453.813h154.62c32.275 0 58.533-26.258 58.533-58.533v-225.87c-17.618-13.351-39.559-21.281-63.318-21.281-56.419 0-102.592 44.712-104.949 100.561-18.87 11.706-31.462 32.611-31.462 56.404 0 23.734 12.533 44.598 31.327 56.32-2.973 16.452-7.311 37.172-12.269 56.608-15.312 6.416-27.32 19.306-32.482 35.791z" fill="#d2896f"/><path d="m389.27 417.015h-323.237c-12.004 0-21.734-9.731-21.734-21.734v-323.238c0-12.004 9.731-21.734 21.734-21.734h323.237c12.004 0 21.734 9.731 21.734 21.734v323.237c0 12.004-9.73 21.735-21.734 21.735z" fill="#fbf1cf"/><path d="m389.27 417.015c12.004 0 21.734-9.731 21.734-21.734v-243.753c-8.475-2.213-17.361-3.398-26.519-3.398-56.419 0-102.592 44.712-104.949 100.561-18.87 11.706-31.462 32.611-31.462 56.404 0 23.734 12.533 44.598 31.327 56.32-2.922 16.169-7.164 36.458-12.015 55.601h121.884z" fill="#fae0bd"/><g><path d="m44.299 233.662h91.676v91.676h-91.676z" fill="#4e5660"/><path d="m227.652 233.662h91.676v91.676h-91.676z" fill="#4e5660"/><path d="m319.328 233.662h-38.065c-.924 4.9-1.511 9.917-1.726 15.029-18.87 11.706-31.462 32.611-31.462 56.404 0 7.058 1.116 13.859 3.168 20.244h68.086v-91.677z" fill="#404656"/><g fill="#4e5660"><path d="m135.975 325.338h91.676v91.676h-91.676z"/><path d="m389.27 417.015h-69.942v-91.676h91.676v69.942c0 12.003-9.73 21.734-21.734 21.734z"/><path d="m135.975 141.985h-91.676v-69.942c0-12.004 9.731-21.734 21.734-21.734h69.942z"/><path d="m227.652 50.309h91.676v91.676h-91.676z"/><path d="m135.975 141.985h91.676v91.676h-91.676z"/><path d="m319.328 141.985h91.676v91.676h-91.676z"/></g><path d="m411.004 151.528c-8.475-2.213-17.361-3.398-26.519-3.398-24.593 0-47.238 8.498-65.157 22.709v62.823h91.676z" fill="#404656"/></g><g><path d="m473.715 448.856c-11.395-38.023-22.195-94.229-23.464-112.747h-131.532c-1.269 18.518-12.069 74.724-23.464 112.747z" fill="#daa985"/><path d="m488.689 498.493h-208.408c-10.146 0-17.664-9.424-15.409-19.316l2.963-13.003c2.309-10.131 11.318-17.318 21.708-17.318h189.883c10.391 0 19.4 7.187 21.708 17.318l2.963 13.003c2.255 9.892-5.262 19.316-15.408 19.316z" fill="#f2d98d"/><circle cx="384.485" cy="253.173" fill="#daa985" r="69.734"/><path d="m454.675 366.374c-2.379-12.775-3.982-23.811-4.424-30.265h-131.532c-.442 6.454-2.044 17.49-4.424 30.265z" fill="#d2896f"/><path d="m454.571 274.079h-140.172c-17.129 0-31.015 13.886-31.015 31.015 0 17.129 13.886 31.015 31.015 31.015h140.173c17.129 0 31.015-13.886 31.015-31.015-.001-17.129-13.887-31.015-31.016-31.015z" fill="#f2d98d"/><path d="m314.399 274.079c-17.129 0-31.015 13.886-31.015 31.015 0 17.129 13.886 31.015 31.015 31.015h51.925c-16.49-13.384-20.933-43.383-12.384-62.03z" fill="#eec076"/></g><path d="m511.411 477.511-2.963-13.004c-3.107-13.631-15.04-23.151-29.021-23.151h-.088c-9.504-33.222-18.032-76.56-20.786-97.953 19.373-1.999 34.534-18.416 34.534-38.309 0-19.234-14.172-35.219-32.622-38.064 2.747-15.13.965-30.595-5.161-44.635v-150.351c0-36.411-29.622-66.034-66.033-66.034h-267.641c-4.142 0-7.5 3.358-7.5 7.5s3.358 7.5 7.5 7.5h267.64c28.14 0 51.033 22.894 51.033 51.034v127.833c-6.243-6.536-13.609-11.985-21.799-16.02v-111.814c0-16.12-13.114-29.234-29.234-29.234-13.762 0-310.609 0-323.237 0-16.12 0-29.234 13.114-29.234 29.234v323.237c0 16.12 13.114 29.234 29.234 29.234h228.13c-1.471 5.792-2.989 11.446-4.532 16.841-.405.061-8.456-.456-16.603 4.958h-206.995c-28.14 0-51.033-22.893-51.033-51.033v-323.236c0-28.14 22.893-51.034 51.033-51.034h20.15c4.142 0 7.5-3.358 7.5-7.5s-3.358-7.5-7.5-7.5h-20.15c-36.411 0-66.033 29.623-66.033 66.034v323.237c0 36.411 29.622 66.033 66.033 66.033h195.427c-1.07 3.087-.941 3.529-3.9 16.197-3.328 14.603 7.776 28.482 22.722 28.482h155.005c4.142 0 7.5-3.358 7.5-7.5s-3.358-7.5-7.5-7.5h-155.006c-5.337 0-9.28-4.956-8.097-10.149l2.963-13.004c1.541-6.762 7.461-11.484 14.396-11.484h189.883c6.935 0 12.854 4.723 14.396 11.484l2.963 13.004c1.186 5.203-2.771 10.149-8.097 10.149h-17.286c-4.142 0-7.5 3.358-7.5 7.5s3.358 7.5 7.5 7.5h17.286c14.979 0 26.044-13.911 22.723-28.482zm-382.936-67.996h-62.442c-7.849 0-14.234-6.386-14.234-14.234v-62.442h76.676zm0-91.676h-76.676v-76.677h76.676zm0-91.677h-76.676v-76.676h76.676zm0-91.676h-76.676v-62.443c0-7.849 6.386-14.234 14.234-14.234h62.442zm91.676 275.029h-76.676v-76.676h76.676zm0-91.676h-76.676v-76.677h76.676zm0-91.677h-76.676v-76.676h76.676zm0-91.676h-76.676v-76.677h76.676zm106.677-76.677h62.442c7.849 0 14.234 6.385 14.234 14.234v62.442h-76.676zm0 91.677h76.676v28.829c-27.324-6.946-56.988 1.447-76.676 23.545zm57.657 41.453c39.409 0 69.367 36.527 60.774 75.64h-121.548c-8.591-39.107 21.358-75.64 60.774-75.64zm70.086 90.64c12.966 0 23.515 10.549 23.515 23.515s-10.549 23.515-23.515 23.515h-140.172c-12.966 0-23.515-10.549-23.515-23.515s10.549-23.515 23.515-23.515zm-219.42-223.77h76.677v76.676h-76.677zm0 91.677h76.677v76.676h-76.677zm0 91.676h73.039c-1.35 8.605-1.245 17.283.317 25.868-18.451 2.844-32.624 18.83-32.624 38.064 0 4.466.772 8.753 2.177 12.745h-42.909zm0 168.353v-76.676h52.575c6.027 5.796 13.924 9.66 22.691 10.564-1.925 14.959-6.675 40.647-12.607 66.112zm70.066 31.841c9.557-34.43 17.738-76.784 20.285-97.747h117.965c2.547 20.963 10.728 63.317 20.286 97.747z"/></g></svg>