<svg id="Capa_1" enable-background="new 0 0 512 512" height="512" viewBox="0 0 512 512" width="512" xmlns="http://www.w3.org/2000/svg"><g><path d="m113.473 103.837h58.478v33.181h-58.478z" fill="#4e5660"/><path d="m191.552 103.837h-97.68c-11.218 0-19.005-11.174-15.122-21.698 8.469-22.955 30.345-38.2 54.812-38.2h18.3c24.467 0 46.343 15.246 54.812 38.2 3.883 10.524-3.904 21.698-15.122 21.698z" fill="#f2d98d"/><path d="m128.706 44.145c-22.468 1.866-42.052 16.57-49.956 37.994-3.883 10.524 3.904 21.698 15.122 21.698h49.753c-14.712-8.361-24.993-33.736-14.919-59.692z" fill="#eec076"/><path d="m340.049 103.837h58.478v33.181h-58.478z" fill="#4e5660" transform="matrix(-1 0 0 -1 738.576 240.854)"/><path d="m320.448 103.837h97.68c11.218 0 19.005-11.174 15.122-21.698-8.47-22.955-30.345-38.2-54.812-38.2h-18.3c-24.467 0-46.343 15.246-54.812 38.2-3.883 10.524 3.904 21.698 15.122 21.698z" fill="#f2d98d"/><path d="m355.282 44.145c-22.468 1.866-42.052 16.57-49.956 37.994-3.883 10.524 3.904 21.698 15.122 21.698h49.753c-14.711-8.361-24.992-33.736-14.919-59.692z" fill="#eec076"/><path d="m117.352 468.061h-29.637c-7.739 0-14.014-6.274-14.014-14.013v-24.859h57.664v24.859c.001 7.74-6.273 14.013-14.013 14.013z" fill="#4e5660"/><path d="m394.648 468.061h29.637c7.739 0 14.013-6.274 14.013-14.013v-24.859h-57.664v24.859c0 7.74 6.274 14.013 14.014 14.013z" fill="#4e5660"/><path d="m482.576 202.613h-453.152v186.625c0 22.064 17.887 39.951 39.951 39.951h373.25c22.064 0 39.951-17.887 39.951-39.951z" fill="#e7889d"/><path d="m29.424 202.613h453.152v30h-453.152z" fill="#e16e7e"/><path d="m473.256 137.017h-434.512c-17.256 0-31.244 13.989-31.244 31.244v14.529c0 10.948 8.875 19.823 19.823 19.823h457.354c10.948 0 19.823-8.875 19.823-19.823v-14.529c0-17.255-13.988-31.244-31.244-31.244z" fill="#f2d98d"/><path d="m213.132 137.017h-174.388c-17.256 0-31.244 13.988-31.244 31.244v14.529c0 10.948 8.875 19.823 19.823 19.823h200.568c-19.162-12.162-22.161-46.355-14.759-65.596z" fill="#eec076"/><ellipse cx="142.712" cy="315.901" fill="#f2d98d" rx="81.653" ry="81.653" transform="matrix(.707 -.707 .707 .707 -181.577 193.438)"/><path d="m107.57 242.184c-27.505 13.136-46.511 41.205-46.511 73.718 0 45.096 36.557 81.653 81.653 81.653 24.947 0 47.266-11.2 62.243-28.832-115.348 4.151-119.143-93.395-97.385-126.539z" fill="#eec076"/><circle cx="142.712" cy="315.901" fill="#fff" r="49.691"/><ellipse cx="369.288" cy="315.901" fill="#f2d98d" rx="81.653" ry="81.653" transform="matrix(.707 -.707 .707 .707 -115.214 353.652)"/><path d="m334.146 242.184c-27.505 13.136-46.511 41.205-46.511 73.718 0 45.096 36.557 81.653 81.653 81.653 24.947 0 47.266-11.2 62.243-28.832-115.347 4.151-119.143-93.395-97.385-126.539z" fill="#eec076"/><circle cx="369.288" cy="315.901" fill="#fff" r="49.691"/><path d="m142.712 373.092c31.535 0 57.191-25.656 57.191-57.19 0-31.535-25.656-57.191-57.191-57.191s-57.191 25.656-57.191 57.191c0 31.534 25.656 57.19 57.191 57.19zm0-99.382c23.264 0 42.191 18.927 42.191 42.191s-18.927 42.19-42.191 42.19-42.191-18.927-42.191-42.19c0-23.264 18.927-42.191 42.191-42.191zm350.665-138.563c-3.535-2.153-8.151-1.032-10.306 2.507-2.154 3.538-1.031 8.152 2.507 10.306 7.152 4.353 11.422 11.942 11.422 20.301v14.529c0 6.795-5.528 12.323-12.323 12.323h-457.354c-6.795 0-12.323-5.528-12.323-12.323v-14.529c0-13.093 10.651-23.744 23.744-23.744h415.638c4.143 0 7.5-3.358 7.5-7.5s-3.357-7.5-7.5-7.5h-48.354v-18.18h12.101c16.423 0 27.841-16.389 22.158-31.794-9.513-25.782-34.367-43.104-61.848-43.104h-18.3c-27.48 0-52.336 17.322-61.849 43.104-5.684 15.408 5.738 31.794 22.158 31.794h12.101v18.18h-153.098v-18.18h12.101c16.423 0 27.842-16.39 22.158-31.794-9.512-25.782-34.367-43.104-61.848-43.104h-18.3c-27.481 0-52.336 17.322-61.848 43.104-5.685 15.407 5.738 31.794 22.158 31.794h12.101v18.18h-67.229c-21.364 0-38.744 17.381-38.744 38.744v14.529c0 13.218 9.435 24.271 21.924 26.785v166.203c0 4.142 3.358 7.5 7.5 7.5s7.5-3.358 7.5-7.5v-165.665h438.152v179.125c0 17.893-14.558 32.451-32.451 32.451h-373.25c-11.286 0-21.592-5.728-27.569-15.322-2.189-3.516-6.815-4.589-10.331-2.4-3.516 2.19-4.591 6.815-2.4 10.331 8.17 13.116 21.883 21.285 37.127 22.284v17.465c0 11.863 9.651 21.514 21.513 21.514h29.638c11.862 0 21.513-9.651 21.513-21.514v-17.357h234.268v17.358c0 11.863 9.651 21.514 21.514 21.514h29.638c11.862 0 21.514-9.651 21.514-21.514v-17.476c24.689-1.64 44.277-22.236 44.277-47.333v-179.664c12.488-2.514 21.923-13.567 21.923-26.785v-14.529c0-13.637-6.962-26.016-18.623-33.114zm-102.35-5.63h-43.479v-18.18h43.479zm-70.579-33.18c-5.983 0-10.171-5.949-8.086-11.602 7.349-19.916 26.549-33.296 47.776-33.296h18.3c21.227 0 40.427 13.381 47.775 33.296 2.07 5.612-2.058 11.602-8.086 11.602zm-155.997 33.18h-43.478v-18.18h43.478zm-70.579-33.18c-5.999 0-10.167-5.962-8.086-11.602 7.348-19.916 26.548-33.296 47.776-33.296h18.3c21.228 0 40.428 13.381 47.776 33.296 2.071 5.612-2.058 11.602-8.086 11.602zm29.994 357.711c0 3.592-2.922 6.514-6.513 6.514h-29.638c-3.591 0-6.513-2.922-6.513-6.514v-17.358h42.664zm306.933 0c0 3.592-2.922 6.514-6.514 6.514h-29.638c-3.592 0-6.514-2.922-6.514-6.514v-17.358h42.665v17.358zm27.642-138.147c0-49.159-39.994-89.153-89.153-89.153s-89.153 39.994-89.153 89.153 39.994 89.153 89.153 89.153 89.153-39.994 89.153-89.153zm-163.306 0c0-40.888 33.265-74.153 74.153-74.153s74.153 33.265 74.153 74.153-33.265 74.153-74.153 74.153-74.153-33.264-74.153-74.153zm81.653 0v-11.346c0-4.142-3.357-7.5-7.5-7.5s-7.5 3.358-7.5 7.5v8.24l-10.585 10.585c-2.929 2.929-2.929 7.678 0 10.606 2.93 2.929 7.678 2.929 10.607 0l12.781-12.781c1.407-1.407 2.197-3.314 2.197-5.304zm49.69 0c0-31.535-25.655-57.191-57.19-57.191s-57.19 25.656-57.19 57.191 25.655 57.19 57.19 57.19c31.535.001 57.19-25.655 57.19-57.19zm-99.38 0c0-23.264 18.927-42.191 42.19-42.191 23.264 0 42.19 18.927 42.19 42.191s-18.927 42.19-42.19 42.19c-23.264.001-42.19-18.926-42.19-42.19zm-184.386 89.154c49.159 0 89.153-39.994 89.153-89.153s-39.994-89.153-89.153-89.153-89.153 39.994-89.153 89.153c0 49.158 39.994 89.153 89.153 89.153zm0-163.307c40.888 0 74.153 33.265 74.153 74.153s-33.265 74.153-74.153 74.153-74.153-33.265-74.153-74.153 33.265-74.153 74.153-74.153zm-11.346 81.653h11.346c1.989 0 3.897-.79 5.303-2.197l12.781-12.781c2.929-2.929 2.929-7.678 0-10.606-2.929-2.929-7.678-2.929-10.606 0l-10.584 10.585h-8.24c-4.142 0-7.5 3.358-7.5 7.5s3.358 7.499 7.5 7.499z"/></g></svg>