<svg id="Capa_1" enable-background="new 0 0 512.002 512.002" height="512" viewBox="0 0 512.002 512.002" width="512" xmlns="http://www.w3.org/2000/svg"><g><path d="m65.125 446.474v-322.626c0-32.048 25.98-58.028 58.028-58.028h265.697c32.048 0 58.028 25.98 58.028 58.028v322.626c0 32.048-25.98 58.028-58.028 58.028h-265.697c-32.048 0-58.028-25.98-58.028-58.028z" fill="#b2ecde"/><path d="m151.39 75.232v33.222c0 26.072 21.212 47.284 47.284 47.284h114.654c26.072 0 47.284-21.211 47.284-47.284v-33.222c0-3.223-.335-6.369-.953-9.412h-207.316c-.618 3.043-.953 6.189-.953 9.412z" fill="#8ee2cf"/><path d="m383.286 100.028h-254.569c-16.228 0-29.383 13.155-29.383 29.383v311.5c0 16.228 13.155 29.383 29.383 29.383h254.569c16.228 0 29.383-13.155 29.383-29.383v-311.5c0-16.228-13.155-29.383-29.383-29.383z" fill="#fbf1cf"/><ellipse cx="170.316" cy="189.023" fill="#e7889d" rx="31.396" ry="31.396" transform="matrix(.383 -.924 .924 .383 -69.496 274.039)"/><ellipse cx="341.687" cy="189.023" fill="#a3defe" rx="31.396" ry="31.396" transform="matrix(.707 -.707 .707 .707 -33.582 296.973)"/><g><path d="m312.143 397.827c-7.169-23.923-13.965-59.286-14.763-70.938h-82.756c-.798 11.651-7.594 47.015-14.763 70.938z" fill="#daa985"/><path d="m321.564 429.058h-131.125c-6.383 0-11.113-5.929-9.695-12.153l1.864-8.181c1.453-6.374 7.121-10.896 13.658-10.896h119.47c6.538 0 12.206 4.522 13.658 10.896l1.864 8.181c1.42 6.224-3.31 12.153-9.694 12.153z" fill="#f2d98d"/><path d="m244.232 397.827h-47.965c-6.538 0-12.206 4.522-13.658 10.896l-1.864 8.181c-1.418 6.224 3.312 12.153 9.695 12.153h61.669c-6.742-6.208-10.5-18.446-7.877-31.23z" fill="#eec076"/><circle cx="256.002" cy="274.708" fill="#daa985" r="43.875"/><path d="m300.098 287.862h-88.193c-10.777 0-19.514 8.737-19.514 19.514 0 10.777 8.737 19.514 19.514 19.514h88.193c10.777 0 19.514-8.737 19.514-19.514 0-10.777-8.737-19.514-19.514-19.514z" fill="#f2d98d"/><path d="m247.75 287.862h-35.845c-10.777 0-19.514 8.737-19.514 19.514s8.737 19.514 19.514 19.514h44.096c-7.423-8.237-11.118-29.216-8.251-39.028z" fill="#eec076"/></g><path d="m151.39 100.028v8.425c0 26.072 21.212 47.284 47.284 47.284h114.654c26.072 0 47.284-21.211 47.284-47.284v-8.425z" fill="#fae0bd"/><path d="m313.329 57.948h-17.811c-2.506 0-4.395-2.34-3.791-4.772 1.037-4.174 1.364-8.629.827-13.235-1.972-16.927-15.631-30.455-32.579-32.23-22.11-2.316-40.781 14.961-40.781 36.599 0 3.048.374 6.008 1.076 8.84.605 2.444-1.264 4.798-3.782 4.798h-17.813c-9.546 0-17.284 7.738-17.284 17.284v33.222c0 9.546 7.738 17.284 17.284 17.284h114.654c9.545 0 17.284-7.738 17.284-17.284v-33.222c0-9.546-7.739-17.284-17.284-17.284z" fill="#a3defe"/><path d="m236.407 99.343h39.189c4.143 0 7.5-3.358 7.5-7.5s-3.357-7.5-7.5-7.5h-39.189c-4.143 0-7.5 3.358-7.5 7.5s3.357 7.5 7.5 7.5zm19.595-47.778c4.007 0 7.255-3.248 7.255-7.255s-3.248-7.255-7.255-7.255-7.255 3.248-7.255 7.255 3.248 7.255 7.255 7.255zm190.876 83.321c-4.143 0-7.5 3.358-7.5 7.5v304.088c0 27.861-22.667 50.528-50.528 50.528h-246.666c-4.143 0-7.5 3.358-7.5 7.5s3.357 7.5 7.5 7.5h246.665c36.133 0 65.528-29.396 65.528-65.528v-304.088c.001-4.142-3.357-7.5-7.499-7.5zm-272.987-42.358h-45.174c-20.337 0-36.883 16.545-36.883 36.883v311.5c0 20.337 16.546 36.883 36.883 36.883h254.568c20.337 0 36.883-16.545 36.883-36.883v-311.5c0-20.337-16.546-36.883-36.883-36.883h-45.173c-.032-18.191.066-17.302-.081-19.209h50.817c22.261 0 41.654 14.266 48.259 35.5.999 3.214 3.961 5.274 7.159 5.274.737 0 1.488-.11 2.229-.34 3.955-1.23 6.164-5.434 4.934-9.389-8.565-27.541-33.715-46.045-62.581-46.045h-57.427c-4.526-4.839-10.96-7.872-18.093-7.872h-13.444c3.544-25.366-15.044-47.674-39.128-50.196-28.862-3.031-52.603 21.769-48.636 50.197h-13.445c-7.132 0-13.566 3.033-18.092 7.872h-57.429c-36.133 0-65.528 29.396-65.528 65.528v322.626c0 29.058 18.663 54.256 46.441 62.703 3.956 1.204 8.15-1.026 9.357-4.994 1.205-3.963-1.031-8.153-4.994-9.358-21.415-6.512-35.804-25.943-35.804-48.351v-322.626c0-27.861 22.667-50.528 50.528-50.528h50.819c-.15 1.938-.05 1.221-.082 19.208zm15-17.296c0-5.395 4.389-9.784 9.783-9.784h17.813c7.41 0 12.834-6.944 11.062-14.102-4.822-19.471 11.024-38.328 31.644-36.177 17.168 1.799 29.618 18.623 25.255 36.197-1.779 7.151 3.671 14.082 11.068 14.082h17.811c5.395 0 9.784 4.389 9.784 9.784 0 1.045 0 33.327 0 33.222 0 5.394-4.39 9.784-9.784 9.784h-114.652c-5.395 0-9.783-4.389-9.783-9.784v-33.222zm9.784 58.005h114.654c13.666 0 24.784-11.118 24.784-24.784v-.925h45.173c12.066 0 21.883 9.816 21.883 21.883v311.5c0 12.066-9.816 21.883-21.883 21.883h-254.569c-12.066 0-21.883-9.816-21.883-21.883v-311.5c0-12.066 9.816-21.883 21.883-21.883h45.174v.925c0 13.666 11.118 24.784 24.784 24.784zm-67.254 55.786c0 21.447 17.448 38.896 38.896 38.896 8.018 0 15.476-2.44 21.674-6.615l22.786 22.785c-7.779 10.446-11.452 23.603-9.726 37.156-11.586 3.042-20.158 13.602-20.158 26.13 0 12.966 9.184 23.824 21.388 26.42-1.948 13.554-6.727 37.437-12.09 56.637-9.189.871-16.804 7.457-18.894 16.624l-1.864 8.182c-2.49 10.931 5.82 21.319 17.008 21.319h131.125c11.209 0 19.493-10.409 17.008-21.32l-1.864-8.182c-2.09-9.167-9.706-15.753-18.894-16.624-5.363-19.2-10.142-43.083-12.09-56.637 12.204-2.596 21.388-13.454 21.388-26.42 0-12.527-8.572-23.087-20.158-26.13 1.721-13.497-1.916-26.668-9.726-37.157l22.785-22.785c25.522 17.192 60.57-1.022 60.57-32.281 0-21.447-17.448-38.895-38.896-38.895-21.447 0-38.895 17.448-38.895 38.895 0 8.018 2.44 15.476 6.615 21.674l-22.785 22.785c-17.886-13.319-42.783-13.743-61.238 0l-22.785-22.785c4.175-6.197 6.615-13.656 6.615-21.674 0-21.447-17.449-38.895-38.896-38.895-21.451.002-38.899 17.45-38.899 38.897zm210.266-23.895c13.176 0 23.896 10.719 23.896 23.895s-10.72 23.896-23.896 23.896-23.895-10.719-23.895-23.896 10.719-23.895 23.895-23.895zm-25.95 240.199c3.057 0 5.666 2.082 6.346 5.063l1.864 8.181c.349 1.532-.811 2.987-2.383 2.987h-131.125c-1.568 0-2.733-1.453-2.383-2.987l1.864-8.181c.68-2.981 3.289-5.063 6.347-5.063.175.001-2.267.001 119.47 0zm-105.974-15c5.056-18.998 9.721-42.182 11.582-55.938h69.313c1.861 13.756 6.527 36.94 11.582 55.938zm90.335-94.965c6.624 0 12.014 5.389 12.014 12.014 0 6.624-5.39 12.014-12.014 12.014h-88.193c-6.624 0-12.014-5.389-12.014-12.014s5.39-12.014 12.014-12.014c4.209.001 92.633.001 88.193 0zm-44.096-57.028c22.296 0 39.38 19.947 35.933 42.028h-71.866c-3.446-22.091 13.648-42.028 35.933-42.028zm-61.789-49.311c0 13.176-10.72 23.896-23.896 23.896s-23.896-10.719-23.896-23.896 10.72-23.895 23.896-23.895 23.896 10.719 23.896 23.895z"/></g></svg>