<svg id="Capa_1" enable-background="new 0 0 511.989 511.989" height="512" viewBox="0 0 511.989 511.989" width="512" xmlns="http://www.w3.org/2000/svg"><g><path d="m96.759 161.249 120.529-120.529c10.862-10.862 28.473-10.862 39.336 0l189.535 189.535c10.862 10.862 10.862 28.474 0 39.336l-120.529 120.529z" fill="#a78cd6"/><path d="m294.935 359.425 30.695 30.695 120.529-120.529c10.862-10.862 10.862-28.473 0-39.336l-85.933-85.933c-20.29 14.585-33.925 37.871-35.388 64.352-14.971 9.72-24.892 26.587-24.892 45.728 0 18.977 9.756 35.721 24.513 45.479-2.272 12.399-5.484 27.663-9.144 42.12-8.316 3.706-15.399 9.745-20.38 17.424z" fill="#a78cd6"/><path d="m71.864 186.144 120.528-120.529c10.862-10.862 28.473-10.862 39.336 0l189.535 189.535c10.862 10.862 10.862 28.473 0 39.336l-120.529 120.529z" fill="#fbf1cf"/><path d="m421.263 294.486c10.862-10.862 10.862-28.474 0-39.336l-84.814-84.814c-6.703 11.361-10.842 24.407-11.612 38.337-14.971 9.72-24.892 26.587-24.892 45.728 0 18.977 9.756 35.721 24.513 45.479-2.272 12.399-5.484 27.663-9.144 42.12-13.311 5.933-23.465 17.844-26.893 32.886l-2.339 10.264c-1.096 4.811-1.341 9.681-.784 14.43l15.435 15.435z" fill="#fae0bd"/><path d="m392.69 323.059-120.529 120.529c-1.49 1.49-3.372 2.525-5.427 2.987l-6.053 1.359c-4.195.942-7.472 4.218-8.414 8.414l-1.359 6.053c-.462 2.055-1.497 3.938-2.987 5.427l-5.096 5.096c-8.624 8.624-22.607 8.624-31.232 0l-197.639-197.639c-8.624-8.624-8.624-22.607 0-31.232l5.096-5.096c1.49-1.49 3.372-2.525 5.427-2.987l6.053-1.359c4.195-.942 7.472-4.218 8.414-8.414l1.359-6.053c.462-2.055 1.497-3.937 2.987-5.427l120.529-120.529c10.862-10.862 28.473-10.862 39.336 0l189.535 189.536c10.862 10.862 10.862 28.473 0 39.335z" fill="#b0ade2"/><path d="m392.69 283.724-72.039-72.039c-12.605 9.987-20.705 25.423-20.705 42.717 0 18.977 9.756 35.721 24.513 45.479-2.272 12.399-5.484 27.663-9.144 42.12-13.311 5.933-23.465 17.844-26.893 32.886l-2.339 10.264c-2.888 12.672.104 25.766 8.21 35.926.056.07.117.136.174.206l98.223-98.222c10.862-10.864 10.862-28.475 0-39.337z" fill="#a78cd6"/><circle cx="183.213" cy="226.564" fill="#fbf1cf" r="49.819"/><path d="m30.531 234.611-6.053 1.359c-2.055.461-3.937 1.497-5.427 2.987l-5.096 5.096c-8.624 8.624-8.624 22.607 0 31.232l197.639 197.639c8.624 8.624 22.607 8.624 31.232 0l5.096-5.096c1.49-1.49 2.525-3.372 2.987-5.427l1.359-6.053c.471-2.098 1.525-3.966 2.987-5.427l-219.297-219.296c-1.462 1.461-3.33 2.515-5.427 2.986z" fill="#a78cd6"/><g><path d="m480.185 367.881c-8.994-30.014-17.52-74.38-18.521-88.998h-103.825c-1.001 14.618-9.527 58.984-18.521 88.998z" fill="#daa985"/><path d="m492.005 407.062h-164.508c-8.009 0-13.943-7.439-12.164-15.247l2.339-10.264c1.822-7.997 8.934-13.67 17.136-13.67h149.886c8.202 0 15.313 5.673 17.136 13.67l2.339 10.264c1.779 7.809-4.155 15.247-12.164 15.247z" fill="#f2d98d"/><path d="m394.985 367.88h-60.177c-8.202 0-15.313 5.673-17.136 13.67l-2.339 10.264c-1.779 7.808 4.155 15.247 12.163 15.247h77.369c-8.456-7.788-13.171-23.142-9.88-39.181z" fill="#eec076"/><ellipse cx="409.751" cy="213.417" fill="#daa985" rx="55.045" ry="55.045" transform="matrix(.954 -.3 .3 .954 -45.113 132.535)"/><path d="m466.216 308.883c-2.46-12.978-4.141-23.998-4.552-30h-103.826c-.411 6.001-2.092 17.021-4.552 30z" fill="#d2896f"/><path d="m465.074 229.919h-110.646c-13.521 0-24.482 10.961-24.482 24.482 0 13.521 10.961 24.482 24.482 24.482h110.646c13.521 0 24.482-10.961 24.482-24.482 0-13.521-10.961-24.482-24.482-24.482z" fill="#f2d98d"/><path d="m399.399 229.919h-44.97c-13.521 0-24.482 10.961-24.482 24.482s10.961 24.482 24.482 24.482h55.323c-9.315-10.333-13.95-36.654-10.353-48.964z" fill="#eec076"/></g><path d="m185.303 213.867-14.787 14.787c-2.929 2.929-2.929 7.678 0 10.606 2.929 2.929 7.678 2.929 10.606 0l14.787-14.787c2.929-2.929 2.929-7.678 0-10.606-2.928-2.928-7.677-2.928-10.606 0zm326.178 176.281-2.339-10.264c-2.531-11.111-12.031-18.956-23.313-19.455-7.138-25.229-13.519-57.401-15.839-74.425 15.309-2.372 27.065-15.64 27.065-31.603 0-15.417-10.966-28.321-25.507-31.323 5.931-38.134-23.694-72.207-61.797-72.207-9.459 0-18.427 2.122-26.473 5.897l-121.351-121.351c-13.77-13.77-36.174-13.769-49.943 0-2.748 2.748-51.647 51.647-60.749 60.75-2.929 2.929-2.929 7.678 0 10.606 2.929 2.929 7.678 2.929 10.606 0l7.281-7.281c7.921-7.92 20.808-7.921 28.729 0l133.159 133.159c-5.309 5.712-8.564 13.356-8.564 21.75 0 15.963 11.757 29.23 27.066 31.603-2.319 17.021-8.7 49.193-15.839 74.425-11.282.499-20.781 8.344-23.313 19.455-1.675 8.517-3.454 11.817-2.639 17.537-42.999 42.718-40.75 41.414-42.631 41.836-5.498 1.289-6.567 1.339-8.716 2.178l-210.93-210.93c.839-2.149.886-3.208 2.178-8.717.436-1.943-4.28 3.774 89.051-89.846 2.929-2.929 2.929-7.678 0-10.606-2.929-2.929-7.678-2.929-10.606 0l-88.078 88.079c-5.346 5.344-5.14 11.143-6.362 15.142-1.168 5.202-10.108 1.33-17.88 9.1l-5.096 5.096c-11.535 11.535-11.535 30.303 0 41.838l197.64 197.639c11.56 11.561 30.274 11.563 41.838 0l5.094-5.095c5.346-5.344 5.144-11.157 6.361-15.142 1.166-5.2 10.108-1.332 17.881-9.1l38.205-38.205c3.388 2.497 7.5 3.877 11.826 3.877h122.6c4.142 0 7.5-3.358 7.5-7.5s-3.358-7.5-7.5-7.5h-122.6c-3.195 0-5.558-2.977-4.851-6.081l2.339-10.264c1.052-4.614 5.091-7.836 9.823-7.836.107 0 159.331.003 149.886 0 4.732 0 8.771 3.222 9.823 7.836l2.339 10.264c.71 3.118-1.653 6.081-4.851 6.081h-5.354c-4.143 0-7.5 3.358-7.5 7.5s3.357 7.5 7.5 7.5h5.354c12.829-.002 22.326-11.915 19.477-24.417zm-267.89 70.609c-.388 1.723-1.471 2.053-6.069 6.864-5.7 5.699-14.925 5.7-20.625 0l-197.639-197.639c-5.687-5.686-5.687-14.939-.001-20.625 4.799-4.586 5.138-5.681 6.863-6.068 5.507-1.291 6.566-1.338 8.717-2.178l210.93 210.93c-.842 2.158-.875 3.161-2.176 8.716zm166.161-294.885c29.654 0 52.344 27.078 46.692 56.547h-93.385c-5.652-29.472 17.042-56.547 46.693-56.547zm-187.161-119.849c7.921-7.921 20.809-7.921 28.729 0l118.937 118.938c-5.249 4.286-9.783 9.411-13.415 15.162l-119.811-119.811c-5.218-5.218-11.784-8.592-18.911-9.818zm-14.133 42.862c-5.218-5.218-11.784-8.592-18.911-9.818l8.148-8.149c7.922-7.92 20.81-7.92 28.73 0l123.68 123.681c-2.92 9.236-3.627 18.98-2.15 28.48-1.418.293-2.8.685-4.143 1.16zm128.988 165.516c0-9.364 7.618-16.982 16.982-16.982h110.646c9.363 0 16.981 7.618 16.981 16.982s-7.618 16.981-16.981 16.981h-110.646c-9.364.001-16.982-7.617-16.982-16.981zm11.802 105.98c6.785-24.964 13.13-56.544 15.351-73.998h90.304c2.222 17.456 8.567 49.036 15.351 73.998zm-206.565-174.348c-22.349 22.349-22.349 58.713 0 81.062s58.712 22.349 81.062 0c22.349-22.349 22.349-58.713 0-81.062s-58.714-22.349-81.062 0zm70.455 70.455c-16.538 16.538-43.308 16.541-59.849 0-16.5-16.501-16.5-43.349 0-59.849 16.499-16.499 43.348-16.5 59.849 0 16.5 16.501 16.5 43.349 0 59.849zm8.651 73.839c2.929 2.929 7.678 2.929 10.607 0l54.582-54.581c2.929-2.929 2.929-7.678 0-10.607-2.93-2.929-7.678-2.929-10.607 0l-54.581 54.582c-2.931 2.928-2.931 7.677-.001 10.606z"/></g></svg>