<svg id="Capa_1" enable-background="new 0 0 512 512" height="512" viewBox="0 0 512 512" width="512" xmlns="http://www.w3.org/2000/svg"><g><path d="m340.606 457.435c-10.804-36.053-21.045-89.346-22.248-106.905h-124.716c-1.203 17.559-11.444 70.852-22.248 106.905z" fill="#daa985"/><path d="m354.804 504.5h-197.608c-9.62 0-16.748-8.935-14.611-18.315l2.81-12.33c2.189-9.606 10.731-16.421 20.584-16.421h180.043c9.852 0 18.395 6.815 20.584 16.421l2.81 12.33c2.136 9.38-4.992 18.315-14.612 18.315z" fill="#f2d98d"/><path d="m238.263 457.435h-72.285c-9.852 0-18.395 6.814-20.584 16.421l-2.81 12.33c-2.138 9.38 4.991 18.315 14.611 18.315h92.936c-10.158-9.357-15.821-27.8-11.868-47.066z" fill="#eec076"/><ellipse cx="256" cy="271.892" fill="#a3defe" rx="66.12" ry="66.12" transform="matrix(.217 -.976 .976 .217 -64.993 462.743)"/><path d="m314.949 301.829c-75.611 14.598-102.844-52.834-84.809-90.806-23.665 10.067-40.26 33.529-40.26 60.869 0 36.517 29.603 66.12 66.12 66.12 25.738 0 48.024-14.715 58.949-36.183z" fill="#7acefa"/><path d="m323.63 385.53c-2.848-15.139-4.789-27.952-5.272-35h-124.716c-.483 7.049-2.424 19.861-5.272 35z" fill="#d2896f"/><path d="m322.455 291.715h-132.91c-16.241 0-29.408 13.166-29.408 29.408 0 16.241 13.166 29.408 29.408 29.408h132.909c16.241 0 29.408-13.166 29.408-29.408 0-16.242-13.166-29.408-29.407-29.408z" fill="#f2d98d"/><path d="m243.564 291.715h-54.019c-16.242 0-29.408 13.166-29.408 29.408s13.166 29.408 29.408 29.408h66.455c-11.188-12.413-16.756-44.03-12.436-58.816z" fill="#eec076"/><path d="m409.439 118.453c-40.913-40.912-95.405-63.444-153.439-63.444s-112.526 22.531-153.439 63.444c-9.277 9.277-24.316 9.277-33.593 0-9.278-9.277-9.278-24.317 0-33.594 49.884-49.886 116.307-77.359 187.032-77.359s137.147 27.473 187.032 77.359c9.278 9.277 9.278 24.318 0 33.594-9.274 9.275-24.316 9.278-33.593 0z" fill="#a3defe"/><path d="m68.968 84.859c-9.278 9.277-9.278 24.318 0 33.594 9.277 9.277 24.316 9.277 33.593 0 26.232-26.232 58.053-44.893 92.805-54.917-11.031-7.817-18.863-29.08-13.56-45.554-42.242 12.244-80.927 34.965-112.838 66.877z" fill="#7acefa"/><path d="m137.973 187.458c-9.277-9.277-9.278-24.317-.001-33.594 31.484-31.483 73.399-48.822 118.029-48.822 44.628 0 86.544 17.338 118.027 48.822 9.278 9.277 9.278 24.318 0 33.594-9.276 9.277-24.316 9.277-33.593 0-22.511-22.51-52.496-34.907-84.434-34.907s-61.923 12.397-84.433 34.907c-9.279 9.275-24.317 9.278-33.595 0z" fill="#b2ecde"/><path d="m137.971 153.863c-9.277 9.277-9.275 24.318.001 33.594 9.278 9.278 24.317 9.275 33.594 0 14.196-14.196 31.367-24.365 50.125-29.944-11.092-9.345-17.928-31.42-9.008-46.832-28.021 7.461-53.693 22.164-74.712 43.182z" fill="#8ee2cf"/><path d="m373.918 472.188c-2.971-13.033-14.338-22.148-27.685-22.244-8.919-31.249-16.918-71.826-19.57-92.16 18.375-2.096 32.699-17.733 32.699-36.661 0-18.296-13.384-33.517-30.872-36.406 7.987-45.351-27.065-86.445-72.49-86.445-45.517 0-80.463 41.172-72.49 86.445-17.489 2.89-30.872 18.111-30.872 36.406 0 18.927 14.324 34.564 32.699 36.661-2.652 20.335-10.651 60.911-19.57 92.16-13.346.097-24.714 9.211-27.685 22.245l-2.809 12.33c-3.212 14.086 7.501 27.481 21.923 27.481h13.567c4.143 0 7.5-3.358 7.5-7.5s-3.357-7.5-7.5-7.5h-13.567c-4.811 0-8.366-4.467-7.299-9.149l2.809-12.329c1.421-6.234 6.878-10.587 13.272-10.587 38.757 0 188.001.003 180.043 0 6.393 0 11.851 4.354 13.272 10.587l2.809 12.33c1.069 4.69-2.497 9.149-7.299 9.149h-148.015c-4.143 0-7.5 3.358-7.5 7.5s3.357 7.5 7.5 7.5h148.016c14.451 0 25.129-13.423 21.924-27.482zm-117.918-258.916c37.084 0 65.164 34.268 57.31 70.943h-114.62c-7.866-36.733 20.29-70.943 57.31-70.943zm-88.362 107.851c0-12.08 9.827-21.908 21.907-21.908h132.91c12.08 0 21.907 9.828 21.907 21.908s-9.827 21.908-21.907 21.908h-132.91c-12.08-.001-21.907-9.828-21.907-21.908zm13.713 128.812c8.955-32.386 16.613-71.992 19.066-91.904h111.166c2.453 19.913 10.111 59.518 19.066 91.904zm266.984-370.379c-9.644-9.644-20.049-18.612-30.927-26.656-3.328-2.461-8.026-1.76-10.489 1.571s-1.76 8.027 1.571 10.49c10.281 7.603 20.118 16.083 29.238 25.202 6.352 6.35 6.356 16.634 0 22.988-6.351 6.352-16.635 6.354-22.986 0-42.329-42.33-98.705-65.642-158.742-65.642s-116.413 23.311-158.741 65.64c-6.338 6.338-16.65 6.338-22.988 0-6.351-6.35-6.355-16.634.001-22.987 48.467-48.469 113.006-75.162 181.728-75.162 43.284 0 85.936 10.831 123.349 31.32 3.634 1.99 8.191.658 10.181-2.976 1.989-3.633.657-8.191-2.976-10.181-39.615-21.695-84.759-33.163-130.554-33.163-72.729 0-141.034 28.253-192.336 79.556-12.214 12.213-12.217 31.986.001 44.201 12.186 12.186 32.013 12.186 44.2 0 39.495-39.496 92.105-61.248 148.135-61.248s108.64 21.751 148.135 61.247c12.211 12.212 31.985 12.218 44.2 0 12.215-12.212 12.218-31.984 0-44.2zm-192.335 17.986c-46.632 0-90.432 18.119-123.332 51.019-12.214 12.214-12.215 31.984.001 44.201 12.186 12.185 32.013 12.185 44.202 0 21.092-21.093 49.194-32.71 79.129-32.71s58.037 11.617 79.131 32.71c12.213 12.213 31.984 12.217 44.199 0 12.217-12.214 12.218-31.985.001-44.201-32.899-32.901-76.699-51.019-123.331-51.019zm112.724 84.612c-6.349 6.352-16.633 6.354-22.986 0-23.928-23.926-55.798-37.103-89.738-37.103-33.941 0-65.811 13.177-89.735 37.102-6.339 6.337-16.651 6.337-22.988.001-6.339-6.338-6.339-16.65-.001-22.988 30.066-30.066 70.1-46.625 112.725-46.625 42.626 0 82.658 16.559 112.725 46.625 6.352 6.354 6.353 16.635-.002 22.988z"/></g></svg>