<svg id="Capa_1" enable-background="new 0 0 512.011 512.011" height="512" viewBox="0 0 512.011 512.011" width="512" xmlns="http://www.w3.org/2000/svg"><g><ellipse cx="334.573" cy="157.915" fill="#b2ecde" rx="167.786" ry="150.415"/><path d="m467.779 249.368c-183.05-3.425-227.369-168.442-194.767-231.421-62.209 22.007-106.225 76.379-106.225 139.968 0 83.072 75.12 150.415 167.786 150.415 54.285.001 102.539-23.117 133.206-58.962z" fill="#8ee2cf"/><path d="m361.487 268.43c-40.602-17.409-102.955-76.05-122.887-95.982l-154.724 154.724c19.932 19.932 78.574 82.285 95.982 122.887z" fill="#daa985"/><g><g><ellipse cx="181.931" cy="387.669" fill="#fff" rx="30.57" ry="24.344" transform="matrix(.707 -.707 .707 .707 -220.837 242.188)"/><ellipse cx="299.098" cy="270.502" fill="#fff" rx="30.57" ry="24.344" transform="matrix(.707 -.707 .707 .707 -103.67 290.726)"/><path d="m244.716 298.432c-10.771-10.771-19.586-3.98-29.211 5.645s-16.416 18.44-5.645 29.211 27.305 11.699 36.93 2.074c9.625-9.626 8.697-26.16-2.074-36.93z" fill="#4e5660"/></g></g><path d="m347.689 273.68-162.58 162.58c-10.288 10.289-12.656 26.087-5.835 38.94l9.046 17.045c7.27 13.698 25.716 16.462 36.681 5.497l184.169-184.17c10.966-10.966 8.202-29.411-5.497-36.681l-17.045-9.046c-12.852-6.821-28.651-4.453-38.939 5.835z" fill="#e7c7af"/><path d="m51.372 283.111 143.168-143.168c-5.286-8.262-12.068-19.79-17.644-30.057-6.277-11.557-21.1-15.192-32.042-7.894-27.979 18.661-57.21 46.183-71.23 60.203s-41.542 43.251-60.203 71.23c-7.297 10.942-3.663 25.765 7.894 32.042 10.267 5.576 21.795 12.358 30.057 17.644z" fill="#daa985"/><path d="m51.372 283.111 143.168-143.168c-4.709-7.36-10.602-17.309-15.775-26.652l-154.045 154.045c9.343 5.173 19.292 11.066 26.652 15.775z" fill="#d2896f"/><path d="m83.876 327.172c5.329 5.329 13.428 13.694 22.764 23.862l155.822-155.823c-10.168-9.336-18.532-17.434-23.862-22.764z" fill="#d2896f"/><path d="m239.263 175.984-151.85 151.85c-9.083 9.083-23.808 9.083-32.891 0l-7.491-7.491c-9.082-9.083-9.082-23.808 0-32.891l151.85-151.85c9.083-9.083 23.808-9.083 32.891 0l7.491 7.491c9.082 9.083 9.082 23.809 0 32.891z" fill="#f2d98d"/><path d="m47.031 287.452c-9.083 9.083-9.083 23.808 0 32.891l7.491 7.491c9.083 9.083 23.808 9.083 32.891 0l63-63c-21.218 2.264-43.133-15.725-50.653-30.111z" fill="#eec076"/><path d="m509.858 157.916c0-35.892-13.018-69.713-37.647-97.809-2.73-3.115-7.469-3.427-10.583-.696-3.115 2.731-3.426 7.469-.696 10.584 22.194 25.319 33.926 55.721 33.926 87.921 0 49.952-29.25 96.078-76.807 121.994-2.735-3.972-6.418-7.285-10.862-9.643l-17.045-9.046c-10.168-5.396-21.699-6.146-32.014-2.651-16.131-8.143-34.869-21.691-52.392-35.844h138.484c4.142 0 7.5-3.358 7.5-7.5s-3.358-7.5-7.5-7.5h-156.418c-16.583-14.321-30.467-27.488-37.535-34.328.754-1.496 1.378-3.041 1.872-4.619 2.439-1.082 4.221-3.151 4.968-5.551l13.711-44.299 13.65 44.309c.031.102.065.202.1.302 1.287 3.626 4.718 6.036 8.587 6.02 3.849-.026 7.267-2.492 8.506-6.135.106-.311.191-.628.255-.951l13.421-67.437c.808-4.063-1.83-8.011-5.892-8.82-4.064-.807-8.011 1.83-8.82 5.892l-8.782 44.125-13.862-44.996c-1.092-3.546-4.609-5.761-8.284-5.209-3.168.477-5.624 2.892-6.236 5.932l-13.705 44.278-8.753-44.249c-.803-4.063-4.747-6.702-8.813-5.902-4.063.804-6.706 4.749-5.902 8.813l6.266 31.676c-11.076-7.499-25.992-6.991-36.543 1.533-3.855-6.359-7.973-13.487-11.621-20.139 23.326-55.746 83.173-92.971 150.181-92.971 36.536 0 72.28 11.256 100.648 31.695 3.361 2.422 8.048 1.659 10.469-1.701 2.421-3.361 1.66-8.048-1.701-10.469-31.347-22.586-69.183-34.525-109.416-34.525-70.35 0-133.606 37.966-161.066 95.536-10.235-6.649-23.127-6.245-32.815.215-26.75 17.841-54.01 43.216-67.029 55.876l-15.671-15.671 2.378-2.378c2.929-2.929 2.929-7.678 0-10.606-2.929-2.93-7.678-2.929-10.606 0l-2.378 2.379-7.626-7.626c-2.929-2.929-7.678-2.929-10.606 0-2.929 2.929-2.929 7.678 0 10.606l7.626 7.626-2.379 2.379c-2.929 2.929-2.929 7.678 0 10.607 2.928 2.929 7.677 2.929 10.606 0l2.379-2.379 15.671 15.671c-12.659 13.019-38.034 40.278-55.876 67.03-9.706 14.553-4.916 34.39 10.555 42.793 7.114 3.864 14.912 8.353 21.803 12.53-9.749 12.067-9.02 29.848 2.19 41.059l7.491 7.491c9.64 9.64 24.084 11.512 35.612 5.701 10.878 11.211 33.801 35.537 54.691 62.235 2.557 3.268 7.271 3.834 10.528 1.285 3.262-2.553 3.838-7.266 1.285-10.528-20.733-26.497-43.398-50.675-54.822-62.49l144.261-144.261c27.383 26.399 69.292 63.36 102.469 82.474-.858.811-163.456 163.409-164.26 164.26-1.688-2.936-3.525-5.971-5.524-9.105-2.227-3.492-6.862-4.518-10.356-2.291-3.492 2.227-4.518 6.864-2.291 10.356 3.648 5.721 6.723 11.06 9.186 15.93-3.494 10.315-2.744 21.845 2.651 32.011l9.046 17.045c9.642 18.168 34.068 21.827 48.609 7.284l184.169-184.169c6.586-6.586 9.739-15.525 8.786-24.715 53.568-28.33 86.598-80.044 86.598-136.244zm-484.964 100.96c-7.672-4.167-10.104-13.988-5.234-21.29 20.11-30.152 50.448-61.27 59.267-70.089s39.939-39.158 70.088-59.267c7.293-4.865 17.117-2.448 21.29 5.234 4.532 8.343 9.912 17.625 14.706 25.4l-134.717 134.718c-7.773-4.793-17.055-10.173-25.4-14.706zm209.065-88.195-151.849 151.85c-6.143 6.144-16.14 6.144-22.285 0l-7.491-7.491c-6.143-6.144-6.143-16.141 0-22.285l151.85-151.85c6.144-6.144 16.141-6.144 22.285 0l7.491 7.491c6.143 6.145 6.143 16.141-.001 22.285zm169.908 137.588-184.169 184.17c-7.405 7.405-19.843 5.544-24.753-3.709l-9.046-17.046c-5.349-10.078-3.427-22.18 4.513-30.12l162.58-162.58c7.993-7.994 20.096-9.833 30.121-4.513l17.045 9.046c9.25 4.909 11.116 17.345 3.709 24.752zm-23.953-214.696v68.485c0 4.142 3.358 7.5 7.5 7.5s7.5-3.358 7.5-7.5v-44.426l32.636 47.259c4.939 7.137 15.445 3.956 15.444-5.217l-.641-66.301c-.04-4.117-3.39-7.427-7.498-7.427-.024 0-.049 0-.074 0-4.142.04-7.467 3.43-7.427 7.572l.438 45.327-34.207-49.534c-4.167-6.037-13.671-3.069-13.671 4.262zm-41.421-.128v68.613c0 4.142 3.358 7.5 7.5 7.5s7.5-3.358 7.5-7.5v-68.613c0-4.142-3.358-7.5-7.5-7.5s-7.5 3.358-7.5 7.5zm-58.257 165.423c2.929-2.929 2.929-7.678 0-10.607l-8.827-8.827c-2.929-2.929-7.678-2.929-10.606 0-2.929 2.929-2.929 7.678 0 10.606l8.827 8.827c2.929 2.93 7.677 2.93 10.606.001zm-52.886 27.609c-5.983 1.957-11.182 6.331-17.147 12.296-7.378 7.379-22.731 22.732-5.645 39.817 13.58 13.58 34.915 14.694 47.536 2.074 12.419-12.419 11.796-33.667-2.074-47.536-8.761-8.76-17.164-8.451-22.67-6.651zm14.137 43.581c-6.686 6.685-18.494 5.755-26.323-2.074-4.493-4.493-5.989-6.97 5.645-18.604 2.721-2.721 8.971-8.956 12.823-8.956 1.282 0 3.098.628 5.781 3.311 7.537 7.537 8.981 19.416 2.074 26.323zm-71.191 38.749c2.929-2.929 2.929-7.678 0-10.606l-8.827-8.827c-2.929-2.93-7.678-2.929-10.606 0-2.929 2.929-2.929 7.678 0 10.607l8.827 8.827c2.928 2.928 7.677 2.928 10.606-.001z"/></g></svg>