<svg id="Capa_1" enable-background="new 0 0 511.996 511.996" height="512" viewBox="0 0 511.996 511.996" width="512" xmlns="http://www.w3.org/2000/svg"><g><path d="m176.607 235.429c37.839-15.678 95.947-68.491 114.523-86.442l144.194 139.346c-18.576 17.951-73.226 74.106-89.449 110.672z" fill="#daa985"/><path d="m314.913 245.291-60.725-37.96 1.012-25.956c-24.642 20.921-55.418 44.451-78.593 54.053l92.666 89.55 23.597-1.031c19.309-.845 35.676-13.525 40.729-31.555 5.051-18.027-2.458-36.956-18.686-47.101z" fill="#d2896f"/><path d="m340.981 386.578-151.514-146.42c-9.588-9.266-24.312-11.398-36.289-5.255l-15.885 8.147c-12.766 6.547-15.342 23.16-5.123 33.035l171.634 165.863c10.219 9.876 27.41 7.386 34.185-4.95l8.43-15.351c6.357-11.574 4.151-25.803-5.438-35.069z" fill="#e7c7af"/><path d="m465.616 248.651-133.424-128.937c4.926-7.441 11.246-17.823 16.443-27.07 5.85-10.409 19.664-13.682 29.861-7.11 26.075 16.806 53.316 41.593 66.382 54.219s38.715 38.952 56.105 64.15c6.801 9.854 3.414 23.204-7.357 28.857-9.567 5.023-20.31 11.131-28.01 15.891z" fill="#daa985"/><path d="m332.192 119.714 133.424 128.938c7.35-4.545 17.472-10.314 26.7-15.198l-144.397-139.542c-5.053 8.917-11.024 18.699-15.727 25.802z" fill="#d2896f"/><path d="m290.513 152.173 141.515 136.756c8.464 8.18 22.188 8.18 30.652 0l6.981-6.747c8.464-8.18 8.464-21.442 0-29.622l-141.514-136.756c-8.464-8.18-22.188-8.18-30.652 0l-6.981 6.747c-8.465 8.18-8.465 21.442-.001 29.622z" fill="#f2d98d"/><path d="m366.832 153.189-38.685-37.384c-8.464-8.18-22.188-8.18-30.652 0l-6.981 6.747c-8.464 8.18-8.464 21.442 0 29.622l72.507 70.07c-9.684-19.897-4.645-54.648 3.811-69.055z" fill="#eec076"/><path d="m189.467 240.158c-9.588-9.266-24.312-11.398-36.289-5.255l-15.885 8.147c-12.766 6.547-15.342 23.16-5.122 33.035l86.183 83.285 9.597-32.585 48.944-2.139z" fill="#daa985"/><path d="m202.198 308.318-18.08 61.385c-3.162 10.735-17.523 13.581-24.802 4.915l-26.867-31.986c-3.917-4.664-10.508-6.34-16.293-4.145l-57.619 21.863c-12.12 4.599-23.759-7.607-18.027-18.905l24.129-47.558c2.749-5.417 1.533-11.933-3-16.082l-49.676-45.468c-7.741-7.085-4.999-19.573 5.052-23.01l47.756-16.331c6.1-2.086 9.984-7.878 9.462-14.111l-8.372-99.985c-1.186-14.16 17.883-20.592 26.072-8.793l48.379 69.703c5.117 7.372 16.003 8.219 22.275 1.734l40.716-42.102c9.02-9.327 25.181-2.822 24.683 9.934l-4.114 105.504c-.189 4.859 2.284 9.456 6.509 12.097l68.237 42.656c11.661 7.289 6.768 24.746-7.105 25.353l-76.237 3.332c-6.131.268-11.398 4.296-13.078 10z" fill="#f2d98d"/><path d="m143.895 192.82-16.889 30.224c-.726 1.298-1.961 2.26-3.429 2.668l-31.216 8.682c-5.083 1.414-5.586 8.182-.764 10.284l23.244 10.129c1.712.746 2.933 2.262 3.26 4.05l5.657 30.913c.839 4.586 6.834 6.144 9.94 2.584l21.415-24.544c.79-.905 1.862-1.54 3.056-1.809l32.149-7.235c4.771-1.074 5.995-7.088 2-9.827l-23.996-16.456c-1.004-.688-1.749-1.673-2.124-2.805l-11.889-35.921c-1.527-4.612-8.033-5.197-10.414-.937z" fill="#e7889d"/><path d="m88.601 251.553 22.318 9.726 5.461 29.841c1.971 10.772 15.736 14.452 22.969 6.164l21.02-24.09 31.595-7.11c11.044-2.485 14.074-16.829 4.595-23.329l-23.459-16.089-11.672-35.267c-3.567-10.776-18.521-12.185-24.08-2.238l-16.498 29.525-30.498 8.482c-11.878 3.303-13.046 19.462-1.751 24.385zm36.986-18.616c3.372-.938 6.275-3.211 7.966-6.235l14.921-26.702 10.602 32.034c.885 2.672 2.662 5.028 5.002 6.633l20.108 13.79-27.665 6.225c-2.769.623-5.211 2.074-7.061 4.195l-19.013 21.791-4.971-27.163c-.777-4.248-3.634-7.828-7.641-9.575l-17.983-7.836zm381.571-33.294c-16.407-23.771-39.64-47.994-51.624-59.938l15.583-15.583 2.378 2.378c2.93 2.929 7.678 2.929 10.607 0s2.929-7.678 0-10.607l-2.378-2.378 7.626-7.626c2.929-2.929 2.929-7.678 0-10.606-2.93-2.929-7.678-2.929-10.608 0l-7.625 7.625-2.378-2.378c-2.93-2.929-7.678-2.929-10.607 0s-2.929 7.678 0 10.606l2.379 2.378-15.762 15.762c-12.289-11.526-37.476-34.12-62.188-50.047-13.858-8.931-32.528-4.379-40.463 9.739-3.511 6.248-7.58 13.089-11.393 19.181-11.387-8.614-27.942-7.867-38.422 2.261l-6.982 6.746c-9.217 8.907-10.919 22.085-5.782 32.51-12.634 11.83-29.783 26.966-47.189 40.785l3.149-80.784c.765-19.607-23.753-29.724-37.569-15.441l-40.715 42.102c-2.999 3.101-8.308 2.681-10.723-.796l-48.377-69.701c-12.575-18.118-41.53-8.062-39.708 13.695l1.046 12.484c.346 4.127 3.965 7.202 8.1 6.848 4.127-.345 7.193-3.972 6.848-8.1l-1.045-12.484c-.538-6.432 8.562-9.474 12.438-3.891l48.378 69.703c7.8 11.239 24.255 12.571 33.827 2.671l40.715-42.102c4.251-4.397 12.027-1.433 11.798 4.429-.593 15.208-3.602 92.4-4.113 105.504-.293 7.515 3.549 14.699 10.027 18.749l68.238 42.655c3.54 2.213 3.14 5.423 2.803 6.7-.282 1.074-1.57 4.596-6.26 4.801l-76.237 3.332c-9.342.408-17.357 6.586-19.945 15.373-27.849 94.554-9.107 30.918-18.08 61.385-1.459 4.955-8.393 6.343-11.865 2.211l-26.866-31.985c-5.983-7.122-15.907-9.668-24.697-6.333l-57.619 21.863c-5.709 2.166-11.307-3.317-8.678-8.499l24.129-47.558c4.305-8.486 2.447-18.536-4.624-25.008l-49.676-45.467c-3.535-3.236-2.25-8.786 2.415-10.382l47.756-16.331c9.351-3.198 15.318-12.176 14.509-21.834l-4.322-51.618c-.345-4.127-3.962-7.199-8.1-6.848-4.127.345-7.193 3.972-6.848 8.1l4.322 51.618c.234 2.793-1.582 5.42-4.416 6.389l-47.756 16.331c-15.475 5.293-19.606 24.732-7.689 35.64l49.676 45.468c2.045 1.871 2.597 4.747 1.375 7.155l-24.129 47.559c-8.914 17.571 9.018 36.274 27.376 29.311l57.619-21.863c2.79-1.059 6.033-.254 7.89 1.956l26.866 31.985c11.171 13.299 32.915 8.759 37.74-7.62l6.455-21.916 100.825 97.435c13.812 13.349 36.825 9.92 45.971-6.733l8.431-15.351c5.094-9.278 5.863-19.779 2.671-29.208 3.225-6.112 7.548-13.021 12.901-20.601 2.389-3.384 1.583-8.064-1.801-10.453-3.384-2.39-8.063-1.582-10.453 1.8-3.681 5.213-6.911 10.155-9.701 14.809-.879-.875-63.092-60.985-80.69-77.993l25.92-1.133c21.298-.931 28.605-28.045 10.754-39.206l-68.238-42.655c-1.957-1.224-3.075-3.259-2.99-5.446l.2-5.13c24.302-18.415 46.452-38.451 57.539-48.801l133.545 129.055c-9.507 9.529-26.957 27.539-44.062 47.889-2.665 3.17-2.256 7.902.915 10.567 3.171 2.664 7.902 2.256 10.567-.915 17.547-20.875 35.476-39.249 44.444-48.192 10.964 5.212 24.437 3.316 33.377-5.323l6.982-6.746c10.597-10.24 11.374-26.274 2.733-37.364 6.219-3.626 13.159-7.478 19.507-10.81 14.812-7.776 19.35-26.271 10.043-39.759zm-171.389 192.328c10.708 10.708 7.352 20.102 4.076 26.066l-8.431 15.351c-4.377 7.97-15.695 9.644-22.398 3.167l-106.466-102.886 6.842-23.232c.777-2.639 3.274-4.498 6.212-4.626l29.666-1.297zm128.681-115.182-6.981 6.746c-5.643 5.454-14.723 5.32-20.228 0l-141.516-136.755s0 0 0-.001c-5.392-5.211-5.44-13.578 0-18.835l6.982-6.747c5.577-5.39 14.65-5.39 20.228 0 36.135 34.92 141.311 136.559 141.515 136.756 5.414 5.234 5.418 13.6 0 18.836zm25.692-50.669c-7.7 4.042-16.259 8.834-23.469 13.123l-124.831-120.634c4.376-6.887 9.227-14.987 13.332-22.29 3.784-6.732 12.783-8.657 19.26-4.48 40.066 25.821 93.748 77.739 120.379 116.325 4.235 6.138 2.145 14.379-4.671 17.956z"/></g></svg>