<svg id="Capa_1" enable-background="new 0 0 512.017 512.017" height="512" viewBox="0 0 512.017 512.017" width="512" xmlns="http://www.w3.org/2000/svg"><g><path d="m313.96 407.228 11.791-25.534c6.672-14.449 7.515-30.914 2.316-45.956-9.272-26.824-23.33-75.741-27.74-135.77h-231.247c-4.41 60.029-18.468 108.946-27.74 135.77-5.199 15.042-4.356 31.507 2.316 45.957l11.791 25.534h258.513z" fill="#daa985"/><path d="m313.96 407.228 11.791-25.534c6.672-14.449 7.516-30.914 2.316-45.956-9.272-26.824-23.33-75.741-27.74-135.77h-47.804c-.753 1.195-1.491 2.404-2.203 3.636l-89.956 155.805c-8.672 15.022-13.432 31.355-14.305 47.819z" fill="#d2896f"/><g><g><ellipse cx="100.857" cy="309.144" fill="#fff" rx="30.938" ry="24.637"/><ellipse cx="268.55" cy="309.144" fill="#fff" rx="30.938" ry="24.637"/><ellipse cx="184.704" cy="290.214" fill="#4e5660" rx="16.423" ry="18.377"/></g></g><path d="m312.431 144.039 15.249-33.279c4.393-9.587 6.667-20.009 6.667-30.556v-32.535c0-11.111-9.008-20.119-20.119-20.119h-69.935c-11.111 0-20.119 9.007-20.119 20.119v20.556c0 9.11-7.385 16.495-16.495 16.495h-45.953c-9.11 0-16.495-7.385-16.495-16.495v-20.556c0-11.111-9.008-20.119-20.119-20.119h-69.934c-11.111 0-20.119 9.007-20.119 20.119v32.535c0 10.546 2.274 20.968 6.667 30.556l15.249 33.279z" fill="#daa985"/><path d="m312.431 144.039 13.411-29.267c-2.781-.473-5.634-.733-8.548-.733h-265.18c-2.914 0-5.767.26-8.549.733l13.411 29.267z" fill="#d2896f"/><path d="m311.035 199.967h-252.663c-14.971 0-27.107-12.136-27.107-27.107v-7.974c0-11.514 9.334-20.849 20.849-20.849h265.179c11.514 0 20.848 9.334 20.848 20.849v7.974c0 14.971-12.136 27.107-27.106 27.107z" fill="#f2d98d"/><path d="m52.114 144.039c-11.514 0-20.849 9.334-20.849 20.849v7.974c0 14.971 12.136 27.107 27.107 27.107h88.442c-15.223-12.598-22.608-38.188-15.575-55.929h-79.125z" fill="#eec076"/><path d="m320.985 407.228h-272.563c-17.443 0-32.7 11.741-37.168 28.602l-3.012 11.37c-3.655 13.796 6.747 27.313 21.018 27.313h310.887c14.272 0 24.674-13.517 21.018-27.313l-3.012-11.37c-4.467-16.861-19.725-28.602-37.168-28.602z" fill="#e7c7af"/><g><path d="m252.524 199.967h58.511c14.97 0 27.106-12.136 27.107-27.106v-7.974c0-5.475-2.127-10.442-5.579-14.162-33.027 3.051-62.205 20.909-80.039 49.242z" fill="#eec076"/><path d="m361.165 447.2-3.012-11.37c-4.468-16.861-19.725-28.602-37.168-28.602h-174.925c-1.069 20.152 3.691 40.5 14.306 58.886 1.678 2.905 3.478 5.702 5.378 8.399h174.403c14.272 0 24.674-13.517 21.018-27.313z" fill="#daa985"/><path d="m252.777 484.467c-25.923 0-49.138-13.403-62.099-35.853-12.962-22.45-12.962-49.256-.001-71.706l89.954-155.804c12.961-22.45 36.176-35.853 62.099-35.853s49.138 13.403 62.099 35.853l89.954 155.804c12.961 22.45 12.961 49.256-.001 71.706-12.961 22.45-36.176 35.853-62.099 35.853z" fill="#fbf1cf"/><path d="m317.759 189.648c-15.419 5.659-28.531 16.564-37.128 31.456l-89.954 155.804c-12.961 22.45-12.961 49.256.001 71.706 12.961 22.45 36.176 35.853 62.099 35.853h91.778c-71.629-57.754-68.496-216.818-26.796-294.819z" fill="#fae0bd"/><path d="m307.354 236.532-89.954 155.805c-15.723 27.233 3.931 61.274 35.376 61.274h179.908c31.446 0 51.099-34.041 35.376-61.274l-89.954-155.804c-15.722-27.234-55.029-27.234-70.752-.001z" fill="#e7889d"/><path d="m294.66 258.519-77.26 133.818c-15.723 27.233 3.931 61.274 35.376 61.274h65.286c-31.045-50.909-36.087-129.842-23.402-195.092z" fill="#e16e7e"/></g><path d="m501.279 373.158-89.954-155.804c-13.892-24.062-38.447-38.713-66.052-39.562.584-4.048.286-5.919.369-12.905 0-13.402-9.352-24.654-21.87-27.593l10.728-23.41c4.876-10.643 7.349-21.975 7.349-33.68v-32.535c0-11.68-7.395-22.145-18.4-26.041-3.909-1.383-8.191.664-9.573 4.568-1.382 3.905.663 8.19 4.567 9.573 5.028 1.779 8.406 6.562 8.406 11.9v32.535c0 9.534-2.014 18.763-5.985 27.431l-13.245 28.903h-245.829l-13.244-28.903c-3.972-8.667-5.985-17.896-5.985-27.431v-32.535c0-6.958 5.66-12.619 12.618-12.619h69.936c6.958 0 12.618 5.661 12.618 12.619v20.556c0 13.23 10.765 23.995 23.995 23.995h45.953c13.23 0 23.994-10.764 23.994-23.995v-20.556c0-6.958 5.661-12.619 12.619-12.619h41.432c4.143 0 7.5-3.358 7.5-7.5s-3.357-7.5-7.5-7.5h-41.432c-15.23 0-27.619 12.39-27.619 27.619v20.556c0 4.959-4.035 8.995-8.994 8.995h-45.953c-4.96 0-8.995-4.035-8.995-8.995v-20.556c0-15.229-12.39-27.619-27.618-27.619h-69.937c-15.229 0-27.618 12.39-27.618 27.619v32.535c0 11.707 2.473 23.039 7.349 33.68l10.727 23.41c-12.519 2.939-21.871 14.191-21.871 27.593v7.974c0 19.082 15.524 34.606 34.606 34.606h2.565c-5.082 56.796-18.75 102.862-26.684 125.819-5.856 16.94-4.934 35.248 2.595 51.551l6.985 15.129c-18.869 1.892-34.892 15.312-39.829 33.944l-3.012 11.37c-4.916 18.557 9.06 36.733 28.269 36.733h16.03c4.143 0 7.5-3.358 7.5-7.5s-3.357-7.5-7.5-7.5h-16.03c-9.35 0-16.165-8.848-13.769-17.892l3.012-11.37c3.592-13.556 15.895-23.023 29.918-23.023h125.055c.508 20.006 8.776 38.59 21.513 52.285h-114.176c-4.143 0-7.5 3.358-7.5 7.5s3.357 7.5 7.5 7.5h133.283c11.55 6.446 24.759 9.954 38.681 9.954h179.907c60.951 0 99.109-65.953 68.595-118.809zm-442.907-180.691c-10.811 0-19.607-8.795-19.607-19.606v-7.974c0-7.36 5.988-13.349 13.349-13.349 6.526 0 274.383.003 265.18 0 7.36 0 13.348 5.988 13.348 13.349-.171 6.73.481 9.535-.908 13.904-12.132 1.962-23.433 6.658-33.188 13.676zm125.809 180.691c-4.865 8.427-8.072 17.41-9.631 26.57h-114.305l-9.78-21.179c-5.896-12.768-6.619-27.103-2.035-40.362 10.025-29.007 22.735-74.809 27.569-130.72h204.865c-2.45 3.09-4.705 6.385-6.727 9.887zm248.503 103.809h-179.907c-49.409 0-80.342-53.463-55.605-96.309l89.955-155.804c24.705-42.791 86.472-42.842 111.208 0l89.954 155.804c24.702 42.788-6.131 96.309-55.605 96.309zm-326.655-217.053c-4.143 0-7.5 3.358-7.5 7.5v12c0 4.142 3.357 7.5 7.5 7.5s7.5-3.358 7.5-7.5v-12c0-4.142-3.357-7.5-7.5-7.5zm278.572-27.132c-18.603-32.221-65.115-32.263-83.742 0l-89.954 155.805c-18.603 32.223 4.617 72.523 41.871 72.523h179.908c37.207 0 60.497-40.26 41.871-72.523zm48.083 213.328h-179.908c-25.666 0-41.727-27.773-28.881-50.023l89.954-155.805c12.832-22.225 44.913-22.253 57.762 0l89.954 155.805c12.833 22.227-3.187 50.023-28.881 50.023zm-247.98-181.773c-13.191 0-23.923 11.608-23.923 25.877 0 14.268 10.731 25.877 23.923 25.877 13.191 0 23.923-11.608 23.923-25.877 0-14.268-10.732-25.877-23.923-25.877zm0 36.754c-4.92 0-8.923-4.879-8.923-10.877s4.003-10.877 8.923-10.877 8.923 4.879 8.923 10.877-4.003 10.877-8.923 10.877zm158.026 89.325c-4.188 0-7.583 3.395-7.583 7.583s3.395 7.583 7.583 7.583 7.583-3.395 7.583-7.583-3.395-7.583-7.583-7.583zm.111-127.78c-4.143 0-7.5 3.358-7.5 7.5v97.084c0 4.142 3.357 7.5 7.5 7.5s7.5-3.358 7.5-7.5v-97.084c0-4.143-3.357-7.5-7.5-7.5z"/></g></svg>