<svg id="Capa_1" enable-background="new 0 0 512.004 512.004" height="512" viewBox="0 0 512.004 512.004" width="512" xmlns="http://www.w3.org/2000/svg"><g><g><path d="m256.002 501.596c-14.657 0-29.046-4.008-41.612-11.59-38.457-23.205-81.183-62.934-120.304-111.866-38.992-48.77-68.269-98.968-82.436-141.344-6.493-19.422-5.332-40.342 3.269-58.906 23.643-51.022 80.386-120.767 123.909-152.301 13.699-9.925 29.892-15.172 46.829-15.172 9.421 0 18.675 1.647 27.508 4.896 14.047 5.166 28.433 11.859 42.837 19.925 14.405-8.067 28.791-14.759 42.837-19.925 8.832-3.248 18.087-4.896 27.508-4.896 16.937 0 33.13 5.246 46.828 15.171 43.524 31.536 100.267 101.281 123.909 152.301 8.602 18.565 9.763 39.485 3.27 58.908-14.167 42.376-43.444 92.574-82.437 141.345-39.122 48.932-81.847 88.66-120.305 111.866-12.564 7.581-26.952 11.588-41.61 11.588z" fill="#b2ecde"/><path d="m359.325 442.022c-191.646-77.438-216.408-357.425-193.744-429.051-9.554 2.473-18.597 6.708-26.753 12.617-43.523 31.535-100.266 101.28-123.909 152.302-8.601 18.564-9.762 39.483-3.269 58.906 14.167 42.376 43.444 92.574 82.437 141.345 39.122 48.932 81.847 88.66 120.304 111.866 12.566 7.582 26.954 11.59 41.612 11.59 14.657 0 29.046-4.008 41.611-11.59 19.797-11.946 40.725-28.28 61.711-47.985z" fill="#8ee2cf"/><path d="m273.7 77.083c11.468-6.673 25.431-13.807 40.713-19.428 10.816-3.978 22.96-2.294 32.293 4.467 36.948 26.771 88.973 90.557 109.444 134.734 3.728 8.044 4.227 17.225 1.416 25.634-25.839 77.289-112.771 186.353-183.261 228.887-11.273 6.802-25.331 6.802-36.605 0-70.491-42.533-157.423-151.597-183.261-228.886-2.811-8.409-2.311-17.589 1.416-25.634 20.471-44.177 72.496-107.963 109.444-134.734 9.332-6.762 21.476-8.445 32.292-4.467 15.282 5.62 29.245 12.754 40.713 19.428 10.949 6.371 24.447 6.371 35.396-.001z" fill="#fbf1cf"/><path d="m323.543 371.099c13.844 0 26.736-6.207 35.369-17.03 8.633-10.822 11.82-24.771 8.744-38.266l-1.921-8.431c-3.148-13.81-11.753-25.081-23.256-31.769-1.909-7.89-3.64-15.929-5.063-23.163 11.701-10.112 19.116-25.054 19.116-41.696 0-17.469-8.171-33.066-20.893-43.169-4.722-39.752-38.636-70.684-79.638-70.684s-74.916 30.931-79.638 70.684c-12.721 10.103-20.893 25.7-20.893 43.169 0 16.642 7.415 31.583 19.116 41.696-1.423 7.233-3.155 15.273-5.063 23.164-11.504 6.688-20.108 17.958-23.256 31.771l-1.92 8.426c-3.076 13.498.11 27.446 8.744 38.269 8.633 10.823 21.525 17.03 35.369 17.03h135.083z" fill="#fae0bd"/><path d="m52.657 210.745c-.08 3.956.506 7.93 1.782 11.746 25.838 77.289 112.77 186.353 183.261 228.887 5.637 3.401 11.97 5.102 18.302 5.102v-245.735z" fill="#4e5660"/><path d="m459.348 210.745c-.097-4.761-1.162-9.494-3.198-13.887-20.472-44.178-72.496-107.964-109.445-134.735-9.332-6.762-21.477-8.445-32.293-4.467-15.282 5.62-29.245 12.754-40.713 19.428-5.474 3.186-11.586 4.778-17.698 4.778v128.883z" fill="#4e5660"/><path d="m256.002 371.099v-160.354h-100.53c0 16.642 7.415 31.583 19.116 41.696-1.423 7.233-3.155 15.273-5.063 23.164-11.504 6.688-20.108 17.958-23.256 31.771l-1.92 8.426c-3.076 13.498.11 27.446 8.744 38.269 8.633 10.823 21.525 17.03 35.369 17.03h67.54z" fill="#404656"/><path d="m335.64 167.576c-4.722-39.752-38.636-70.684-79.638-70.684v113.853h100.53c0-17.469-8.171-33.066-20.892-43.169z" fill="#404656"/><g><path d="m313.838 303.926c-7.385-24.645-14.386-61.076-15.208-73.079h-85.254c-.822 12.003-7.823 48.434-15.209 73.079z" fill="#d2896f"/><path d="m323.543 336.099h-135.082c-6.576 0-11.449-6.108-9.988-12.52l1.921-8.428c1.496-6.566 7.336-11.225 14.071-11.225h123.075c6.735 0 12.574 4.658 14.071 11.225l1.921 8.428c1.46 6.412-3.413 12.52-9.989 12.52z" fill="#eec076"/><ellipse cx="256.002" cy="177.091" fill="#d2896f" rx="45.199" ry="45.199" transform="matrix(.905 -.425 .425 .905 -51.005 125.658)"/><path d="m301.43 190.642h-90.855c-11.102 0-20.103 9-20.103 20.103 0 11.102 9 20.103 20.103 20.103h90.855c11.102 0 20.103-9 20.103-20.103-.001-11.103-9.001-20.103-20.103-20.103z" fill="#eec076"/></g><path d="m18.763 234.418c-5.884-17.599-4.832-36.555 2.961-53.374 23.197-50.06 78.839-118.468 121.504-149.381 19.933-14.443 45.228-17.445 67.348-9.311 13.659 5.024 27.71 11.561 41.762 19.43 2.276 1.274 5.053 1.274 7.329 0 14.053-7.87 28.104-14.407 41.761-19.43 22.03-8.101 47.337-5.188 67.347 9.309 5.143 3.726 10.612 8.109 16.256 13.027 3.123 2.722 7.86 2.396 10.582-.727 2.721-3.123 2.396-7.86-.727-10.582-5.981-5.212-11.805-9.876-17.309-13.866-24.109-17.466-54.652-21.049-81.325-11.24-13.204 4.856-26.726 11.038-40.248 18.397-13.521-7.359-27.044-13.541-40.249-18.397-26.63-9.793-57.179-6.253-81.326 11.242-44.382 32.157-102.227 103.24-126.315 155.222-9.41 20.308-10.68 43.192-3.577 64.437 24.225 72.461 87.251 156.171 143.726 208.997 3.025 2.83 7.771 2.671 10.601-.354s2.671-7.771-.354-10.6c-54.383-50.87-116.258-132.539-139.747-202.799zm485.126-59.683c-15.979-34.483-47.188-78.432-81.448-114.694-2.845-3.011-7.592-3.147-10.602-.301-3.011 2.845-3.146 7.591-.301 10.602 33.224 35.167 63.396 77.584 78.741 110.7 7.794 16.82 8.846 35.776 2.963 53.376-28.698 85.837-121.182 201.91-199.504 249.167-23.209 14.005-52.235 14.022-75.473 0-10.454-6.307-21.393-13.979-32.513-22.802-3.246-2.574-7.963-2.031-10.537 1.214s-2.031 7.962 1.214 10.537c11.62 9.219 23.088 17.259 34.087 23.895 27.975 16.879 62.966 16.9 90.972 0 81.282-49.044 176.124-167.95 205.98-257.254 7.103-21.246 5.832-44.131-3.579-64.44zm-225.71 283.065c71.92-43.397 160.08-153.906 186.499-232.93 3.438-10.28 2.825-21.348-1.724-31.165-21.038-45.403-73.304-109.728-111.848-137.655-11.396-8.257-26.081-10.288-39.282-5.433-13.623 5.01-27.718 11.734-41.896 19.984-8.59 4.998-19.262 4.998-27.852 0-14.178-8.25-28.274-14.974-41.895-19.984-13.201-4.854-27.886-2.824-39.282 5.433-38.544 27.926-90.809 92.251-111.849 137.654-4.549 9.816-5.161 20.884-1.724 31.165 26.42 79.029 114.585 189.537 186.5 232.931 13.678 8.253 30.673 8.254 44.353 0zm-58.077-219.452h71.801c1.905 14.201 6.768 38.371 12.028 58.079h-95.857c5.26-19.71 10.122-43.879 12.028-58.079zm-22.13-27.604c0-6.949 5.653-12.602 12.603-12.602h90.855c6.949 0 12.603 5.654 12.603 12.603s-5.653 12.603-12.603 12.603h-90.855c-6.95 0-12.603-5.654-12.603-12.604zm119.568 100.682c3.256 0 6.035 2.217 6.758 5.391l1.92 8.43c.392 1.718-.911 3.353-2.675 3.353h-135.082c-1.764 0-3.067-1.633-2.675-3.354l1.92-8.428c.724-3.174 3.502-5.391 6.758-5.391.106-.001 131.002.002 123.076-.001zm132.912-91.313c-25.472 76.193-111.277 183.362-180.023 224.844-2.199 1.327-4.53 2.323-6.928 2.995v-104.353h60.041c11.403 0 19.83-10.59 17.3-21.686l-1.92-8.429c-2.142-9.399-9.981-16.143-19.421-16.97-5.571-19.909-10.536-44.754-12.53-58.725 10.12-2.071 18.233-9.7 21.017-19.543h123.009c-.161.625-.338 1.249-.545 1.867zm-186.95-131.448c4.852-.862 9.588-2.55 13.97-5.1 13.425-7.813 26.725-14.162 39.53-18.871 8.503-3.127 17.961-1.818 25.303 3.502 36.211 26.237 87.23 89.064 107.04 131.815.49 1.057.902 2.138 1.25 3.234h-122.606c-2.666-9.429-10.222-16.824-19.747-19.251 3.828-29.15-16.769-55.055-44.739-59.059v-36.27zm-7.5 50.727c23.002 0 40.938 20.616 37.204 43.75h-74.408c-3.741-23.166 14.235-43.75 37.204-43.75zm-193.343 60.619c19.811-42.751 70.83-105.579 107.04-131.815 7.194-5.213 16.634-6.689 25.304-3.502 12.804 4.71 26.103 11.059 39.529 18.871 4.382 2.55 9.118 4.237 13.97 5.1v36.27c-27.966 4.003-48.567 29.903-44.739 59.059-9.525 2.427-17.081 9.822-19.747 19.251h-122.606c.347-1.096.76-2.177 1.249-3.234zm-1.107 20.102c-.207-.618-.383-1.242-.545-1.868h123.009c2.784 9.844 10.897 17.473 21.017 19.543-1.994 13.971-6.96 38.816-12.53 58.725-9.44.827-17.279 7.572-19.421 16.971l-1.92 8.428c-2.534 11.118 5.92 21.686 17.3 21.686h60.041v104.352c-2.397-.671-4.728-1.667-6.927-2.994-68.746-41.481-154.551-148.649-180.024-224.843z"/></g><path d="" fill="#4e5660"/></g></svg>