<svg id="Capa_1" enable-background="new 0 0 512.003 512.003" height="512" viewBox="0 0 512.003 512.003" width="512" xmlns="http://www.w3.org/2000/svg"><g><path d="m293.298 338.211h-211.8c-19.061 0-34.513 15.452-34.513 34.513 0 8.973 3.426 17.145 9.04 23.284h-14.012c-19.061 0-34.513 15.452-34.513 34.513 0 19.061 15.452 34.513 34.513 34.513h251.286v-126.823z" fill="#a3defe"/><path d="m345.207 269.491h-211.801c-19.061 0-34.513-15.452-34.513-34.513 0-19.061 15.452-34.513 34.513-34.513h211.801z" fill="#a3defe"/><path d="m345.207 269.491v-69.026h-208.745c.305 5.036 1.198 10.089 2.696 15.075 5.389 17.94 18.134 31.877 34.4 38.959-.124 4.978-.281 9.984-.465 14.992z" fill="#7acefa"/><path d="m293.298 465.033v-126.822h-124.856c-1.698 16.152-3.781 30.686-6.242 42.321-8.943 2.855-17.366 7.321-24.768 13.22-13.678 10.902-23.36 26.295-27.262 43.347l-6.392 27.935h189.52z" fill="#7acefa"/><circle cx="320.356" cy="54.249" fill="#f2d98d" r="46.748"/><path d="m428.004 166.372c14.308-19.808 22.604-42.554 27.139-63.032 4.19-18.919-14.758-34.794-32.672-27.408-38.406 15.836-67.809 6.837-87.615-8.052-8.623-6.482-20.377-6.482-29 0-19.806 14.889-49.208 23.888-87.615 8.052-17.914-7.387-36.862 8.489-32.672 27.408 4.535 20.478 12.831 43.223 27.138 63.032z" fill="#daa985"/><path d="m451.146 411.847c-16.702-42.185-19.374-149.987-19.374-187.201h-222.833c0 37.214-2.672 145.016-19.374 187.201z" fill="#e7c7af"/><path d="m432.18 254.204c-.302-11.933-.408-22.148-.408-29.558h-222.833c0 7.41-.107 17.626-.408 29.558z" fill="#daa985"/><path d="m196.203 136.813c4.318 10.143 9.73 20.18 16.504 29.559h215.298c6.774-9.378 12.186-19.416 16.504-29.559z" fill="#d2896f"/><path d="m442.254 224.645h-243.797c-11.883 0-22.36-7.793-25.779-19.173-5.853-19.485 8.737-39.101 29.082-39.101h237.19c20.345 0 34.934 19.616 29.082 39.101-3.418 11.381-13.895 19.173-25.778 19.173z" fill="#f2d98d"/><path d="m288.745 166.372h-86.984c-20.345 0-34.934 19.615-29.082 39.1 3.418 11.381 13.895 19.173 25.778 19.173h107.142c-21.264-11.721-23.662-41.919-16.854-58.273z" fill="#eec076"/><path d="m454.944 411.847h-269.177c-19.843 0-37.053 13.716-41.479 33.059l-7.517 32.847c-3.133 13.694 7.271 26.748 21.319 26.748h324.531c14.048 0 24.452-13.055 21.319-26.748l-7.517-32.847c-4.427-19.343-21.636-33.059-41.479-33.059z" fill="#daa985"/><g><g><ellipse cx="236.509" cy="361.936" fill="#fff" rx="30.938" ry="24.637"/><ellipse cx="404.202" cy="361.936" fill="#fff" rx="30.938" ry="24.637"/><ellipse cx="320.356" cy="343.006" fill="#4e5660" rx="16.423" ry="18.377"/></g></g><path d="m511.25 476.081-7.517-32.848c-5.129-22.414-24.469-38.201-47.317-38.855-12.816-38.379-16.76-122.118-17.117-172.232h2.955c15.311 0 28.558-9.853 32.961-24.516 7.019-23.369-9.502-46.932-33.479-48.647 5.1-8.677 9.542-18.104 13.23-28.201 1.421-3.891-.581-8.197-4.472-9.618-3.893-1.42-8.197.581-9.618 4.472-4.479 12.262-10.128 23.415-16.794 33.237h-207.469c-10.765-15.884-18.938-35.554-23.722-57.153-2.881-13.008 10.148-23.941 22.49-18.853 33.333 13.744 66.597 12.346 94.981-8.99 5.977-4.494 14.01-4.494 19.986 0 18.871 14.186 50.665 27.263 94.982 8.99 10.321-4.254 21.039 2.729 22.683 12.529.685 4.084 4.55 6.844 8.637 6.156 4.085-.685 6.842-4.552 6.156-8.637-3.231-19.27-23.952-31.848-43.194-23.915-19.354 7.981-35.795 9.018-49.355 6.547 15.277-35.726-11.109-75.544-49.901-75.544-38.852 0-65.145 39.887-49.901 75.543-13.56 2.47-30.002 1.434-49.355-6.546-23.482-9.685-48.353 11.132-42.854 35.963 4.463 20.151 11.415 38.256 20.705 54.023-19.193 1.386-33.18 16.612-34.893 33.98h-30.651c-23.166 0-42.013 18.847-42.013 42.013s18.847 42.013 42.013 42.013h66.893c-.728 17.47-1.846 35.954-3.472 53.72h-115.33c-23.166 0-42.013 18.847-42.013 42.013 0 5.47 1.057 10.818 3.07 15.784h-.542c-23.166-.002-42.013 18.845-42.013 42.012 0 18.375 11.755 34.465 29.252 40.038 3.938 1.255 8.163-.917 9.422-4.871 1.257-3.947-.924-8.165-4.871-9.422-11.246-3.583-18.803-13.929-18.803-25.745 0-14.895 12.118-27.013 27.013-27.013h51.95c4.142 0 7.5-3.358 7.5-7.5s-3.358-7.5-7.5-7.5h-34.378c-12.792-17.728-.131-42.796 21.913-42.796h113.809c-2.594 23.194-6.17 44.166-11.012 58.667-22.849.653-42.188 16.44-47.318 38.855l-3.272 14.3h-66.524c-4.142 0-7.5 3.358-7.5 7.5s3.358 7.5 7.5 7.5h63.092c-.05 1.405-5.704 15.162 4.851 28.404 5.604 7.032 13.976 11.065 22.967 11.065h324.531c18.884-.001 32.835-17.549 28.628-35.922zm-190.895-461.079c28.951 0 47.852 30.396 35.374 56.266-6.366-2.64-11.825-5.967-16.367-9.382-11.368-8.545-26.646-8.546-38.014 0-4.542 3.415-10 6.742-16.367 9.381-12.477-25.87 6.421-56.265 35.374-56.265zm-118.594 158.87c20.141.001 233.894 0 237.191 0 15.329 0 26.31 14.756 21.898 29.443-2.485 8.273-9.958 13.831-18.596 13.831h-243.797c-8.638 0-16.111-5.559-18.596-13.832-4.409-14.681 6.564-29.442 21.9-29.442zm-68.354 88.119c-14.895 0-27.013-12.118-27.013-27.013s12.118-27.013 27.013-27.013h32.197c4.506 14.477 17.661 24.181 32.854 24.181h2.955c-.064 9.013-.245 19.117-.572 29.845zm82.997-29.845h207.899c.178 22.398 1.141 54.388 3.414 84.796 2.875 38.476 7.233 67.787 12.98 87.406h-240.681c14.229-48.519 16.142-143.013 16.388-172.202zm266.217 264.855h-324.531c-9.222 0-16.069-8.569-14.008-17.575l7.517-32.847c3.67-16.034 17.72-27.232 34.168-27.232.106 0 263.256.003 269.176 0 16.448 0 30.499 11.198 34.168 27.232l7.518 32.848c2.061 9.007-4.787 17.574-14.008 17.574zm-224.381-186.255c-11.726 0-21.265 9.539-21.265 21.265 0 4.142 3.358 7.5 7.5 7.5s7.5-3.358 7.5-7.5c0-3.455 2.81-6.265 6.265-6.265 3.454 0 6.265 2.81 6.265 6.265 0 4.142 3.357 7.5 7.5 7.5s7.5-3.358 7.5-7.5c0-11.726-9.539-21.265-21.265-21.265zm62.115 6.383c-13.19 0-23.922 11.608-23.922 25.877s10.731 25.877 23.922 25.877 23.923-11.608 23.923-25.877-10.731-25.877-23.923-25.877zm0 36.754c-4.92 0-8.922-4.879-8.922-10.877s4.002-10.877 8.922-10.877 8.923 4.879 8.923 10.877-4.003 10.877-8.923 10.877zm60.93-43.137c-11.726 0-21.266 9.539-21.266 21.265 0 4.142 3.358 7.5 7.5 7.5 4.143 0 7.5-3.358 7.5-7.5 0-3.455 2.811-6.265 6.266-6.265 3.454 0 6.265 2.81 6.265 6.265 0 4.142 3.357 7.5 7.5 7.5s7.5-3.358 7.5-7.5c0-11.726-9.539-21.265-21.265-21.265z"/></g></svg>