<svg id="Capa_1" enable-background="new 0 0 512 512" height="512" viewBox="0 0 512 512" width="512" xmlns="http://www.w3.org/2000/svg"><g><path d="m284.66 450.266c-17.659 9.58-38.821 9.611-56.509.084-100.376-54.061-220.502-172.654-220.651-271.305-.11-74.331 60.055-134.677 134.386-134.788 47.99-.071 90.124 25.003 114.006 62.772 23.772-37.841 65.83-63.04 113.819-63.113 74.331-.111 134.677 60.056 134.788 134.386.148 98.652-119.622 217.603-219.839 271.964z" fill="#e7889d"/><path d="m390.919 361.753c-4.458-23.358-7.284-59.714-8.31-94.277 13.094-6.947 23.234-18.938 27.755-33.988 5.497-18.303 2.108-37.596-9.297-52.93-2.328-3.13-4.91-5.987-7.708-8.553 2.842-7.824 5.216-16.026 7.11-24.581 3.598-16.245-.3-32.986-10.691-45.931-10.497-13.075-26.059-20.575-42.694-20.575-6.636 0-13.155 1.204-19.404 3.579-2.243-10.591-6.792-20.338-13.079-28.707-24.249 10.958-44.669 28.891-58.708 51.239-14.067-22.246-34.469-40.08-58.666-50.974-6.184 8.309-10.656 17.964-12.875 28.442-6.248-2.376-12.769-3.579-19.404-3.579-16.637 0-32.198 7.499-42.694 20.574-10.393 12.945-14.289 29.686-10.691 45.933 1.895 8.554 4.269 16.756 7.11 24.579-2.798 2.566-5.38 5.423-7.708 8.553-11.405 15.335-14.794 34.627-9.297 52.932 4.521 15.049 14.661 27.039 27.755 33.986-1.025 34.563-3.852 70.919-8.31 94.277-2.823 1.062-5.559 2.307-8.198 3.714 36.161 34.514 77.12 64.354 115.237 84.883 17.688 9.527 38.85 9.496 56.509-.084 37.889-20.552 78.569-50.34 114.511-84.77-2.657-1.418-5.411-2.673-8.253-3.742z" fill="#e26e7e"/><g><circle cx="256.016" cy="99.691" fill="#f2d98d" r="38.249"/><path d="m344.093 191.429c11.707-16.207 18.494-34.817 22.204-51.572 3.428-15.479-12.075-28.468-26.732-22.425-31.424 12.957-55.48 5.594-71.686-6.588-7.056-5.304-16.673-5.304-23.728 0-16.205 12.182-40.262 19.545-71.686 6.588-14.657-6.044-30.16 6.946-26.732 22.425 3.711 16.755 10.498 35.365 22.204 51.572z" fill="#daa985"/><path d="m363.027 392.275c-13.665-34.516-15.852-122.718-15.852-153.167h-182.32c0 30.448-2.186 118.651-15.852 153.167z" fill="#e7c7af"/><path d="m347.671 269.108c-.372-12.263-.496-22.764-.496-30h-182.32c0 7.236-.124 17.737-.496 30z" fill="#daa985"/><path d="m353.049 161.429h-194.067c-2.27 0-4.513.142-6.724.408 3.831 10.119 8.935 20.254 15.68 29.592h176.155c6.745-9.338 11.849-19.473 15.681-29.592-2.212-.266-4.455-.408-6.725-.408z" fill="#d2896f"/><path d="m355.752 239.108h-199.473c-9.723 0-18.295-6.376-21.092-15.688-4.788-15.942 7.148-31.992 23.794-31.992h194.067c16.646 0 28.583 16.049 23.794 31.992-2.795 9.312-11.368 15.688-21.09 15.688z" fill="#f2d98d"/><path d="m230.152 191.429h-71.17c-16.646 0-28.583 16.049-23.794 31.992 2.797 9.312 11.369 15.688 21.092 15.688h87.662c-17.398-9.591-19.36-34.299-13.79-47.68z" fill="#eec076"/><path d="m366.135 392.275h-220.238c-16.236 0-30.316 11.222-33.938 27.049l-6.15 26.875c-2.564 11.204 5.949 21.885 17.443 21.885h265.528c11.494 0 20.007-10.681 17.443-21.885l-6.15-26.875c-3.622-15.827-17.703-27.049-33.938-27.049z" fill="#daa985"/></g><g><path d="m193.049 332.022c-2.126 1.154-4.675 1.157-6.805.01-12.087-6.51-26.552-20.791-26.57-32.67-.013-8.951 7.232-16.218 16.182-16.231 5.779-.009 10.853 3.011 13.728 7.559 2.863-4.557 7.927-7.591 13.706-7.6 8.951-.013 16.217 7.232 16.231 16.182.018 11.88-14.405 26.204-26.472 32.75z" fill="#e26e7e"/><path d="m318.961 331.834c2.13 1.147 4.678 1.143 6.805-.01 12.068-6.546 26.49-20.87 26.472-32.749-.013-8.951-7.28-16.196-16.231-16.182-5.779.009-10.843 3.043-13.706 7.6-2.876-4.548-7.95-7.568-13.728-7.559-8.951.013-16.196 7.28-16.182 16.231.017 11.878 14.483 26.159 26.57 32.669z" fill="#e26e7e"/><path d="m281.152 322.82c-.024-15.948-11.291-17.747-25.187-17.726s-25.158 1.853-25.134 17.801 11.308 28.86 25.204 28.839c13.895-.021 25.141-12.967 25.117-28.914z" fill="#4e5660"/></g><path d="m277.302 301.357c-6.21-3.326-13.963-3.796-21.348-3.763-9.773.015-32.661.048-32.624 25.313.03 20.042 14.682 36.329 32.67 36.327h.045c18.792-.028 32.636-17.128 32.607-36.426-.015-10.208-3.834-17.426-11.35-21.451zm-3.65 21.474c.017 11.072-7.393 21.387-17.629 21.402-.008 0-.015 0-.022 0-9.727 0-17.652-9.572-17.67-21.35-.011-7.293 1.582-10.266 17.646-10.29h.247c5.129 0 10.754.25 13.995 1.986 1.111.595 3.423 1.834 3.433 8.252zm96.265-286.415c-.072 0-.145 0-.217 0-30.425.046-60.175 9.972-84.507 28.067-17-14.113-41.621-14.07-58.58.195-24.36-18.051-54.108-27.922-84.529-27.922-.068 0-.141 0-.208 0-21.621.032-42.379 4.797-61.697 14.162-3.728 1.807-5.284 6.293-3.478 10.021 1.806 3.727 6.291 5.284 10.021 3.478 17.269-8.372 35.833-12.631 55.176-12.66h.186c26.853 0 53.122 8.604 74.746 24.351-7.38 12.216-8.503 27.001-3.548 39.935-10.548 1.603-23.19.545-37.957-5.543-20.236-8.341-41.651 9.592-36.914 30.981 3.512 15.855 8.891 30.184 16.035 42.773-19.258 2.664-32.238 22.028-26.442 41.326 3.778 12.579 15.141 21.03 28.274 21.03h1.038c-.085 8.904-.347 22.888-1.105 39.489-4.576 6.768-5.548 15.285-1.417 24.459-2.309 32.508-5.959 57.425-10.647 72.828-36.379-30.658-67.381-64.353-89.816-97.7-26.05-38.721-39.283-74.603-39.331-106.653-.054-36.72 15.777-71.662 43.435-95.865 3.117-2.728 3.433-7.466.704-10.583-2.727-3.117-7.466-3.433-10.583-.705-30.918 27.058-48.616 66.122-48.556 107.176.053 35.078 14.146 73.77 41.886 115.002 21.756 32.337 51.216 64.915 85.661 94.86-11.327 5.416-19.93 15.76-22.9 28.734l-6.148 26.875c-3.645 15.917 8.458 31.058 24.753 31.058h211.675c4.143 0 7.5-3.358 7.5-7.5s-3.357-7.5-7.5-7.5h-211.676c-6.682 0-11.62-6.21-10.132-12.712l6.149-26.875c2.86-12.496 13.809-21.223 26.628-21.223 6.567 0 215.495.003 220.238 0 12.817 0 23.767 8.727 26.627 21.222l6.149 26.875c1.491 6.514-3.461 12.712-10.132 12.712h-17.933c-4.143 0-7.5 3.358-7.5 7.5s3.357 7.5 7.5 7.5h17.933c16.299 0 28.396-15.142 24.754-31.058l-6.15-26.876c-2.96-12.935-11.521-23.255-22.797-28.685 34.488-30.095 63.972-62.837 85.727-95.33 27.714-41.395 41.74-80.203 41.688-115.345-.117-78.275-63.835-141.874-142.083-141.874zm-113.901 32.527c21.977 0 36.984 22.572 28.24 42.882-4.572-2.018-8.531-4.466-11.868-6.976-9.793-7.36-22.949-7.36-32.742 0-3.337 2.509-7.297 4.957-11.868 6.975-8.754-20.332 6.278-42.881 28.238-42.881zm-102.96 69.293c-2.122-9.581 7.489-17.606 16.551-13.87 36.85 15.194 63.329 4.293 79.052-7.526 4.4-3.308 10.314-3.308 14.715 0 23.873 17.947 51.592 18.848 79.052 7.526 9.076-3.742 18.669 4.302 16.55 13.87-3.817 17.238-10.297 32.944-18.813 45.693h-168.294c-8.515-12.749-14.995-28.455-18.813-45.693zm3.223 93.372c-6.461 0-12.05-4.157-13.909-10.345-3.344-11.138 4.979-22.335 16.612-22.335.102 0 195.964.001 194.066 0 11.629 0 19.958 11.193 16.612 22.334-1.859 6.188-7.448 10.345-13.909 10.345h-199.472zm188.458 67.478c.012 7.242-10.637 19.623-22.384 26.056-11.767-6.398-22.452-18.747-22.463-25.99-.008-4.81 3.88-8.712 8.693-8.719.105.028 4.677-.203 7.378 4.067 2.95 4.663 9.771 4.626 12.689-.02 4.627-7.358 16.076-4.156 16.087 4.606zm-168.87-8.455c.105.028 4.677-.202 7.378 4.067 2.949 4.664 9.771 4.627 12.689-.018 2.729-4.344 7.481-4.117 7.381-4.09 4.794 0 8.699 3.897 8.706 8.694.011 7.242-10.638 19.622-22.385 26.056-11.767-6.398-22.452-18.746-22.463-25.989-.007-4.745 3.821-8.712 8.694-8.72zm-16.506 94.144c3.798-13.649 6.823-32.548 9.04-56.471 4.861 4.439 10.026 8.037 14.288 10.332 4.365 2.351 9.575 2.345 13.936-.021 11.765-6.382 30.421-22.709 30.396-39.353-.029-19.29-21.998-30.316-37.453-19.294-5.091-3.608-11.508-5.108-17.933-3.952.44-12.161.615-22.366.682-29.407h167.396c.066 6.997.24 17.121.674 29.186-6.357-1.174-12.876.246-18.102 3.974-15.432-10.937-37.425-.052-37.395 19.406.024 16.645 18.73 32.916 30.515 39.263 4.365 2.351 9.575 2.345 13.936-.021 4.257-2.309 9.414-5.925 14.264-10.382 2.219 24.051 5.253 43.04 9.065 56.739h-193.309zm298.487-99.484c-22.442 33.52-53.484 67.395-89.925 98.216-4.728-15.46-8.402-40.567-10.716-73.374 4.006-9.058 3.006-17.477-1.389-24.103-.756-16.575-1.017-30.532-1.102-39.422h1.038c13.134 0 24.496-8.451 28.274-21.03 5.797-19.298-7.185-38.662-26.442-41.325 7.145-12.589 12.524-26.919 16.035-42.773 4.732-21.364-16.657-39.335-36.913-30.981-14.766 6.088-27.409 7.146-37.957 5.543 4.981-13.004 3.827-27.902-3.702-40.186 21.591-15.762 47.839-24.399 74.676-24.44h.193c69.981 0 126.979 56.89 127.083 126.897.046 31.658-13.492 68.65-39.153 106.978z"/></g></svg>