<svg id="Capa_1" enable-background="new 0 0 512.007 512.007" height="512" viewBox="0 0 512.007 512.007" width="512" xmlns="http://www.w3.org/2000/svg"><g><path d="m300.918 497.405-266.505-266.505c-9.459-9.459-9.459-24.796 0-34.255l132.521-132.521c9.459-9.459 24.796-9.459 34.256 0l266.505 266.505c9.459 9.459 9.459 24.796 0 34.255l-132.521 132.521c-9.46 9.46-24.797 9.46-34.256 0z" fill="#b2ecde"/><path d="m467.695 330.629-234.674-234.674c-6.533 10.41-10.327 22.705-10.327 35.875 0 24.246 12.815 45.557 32.025 57.516-3.042 16.835-7.484 38.06-12.562 57.958-17.05 7.129-30.114 22.106-34.453 41.147l-3.03 13.292c-3.545 15.558.129 31.636 10.081 44.11 9.951 12.474 24.811 19.628 40.768 19.628h211.574l.598-.598c9.459-9.458 9.459-24.795 0-34.254z" fill="#8ee2cf"/><path d="m467.695 364.884-31.558 31.558c-23.038-28.295-23.038-69.076 0-97.371l31.558 31.558c9.459 9.459 9.459 24.796 0 34.255z" fill="#8ee2cf"/><path d="m467.695 330.629-31.558-31.558c-15.49 19.024-20.548 43.689-15.209 66.411h46.169l.598-.598c9.459-9.459 9.459-24.796 0-34.255z" fill="#6ad7be"/><path d="m335.174 497.405 31.558-31.558c-28.295-23.038-69.076-23.038-97.371 0l31.558 31.558c9.459 9.46 24.795 9.46 34.255 0z" fill="#8ee2cf"/><ellipse cx="251.054" cy="280.764" fill="#8ee2cf" rx="78.452" ry="86.658" transform="matrix(.707 -.707 .707 .707 -124.999 259.758)"/><path d="m312.33 342.041c30.637-30.637 28.039-82.908-5.802-116.75-15.318-15.318-34.413-24.212-53.568-26.542-2.89 14.969-6.631 32.208-10.802 48.556-17.05 7.129-30.114 22.106-34.453 41.147l-3.03 13.292c-3.545 15.558.129 31.636 10.081 44.11 3.601 4.514 7.851 8.319 12.556 11.353 29.573 11.732 62.921 6.931 85.018-15.166z" fill="#6ad7be"/><path d="m177.609 389.848-35.639-35.638c-4.047-4.047-4.047-10.608 0-14.654l167.873-167.873c4.047-4.047 10.608-4.047 14.654 0l35.639 35.639c4.047 4.047 4.047 10.608 0 14.654l-167.872 167.872c-4.047 4.046-10.608 4.046-14.655 0z" fill="#fbf1cf"/><path d="m360.137 207.32-35.639-35.639c-4.047-4.047-10.608-4.047-14.654 0l-65.085 65.085c-.846 3.533-1.713 7.056-2.602 10.538-17.05 7.129-30.114 22.106-34.453 41.147l-3.03 13.292c-3.545 15.558.129 31.636 10.081 44.11 3.229 4.048 6.981 7.524 11.114 10.389l134.268-134.268c4.047-4.046 4.047-10.607 0-14.654z" fill="#fae0bd"/><path d="m166.935 64.124-31.558 31.558c28.295 23.038 69.076 23.038 97.371 0l-31.558-31.558c-9.459-9.46-24.796-9.46-34.255 0z" fill="#8ee2cf"/><path d="m34.413 196.645 31.558-31.558c23.038 28.295 23.038 69.076 0 97.371l-31.558-31.558c-9.459-9.459-9.459-24.796 0-34.255z" fill="#8ee2cf"/><g><path d="m453.21 278.753c-11.645-38.859-22.683-96.301-23.98-115.226h-134.423c-1.297 18.926-12.335 76.367-23.98 115.226z" fill="#daa985"/><path d="m433.5 193.527c-2.292-12.905-3.833-23.635-4.269-30h-134.424c-.436 6.364-1.977 17.095-4.269 30z" fill="#d2896f"/><path d="m468.514 329.482h-212.991c-10.369 0-18.052-9.631-15.748-19.741l3.028-13.289c2.359-10.353 11.567-17.699 22.186-17.699h194.059c10.619 0 19.826 7.345 22.186 17.699l3.029 13.289c2.303 10.11-5.38 19.741-15.749 19.741z" fill="#f2d98d"/><path d="m342.901 278.753h-77.912c-10.619 0-19.826 7.345-22.186 17.699l-3.028 13.29c-2.304 10.11 5.379 19.741 15.748 19.741h100.171c-10.95-10.085-17.054-29.964-12.793-50.73z" fill="#eec076"/><ellipse cx="362.019" cy="78.767" fill="#daa985" rx="71.267" ry="71.267" transform="matrix(.973 -.23 .23 .973 -8.413 85.282)"/><path d="m433.646 100.133h-143.255c-17.506 0-31.697 14.191-31.697 31.697 0 17.506 14.191 31.697 31.697 31.697h143.255c17.506 0 31.697-14.191 31.697-31.697 0-17.506-14.191-31.697-31.697-31.697z" fill="#f2d98d"/><path d="m348.615 100.133h-58.224c-17.506 0-31.697 14.191-31.697 31.697s14.191 31.697 31.697 31.697h71.628c-12.06-13.379-18.061-47.457-13.404-63.394z" fill="#eec076"/></g><path d="m363.961 393.673c2.93-2.929 2.93-7.678.001-10.607l-15.492-15.493c-2.929-2.929-7.678-2.929-10.606 0-2.93 2.929-2.93 7.678-.001 10.607l15.492 15.493c2.928 2.928 7.677 2.93 10.606 0zm127.614-85.598-3.028-13.289c-3.157-13.855-15.287-23.532-29.498-23.532h-.219c-9.752-34.057-18.504-78.581-21.301-100.42 19.797-1.956 35.314-18.7 35.314-39.003 0-19.632-14.509-35.936-33.367-38.761 3.363-18.3.147-36.99-8.723-52.797-2.026-3.612-6.6-4.898-10.211-2.871-3.612 2.027-4.897 6.598-2.871 10.21 7.459 13.292 10.073 29.338 6.591 45.021h-124.488c-8.804-39.674 21.377-77.633 62.245-77.633 11.854 0 23.42 3.273 33.448 9.465 3.523 2.175 8.145 1.083 10.322-2.441 2.176-3.524 1.083-8.146-2.441-10.322-12.398-7.655-26.69-11.702-41.329-11.702-48.952 0-86.389 44.479-77.458 93.069-11.146 1.669-20.769 8.048-26.778 17.04-8.521-8.521-38.634-38.634-51.289-51.289-12.367-12.368-32.493-12.368-44.862 0-13.59 13.59-111.52 111.52-132.521 132.521-12.367 12.369-12.367 32.493 0 44.862 12.548 12.548 93.124 93.123 103.73 103.729-2.712 6.421-1.529 14.221 3.829 19.579l35.638 35.639c5.341 5.341 13.137 6.55 19.581 3.829l33.715 33.715c2.93 2.929 7.678 2.929 10.607 0s2.929-7.678 0-10.606l-32.792-32.788 24.039-24.04c32.558 11.742 67.44 4.818 90.176-17.917 3.193-3.193 6.11-6.668 8.715-10.361h85.72c-2.602 20.588 2.46 41.653 14.18 58.741l-60.237 60.237c-28.746-19.761-67.186-19.76-95.932.001l-8.725-8.724c-2.93-2.929-7.678-2.929-10.607 0s-2.929 7.678 0 10.606c3.66 3.66 33.762 33.761 44.867 44.866 12.396 12.397 32.464 12.399 44.862 0 16.18-16.18 116.386-116.386 132.522-132.521 9.669-9.669 11.779-24.079 6.33-35.818 9.434-4.854 14.696-15.547 12.246-26.295zm-161.705 184.027c-6.536 6.536-17.112 6.535-23.647 0l-25.315-25.314c22.585-14.219 51.691-14.219 74.277 0zm113.376-220.849h-162.455c10.091-36.298 18.311-79.604 20.802-100.226h120.851c2.586 21.406 10.99 64.93 20.802 100.226zm-152.855-163.62c5.753.003 128.051 0 143.255 0 13.343 0 24.197 10.854 24.197 24.197s-10.854 24.197-24.197 24.197h-143.255c-13.343 0-24.197-10.855-24.197-24.197s10.854-24.197 24.197-24.197zm-118.154-38.206c6.521-6.521 17.131-6.52 23.649 0l25.314 25.314c-22.586 14.219-51.692 14.219-74.277 0zm-107.207 181.484-25.314-25.314c-6.52-6.52-6.52-17.129 0-23.649l25.314-25.314c14.22 22.586 14.22 51.692 0 74.277zm10.829 10.828c19.76-28.746 19.76-67.188 0-95.933l60.237-60.237c28.611 19.669 67.013 19.882 95.933 0l19.722 19.722c-3.811 22.583 12.43 43.337 34.758 45.543-.573 4.477-1.397 9.906-2.428 16.005l-9.44 9.44c-32.428-11.694-67.349-4.91-90.166 17.907-22.816 22.816-29.599 57.737-17.906 90.166l-24.05 24.048zm186.821-53.501-84.153 84.153c-6.559-24.894-.54-50.506 16.554-67.6s42.705-23.112 67.599-16.553zm-75.72 176.306c-1.114 1.115-2.932 1.117-4.048 0l-35.639-35.639c-1.117-1.116-1.118-2.929.001-4.047 43.931-43.93 31.012-30.918 33.427-33.427l98.486-98.486c-3.878 19.069-8.788 40.173-13.981 58.309h-.218c-14.21 0-26.34 9.677-29.499 23.532l-3.028 13.289c-1.966 8.63.992 17.494 7.717 23.251-1.058 1.059-55.181 55.182-53.218 53.218zm52.467-31.253 16.309-16.309h51.036c-17.092 16.903-42.571 22.837-67.345 16.309zm222.964 6.29-25.314 25.314c-8.886-14.158-12.436-31.289-9.866-47.913h36.129c5.543 6.563 5.234 16.416-.949 22.599zm6.123-37.599h-212.99c-5.56 0-9.669-5.164-8.437-10.574l3.028-13.289c1.593-6.986 7.709-11.866 14.874-11.866h194.059c7.165 0 13.281 4.879 14.873 11.865l3.028 13.289c1.233 5.412-2.875 10.575-8.435 10.575zm-304.269-138.633-15.493-15.493c-2.928-2.93-7.677-2.929-10.607 0-2.929 2.929-2.929 7.678 0 10.607l15.494 15.493c2.927 2.929 7.677 2.929 10.606 0 2.929-2.93 2.929-7.678 0-10.607z"/></g></svg>