<svg id="Capa_1" enable-background="new 0 0 511.968 511.968" height="512" viewBox="0 0 511.968 511.968" width="512" xmlns="http://www.w3.org/2000/svg"><g><path d="m62.403 275.98-25.155-25.155c-8.609-8.609-8.609-22.567 0-31.176l152.89-152.89c8.609-8.609 22.567-8.609 31.176 0l196.05 196.051c23.897 23.897 23.897 62.641 0 86.537l-137.23 137.231c-23.897 23.896-62.641 23.896-86.537 0l-155.309-155.309c-8.609-8.609-8.609-22.567 0-31.176z" fill="#fbf1cf"/><path d="m160.823 96.073-123.575 123.576c-8.609 8.609-8.609 22.567 0 31.176l25.155 25.155-24.114 24.114c-8.609 8.609-8.609 22.567 0 31.176l155.308 155.308c23.897 23.896 62.641 23.896 86.537 0l41.427-41.427c-131.667-37.022-179.739-226.053-160.738-349.078z" fill="#fae0bd"/><path d="m38.288 300.094c-8.609 8.609-8.609 22.567 0 31.176l125.653 125.653c16.644 16.644 54.819 10.689 54.819-24.585l-156.357-156.358z" fill="#eec076"/><path d="m243.771 159.562-32.428-32.428c-4.39-4.39-11.507-4.39-15.896 0l-97.824 97.824c-4.39 4.39-4.39 11.507 0 15.896l32.428 32.428c4.39 4.39 11.507 4.39 15.896 0l97.824-97.824c4.39-4.389 4.39-11.506 0-15.896z" fill="#b2ecde"/><path d="m157.103 165.477-59.48 59.48c-4.39 4.39-4.39 11.507 0 15.896l32.428 32.428c4.39 4.39 11.507 4.39 15.896 0l22.628-22.628c-6.707-28.346-10.482-57.316-11.472-85.176z" fill="#8ee2cf"/><path d="m282.874 394.087 12.824-12.823c4.516-4.516 4.516-11.837 0-16.352l-16.742-16.742c-4.516-4.516-11.837-4.516-16.352 0l-12.823 12.824c-4.516 4.515-4.516 11.837 0 16.352l16.742 16.742c4.514 4.514 11.836 4.514 16.351-.001z" fill="#e7889d"/><g><path d="m457.843 208.704c-8.638-28.824-16.825-71.432-17.787-85.47h-99.71c-.962 14.038-9.149 56.646-17.787 85.47z" fill="#daa985"/><path d="m469.195 246.332h-157.988c-7.691 0-13.39-7.144-11.681-14.643l2.246-9.857c1.75-7.68 8.58-13.128 16.456-13.128h143.944c7.877 0 14.706 5.448 16.456 13.128l2.246 9.857c1.711 7.5-3.988 14.643-11.679 14.643z" fill="#f2d98d"/><path d="m376.02 208.704h-57.792c-7.877 0-14.706 5.448-16.456 13.128l-2.246 9.858c-1.709 7.499 3.99 14.643 11.681 14.643h74.302c-8.122-7.481-12.649-22.226-9.489-37.629z" fill="#eec076"/><ellipse cx="390.201" cy="60.363" fill="#daa985" rx="52.863" ry="52.863" transform="matrix(.383 -.924 .924 .383 185.11 397.762)"/><path d="m444.655 153.234c-2.485-12.977-4.191-24.055-4.599-30h-99.71c-.407 5.945-2.114 17.023-4.599 30z" fill="#d2896f"/><path d="m443.331 76.211h-106.26c-12.985 0-23.511 10.526-23.511 23.511 0 12.985 10.526 23.511 23.511 23.511h106.26c12.985 0 23.511-10.526 23.511-23.511.001-12.984-10.526-23.511-23.511-23.511z" fill="#f2d98d"/><path d="m380.259 76.211h-43.188c-12.985 0-23.511 10.526-23.511 23.512 0 12.985 10.526 23.511 23.511 23.511h53.13c-8.945-9.924-13.396-35.201-9.942-47.023z" fill="#eec076"/></g><path d="m281.516 474.588-6.686 6.686c-20.982 20.983-54.945 20.987-75.931 0l-155.307-155.307c-5.681-5.683-5.687-14.885 0-20.569l18.811-18.811 151.054 151.054c2.93 2.929 7.678 2.928 10.606 0 2.929-2.93 2.929-7.678 0-10.607-12.726-12.727-174.575-174.577-181.512-181.514-5.684-5.681-5.685-14.884 0-20.568l119.168-119.167c2.929-2.93 2.929-7.678 0-10.608-2.929-2.928-7.678-2.928-10.606 0l-119.169 119.169c-11.545 11.546-11.547 30.235 0 41.782l19.851 19.852-18.81 18.81c-11.545 11.545-11.548 30.234 0 41.783l155.308 155.308c26.784 26.783 70.361 26.782 97.144 0l6.686-6.686c2.929-2.93 2.929-7.678 0-10.607-2.929-2.928-7.678-2.928-10.607 0zm-64.87-352.758c-7.306-7.306-19.196-7.308-26.503 0l-97.823 97.824c-7.307 7.308-7.307 19.196 0 26.504l32.428 32.428c7.305 7.305 19.196 7.307 26.503 0l97.824-97.823c7.307-7.308 7.307-19.196 0-26.504zm21.822 48.325-97.824 97.823c-1.459 1.459-3.831 1.459-5.29 0l-32.428-32.428c-1.459-1.458-1.459-3.831 0-5.289l97.824-97.824c1.457-1.457 3.831-1.46 5.29 0l32.428 32.429c1.459 1.458 1.459 3.831 0 5.289zm-68.354 138.131c2.93 2.929 7.678 2.928 10.607 0l98.054-98.054c2.929-2.93 2.929-7.678 0-10.607-2.929-2.928-7.678-2.928-10.607 0l-98.054 98.054c-2.929 2.929-2.929 7.677 0 10.607zm158.419-36.649-34.067 34.066c-2.929 2.93-2.929 7.678 0 10.607 2.93 2.929 7.678 2.928 10.606 0l34.067-34.066c2.929-2.93 2.929-7.678 0-10.607-2.928-2.928-7.677-2.928-10.606 0zm-.973 77.768c2.93 2.929 7.678 2.928 10.607 0l34.067-34.067c2.929-2.93 2.929-7.678 0-10.607-2.929-2.928-7.678-2.928-10.606 0l-34.067 34.067c-2.93 2.93-2.93 7.678-.001 10.607zm160.628-119.382-2.246-9.858c-2.446-10.731-11.578-18.331-22.451-18.905-6.789-24.049-12.855-54.589-15.105-70.944 14.703-2.421 25.957-15.215 25.957-30.593 0-14.851-10.496-27.292-24.458-30.309 5.51-36.54-22.842-69.414-59.684-69.414-36.801 0-65.2 32.831-59.684 69.414-13.962 3.017-24.458 15.457-24.458 30.309 0 15.378 11.254 28.172 25.957 30.593-1.079 7.84-3.032 18.931-5.524 31.015l-99.876-99.875c-11.52-11.518-30.263-11.518-41.782.001l-8.474 8.474c-2.929 2.929-2.928 7.678.001 10.606s7.678 2.929 10.606-.001l8.473-8.473c5.672-5.672 14.899-5.67 20.569 0l106.661 106.661c-1.804 7.725-3.75 15.415-5.76 22.537-10.874.574-20.005 8.173-22.451 18.906l-2.246 9.857c-.852 3.737-.582 7.553.703 11.041l-89.709 89.708c-2.929 2.93-2.929 7.678 0 10.607 2.93 2.929 7.678 2.928 10.606 0l89.303-89.303c2.501 1.141 5.247 1.755 8.089 1.755h86.572l14.281 14.281c20.983 20.982 20.986 54.945 0 75.93l-104.599 104.6c-2.929 2.93-2.929 7.678 0 10.607 2.93 2.929 7.678 2.928 10.606 0l104.599-104.6c26.845-26.846 26.848-70.295 0-97.145l-3.674-3.674h50.201c12.523.001 21.773-11.626 18.997-23.808zm-97.987-215.023c28.223 0 49.808 25.681 44.591 53.711h-89.182c-5.225-28.073 16.417-53.711 44.591-53.711zm-69.142 84.723c0-8.829 7.183-16.012 16.011-16.012.975 0 112.851.002 106.261 0 8.829 0 16.011 7.183 16.011 16.012s-7.183 16.012-16.011 16.012h-106.26c-8.829-.001-16.012-7.183-16.012-16.012zm126.858 101.481h-115.432c6.444-23.797 12.461-53.724 14.616-70.47h86.199c2.155 16.744 8.172 46.672 14.617 70.47zm21.278 37.628h-157.988c-2.875 0-5.008-2.67-4.369-5.477l2.246-9.857c.979-4.295 4.739-7.295 9.144-7.295h143.944c4.405 0 8.165 3 9.144 7.294l2.246 9.857c.64 2.804-1.482 5.478-4.367 5.478zm-168.194 120.775-16.742-16.742c-7.449-7.449-19.508-7.451-26.959 0l-12.823 12.823c-7.433 7.433-7.433 19.527 0 26.96l16.742 16.742c7.449 7.449 19.508 7.451 26.959 0l12.823-12.823c7.45-7.45 7.451-19.509 0-26.96zm-10.607 16.353-12.823 12.823c-1.589 1.589-4.158 1.588-5.746 0l-16.742-16.742c-1.581-1.58-1.594-4.153 0-5.745l12.823-12.823c1.583-1.584 4.161-1.585 5.746 0l16.742 16.742c1.582 1.58 1.594 4.152 0 5.745z"/></g></svg>