<svg id="Capa_1" enable-background="new 0 0 512 512" height="512" viewBox="0 0 512 512" width="512" xmlns="http://www.w3.org/2000/svg"><g><path d="m91.559 504.5c-35.646 0-64.645-28.999-64.645-64.645v-328.883c0-35.645 29-64.645 64.645-64.645h328.883c35.646 0 64.645 28.999 64.645 64.645v328.884c0 35.645-29 64.645-64.645 64.645h-328.883z" fill="#daa985"/><path d="m97.854 123.377c0 49.575 19.376 78.954 34.945 102.561 8.986 13.625 16.276 24.678 20.02 38.825-12.063 9.955-19.763 25.015-19.763 41.84v19.201c0 36.596 24.587 67.557 58.11 77.229 3.236 7.147 7.545 13.64 12.823 19.212 13.137 13.867 31.608 21.504 52.01 21.504s38.873-7.637 52.01-21.504c5.278-5.572 9.587-12.064 12.823-19.212 33.523-9.673 58.11-40.634 58.11-77.229v-19.201c0-16.825-7.7-31.885-19.763-41.84 3.745-14.147 11.035-25.2 20.02-38.825 15.569-23.606 34.945-52.985 34.945-102.561 0-28.131-8.12-54.483-22.229-77.05h-271.832c-14.109 22.567-22.229 48.919-22.229 77.05z" fill="#d2896f"/><g><path d="m420.441 466.882h-328.882c-14.926 0-27.027-12.1-27.027-27.027v-328.883c0-14.926 12.1-27.027 27.027-27.027h328.883c14.926 0 27.027 12.1 27.027 27.027v328.883c-.001 14.926-12.101 27.027-27.028 27.027z" fill="#fbf1cf"/><path d="m97.854 123.377c0 49.575 19.376 78.954 34.945 102.561 8.986 13.625 16.276 24.678 20.02 38.825-12.063 9.955-19.763 25.015-19.763 41.84v19.201c0 36.596 24.587 67.557 58.11 77.229 3.236 7.147 7.545 13.64 12.823 19.212 13.137 13.867 31.608 21.504 52.01 21.504s38.873-7.637 52.01-21.504c5.278-5.572 9.587-12.064 12.823-19.212 33.523-9.673 58.11-40.634 58.11-77.229v-19.201c0-16.825-7.7-31.885-19.763-41.84 3.745-14.147 11.035-25.2 20.02-38.825 15.569-23.606 34.945-52.985 34.945-102.561 0-13.639-1.918-26.856-5.49-39.432h-305.31c-3.572 12.576-5.49 25.793-5.49 39.432z" fill="#fae0bd"/><path d="m192.177 211.591h-127.645v-100.619c0-14.926 12.1-27.027 27.027-27.027h100.619v127.646z" fill="#4e5660"/><path d="m97.854 123.377c0 40.053 12.648 66.92 25.717 88.214h68.607v-127.646h-88.824c-3.576 12.576-5.5 25.792-5.5 39.432z" fill="#404656"/><path d="m447.468 211.591h-127.645v-127.646h100.619c14.926 0 27.027 12.1 27.027 27.027v100.619z" fill="#4e5660"/><path d="m414.146 123.377c0-13.64-1.924-26.856-5.5-39.432h-88.824v127.645h68.606c13.071-21.293 25.718-48.16 25.718-88.213z" fill="#404656"/><path d="m192.177 211.591h127.646v127.645h-127.646z" fill="#4e5660"/><path d="m192.177 466.882h-100.618c-14.926 0-27.027-12.1-27.027-27.027v-100.619h127.645z" fill="#4e5660"/><path d="m191.167 403.033c.324.715.666 1.417 1.01 2.118v-65.915h-57.998c5.166 30.573 27.656 55.334 56.988 63.797z" fill="#404656"/><path d="m420.441 466.882h-100.618v-127.646h127.645v100.619c0 14.926-12.1 27.027-27.027 27.027z" fill="#4e5660"/><path d="m319.823 339.236v65.915c.345-.701.687-1.404 1.01-2.118 29.332-8.463 51.822-33.224 56.987-63.797z" fill="#404656"/></g><g><path d="m321.442 287.367c0-75.39 57.704-86.402 57.704-163.99 0-63.997-55.134-115.877-123.146-115.877s-123.146 51.88-123.146 115.877c0 77.588 57.704 88.6 57.704 163.99z" fill="#f2d98d"/><path d="m292.825 369.581c0-22.736-16.487-41.167-36.825-41.167s-36.825 18.431-36.825 41.167 13.778 39.167 36.825 39.167 36.825-16.431 36.825-39.167z" fill="#4e5660"/><path d="m326.322 252.367h-140.644c3.029 10.11 4.879 21.523 4.879 34.999h130.884c.001-13.476 1.852-24.888 4.881-34.999z" fill="#eec076"/><path d="m298.581 371.165h-85.163c-25.053 0-45.362-20.309-45.362-45.362v-19.201c0-10.624 8.612-19.236 19.236-19.236h137.415c10.624 0 19.236 8.612 19.236 19.236v19.201c.001 25.053-20.309 45.362-45.362 45.362z" fill="#b2ecde"/><path d="m187.292 287.367c-10.624 0-19.236 8.612-19.236 19.236v19.201c0 25.053 20.309 45.362 45.362 45.362h42.936c-33.961-10.319-34.417-62.58-30.303-83.799z" fill="#8ee2cf"/></g><path d="m485.087 115.335c-4.142 0-7.5 3.357-7.5 7.5v317.021c0 31.51-25.635 57.145-57.145 57.145h-278.478c-4.142 0-7.5 3.357-7.5 7.5s3.358 7.5 7.5 7.5h278.478c39.781 0 72.145-32.364 72.145-72.145v-317.021c0-4.143-3.358-7.5-7.5-7.5zm-378.8 381.665h-14.728c-31.51 0-57.145-25.635-57.145-57.145v-328.883c0-31.51 25.635-57.145 57.145-57.145h56.591c-5.114 7.05-9.471 14.624-12.966 22.618h-43.625c-19.038 0-34.527 15.488-34.527 34.526v328.884c0 19.038 15.489 34.526 34.527 34.526h328.883c19.038 0 34.527-15.488 34.527-34.526v-328.883c0-19.038-15.489-34.526-34.527-34.526h-43.625c-3.495-7.994-7.852-15.568-12.966-22.618h56.591c23.203 0 43.942 13.883 52.835 35.369 1.587 3.834 5.979 5.644 9.798 4.062 3.827-1.584 5.646-5.971 4.061-9.798-11.222-27.113-37.401-44.633-66.694-44.633h-69.389c-23.841-23.889-57.632-38.828-95.053-38.828s-71.212 14.939-95.052 38.827h-69.389c-39.781 0-72.145 32.364-72.145 72.145v328.884c0 39.78 32.364 72.145 72.145 72.145h14.729c4.142 0 7.5-3.357 7.5-7.5s-3.359-7.501-7.501-7.501zm-34.255-386.028c0-10.767 8.76-19.526 19.527-19.526h38.241c-2.894 10.19-4.446 20.892-4.446 31.932 0 37.271 12.574 59.988 26.006 80.714h-79.328zm0 108.119h89.141c10.903 17.008 20.26 34.622 21.69 61.15-12.64 2.118-22.306 13.129-22.306 26.362.096 18.181-.232 20.02.342 25.134h-88.867zm112.645 240.291h-93.118c-10.767 0-19.527-8.76-19.527-19.526v-93.119h92.856c4.161 9.61 11.096 17.742 19.789 23.398zm127.646 0h-112.646v-82.539c4.057 1.093 8.305 1.709 12.682 1.796 3.502 22.78 20.312 37.611 43.641 37.611s40.139-14.831 43.641-37.611c4.377-.087 8.625-.702 12.682-1.796zm-84.71-80.717h56.773c-3.044 14.112-13.411 22.584-28.387 22.584-14.975 0-25.342-8.472-28.386-22.584zm70.968-15h-85.162c-20.877 0-37.862-16.984-37.862-37.861v-19.201c0-6.471 5.265-11.735 11.736-11.735h137.415c6.471 0 11.736 5.265 11.736 11.735v19.201c-.001 20.877-16.986 37.861-37.863 37.861zm141.387 76.19c0 10.767-8.76 19.526-19.527 19.526h-93.119v-89.248c8.693-5.655 15.628-13.788 19.789-23.398h92.856v93.12zm0-108.119h-88.867c.574-5.115.246-6.993.342-25.134 0-13.233-9.665-24.244-22.306-26.362 1.429-26.528 10.787-44.142 21.69-61.15h89.141zm-57.767-240.291h38.241c10.767 0 19.527 8.76 19.527 19.526v93.119h-79.328c13.432-20.726 26.006-43.443 26.006-80.714-.001-11.039-1.553-21.741-4.446-31.931zm-126.201-76.445c63.768 0 115.646 48.618 115.646 108.377 0 72.786-53.864 84.107-57.515 156.49h-116.262c-3.653-72.406-57.515-83.701-57.515-156.49 0-59.759 51.878-108.377 115.646-108.377zm-32.15 151.809c2.837 5.216 10.342 5.215 13.178 0l18.972-34.89 18.972 34.89c2.837 5.216 10.342 5.215 13.178 0l25.561-47.007c1.979-3.639.633-8.193-3.006-10.172-3.642-1.98-8.193-.634-10.172 3.006l-18.972 34.89-18.972-34.89c-2.836-5.216-10.342-5.214-13.178 0l-18.972 34.89-18.972-34.89c-1.979-3.64-6.532-4.987-10.172-3.006-3.639 1.979-4.985 6.532-3.006 10.172z"/></g></svg>