<svg id="Capa_1" enable-background="new 0 0 512 512" height="512" viewBox="0 0 512 512" width="512" xmlns="http://www.w3.org/2000/svg"><g><path d="m91.473 306.212v-165.143c0-27.215 22.062-49.278 49.278-49.278h251.857c27.215 0 49.278 22.063 49.278 49.278v165.143c0 27.215-22.062 49.278-49.278 49.278h-251.857c-27.215 0-49.278-22.063-49.278-49.278z" fill="#4e5660"/><path d="m392.609 355.49c27.215 0 49.278-22.062 49.278-49.278v-109.627c-9.528-4.444-20.141-6.941-31.329-6.941-38.647 0-70.505 29.626-74.052 67.362-12.298 9.064-20.291 23.646-20.291 40.062 0 15.912 7.512 30.104 19.175 39.215-1.138 5.944-2.511 12.541-4.031 19.207z" fill="#404656"/><path d="m390.467 316.037h-247.574c-6.609 0-11.966-5.357-11.966-11.966v-160.861c0-6.608 5.357-11.966 11.966-11.966h247.574c6.608 0 11.966 5.357 11.966 11.966v160.861c0 6.608-5.358 11.966-11.966 11.966z" fill="#b2ecde"/><path d="m402.433 304.071v-113.969c-34.903 3.811-62.633 31.85-65.927 66.905-12.298 9.064-20.291 23.646-20.291 40.062 0 6.716 1.351 13.118 3.775 18.968h70.478c6.607 0 11.965-5.358 11.965-11.966z" fill="#8ee2cf"/><g><g fill="#fff"><ellipse cx="185.792" cy="234.639" rx="29.755" ry="23.696"/><ellipse cx="347.077" cy="234.779" rx="29.756" ry="23.696"/></g></g><path d="m410.508 504.5h-287.656c-17.33 0-31.378-14.049-31.378-31.378v-40.221c0-17.33 14.049-31.378 31.378-31.378h287.656c17.33 0 31.378 14.049 31.378 31.378v40.221c0 17.329-14.048 31.378-31.378 31.378z" fill="#4e5660"/><path d="m441.886 432.901c0-17.33-14.048-31.378-31.378-31.378h-105.39c-2.598 11.849.234 24.059 7.808 33.553 7.643 9.581 19.058 15.076 31.314 15.076h97.647v-17.251z" fill="#404656"/><path d="m162.051 355.49h209.257v46.032h-209.257z" fill="#404656"/><ellipse cx="189.316" cy="453.011" fill="#e7889d" rx="18.718" ry="18.718" transform="matrix(.23 -.973 .973 .23 -295.073 533.182)"/><ellipse cx="56.836" cy="57.153" fill="#a3defe" rx="31.777" ry="31.776" transform="matrix(.16 -.987 .987 .16 -8.683 104.101)"/><path d="m229.583 7.5h-26.357c-5.224 0-9.46 4.235-9.46 9.46v26.356c0 5.224 4.235 9.46 9.46 9.46h26.357c5.224 0 9.46-4.235 9.46-9.46v-26.356c0-5.225-4.236-9.46-9.46-9.46z" fill="#8ee2cf"/><g><path d="m467.345 388.562c-7.252-24.199-14.125-59.969-14.933-71.755h-83.709c-.807 11.785-7.681 47.556-14.933 71.755z" fill="#daa985"/><path d="m476.874 420.152h-132.635c-6.457 0-11.241-5.997-9.807-12.293l1.886-8.276c1.469-6.447 7.203-11.021 13.816-11.021h120.846c6.613 0 12.346 4.574 13.816 11.021l1.886 8.276c1.434 6.295-3.351 12.293-9.808 12.293z" fill="#f2d98d"/><path d="m398.652 388.562h-48.518c-6.613 0-12.346 4.574-13.816 11.021l-1.886 8.276c-1.435 6.296 3.35 12.293 9.807 12.293h62.379c-6.819-6.28-10.619-18.659-7.966-31.59z" fill="#eec076"/><ellipse cx="410.557" cy="264.025" fill="#daa985" rx="44.38" ry="44.38" transform="matrix(.924 -.383 .383 .924 -69.786 177.211)"/><path d="m455.161 277.33h-89.209c-10.901 0-19.738 8.837-19.738 19.738 0 10.901 8.837 19.738 19.738 19.738h89.209c10.901 0 19.739-8.837 19.739-19.738 0-10.901-8.837-19.738-19.739-19.738z" fill="#f2d98d"/><path d="m402.21 277.33h-36.258c-10.901 0-19.739 8.837-19.739 19.739 0 10.901 8.837 19.738 19.739 19.738h44.604c-7.509-8.331-11.246-29.553-8.346-39.477z" fill="#eec076"/></g><path d="m371.309 460.511c4.143 0 7.5-3.357 7.5-7.5s-3.357-7.5-7.5-7.5h-76.798c-4.143 0-7.5 3.357-7.5 7.5s3.357 7.5 7.5 7.5zm-314.473-336.767h-26.28c-4.143 0-7.5 3.357-7.5 7.5s3.357 7.5 7.5 7.5h26.28c4.143 0 7.5-3.357 7.5-7.5 0-4.142-3.357-7.5-7.5-7.5zm66.555-75.366h33.292c4.143 0 7.5-3.357 7.5-7.5 0-4.142-3.357-7.5-7.5-7.5h-33.292c-4.143 0-7.5 3.358-7.5 7.5 0 4.143 3.357 7.5 7.5 7.5zm79.836 11.897h26.357c9.352 0 16.959-7.607 16.959-16.959v-26.356c0-9.352-7.607-16.96-16.959-16.96h-26.357c-9.352 0-16.96 7.608-16.96 16.96v26.356c0 9.352 7.608 16.959 16.96 16.959zm-1.96-43.315c0-1.081.879-1.96 1.96-1.96h26.357c1.08 0 1.959.879 1.959 1.96v26.356c0 1.08-.879 1.959-1.959 1.959h-26.357c-1.081 0-1.96-.879-1.96-1.959zm48.486 207.554 33.378.028h.007c4.139 0 7.496-3.354 7.5-7.493.004-4.143-3.352-7.503-7.493-7.507l-33.378-.028h-.007c-4.139 0-7.496 3.354-7.5 7.493-.004 4.142 3.352 7.503 7.493 7.507zm79.996-5.197h.006c4.139 0 7.497-3.354 7.5-7.494l.01-11.877c.003-4.142-3.352-7.503-7.494-7.506h-.006c-4.139 0-7.497 3.354-7.5 7.494l-.01 11.877c-.003 4.142 3.352 7.503 7.494 7.506zm-126.601-.124h.006c4.14 0 7.497-3.355 7.5-7.494l.009-11.876c.003-4.143-3.353-7.503-7.494-7.506h-.006c-4.14 0-7.497 3.355-7.5 7.494l-.009 11.876c-.003 4.143 3.352 7.503 7.494 7.506zm290.846 186.999-1.886-8.275c-2.108-9.256-9.81-15.903-19.095-16.757-5.443-19.472-10.293-43.721-12.258-57.434 12.345-2.587 21.645-13.556 21.645-26.658 0-12.658-8.679-23.326-20.399-26.368 1.939-15.041-2.708-29.846-12.614-41.03v-88.602c0-24.152-15.319-45.709-38.119-53.64-3.909-1.357-8.187.708-9.548 4.62-1.36 3.912.708 8.187 4.62 9.548 16.775 5.835 28.047 21.697 28.047 39.472v76.895c-7.382-3.835-15.648-5.91-24.453-5.804v-68.95c0-10.733-8.732-19.466-19.466-19.466h-247.575c-2.616 0-5.11.527-7.392 1.467l-18.491-18.492c6.747-4.678 14.927-7.428 23.741-7.428h231.439c4.143 0 7.5-3.357 7.5-7.5s-3.357-7.5-7.5-7.5h-231.439c-12.955 0-24.903 4.371-34.468 11.702l-16.89-16.89c4.241-6.271 6.72-13.826 6.72-21.949 0-21.657-17.619-39.276-39.276-39.276s-39.277 17.619-39.277 39.276 17.619 39.277 39.276 39.277c8.123 0 15.678-2.479 21.949-6.72l16.891 16.89c-7.332 9.565-11.703 21.514-11.703 34.469v165.143c0 31.308 25.471 56.778 56.778 56.778h13.8v31.032h-31.699c-21.438 0-38.879 17.44-38.879 38.878v40.222c0 21.438 17.441 38.878 38.879 38.878h12.82c4.143 0 7.5-3.357 7.5-7.5s-3.357-7.5-7.5-7.5h-12.82c-13.167 0-23.879-10.712-23.879-23.878v-40.222c0-13.166 10.712-23.878 23.879-23.878h203.862c-.629 9.984 7.306 18.629 17.526 18.629h89.56c1.027 4.559.396 3.978.586 45.471 0 13.166-10.712 23.878-23.878 23.878h-238.175c-4.143 0-7.5 3.357-7.5 7.5s3.357 7.5 7.5 7.5h238.175c21.438 0 38.878-17.44 38.878-38.878-.117-41.493.269-40.86-.358-45.471h27.847c11.263 0 19.625-10.457 17.119-21.459zm-437.158-324.762c-13.386 0-24.276-10.891-24.276-24.276 0-13.386 10.891-24.276 24.276-24.276 13.386 0 24.276 10.891 24.276 24.276.001 13.385-10.89 24.276-24.276 24.276zm398.326 203.4c6.748 0 12.238 5.49 12.238 12.238s-5.49 12.238-12.238 12.238h-89.209c-6.748 0-12.238-5.49-12.238-12.238s5.49-12.238 12.238-12.238zm2.279 96.231h-93.77c5.135-19.27 9.877-42.828 11.755-56.755h70.262c1.878 13.926 6.618 37.485 11.753 56.755zm-46.884-153.916c22.502 0 39.984 20.136 36.418 42.686h-72.836c-3.571-22.579 13.949-42.686 36.418-42.686zm-272.13-77.793 17.179 17.179c2.931 2.929 7.678 2.928 10.607 0 2.929-2.93 2.929-7.678 0-10.607l-17.179-17.179h241.433c2.463 0 4.466 2.003 4.466 4.466v71.343c-23.209 7.346-39.128 30.466-35.82 56.147-11.72 3.042-20.399 13.71-20.399 26.368 0 4.096.914 7.98 2.54 11.468h-198.361c-2.463 0-4.466-2.003-4.466-4.465zm2.324 198.638c-23.037 0-41.778-18.741-41.778-41.778v-165.143c0-8.815 2.751-16.995 7.429-23.743l18.492 18.492c-.94 2.281-1.467 4.775-1.467 7.392v160.861c0 10.733 8.732 19.465 19.466 19.465 118 .072 215.859-.146 217.466.19-.909 6.341-2.433 14.928-4.35 24.264zm189.544 46.032h-160.744v-31.032h183.172c-1.45 6.213-3.01 12.4-4.623 18.17-7.92.729-14.678 5.679-17.805 12.862zm146.579 18.629h-132.634c-1.639 0-2.86-1.519-2.494-3.127l1.886-8.275c.696-3.055 3.37-5.188 6.503-5.188h120.845c3.133 0 5.807 2.133 6.503 5.188l1.886 8.275c.365 1.606-.852 3.127-2.495 3.127zm-287.558 66.578c14.457 0 26.219-11.762 26.219-26.219 0-14.456-11.762-26.218-26.219-26.218s-26.219 11.762-26.219 26.218c0 14.458 11.762 26.219 26.219 26.219zm0-37.436c6.186 0 11.219 5.032 11.219 11.218 0 6.187-5.032 11.219-11.219 11.219s-11.219-5.032-11.219-11.219c0-6.186 5.032-11.218 11.219-11.218z"/></g></svg>