<svg id="Capa_1" enable-background="new 0 0 512.062 512.062" height="512" viewBox="0 0 512.062 512.062" width="512" xmlns="http://www.w3.org/2000/svg"><g><path d="m189.908 198.538c-1.046-42.829-36.836-77.233-79.674-76.683-47.376.608-82.874 42.566-77.022 88.45.744 5.834-.923 11.769-4.913 16.09-24.174 26.18-27.504 65.281-8.802 95.031 4.113 6.542 4.052 14.791-.05 21.339-7.944 12.682-12.375 27.788-11.915 43.961 1.181 41.577 35.163 75.377 76.746 76.346 44.298 1.031 80.532-34.57 80.532-78.633 0-20.126-7.568-38.478-20.002-52.388 17.604-19.695 23.982-46.578 17.584-71.791 17.309-14.822 28.119-37.012 27.516-61.722z" fill="#b2ecde"/><path d="m164.81 384.438c0-20.126-7.568-38.477-20.002-52.388 17.604-19.696 23.982-46.578 17.584-71.791 17.308-14.82 28.118-37.01 27.515-61.72-1.046-42.829-36.835-77.233-79.674-76.683-2.264.029-4.5.154-6.707.368-.907 7.38-.323 14.946 1.826 22.206.707 2.387 1.417 4.854 2.118 7.356-15.723 9.872-26.195 27.368-26.195 47.267l.001 11.733c0 14.043 5.24 27.462 14.755 37.784 2.562 2.779 5.372 5.269 8.385 7.444-1.123 37.541-4.973 90.479-14.169 124.143-12.011 8.416-20.955 20.611-25.369 35.007l-6.267 20.44c-2.189 7.141-2.899 14.447-2.226 21.582 8.653 3.572 18.055 5.658 27.893 5.887 44.298 1.03 80.532-34.571 80.532-78.635z" fill="#8ee2cf"/><path d="m322.089 198.538c1.046-42.829 36.835-77.233 79.674-76.683 47.376.608 82.874 42.566 77.022 88.45-.744 5.834.923 11.769 4.913 16.09 24.174 26.18 27.504 65.281 8.802 95.031-4.113 6.542-4.052 14.791.05 21.339 7.944 12.682 12.375 27.788 11.915 43.961-1.181 41.577-35.163 75.377-76.746 76.346-44.298 1.031-80.532-34.57-80.532-78.633 0-20.126 7.568-38.478 20.002-52.388-17.604-19.695-23.982-46.578-17.584-71.791-17.309-14.822-28.119-37.012-27.516-61.722z" fill="#b2ecde"/><g fill="#8ee2cf"><path d="m455.612 457.184c.673-7.135-.038-14.441-2.227-21.581l-6.266-20.441c-4.414-14.395-13.357-26.59-25.368-35.007-9.197-33.662-13.047-86.602-14.17-124.142 3.013-2.177 5.823-4.666 8.385-7.444 9.516-10.322 14.756-23.741 14.756-37.785v-11.736c0-19.896-10.473-37.392-26.195-47.264.701-2.502 1.411-4.969 2.117-7.355 2.15-7.261 2.733-14.827 1.827-22.208-2.207-.214-4.443-.339-6.707-.368-42.838-.549-78.628 33.854-79.674 76.683-.604 24.71 10.207 46.9 27.515 61.72-6.398 25.213-.02 52.096 17.584 71.791-12.433 13.911-20.002 32.263-20.002 52.388 0 44.064 36.234 79.665 80.532 78.633 9.837-.225 19.239-2.311 27.893-5.884z"/><path d="m159.461 91.359c25.694 25.694 37.422 60.232 42.768 87.178 4.465 22.507-15.364 42.336-37.871 37.871-26.946-5.346-61.484-17.073-87.178-42.768-25.694-25.694-37.422-60.232-42.767-87.178-4.465-22.507 15.364-42.336 37.871-37.871 26.945 5.346 61.483 17.074 87.177 42.768z"/><path d="m159.461 91.359c25.694 25.694 37.422 60.232 42.768 87.178 4.465 22.507-15.364 42.336-37.871 37.871-26.946-5.346-61.484-17.073-87.178-42.768-25.694-25.694-37.422-60.232-42.767-87.178-4.465-22.507 15.364-42.336 37.871-37.871 26.945 5.346 61.483 17.074 87.177 42.768z"/></g><path d="m202.228 178.537c-5.346-26.946-17.073-61.484-42.768-87.178-5.551-5.551-11.515-10.447-17.725-14.77-12.786 3.952-23.807 12.501-30.77 24.043-7.921 13.127-9.966 29.091-5.612 43.796.707 2.387 1.417 4.854 2.118 7.356-10.553 6.626-18.734 16.689-22.978 28.606 24.68 21.05 55.4 31.165 79.864 36.018 22.507 4.466 42.336-15.363 37.871-37.871z" fill="#6ad7be"/><path d="m161.844 304.962c36.337 0 69.052 16.129 91.885 31.403 19.072 12.758 19.072 40.8 0 53.558-22.834 15.274-55.548 31.403-91.885 31.403s-69.052-16.129-91.885-31.403c-19.072-12.758-19.072-40.8 0-53.558 22.833-15.274 55.548-31.403 91.885-31.403z" fill="#8ee2cf"/><path d="m155.701 421.167c5.804-10.966 9.109-23.458 9.109-36.729 0-20.126-7.568-38.477-20.002-52.388 7.177-8.029 12.486-17.253 15.826-27.071-21.89.216-42.432 6.235-60.253 14.334-2.253 22.214-5.521 43.954-10.134 60.843-5.446 3.816-10.253 8.415-14.301 13.638 21.007 13.14 48.912 25.849 79.755 27.373z" fill="#6ad7be"/><path d="m454.423 312.928c-25.694 25.694-60.232 37.422-87.178 42.767-22.507 4.465-42.336-15.364-37.871-37.871 5.346-26.946 17.073-61.484 42.768-87.178 25.694-25.694 60.232-37.422 87.178-42.768 22.507-4.465 42.336 15.364 37.871 37.871-5.346 26.947-17.074 61.485-42.768 87.179z" fill="#8ee2cf"/><path d="m407.581 256.014c3.013-2.177 5.823-4.666 8.385-7.444 9.516-10.322 14.756-23.741 14.756-37.785v-11.736c0-1.164-.039-2.319-.11-3.465-20.169 6.959-41.295 17.888-58.47 35.063-25.694 25.694-37.422 60.232-42.768 87.178-4.465 22.507 15.364 42.336 37.871 37.871 14.312-2.839 30.765-7.479 46.898-15.055-3.884-28.261-5.82-59.808-6.562-84.627z" fill="#6ad7be"/><path d="m398.283 404.719c-18.169-45.445-21.077-140.229-21.077-171.458h-242.416c0 31.229-2.907 126.013-21.077 171.458z" fill="#daa985"/><path d="m383.36 398.023h-254.723c-16.119 0-30.351 10.522-35.076 25.934l-6.266 20.439c-5.036 16.426 7.249 33.041 24.429 33.041h288.549c17.18 0 29.465-16.616 24.429-33.041l-6.266-20.439c-4.725-15.412-18.956-25.934-35.076-25.934z" fill="#e7c7af"/><path d="m143.844 173.282h224.31c2.331-10.613 6.05-24.957 9.724-37.369 4.136-13.971-4.629-28.43-18.917-31.285-36.536-7.3-80.996-8.639-102.962-8.639s-66.426 1.339-102.962 8.639c-14.288 2.855-23.053 17.314-18.917 31.285 3.674 12.412 7.392 26.755 9.724 37.369z" fill="#daa985"/><path d="m143.844 173.282h224.31c2.077-9.454 5.254-21.865 8.521-33.236h-241.351c3.265 11.371 6.443 23.782 8.52 33.236z" fill="#d2896f"/><path d="m134.79 233.262c0 8.35-.208 21.246-.86 36.526h244.137c-.652-15.279-.86-28.175-.86-36.525h-242.417z" fill="#d2896f"/><path d="m374.954 236.551h-237.912c-14.23 0-25.766-11.536-25.766-25.766v-11.737c0-14.23 11.536-25.766 25.766-25.766h237.912c14.23 0 25.766 11.536 25.766 25.766v11.737c.001 14.23-11.535 25.766-25.766 25.766z" fill="#f2d98d"/><path d="m137.043 173.282c-14.23 0-25.766 11.536-25.766 25.766v11.737c0 14.23 11.536 25.766 25.766 25.766h98.706c-18.395-14.848-21.471-46.108-16.093-63.269z" fill="#eec076"/><g><g fill="#fff"><ellipse cx="172.433" cy="336.072" rx="30.834" ry="24.555"/><ellipse cx="339.564" cy="336.072" rx="30.834" ry="24.555"/></g></g><path d="m498.849 325.416c16.514-26.269 17.583-59.053 3.008-86.302 1.051-4.149 1.942-8.141 2.689-11.905 3.295-16.609-4.257-33.484-19.014-42.069-3.383-18.584-12.883-35.696-27.03-48.533-20.152-18.286-47.951-26.006-74.781-20.537-4.283-9.884-13.123-16.766-23.291-18.797-2.109-.422-4.298-.834-6.506-1.227-4.08-.718-7.973 1.995-8.696 6.073-.724 4.078 1.995 7.972 6.073 8.696 2.103.373 4.185.766 6.19 1.166 9.993 1.997 16.079 12.06 13.195 21.802-3.044 10.283-6.161 22.023-8.512 31.997h-212.35c-2.351-9.971-5.467-21.711-8.512-31.997-2.88-9.732 3.191-19.803 13.195-21.802 39.256-7.843 102.052-11.241 161.399-5.784 4.107.379 7.775-2.656 8.155-6.782.379-4.125-2.657-7.775-6.782-8.155-21.443-1.971-41.002-2.571-53.78-2.725v-26.154h4.535c4.142 0 7.5-3.357 7.5-7.5s-3.358-7.5-7.5-7.5h-4.535v-12.756c0-4.143-3.357-7.5-7.5-7.5s-7.5 3.357-7.5 7.5v12.757h-4.535c-4.143 0-7.5 3.357-7.5 7.5s3.357 7.5 7.5 7.5h4.535v26.16c-16.069.206-46.673 1.184-76.542 5.328-24.693-29.002-60.858-45.224-98.215-52.633-27.644-5.485-52.207 18.859-46.687 46.687 3.201 16.137 8.97 36.357 19.323 55.95-16.252 18.589-23.736 42.837-20.605 67.381.485 3.809-.602 7.473-2.983 10.053-26.305 28.486-30.27 71.298-9.642 104.109 2.569 4.088 2.548 9.21-.056 13.367-9.028 14.41-13.543 31.063-13.057 48.155 1.302 45.827 38.818 82.804 84.444 83.635 6.369 9.26 16.423 14.363 27.245 14.363h26.961c4.143 0 7.5-3.357 7.5-7.5s-3.357-7.5-7.5-7.5h-26.961c-12.147 0-20.819-11.726-17.259-23.343l6.267-20.439c3.783-12.341 14.997-20.632 27.904-20.632h254.724c12.908 0 24.122 8.291 27.905 20.632l6.267 20.439c3.56 11.614-5.109 23.343-17.259 23.343h-225.712c-4.143 0-7.5 3.357-7.5 7.5s3.357 7.5 7.5 7.5h225.712c10.805 0 20.861-5.086 27.245-14.363 22.118-.404 43.126-9.326 59.014-25.129 15.773-15.69 24.804-36.468 25.43-58.506.486-17.093-4.028-33.745-13.056-48.154-2.605-4.159-2.626-9.281-.057-13.369zm-112.527-194.571c21.727-4.535 44.958 1.316 62.1 16.871 9.658 8.763 16.682 19.93 20.413 32.191-3.624-.295-7.313-.112-10.976.615-18.172 3.604-34.84 9.031-49.733 16.163-1.156-16.378-14.213-29.513-30.556-30.791 6.48-26.642 8.327-27.965 8.752-35.049zm-11.367 49.937c10.071 0 18.266 8.194 18.266 18.267v11.737c0 10.096-8.171 18.266-18.266 18.266h-237.913c-10.071 0-18.266-8.194-18.266-18.267v-11.736c0-10.072 8.194-18.267 18.266-18.267zm-333.187-95.778c-3.411-17.196 11.664-32.501 29.056-29.056 30.41 6.032 61.227 18.612 83.424 40.808-.895.17-1.792.34-2.68.517-14.821 2.961-26.088 16.013-25.95 31.917l-28.749-28.749c-2.93-2.928-7.678-2.928-10.607 0-2.929 2.93-2.929 7.678 0 10.607l45.916 45.916c.792 3.043 1.547 6.042 2.249 8.929-12.861 1.006-23.685 9.352-28.28 20.846-8.879-5.414-16.828-11.566-23.664-18.403-24.934-24.931-35.903-59.078-40.715-83.332zm67.515 309.937c-2.595 1.257-5.052 2.762-7.34 4.494-9.326-4.342-18.662-9.624-27.815-15.746-14.566-9.742-14.736-31.234 0-41.09 16.289-10.895 32.705-18.917 48.936-23.948-2.624 27.08-6.88 55.476-13.781 76.29zm-43.495-64.811c-23.465 15.697-23.533 50.285 0 66.027 8.397 5.616 16.958 10.58 25.549 14.824-5.063 8.013-5.398 13.436-11.214 31.216-1.319 4.302-1.738 8.705-1.311 13.001-34.635-3.584-62.76-32.63-63.783-68.686-.401-14.123 3.324-27.874 10.774-39.767 5.685-9.078 5.702-20.311.043-29.314-17.029-27.087-13.755-62.431 7.962-85.95 5.397-5.845 7.892-13.909 6.843-22.127-2.37-18.584 2.647-36.974 13.87-51.747 4.964 7.475 10.702 14.684 17.354 21.336 9.065 9.064 19.789 17.049 31.901 23.8v8.04c0 14.923 9.876 27.58 23.435 31.783-.174 11.157-.763 34.073-2.759 60.064-19.532 5.281-39.24 14.508-58.664 27.5zm60.456 60.464c13.122-47.799 15.511-121.563 15.944-146.542h227.62c.433 24.975 2.818 98.74 15.938 146.542-1.778-.094-257.362-.113-259.502 0zm261.709-82.87 57.387-57.387c2.929-2.93 2.929-7.678 0-10.608-2.93-2.928-7.678-2.928-10.607 0l-48.197 48.197c-1.199-19.723-1.61-36.35-1.75-45.347 12.402-3.818 22.184-14.979 23.317-29.074 15.318-8.226 33.013-14.368 52.676-18.269 17.194-3.404 32.504 11.664 29.055 29.056-4.812 24.253-15.779 58.398-40.715 83.333-14.734 14.735-34.081 26.118-57.569 33.93-1.507-11.289-2.681-22.778-3.597-33.831zm109.014 78.789c-.516 18.178-7.979 35.33-21.015 48.297-11.677 11.615-26.694 18.725-42.768 20.389.427-4.296.008-8.699-1.311-13.001l-6.267-20.44c-3.705-12.086-12.123-21.601-22.893-26.817-3.673-11.078-6.598-24.301-8.925-38.335 26.843-8.559 49.007-21.445 65.937-38.374 16.786-16.787 27.797-37.1 35.028-56.357 4.86 18.661 1.975 38.729-8.605 55.559-5.659 9.002-5.643 20.234.044 29.313 7.451 11.892 11.177 25.643 10.775 39.766zm-218.747-80.108c-3.125-2.721-7.861-2.397-10.582.727-2.938 3.372-7.182 5.307-11.64 5.307s-8.701-1.935-11.64-5.307c-2.723-3.122-7.46-3.447-10.582-.727-3.122 2.722-3.448 7.459-.726 10.582 5.788 6.642 14.152 10.451 22.948 10.451s17.16-3.81 22.948-10.451c2.722-3.123 2.396-7.861-.726-10.582zm-87.817-13.773c-4.143 0-7.5 3.357-7.5 7.5v12c0 4.142 3.357 7.5 7.5 7.5s7.5-3.358 7.5-7.5v-12c0-4.142-3.358-7.5-7.5-7.5zm133.508-2.24c-11.804 0-21.406 9.603-21.406 21.406 0 4.143 3.357 7.5 7.5 7.5 4.142 0 7.5-3.357 7.5-7.5 0-3.532 2.874-6.406 6.406-6.406s6.406 2.874 6.406 6.406c0 4.143 3.357 7.5 7.5 7.5 4.142 0 7.5-3.357 7.5-7.5 0-11.803-9.603-21.406-21.406-21.406z"/></g></svg>