<svg id="Capa_1" enable-background="new 0 0 512.012 512.012" height="512" viewBox="0 0 512.012 512.012" width="512" xmlns="http://www.w3.org/2000/svg"><g><path d="m333.692 345.26c-10.216-2.55-16.43-12.899-13.88-23.114 2.551-10.216 12.899-16.435 23.114-13.88 35.761 8.925 62.979 4.356 83.213-13.968 7.805-7.069 19.861-6.472 26.928 1.332 7.068 7.804 6.471 19.861-1.332 26.928-33.117 29.996-75.056 33.433-118.043 22.702z" fill="#d2896f"/><path d="m455.169 334.142-43.579-43.579c-6.439-6.439-6.439-16.879 0-23.317 6.438-6.44 16.878-6.44 23.318 0l43.579 43.579c6.439 6.439 6.439 16.879-.001 23.317-6.436 6.438-16.877 6.441-23.317 0z" fill="#4e5660"/><path d="m391.154 301.787c-7.445-7.445-7.445-19.516.001-26.961l28.017-28.016c7.445-7.445 19.516-7.446 26.961.001 7.445 7.445 7.445 19.516-.001 26.961l-28.017 28.016c-7.443 7.443-19.514 7.447-26.961-.001z" fill="#b2ecde"/><path d="m443.944 354.577c-7.445-7.445-7.445-19.515 0-26.961l28.017-28.017c7.445-7.445 19.516-7.445 26.961 0s7.445 19.515 0 26.96l-28.017 28.017c-7.446 7.447-19.516 7.446-26.961.001z" fill="#b2ecde"/><path d="m178.32 345.26c10.216-2.55 16.43-12.899 13.88-23.114-2.551-10.216-12.899-16.435-23.114-13.88-35.76 8.925-62.979 4.356-83.213-13.968-7.805-7.069-19.861-6.472-26.928 1.332-7.068 7.804-6.471 19.861 1.332 26.928 33.118 29.996 75.056 33.433 118.043 22.702z" fill="#d2896f"/><path d="m56.843 334.142 43.579-43.579c6.439-6.439 6.439-16.879 0-23.317-6.438-6.44-16.878-6.44-23.318 0l-43.579 43.579c-6.439 6.439-6.439 16.879 0 23.317 6.437 6.438 16.879 6.441 23.318 0z" fill="#4e5660"/><path d="m120.858 301.787c7.445-7.445 7.445-19.516-.001-26.961l-28.017-28.016c-7.445-7.445-19.516-7.446-26.961.001-7.445 7.445-7.445 19.516.001 26.961l28.017 28.016c7.444 7.443 19.514 7.447 26.961-.001z" fill="#b2ecde"/><path d="m68.068 354.577c7.445-7.445 7.445-19.515 0-26.961l-28.017-28.016c-7.445-7.445-19.516-7.445-26.962 0-7.445 7.445-7.445 19.515 0 26.96l28.017 28.017c7.447 7.446 19.517 7.445 26.962 0z" fill="#b2ecde"/><g><path d="m377.525 402.937c-15.518-51.782-30.227-128.327-31.955-153.546h-179.128c-1.728 25.219-16.437 101.765-31.955 153.546z" fill="#daa985"/><path d="m397.918 470.537h-283.824c-13.817 0-24.056-12.834-20.986-26.306l4.036-17.709c3.144-13.797 15.413-23.585 29.564-23.585h258.596c14.151 0 26.42 9.788 29.564 23.585l4.036 17.709c3.069 13.472-7.169 26.306-20.986 26.306z" fill="#f2d98d"/><path d="m230.531 402.937h-103.823c-14.151 0-26.42 9.788-29.564 23.585l-4.035 17.709c-3.07 13.472 7.168 26.306 20.985 26.306h133.484c-14.592-13.438-22.725-39.928-17.047-67.6z" fill="#eec076"/><ellipse cx="256.006" cy="136.443" fill="#daa985" rx="94.968" ry="94.968" transform="matrix(.707 -.707 .707 .707 -21.497 220.987)"/><path d="m349.544 279.391c-2.105-12.723-3.509-23.219-3.974-30h-179.128c-.465 6.781-1.869 17.276-3.974 30z" fill="#d2896f"/><path d="m351.455 164.915h-190.897c-23.327 0-42.238 18.91-42.238 42.238 0 23.327 18.911 42.238 42.238 42.238h190.897c23.327 0 42.238-18.911 42.238-42.238 0-23.328-18.911-42.238-42.238-42.238z" fill="#f2d98d"/><path d="m238.145 164.915h-77.587c-23.328 0-42.238 18.911-42.238 42.238 0 23.328 18.911 42.238 42.238 42.238h95.448c-16.07-17.828-24.067-63.239-17.861-84.476z" fill="#eec076"/></g><path d="m277.901 322.646c-3.122-2.722-7.859-2.396-10.582.726-2.857 3.277-6.98 5.157-11.313 5.157s-8.456-1.88-11.313-5.157c-2.722-3.122-7.46-3.447-10.582-.727-3.123 2.722-3.448 7.46-.726 10.582 5.706 6.547 13.951 10.302 22.621 10.302 8.669 0 16.914-3.755 22.621-10.302 2.721-3.122 2.397-7.86-.726-10.581zm226.324-28.349c-9.43-9.43-24.06-10.24-34.381-2.722l-15.687-15.687c7.513-10.314 6.713-24.947-2.72-34.38-10.379-10.381-27.185-10.387-37.568-.002l-28.017 28.017c-9.763 9.76-10.23 24.98-2.034 35.281-6.83.658-14.192.462-22.158-.575-3.701-19.143-6.47-36.008-7.827-47.399 26.325-1.246 47.36-23.05 47.36-49.678 0-25.805-19.757-47.078-44.939-49.501 13.495-64.055-35.618-123.676-100.248-123.676-23.123 0-44.948 7.518-63.115 21.74-3.262 2.553-3.836 7.267-1.283 10.528s7.268 3.836 10.529 1.282c15.503-12.136 34.13-18.551 53.869-18.551 56.572 0 98.519 53.191 84.922 108.44h-169.844c-5.45-22.143-2.106-45.758 9.659-65.567 2.115-3.562.943-8.163-2.619-10.278-3.562-2.117-8.164-.943-10.278 2.618-12.972 21.843-17.443 48.045-12.088 73.464-25.182 2.423-44.939 23.696-44.939 49.501 0 26.628 21.034 48.432 47.359 49.678-1.357 11.391-4.126 28.256-7.827 47.399-7.966 1.037-15.328 1.234-22.158.575 8.198-10.303 7.728-25.523-2.033-35.282l-28.017-28.017c-10.38-10.38-27.186-10.384-37.567.001-9.428 9.428-10.24 24.06-2.721 34.381l-15.687 15.687c-10.294-7.498-24.929-6.73-34.381 2.721-10.381 10.381-10.384 27.185 0 37.567l28.017 28.017c10.379 10.38 27.184 10.386 37.568.001v-.001c4.009-4.009 6.459-8.993 7.365-14.195 17.944 9.07 37.476 12.902 57.909 12.587-3.097 12.856-6.391 25.499-9.769 37.166h-2.168c-17.765 0-32.929 12.097-36.876 29.418l-4.036 17.71c-4.144 18.186 9.685 35.472 28.298 35.472h221.477c4.142 0 7.5-3.357 7.5-7.5s-3.358-7.5-7.5-7.5h-221.478c-8.995 0-15.675-8.353-13.673-17.14l4.036-17.709c2.382-10.452 11.532-17.751 22.251-17.751.956 0 262.398.003 258.596 0 10.72 0 19.87 7.299 22.251 17.75l4.036 17.71c1.998 8.77-4.662 17.14-13.673 17.14h-26.104c-4.142 0-7.5 3.357-7.5 7.5s3.358 7.5 7.5 7.5h26.104c18.651 0 32.435-17.321 28.298-35.472l-4.036-17.71c-3.947-17.321-19.111-29.418-36.876-29.418h-2.168c-3.378-11.668-6.672-24.311-9.769-37.166 20.474.316 39.997-3.534 57.909-12.587.905 5.203 3.355 10.186 7.365 14.195v.001c8.457 8.457 18.884 7.8 18.784 7.78 7.095 0 13.767-2.763 18.784-7.78l28.017-28.018c10.381-10.378 10.383-27.184-.001-37.565zm-107.767-14.167 28.018-28.018c4.519-4.518 11.832-4.521 16.354.002 4.52 4.518 4.52 11.836 0 16.354l-28.017 28.016c-4.45 4.451-11.775 4.58-16.354 0 0 0 0 0 0-.001-4.521-4.518-4.521-11.834-.001-16.353zm-270.638-72.978c0-19.154 15.584-34.737 34.738-34.737 2.459.001 200.264.003 190.896 0 19.155 0 34.738 15.583 34.738 34.737s-15.583 34.738-34.738 34.738h-190.896c-19.155.001-34.738-15.583-34.738-34.738zm-54.637 44.961c4.518-4.52 11.833-4.521 16.354 0l28.018 28.017c4.52 4.519 4.52 11.835 0 16.354v.001c-4.61 4.611-11.941 4.414-16.354 0l-28.017-28.016c-4.521-4.518-4.522-11.835-.001-16.356zm-8.418 97.161c-4.518 4.518-11.835 4.522-16.355 0l-28.018-28.018c-4.519-4.518-4.52-11.833.001-16.354 4.519-4.519 11.834-4.52 16.354.001 6.829 6.83 28.131 28.127 28.017 28.016 4.43 4.43 4.571 11.784.001 16.355zm2.954-34.614-12.711-12.711 15.221-15.221 12.711 12.711zm10.387 10.861c-.005-.007-.009-.014-.014-.02l15.688-15.689c3.911 2.849 8.501 4.557 13.36 4.96 13.635 5.173 27.771 6.233 42.121 4.901-1.587 7.679-3.292 15.568-5.088 23.491-25.341 1.07-47.531-4.863-66.067-17.643zm68.373 69.917c13.775-48.696 25.633-110.441 28.79-138.547h165.473c3.157 28.106 15.016 89.851 28.791 138.547zm291.429-69.918c-18.538 12.78-40.728 18.709-66.07 17.643-1.796-7.923-3.501-15.811-5.088-23.49 14.606 1.356 28.674.2 42.122-4.901 4.859-.402 9.449-2.111 13.361-4.96l15.689 15.689c-.006.006-.01.013-.014.019zm-4.836-26.081 12.711-12.711 15.221 15.221-12.711 12.711zm62.547 21.817-28.018 28.019c-4.518 4.519-11.834 4.52-16.354-.001v.001c-4.56-4.561-4.44-11.914 0-16.354-.795.795 18.307-18.307 25.673-25.672 1.451-1.119 4.211-5.732 10.522-5.732 3.089 0 5.993 1.203 8.177 3.388 4.519 4.516 4.521 11.832 0 16.351zm-301.967-12.455c-4.142 0-7.5 3.357-7.5 7.5v12.365c0 4.143 3.358 7.5 7.5 7.5s7.5-3.357 7.5-7.5v-12.365c0-4.143-3.358-7.5-7.5-7.5zm128.708 0c-4.142 0-7.5 3.357-7.5 7.5v12.365c0 4.143 3.358 7.5 7.5 7.5s7.5-3.357 7.5-7.5v-12.365c0-4.143-3.358-7.5-7.5-7.5z"/></g></svg>