<svg id="Capa_1" enable-background="new 0 0 512 512" height="512" viewBox="0 0 512 512" width="512" xmlns="http://www.w3.org/2000/svg"><g><path d="m504.5 109.908h-497v-27.531c0-31.19 25.284-56.474 56.474-56.474h384.052c31.19 0 56.474 25.284 56.474 56.474z" fill="#4e5660"/><path d="m135.31 25.903h-71.336c-31.19 0-56.474 25.284-56.474 56.474v27.531h141.782c-16.132-18.921-18.582-60.327-13.972-84.005z" fill="#404656"/><g><path d="m84.082 67.905c0-4.155-3.368-7.523-7.523-7.523s-7.523 3.368-7.523 7.523 3.368 7.523 7.523 7.523 7.523-3.368 7.523-7.523z" fill="#e7889d"/><ellipse cx="112.697" cy="67.905" fill="#f2d98d" rx="7.523" ry="7.523" transform="matrix(.384 -.923 .923 .384 6.684 145.835)"/><ellipse cx="148.834" cy="67.905" fill="#8ee2cf" rx="7.523" ry="7.523" transform="matrix(.707 -.707 .707 .707 -4.424 125.131)"/></g><path d="m504.5 109.908h-497v267.315c0 31.19 25.284 56.474 56.474 56.474h384.052c31.19 0 56.474-25.284 56.474-56.474z" fill="#fbf1cf"/><path d="m46.755 431.014c5.43 1.737 11.213 2.683 17.22 2.683h272.547c-5.611-16.571-18.101-29.409-33.855-35.572-3.509-18.809-5.75-47.67-6.594-75.271 10.66-5.903 18.897-15.825 22.615-28.207 4.623-15.39 1.774-31.61-7.816-44.504-1.768-2.378-3.711-4.568-5.806-6.56 2.209-6.195 4.063-12.672 5.556-19.414 3.033-13.695-.252-27.809-9.014-38.723-8.847-11.02-21.964-17.341-35.989-17.341-5.069 0-10.058.832-14.867 2.478-6.44-26.94-30.721-47.028-59.606-47.028s-53.167 20.088-59.607 47.028c-4.81-1.646-9.798-2.478-14.867-2.478-14.025 0-27.143 6.32-35.989 17.34-8.761 10.914-12.046 25.028-9.014 38.723 1.493 6.742 3.348 13.22 5.556 19.415-2.094 1.992-4.037 4.183-5.806 6.56-9.589 12.894-12.438 29.115-7.816 44.503 3.718 12.382 11.955 22.304 22.616 28.208-.843 27.603-3.084 56.461-6.594 75.271-14.891 5.826-26.863 17.62-32.87 32.889z" fill="#fae0bd"/><g><ellipse cx="191.147" cy="184.834" fill="#eec076" rx="31.279" ry="31.279" transform="matrix(.987 -.159 .159 .987 -26.901 32.663)"/><path d="m263.174 259.855c9.573-13.254 15.124-28.473 18.158-42.174 2.803-12.659-9.875-23.281-21.861-18.339-25.698 10.596-45.371 4.575-58.623-5.387-5.77-4.337-13.635-4.337-19.404 0-13.252 9.962-32.925 15.983-58.623 5.387-11.986-4.942-24.664 5.68-21.861 18.339 3.034 13.701 8.585 28.921 18.158 42.174z" fill="#daa985"/><path d="m278.658 424.102c-11.175-28.226-12.963-100.356-12.963-125.256h-149.097c0 24.9-1.788 97.03-12.963 125.256z" fill="#daa985"/><path d="m266.101 323.379c-.304-10.029-.405-18.616-.405-24.534h-149.098c0 5.917-.101 14.505-.405 24.534z" fill="#d2896f"/><path d="m270.498 235.322h-158.703c-1.856 0-3.691.116-5.499.333 3.133 8.275 7.307 16.563 12.823 24.2h144.055c5.516-7.636 9.69-15.925 12.823-24.2-1.808-.218-3.643-.333-5.499-.333z" fill="#d2896f"/><path d="m272.709 298.846h-163.124c-7.951 0-14.961-5.214-17.248-12.829-3.916-13.037 5.846-26.162 19.458-26.162h158.704c13.613 0 23.374 13.125 19.458 26.162-2.287 7.615-9.297 12.829-17.248 12.829z" fill="#f2d98d"/><path d="m169.996 259.855h-58.201c-13.613 0-23.375 13.125-19.459 26.162 2.287 7.615 9.297 12.829 17.248 12.829h71.688c-14.227-7.843-15.831-28.048-11.276-38.991z" fill="#eec076"/><path d="m281.2 424.102h-180.106c-13.277 0-24.792 9.177-27.754 22.12l-5.029 21.978c-2.097 9.162 4.865 17.897 14.264 17.897h217.143c9.399 0 16.361-8.735 14.264-17.897l-5.029-21.978c-2.961-12.943-14.476-22.12-27.753-22.12z" fill="#e7c7af"/></g><g><path d="m434.524 317.154-22.113 11.127c-2.224 1.119-4.028 2.924-5.147 5.147l-11.127 22.113c-6.668 13.251-26.173 11.262-30.03-3.061l-16.424-60.996c-3.399-12.623 8.161-24.183 20.784-20.784l60.996 16.424c14.323 3.857 16.311 23.362 3.061 30.03z" fill="#4e5660"/></g><path d="m443.052 210.301h-90.774c-10.472 0-18.962-8.489-18.962-18.962v-11.18c0-10.472 8.489-18.962 18.962-18.962h90.774c10.472 0 18.962 8.489 18.962 18.962v11.18c-.001 10.472-8.49 18.962-18.962 18.962z" fill="#e7889d"/><path d="m467.492 21.421c-3.947-1.261-8.166.918-9.426 4.864-1.259 3.946.919 8.166 4.865 9.425 20.378 6.503 34.069 25.257 34.069 46.667v20.031h-482v-20.031c0-27.005 21.97-48.975 48.974-48.975h365.892c4.143 0 7.5-3.357 7.5-7.5 0-4.142-3.357-7.5-7.5-7.5h-365.892c-35.275 0-63.974 28.7-63.974 63.975v294.846c0 35.275 28.699 63.975 63.974 63.975h2.996c-.991 2.994-.777 2.887-5.97 25.329-3.169 13.847 7.344 27.071 21.575 27.071h17.367c4.142 0 7.5-3.357 7.5-7.5s-3.358-7.5-7.5-7.5h-17.367c-4.587 0-7.975-4.262-6.953-8.725l5.029-21.978c2.195-9.593 10.601-16.293 20.442-16.293h180.105c9.841 0 18.247 6.7 20.442 16.293l5.03 21.978c1.02 4.464-2.367 8.725-6.953 8.725h-164.305c-4.142 0-7.5 3.357-7.5 7.5s3.358 7.5 7.5 7.5h164.307c14.205 0 24.749-13.198 21.574-27.07-5.234-22.618-4.978-22.331-5.97-25.33h132.703c35.275 0 63.975-28.699 63.975-63.975v-294.846c-.001-27.965-17.888-52.461-44.509-60.956zm-353.608 395.181c8.46-32.279 9.92-88.981 10.165-110.256h134.195c.246 21.275 1.706 77.977 10.165 110.256zm-4.299-125.256c-4.676 0-8.721-3.009-10.066-7.486-2.472-8.23 3.678-16.505 12.275-16.505h158.704c8.593 0 14.747 8.27 12.275 16.505-1.346 4.478-5.39 7.486-10.065 7.486zm76.366-91.397c3.107-2.336 7.283-2.337 10.391 0 13.142 9.881 35.258 18.999 65.989 6.326 6.393-2.637 13.173 3.033 11.68 9.783-3.025 13.661-8.115 26.118-14.788 36.296h-136.152c-6.673-10.177-11.763-22.635-14.788-36.296-1.492-6.734 5.271-12.424 11.679-9.783 30.731 12.67 52.847 3.553 65.989-6.326zm5.195-38.894c16.351 0 27.986 16.28 22.357 31.855-3.096-1.48-5.814-3.196-8.148-4.951-8.499-6.389-19.918-6.388-28.417 0-2.334 1.755-5.053 3.471-8.148 4.951-5.624-15.561 5.992-31.855 22.356-31.855zm305.854 216.168c0 27.005-21.97 48.975-48.975 48.975h-142.302c-5.811-5.411-13.389-8.845-21.704-9.483-7.868-25.356-10.447-77.489-10.784-110.39 11.123-.223 20.691-7.451 23.904-18.151 4.792-15.953-5.334-31.944-20.81-35.205 5.445-10.001 9.581-21.27 12.326-33.667 4.108-18.552-14.462-34.143-32.043-26.894-11.051 4.556-20.603 5.589-28.679 4.655 8.388-25.238-10.544-51.008-36.787-51.008-26.274 0-45.163 25.807-36.786 51.008-8.077.934-17.628-.099-28.68-4.654-17.572-7.244-36.153 8.33-32.042 26.895 2.745 12.397 6.881 23.665 12.326 33.666-15.475 3.26-25.603 19.251-20.811 35.205 3.214 10.699 12.781 17.927 23.905 18.151-.338 32.901-2.916 85.034-10.784 110.39-8.315.638-15.894 4.071-21.705 9.483h-12.595c-27.004-.002-48.974-21.971-48.974-48.976v-259.815h482zm-75.372-45.185 16.266-8.186c19.391-9.757 16.467-38.329-4.482-43.971l-60.996-16.425c-18.204-4.901-34.881 11.756-29.976 29.977l16.424 60.996c5.643 20.956 34.217 23.868 43.972 4.482l8.185-16.267 28.835 28.835c2.93 2.928 7.678 2.929 10.607-.001 2.929-2.929 2.929-7.677 0-10.607zm-12.586-10.457c-3.637 1.828-6.647 4.838-8.477 8.476l-11.127 22.113c-3.575 7.101-14.023 6.033-16.089-1.641l-16.424-60.996c-1.88-6.982 4.47-13.509 11.592-11.592l60.995 16.425c7.677 2.066 8.741 12.515 1.641 16.088zm-56.765-103.78h90.774c14.591 0 26.462-11.871 26.462-26.462v-11.18c0-14.591-11.871-26.461-26.462-26.461h-90.774c-14.591 0-26.461 11.87-26.461 26.461v11.18c0 14.591 11.87 26.462 26.461 26.462zm-11.461-37.642c0-6.319 5.142-11.461 11.461-11.461h90.774c6.32 0 11.462 5.142 11.462 11.461v11.18c0 6.32-5.142 11.462-11.462 11.462h-90.774c-6.319 0-11.461-5.142-11.461-11.462z"/></g></svg>