<svg id="Capa_1" enable-background="new 0 0 512.003 512.003" height="512" viewBox="0 0 512.003 512.003" width="512" xmlns="http://www.w3.org/2000/svg"><g><path d="m66.854 255.043c0 8.658-8.708 26.572-21.471 45.676-32.721 48.979-7.535 115.805 49.675 129.83 47.009 11.524 100.817 15.748 151.293 15.748s104.284-4.224 151.293-15.748c57.209-14.025 82.396-80.851 49.675-129.83-12.763-19.105-21.471-37.018-21.471-45.676z" fill="#e7889d"/><path d="m385.71 255.043h-278.719c-29.705 43.233-48.787 153.568 32.743 184.101 21.308 3.12 43.278 5.089 65.146 6.154h82.941c21.869-1.064 43.838-3.034 65.146-6.154 81.53-30.533 62.448-140.868 32.743-184.101z" fill="#e26e7e"/><path d="m378.917 459.154c12.461 0 21.993-11.101 20.119-23.42-11.285-74.186-75.347-131.03-152.686-131.03s-141.401 56.844-152.686 131.03c-1.874 12.319 7.658 23.42 20.119 23.42z" fill="#fbf1cf"/><path d="m399.036 435.734c-11.285-74.186-75.347-131.03-152.686-131.03-46.562 0-88.305 20.61-116.622 53.198 8.197 29.387 8.987 73.845-.302 101.253h249.491c12.461-.001 21.993-11.102 20.119-23.421z" fill="#b2ecde"/><path d="m291.461 457.499-.377 1.655h87.834c12.461 0 21.993-11.101 20.119-23.42-7.572-49.776-38.905-91.743-82.065-113.973-5.039 8.478-9.57 16.754-13.651 24.817 2.173 15.577 10.992 29.057 23.506 37.448-2.233 12.103-5.354 26.94-8.862 40.886-13.12 5.932-23.116 17.721-26.504 32.587z" fill="#8ee2cf"/><ellipse cx="430.13" cy="195.715" fill="#ffbe9d" rx="55.071" ry="49.126"/><ellipse cx="62.571" cy="195.715" fill="#ffbe9d" rx="55.071" ry="49.126"/><path d="m436.12 206.499c0 94.948-84.963 163.11-189.77 163.11s-189.77-68.161-189.77-163.11 79.195-171.919 189.77-171.919 189.77 76.97 189.77 171.919z" fill="#ffd3bd"/><path d="m435.671 218.201c-7.718-2.34-15.9-3.603-24.372-3.603-44.745 0-81.446 35.101-84.01 79.215-14.745 9.671-24.503 26.348-24.503 45.26 0 7.959 1.742 15.514 4.843 22.326 70.828-19.719 122.798-73.36 128.042-143.198z" fill="#ffbe9d"/><g><path d="m480.593 450.715c-8.849-29.528-17.236-73.176-18.222-87.557h-102.144c-.985 14.381-9.373 58.029-18.222 87.557z" fill="#daa985"/><path d="m492.221 489.262h-161.844c-7.879 0-13.717-7.318-11.966-15l2.301-10.098c1.793-7.867 8.789-13.449 16.858-13.449h147.459c8.069 0 15.065 5.581 16.858 13.449l2.301 10.098c1.751 7.682-4.088 15-11.967 15z" fill="#f2d98d"/><ellipse cx="411.299" cy="298.752" fill="#daa985" rx="54.154" ry="54.154" transform="matrix(.881 -.473 .473 .881 -92.381 230.009)"/><path d="m466.942 393.158c-2.47-12.978-4.161-24.021-4.571-30h-102.144c-.41 5.979-2.101 17.022-4.571 30z" fill="#d2896f"/><path d="m465.727 314.987h-108.855c-13.302 0-24.086 10.783-24.086 24.085 0 13.302 10.784 24.085 24.086 24.085h108.855c13.302 0 24.086-10.783 24.086-24.085-.001-13.301-10.784-24.085-24.086-24.085z" fill="#f2d98d"/></g><g><g fill="#eda1ab"><ellipse cx="167.974" cy="224.854" rx="28.919" ry="23.03"/><ellipse cx="324.727" cy="224.854" rx="28.92" ry="23.03"/></g></g><path d="m252.715 112.43c39.922 28.343 104.557 56.838 162.146 56.772 16.641-.019 28.076-16.645 22.206-32.217-31.939-84.724-118.294-114.243-190.734-114.243s-158.794 29.519-190.733 114.243c-5.87 15.571 5.565 32.197 22.206 32.217 57.59.066 122.224-28.428 162.146-56.772 3.827-2.717 8.936-2.717 12.763 0z" fill="#e7889d"/><path d="m55.599 136.985c-5.87 15.571 5.566 32.197 22.206 32.217 45.677.053 95.772-17.865 134.467-39.421-34.502-6.203-60.985-63.527-50.733-92.859-45.377 16.202-86.128 47.509-105.94 100.063z" fill="#e26e7e"/><path d="m348.88 86.2 7.909 7.909c4.892 4.892 12.825 4.892 17.717 0l21.675-21.675c4.892-4.892 4.892-12.825 0-17.717l-7.909-7.909c-4.892-4.892-12.825-4.892-17.717 0l-21.675 21.675c-4.892 4.893-4.892 12.825 0 17.717z" fill="#b2ecde"/><path d="m143.786 86.2-7.909 7.909c-4.892 4.892-12.825 4.892-17.717 0l-21.675-21.675c-4.892-4.892-4.892-12.825 0-17.717l7.909-7.909c4.892-4.892 12.825-4.892 17.717 0l21.675 21.675c4.893 4.893 4.893 12.825 0 17.717z" fill="#b2ecde"/><path d="m511.5 472.596-2.301-10.099c-2.496-10.957-11.845-18.701-22.961-19.231-6.995-24.746-13.248-56.252-15.539-73.003 15.062-2.392 26.613-15.466 26.613-31.191 0-15.189-10.778-27.904-25.086-30.909 3.446-22.326-5.523-44.591-23.52-58.374 24.715-6.919 43.994-27.901 43.994-54.074 0-26.19-19.664-48.467-46.939-54.827-.323-2.214-.871-4.411-1.677-6.549-1.283-3.401-2.676-6.785-4.143-10.057-1.694-3.779-6.133-5.468-9.912-3.775-3.779 1.694-5.47 6.133-3.775 9.912 1.343 2.995 2.62 6.094 3.794 9.211 4.034 10.701-3.796 22.059-15.197 22.071h-.2c-58.732 0-121.589-29.824-157.595-55.387-6.415-4.555-15.034-4.555-21.447 0-36.009 25.564-98.86 55.389-157.596 55.387h-.2c-11.39-.012-19.235-11.36-15.197-22.071 7.944-21.074 19.847-39.556 35.403-55.054l14.836 14.836c7.828 7.829 20.495 7.829 28.324.001l7.909-7.909c0-.001.001-.001.001-.001 7.808-7.809 7.808-20.514-.001-28.323l-8.9-8.9c30.45-15.547 67.727-24.038 106.144-24.038s75.694 8.491 106.144 24.038l-8.901 8.901c-7.809 7.81-7.809 20.515 0 28.324l7.909 7.909c7.808 7.808 20.515 7.809 28.324 0l14.846-14.847c5.158 5.139 9.935 10.623 14.252 16.367 2.495 3.322 7.201 3.971 10.501 1.491 3.311-2.488 3.979-7.19 1.491-10.501-4.884-6.5-10.306-12.689-16.162-18.475 4.351-7.648 3.276-17.505-3.253-24.035l-7.909-7.909c-7.809-7.809-20.515-7.808-28.324 0l-1.672 1.672c-33.32-18.041-74.694-27.934-117.247-27.934s-83.921 9.895-117.241 27.936l-1.675-1.675c-7.809-7.809-20.515-7.808-28.324 0l-7.91 7.91c-6.567 6.567-7.577 16.44-3.247 24.042-17.327 17.116-30.559 37.558-39.352 60.884-.808 2.143-1.357 4.345-1.679 6.566-27.5 6.427-46.903 28.846-46.903 54.81 0 28.681 23.812 53.12 55.693 56.264.817 2.73 1.709 5.434 2.674 8.111-2.539 8.639-9.575 22.022-19.221 36.463-16.822 25.18-20.381 57.035-9.521 85.213 10.031 26.026 30.407 45.388 56.48 53.994-1.816 16.536 11.143 30.894 27.677 30.894h47.156c4.142 0 7.5-3.357 7.5-7.5 0-4.142-3.358-7.5-7.5-7.5h-21.627c6.188-26.448 5.779-63.236-1.309-91.752 1.973-2.156 4.013-4.256 6.119-6.297 30.245 15.314 65.334 23.503 102.228 23.503 30.496 0 60.528-5.76 87.262-16.692 4.714 5.133 11.1 8.705 18.286 9.847-2.292 16.751-8.544 48.256-15.54 73.003-6.908.33-13.129 3.44-17.45 8.388h-121.04c-4.142 0-7.5 3.358-7.5 7.5 0 4.143 3.358 7.5 7.5 7.5h114.585l-1.354 5.941c-2.823 12.391 6.598 24.166 19.279 24.166h161.845c12.709 0 22.096-11.802 19.278-24.166zm-157.316-398.809 21.675-21.676c1.961-1.961 5.15-1.961 7.111 0l7.909 7.908c1.963 1.964 1.967 5.145.001 7.11l-21.675 21.676c-1.961 1.961-5.15 1.961-7.111 0l-7.909-7.909c-1.962-1.96-1.962-5.149-.001-7.109zm-252.396-13.767 7.909-7.909c1.964-1.964 5.154-1.958 7.111 0l21.675 21.675c1.961 1.961 1.961 5.15.001 7.11l-7.909 7.909c-1.965 1.966-5.145 1.966-7.11 0l-21.677-21.675c-1.964-1.963-1.965-5.145 0-7.11zm-49.932 176.222c-21.031-4.303-36.856-20.968-36.856-40.526 0-18.251 13.958-34.379 33.41-39.732 1.359 3.794 3.226 6.875 5.541 9.618-5.449 22.481-6.575 46.953-2.095 70.64zm392.404-80.267c19.468 5.344 33.44 21.481 33.44 39.741 0 19.559-15.828 36.226-36.86 40.527 4.482-23.781 3.365-48.149-2.098-70.673 2.331-2.768 4.175-5.841 5.518-9.595zm12.873 151.512h-91.669c-5.48-28.917 16.8-55.389 45.835-55.389 29.08.001 51.305 26.519 45.834 55.389zm-333.273 144.167h-10.077c-7.867 0-13.888-7.016-12.705-14.792 3.385-22.254 11.947-43.404 24.757-61.764 4.317 25.505 3.651 55.759-1.975 76.556zm-34.896-30.772c-20.895-7.491-37.195-23.372-45.342-44.51-9.245-23.985-6.33-50.041 7.997-71.486 6.148-9.203 11.278-17.987 15.092-25.75 14.543 27.958 36.881 50.474 63.784 66.881-20.307 20.813-34.691 46.764-41.531 74.865zm237.376-73.721c-24.543 9.785-52.03 14.947-79.99 14.947-113.826 0-200.406-82.25-179.102-187.264 5.573 2.005 9.733 1.767 10.762 1.857 62.266-.001 128.476-31.314 166.283-58.156 1.22-.867 2.858-.865 4.079 0 37.81 26.844 104.014 58.159 166.283 58.156.374-.033 5.026.214 10.794-1.868 4.258 20.979 4.341 42.859-.439 63.821-42.368-9.662-81.253 26.507-74.647 69.51-14.304 3.009-28.704 21.344-24.023 38.997zm13.946-8.089c0-9.145 7.44-16.585 16.585-16.585h108.855c9.146 0 16.585 7.44 16.585 16.585 0 9.146-7.44 16.586-16.585 16.586h-108.854c-9.145 0-16.586-7.44-16.586-16.586zm130.378 104.143h-118.73c6.645-24.485 12.857-55.391 15.052-72.557h88.627c2.194 17.166 8.405 48.07 15.051 72.557zm21.558 38.547h-161.845c-3.068 0-5.336-2.842-4.654-5.834l2.301-10.098c1.022-4.484 4.947-7.615 9.546-7.615h147.459c4.599 0 8.524 3.131 9.545 7.614l2.301 10.099c.682 2.992-1.584 5.834-4.653 5.834zm-184.349-303.234c-11.726 0-21.265 9.54-21.265 21.266 0 4.143 3.358 7.5 7.5 7.5s7.5-3.357 7.5-7.5c0-3.455 2.811-6.266 6.265-6.266s6.265 2.811 6.265 6.266c0 4.143 3.358 7.5 7.5 7.5s7.5-3.357 7.5-7.5c0-11.726-9.54-21.266-21.265-21.266zm-41.994 31.699c-3.123-2.722-7.86-2.396-10.582.727-2.259 2.593-5.52 4.08-8.947 4.08-3.426 0-6.688-1.487-8.947-4.08-2.721-3.122-7.459-3.447-10.582-.727-3.123 2.721-3.448 7.459-.727 10.582 5.109 5.862 12.492 9.225 20.255 9.225 7.764 0 15.147-3.362 20.256-9.225 2.722-3.123 2.397-7.861-.726-10.582zm-81.051-31.699c-11.726 0-21.265 9.54-21.265 21.266 0 4.143 3.358 7.5 7.5 7.5s7.5-3.357 7.5-7.5c0-3.455 2.811-6.266 6.265-6.266 3.455 0 6.265 2.811 6.265 6.266 0 4.143 3.358 7.5 7.5 7.5s7.5-3.357 7.5-7.5c0-11.726-9.54-21.266-21.265-21.266z"/></g></svg>