<svg id="Capa_1" enable-background="new 0 0 512.065 512.065" height="512" viewBox="0 0 512.065 512.065" width="512" xmlns="http://www.w3.org/2000/svg"><g><path d="m289.4 338.444c-11.874-.084-21.431-9.779-21.346-21.652.084-11.821 9.694-21.347 21.496-21.347.146 0 .29.002.439.002 14.183 0 49.203-7.479 82.272-35.965 8.995-7.752 22.572-6.74 30.321 2.257 7.75 8.996 6.739 22.571-2.257 30.321-36.805 31.708-81.046 46.677-110.925 46.384z" fill="#d2896f"/><ellipse cx="189.8" cy="53.193" fill="#f2d98d" rx="45.693" ry="45.693" transform="matrix(.707 -.707 .707 .707 17.978 149.788)"/><path d="m295.018 162.784c13.985-19.361 22.093-41.593 26.526-61.609 4.095-18.492-14.425-34.009-31.935-26.789-37.54 15.479-66.278 6.683-85.637-7.87-8.429-6.336-19.917-6.336-28.346 0-19.359 14.553-48.098 23.349-85.637 7.87-17.51-7.22-36.03 8.297-31.935 26.789 4.433 20.015 12.541 42.247 26.526 61.609z" fill="#daa985"/><path d="m317.638 402.718c-16.325-41.233-18.937-146.602-18.937-182.976h-217.803c0 36.374-2.612 141.743-18.937 182.976z" fill="#e7c7af"/><path d="m222 368.944v33.774h95.638c-8.602-21.726-13.395-61.257-16.006-99.12-10.4 1.526-20.751 3.356-31.025 5.508-28.165 5.897-48.607 31.062-48.607 59.838z" fill="#daa985"/><path d="m299.293 255.581c-.444-14.65-.592-27.195-.592-35.839h-217.803c0 8.644-.148 21.189-.592 35.839z" fill="#daa985"/><g><g><ellipse cx="189.8" cy="298.57" fill="#4e5660" rx="16.423" ry="18.377"/></g></g><path d="m305.717 126.946h-231.835c-2.712 0-5.392.169-8.033.487 4.577 12.088 10.674 24.196 18.732 35.351h210.438c8.058-11.155 14.155-23.263 18.732-35.351-2.642-.318-5.322-.487-8.034-.487z" fill="#d2896f"/><path d="m308.946 219.742h-238.293c-11.615 0-21.855-7.617-25.197-18.74-5.721-19.045 8.54-38.218 28.425-38.218h231.836c19.885 0 34.146 19.173 28.425 38.218-3.34 11.124-13.581 18.74-25.196 18.74z" fill="#f2d98d"/><path d="m158.902 162.784h-85.021c-19.886 0-34.146 19.173-28.425 38.218 3.341 11.124 13.582 18.74 25.197 18.74h104.723c-20.784-11.456-23.128-40.972-16.474-56.958z" fill="#eec076"/><path d="m321.35 402.718h-263.101c-19.396 0-36.216 13.406-40.543 32.313l-7.347 32.106c-3.063 13.385 7.107 26.145 20.837 26.145h317.206c13.73 0 23.9-12.76 20.837-26.145l-7.347-32.106c-4.326-18.906-21.146-32.313-40.542-32.313z" fill="#daa985"/><path d="m361.893 435.032c-4.327-18.907-21.147-32.313-40.543-32.313h-99.35v60.911c0 10.643 2.803 20.789 7.753 29.653h118.65c13.73 0 23.9-12.76 20.837-26.145z" fill="#d2896f"/><path d="m168.487 410.396c-37.631-12.728-85.047-48.96-100.143-61.847-9.031-7.71-10.102-21.28-2.392-30.311 7.709-9.03 21.28-10.102 30.311-2.392 15.652 13.362 57.267 44.099 85.999 53.815 11.248 3.805 17.283 16.007 13.479 27.255-3.815 11.284-16.04 17.272-27.254 13.48z" fill="#d2896f"/><path d="m477.502 494.104c-66.198 13.862-134.55 13.862-200.748 0-14.423-3.02-24.754-15.739-24.754-30.475v-94.685c0-14.736 10.331-27.455 24.754-30.475 66.198-13.862 134.55-13.862 200.748 0 14.424 3.02 24.754 15.738 24.754 30.475v94.685c.001 14.736-10.33 27.455-24.754 30.475z" fill="#fbf1cf"/><path d="m410.759 400.589-36.851-21.276c-12.084-6.977-27.19 1.744-27.19 15.698v42.552c0 13.954 15.105 22.675 27.19 15.698l36.851-21.276c12.084-6.977 12.084-24.42 0-31.396z" fill="#e7889d"/><path d="m332.159 330.147c-18.572 1.713-37.071 4.484-55.404 8.322-14.424 3.021-24.755 15.739-24.755 30.475v94.685c0 14.736 10.331 27.455 24.755 30.475 44.689 9.357 90.359 12.388 135.686 9.112-87.288-15.253-95.513-130.143-80.282-173.069z" fill="#fae0bd"/><path d="m377.658 372.817c-17.078-9.861-38.439 2.448-38.439 22.193v42.552c0 19.703 21.324 32.072 38.439 22.193l36.851-21.276c17.079-9.859 17.101-34.514 0-44.386zm29.351 52.672-36.851 21.276c-7.083 4.088-15.939-1.015-15.939-9.203v-42.552c0-8.179 8.848-13.297 15.939-9.203l36.851 21.276c7.082 4.09 7.091 14.312 0 18.406zm-295.884-157.219c-4.142 0-7.5 3.358-7.5 7.5v12c0 4.143 3.358 7.5 7.5 7.5s7.5-3.357 7.5-7.5v-12c0-4.143-3.358-7.5-7.5-7.5zm157.349 0c-4.143 0-7.5 3.358-7.5 7.5v12c0 4.143 3.357 7.5 7.5 7.5s7.5-3.357 7.5-7.5v-12c0-4.143-3.357-7.5-7.5-7.5zm210.565 62.858c-35.115-7.353-70.487-10.878-105.85-10.595 11.316-6.578 22.098-14.234 32.031-22.79 12.114-10.438 13.48-28.784 3.044-40.898-5.056-5.869-12.094-9.419-19.819-9.994-7.719-.575-15.212 1.893-21.08 6.949-22.965 19.784-45.702 28.061-59.342 31.474-1.317-24.81-1.687-46.376-1.787-58.032h2.71c15.041 0 28.054-9.678 32.379-24.083 6.923-23.045-9.414-45.907-32.587-47.742 9.024-15.372 15.784-33.003 20.129-52.622 5.397-24.371-19.006-44.87-42.117-35.344-18.786 7.745-34.757 8.786-47.944 6.425 14.806-34.988-11.047-73.876-49.006-73.876-38.061 0-63.771 39.002-49.01 73.877-9.013 1.624-19.385 1.674-31.088-.998-4.038-.924-8.059 1.604-8.981 5.642s1.604 8.06 5.643 8.981c34.124 7.794 58.952-3.853 73.77-14.991 5.782-4.347 13.551-4.347 19.333 0 18.481 13.894 49.615 26.699 93.003 8.809 11.913-4.912 24.544 5.631 21.754 18.233-4.664 21.059-12.628 40.237-23.112 55.731h-202.623c-10.485-15.494-18.449-34.673-23.112-55.731-2.048-9.249 4.09-16.555 10.905-18.733 3.945-1.261 6.122-5.481 4.86-9.427-1.261-3.945-5.481-6.122-9.428-4.86-15.446 4.937-24.467 20.527-20.982 36.264 4.345 19.618 11.105 37.249 20.13 52.621-23.179 1.834-39.509 24.704-32.589 47.742 4.327 14.405 17.339 24.083 32.38 24.083h2.713c-.171 20.938-1.048 50.248-3.073 78.568-3.751 1.701-7.197 4.224-10.043 7.558-10.382 12.161-8.935 30.502 3.226 40.885.52.444 1.083.919 1.676 1.415-2.396 16.597-5.236 29.863-8.465 39.584-22.359.692-41.269 16.161-46.291 38.106l-7.347 32.106c-4.142 18.1 9.619 35.316 28.148 35.316h241.372c.871.248 1.752.475 2.649.663 33.812 7.08 67.86 10.62 101.91 10.62s68.1-3.54 101.911-10.62c10.261-2.148 19.327-8.485 24.876-17.387 2.191-3.516 1.118-8.142-2.397-10.332-3.515-2.191-8.142-1.118-10.332 2.397-3.396 5.448-8.944 9.326-15.222 10.641-65.584 13.734-132.09 13.734-197.674 0-10.889-2.279-18.791-12.009-18.791-23.134v-94.685c0-11.125 7.903-20.854 18.792-23.135 65.582-13.733 132.089-13.733 197.673 0 10.889 2.28 18.792 12.01 18.792 23.135v75.426c0 4.143 3.357 7.5 7.5 7.5s7.5-3.357 7.5-7.5v-75.426c.001-18.184-12.918-34.089-30.717-37.816zm-254.749-261.52c-6.145-2.564-11.417-5.785-15.812-9.088-11.173-8.398-26.187-8.398-37.359 0-4.269 3.21-9.549 6.466-15.815 9.078-11.993-25.152 6.378-54.598 34.496-54.598 28.147 0 46.485 29.47 34.49 54.608zm-153.637 142.634c-8.368 0-15.607-5.384-18.014-13.398-4.277-14.241 6.366-28.561 21.242-28.561h231.836c14.87 0 25.52 14.313 21.242 28.561-2.407 8.014-9.646 13.398-18.014 13.398zm1.004 110.865c5.012-5.872 13.867-6.569 19.738-1.558 20.773 17.736 61.378 46.054 88.465 55.216 7.313 2.474 11.25 10.436 8.777 17.748-2.473 7.313-10.434 11.251-17.748 8.777h.001c-36.506-12.348-82.886-47.82-97.676-60.446-5.87-5.011-6.569-13.866-1.557-19.737zm49.031 72.112h-48.298c2.324-7.984 4.422-17.614 6.276-28.817 11.225 8.559 26.118 19.158 42.022 28.817zm-89.491 90.562c-8.923 0-15.513-8.29-13.526-16.971l7.347-32.106c3.568-15.594 17.233-26.485 33.231-26.485h90.048c6.049 2.847 12.027 5.333 17.787 7.281h.001c10.727 3.628 22.354.642 30.075-7.281h48.34v53.41c0 8.138 2.593 15.815 7.047 22.152zm244.02-154.653c-17.799 3.728-30.717 19.632-30.717 37.816v26.275h-40.595c2.54-13.915-5.45-27.998-19.239-32.662-27.697-9.367-68.238-39.358-83.532-52.415-4.586-3.915-10.051-6.146-15.636-6.757 1.881-27.616 2.704-55.798 2.868-76.143h202.87c.152 17.912.936 59.2 4.785 99.989-6.943 1.153-13.879 2.447-20.804 3.897zm35.661-6.134c-.768-8.224-1.41-16.464-1.947-24.519 14.811-3.384 41.513-12.298 68.227-35.31 2.832-2.44 6.445-3.635 10.175-3.354 3.729.277 7.127 1.99 9.567 4.825 2.441 2.833 3.632 6.446 3.354 10.176-.277 3.73-1.99 7.127-4.824 9.567-18.249 15.722-39.557 28.166-61.682 36.053-7.63.674-15.254 1.53-22.87 2.562zm-121.078-52.302c-13.191 0-23.923 11.608-23.923 25.877s10.732 25.877 23.923 25.877 23.922-11.608 23.922-25.877c0-14.268-10.731-25.877-23.922-25.877zm0 36.754c-4.92 0-8.923-4.879-8.923-10.877s4.003-10.877 8.923-10.877 8.922 4.879 8.922 10.877-4.002 10.877-8.922 10.877z"/></g></svg>