<svg id="Capa_1" enable-background="new 0 0 511.948 511.948" height="512" viewBox="0 0 511.948 511.948" width="512" xmlns="http://www.w3.org/2000/svg"><g><path d="m158.12 487.769-133.9-133.9c-22.274-22.274-22.274-58.387 0-80.66l249.029-249.029c22.274-22.274 58.387-22.274 80.66 0l133.9 133.9c22.274 22.274 22.274 58.386 0 80.66l-249.029 249.029c-22.274 22.274-58.387 22.274-80.66 0z" fill="#a3defe"/><path d="m316.861 284.15c8.098-10.151 11.088-23.235 8.203-35.896l-2.333-10.236c-3.42-15.013-13.547-26.902-26.828-32.834-3.638-14.383-6.833-29.561-9.096-41.901 14.715-9.75 24.435-26.456 24.435-45.392 0-19.101-9.893-35.934-24.823-45.646-.936-16.799-6.783-32.306-16.119-45.115l-158.227 158.227c-1.429 6.546-2.994 13.269-4.653 19.828-13.28 5.932-23.406 17.821-26.828 32.834l-2.332 10.235c-2.885 12.661.104 25.745 8.203 35.897 8.098 10.151 20.191 15.974 33.177 15.974h164.046c12.984-.001 25.077-5.823 33.175-15.975z" fill="#7acefa"/><path d="m31.642 265.787-7.423 7.423c-22.274 22.274-22.274 58.387 0 80.66l133.9 133.9c22.274 22.274 58.387 22.274 80.66 0l7.423-7.423z" fill="#4e5660"/><path d="m456.008 126.278-70.296-70.296-8.653 17.217c-4.66 9.272-2.852 20.486 4.486 27.823l29.423 29.423c7.337 7.337 18.552 9.145 27.823 4.486z" fill="#4e5660"/><g><path d="m372.768 245.131-105.91-105.91c-5.989-5.989-15.699-5.989-21.688 0l-105.91 105.91c-5.989 5.989-5.989 15.699 0 21.687l105.91 105.91c5.989 5.989 15.699 5.989 21.688 0l105.91-105.91c5.989-5.989 5.989-15.698 0-21.687z" fill="#fbf1cf"/><path d="m266.858 139.221c-5.989-5.989-15.699-5.989-21.688 0l-105.91 105.91c-5.989 5.989-5.989 15.699 0 21.688l33.306 33.306h111.118c12.986 0 25.078-5.822 33.176-15.974 8.098-10.151 11.088-23.235 8.203-35.896l-2.333-10.236c-3.42-15.013-13.547-26.902-26.828-32.834-3.638-14.383-6.833-29.561-9.096-41.901.821-.544 1.624-1.113 2.413-1.7z" fill="#fae0bd"/><path d="m372.768 245.131-52.955-52.955-63.799 63.799 63.799 63.799 52.955-52.955c5.989-5.99 5.989-15.699 0-21.688z" fill="#4e5660"/><path d="m325.064 248.255-2.333-10.236c-2.788-12.238-10.035-22.398-19.811-28.949l-46.905 46.905 41.763 41.763c7.415-2.6 14.028-7.249 19.083-13.587 8.098-10.152 11.088-23.236 8.203-35.896z" fill="#404656"/><path d="m139.261 266.818 52.955 52.955 63.799-63.799-63.799-63.799-52.955 52.955c-5.989 5.99-5.989 15.699 0 21.688z" fill="#4e5660"/><path d="m256.015 255.974-63.799-63.799-52.955 52.955c-5.989 5.989-5.989 15.699 0 21.688l33.306 33.306h39.298z" fill="#404656"/></g><g><path d="m271.897 231.052c-8.969-29.929-17.471-74.171-18.469-88.748h-103.533c-.999 14.577-9.5 58.818-18.469 88.748z" fill="#daa985"/><path d="m283.684 270.124h-164.046c-7.986 0-13.904-7.418-12.129-15.204l2.332-10.236c1.817-7.974 8.909-13.632 17.088-13.632h149.464c8.179 0 15.27 5.657 17.087 13.632l2.333 10.236c1.775 7.786-4.143 15.204-12.129 15.204z" fill="#f2d98d"/><path d="m186.937 231.052h-60.008c-8.179 0-15.27 5.657-17.088 13.632l-2.332 10.236c-1.774 7.786 4.143 15.204 12.129 15.204h77.152c-8.434-7.767-13.135-23.078-9.853-39.072z" fill="#eec076"/><ellipse cx="201.661" cy="77.023" fill="#daa985" rx="54.89" ry="54.89" transform="matrix(.924 -.383 .383 .924 -14.125 83.036)"/><path d="m257.983 172.305c-2.461-12.978-4.144-24.002-4.555-30h-103.533c-.411 5.998-2.094 17.021-4.555 30z" fill="#d2896f"/><path d="m256.829 93.479h-110.335c-13.483 0-24.413 10.93-24.413 24.413 0 13.483 10.93 24.413 24.413 24.413h110.335c13.483 0 24.413-10.93 24.413-24.413 0-13.483-10.93-24.413-24.413-24.413z" fill="#f2d98d"/><path d="m191.338 93.479h-44.844c-13.483 0-24.413 10.93-24.413 24.413s10.93 24.413 24.413 24.413h55.168c-9.289-10.304-13.911-36.551-10.324-48.826z" fill="#eec076"/></g><path d="m397.825 164.115-49.951-49.951c-4.977-4.977-13.047-4.977-18.024 0l-11.605 11.605c-4.977 4.977-4.977 13.047 0 18.024l49.951 49.951c4.977 4.977 13.047 4.977 18.024 0l11.605-11.605c4.977-4.977 4.977-13.047 0-18.024z" fill="#e7889d"/><path d="m161.274 453.778c2.929 2.928 7.678 2.929 10.606-.001 2.929-2.929 2.929-7.677 0-10.606l-16.383-16.383c-2.929-2.928-7.678-2.929-10.606.001-2.929 2.929-2.929 7.677 0 10.606zm-86.679-86.681c2.928 2.929 7.677 2.93 10.606.001 2.929-2.93 2.929-7.678 0-10.606l-16.383-16.384c-2.928-2.93-7.677-2.929-10.606-.001-2.929 2.93-2.929 7.678 0 10.607zm385.422-111.172-213.815 213.815-203.953-203.953 15.268-15.268c2.929-2.93 2.929-7.678 0-10.606-2.928-2.93-7.677-2.929-10.606-.001l-27.994 27.993c-25.22 25.221-25.224 66.043 0 91.268l133.9 133.9c25.16 25.16 66.104 25.163 91.267 0l226.541-226.541c2.929-2.93 2.929-7.678 0-10.607-2.93-2.928-7.679-2.928-10.608 0zm-226.541 226.541c-19.313 19.314-50.739 19.314-70.054 0l-133.899-133.9c-19.359-19.358-19.36-50.693 0-70.053l2.119-2.119 203.953 203.953zm259.637-329.69c-16.309-16.309-117.52-117.52-133.9-133.9-25.163-25.163-66.105-25.161-91.267 0l-18.31 18.31c-11.454-13.769-28.706-22.553-47.975-22.553-38.015 0-67.566 34.003-61.638 72.007-14.505 2.999-25.443 15.873-25.443 31.253 0 14.705 10 27.111 23.555 30.794l-66.253 66.253c-2.929 2.93-2.929 7.678 0 10.607 2.93 2.929 7.678 2.928 10.606 0l55.679-55.678c-3.104 16.536-7.573 36.717-12.386 53.732-11.252.504-20.725 8.333-23.251 19.417l-2.332 10.235c-2.847 12.495 6.654 24.37 19.442 24.37h19.821l100.406 100.407c8.924 8.925 23.369 8.927 32.294.001l105.91-105.909c8.924-8.923 8.925-23.371 0-32.295l-99.042-99.042c18.464-17.909 9.159-48.992-15.72-54.143 1.931-12.443.09-25.169-5.373-36.542l20.617-20.616c19.313-19.314 50.739-19.314 70.054 0l27.971 27.971-6.22 12.377c-6.124 12.186-3.759 26.852 5.884 36.494l29.422 29.422c9.589 9.59 24.243 12.041 36.495 5.885l12.376-6.22 27.972 27.972c18.3 18.3 19.366 47.928 2.426 67.448-2.715 3.129-2.379 7.866.749 10.581 3.122 2.708 7.861 2.385 10.58-.749 22.076-25.442 20.693-64.046-3.149-87.889zm-291.452-123.143c29.545 0 52.166 26.972 46.543 56.347h-93.087c-5.631-29.433 17.05-56.347 46.544-56.347zm-82.023 232.991c-3.176 0-5.523-2.942-4.817-6.038l2.332-10.235c1.046-4.591 5.066-7.798 9.775-7.798h149.464c4.709 0 8.728 3.207 9.775 7.798l2.332 10.235c.706 3.096-1.641 6.038-4.817 6.038zm21.718-39.071c6.76-24.88 13.082-56.343 15.299-73.748h90.017c2.213 17.396 8.532 48.858 15.295 73.748zm19.318 54.071h63.085l-31.542 31.542zm100.881 89.801c-3.062 3.062-8.018 3.063-11.081-.001l-47.651-47.65 42.149-42.149h22.085l42.149 42.149zm105.91-116.991c3.062 3.061 3.063 8.019 0 11.08l-47.652 47.652-31.979-31.98c10.742-2.265 17.794-12.955 15.292-23.933l-2.332-10.235c-1.217-5.34-4.059-9.914-7.922-13.294l26.942-26.942zm-58.259-58.258-31.435 31.436c-.076-.004-.152-.006-.229-.01-7.113-25.146-13.472-57.203-15.787-74.178 1.31-.204 2.591-.495 3.844-.854zm-35.464-74.284c0 9.325-7.587 16.912-16.913 16.912h-110.336c-9.326 0-16.913-7.587-16.913-16.913 0-9.325 7.587-16.912 16.913-16.912h110.336c9.326 0 16.913 7.587 16.913 16.913zm161.681 10.337c-6.396 3.214-14.091 1.972-19.152-3.089l-29.423-29.423c-5.061-5.06-6.301-12.757-3.088-19.151l3.99-7.939 55.612 55.613zm-32.295 30.582-49.951-49.951c-7.893-7.892-20.736-7.893-28.63.001l-11.605 11.604c-7.912 7.912-7.914 20.718 0 28.632l49.951 49.951c7.892 7.891 20.737 7.893 28.63 0l11.605-11.605c7.893-7.893 7.893-20.738 0-28.632zm-10.607 18.025-11.605 11.605c-2.044 2.045-5.372 2.045-7.417 0l-49.951-49.951c-2.05-2.049-2.051-5.367 0-7.418l11.604-11.604c2.047-2.046 5.373-2.045 7.419 0l49.951 49.951c2.05 2.049 2.05 5.368-.001 7.417z"/></g></svg>