<svg id="Capa_1" enable-background="new 0 0 512 512" height="512" viewBox="0 0 512 512" width="512" xmlns="http://www.w3.org/2000/svg"><g><path d="m359.243 473.42c9.045-57.905 47.105-83.106 79.36-115.601 2.85-12.977 4.366-26.455 4.366-40.288 0-103.26-83.709-186.969-186.969-186.969s-186.969 83.709-186.969 186.969 83.709 186.969 186.969 186.969c38.168 0 73.657-11.447 103.243-31.08z" fill="#bae7ff"/><path d="m354.216 476.642c-207.365-9.174-171.23-252.639-131.887-343.05-87.189 15.857-153.299 92.175-153.299 183.939.001 103.26 83.71 186.969 186.97 186.969 36.03 0 69.673-10.201 98.216-27.858z" fill="#a3defe"/><path d="m120.804 188.384c-32.073 33.566-51.773 79.055-51.773 129.146 0 68.788 37.155 128.889 92.483 161.358 31.381-20.112 65.641-66.747 26.108-91.6-104.479-65.682-2.485-61.36 9.069-120.409 7.539-38.528-26.237-60.416-75.887-78.495z" fill="#6ad7be"/><path d="m358.516 360.06c-24.26 10.728-43.009 31.376-37.232 59.435 3.934 19.107 18.588 34.392 37.959 53.924 39.733-26.368 68.798-67.514 79.36-115.601-31.426 7.626-63.089-5.275-80.087 2.242z" fill="#8ee2cf"/><path d="m439.84 283.341c-6.455-34.929-22.611-66.457-45.581-91.674-20.74 4.294-48.842 8.883-66.654 42.85-20.901 39.856 52.015 83.731 112.235 48.824z" fill="#8ee2cf"/><g><path d="m336.135 242.889 7.31-15.83c4.136-8.958 4.659-19.166 1.436-28.492-5.748-16.63-14.464-46.957-17.198-84.173h-143.366c-2.734 37.216-11.45 67.543-17.198 84.173-3.224 9.326-2.701 19.534 1.436 28.492l7.31 15.83z" fill="#daa985"/><path d="m335.187 79.719 9.454-20.632c2.724-5.944 4.133-12.405 4.133-18.944v-20.17c0-6.889-5.584-12.473-12.473-12.473h-43.358c-6.889 0-12.473 5.584-12.473 12.473v12.744c0 5.648-4.578 10.226-10.226 10.226h-28.49c-5.648 0-10.226-4.578-10.226-10.226v-12.744c0-6.889-5.584-12.473-12.473-12.473h-43.358c-6.889 0-12.473 5.584-12.473 12.473v20.171c0 6.538 1.41 13 4.133 18.944l9.454 20.632h158.376z" fill="#daa985"/><path d="m327.683 114.393h-143.366c-.796 10.834-2.101 21.079-3.69 30.578h150.747c-1.59-9.498-2.895-19.743-3.691-30.578z" fill="#d2896f"/><path d="m173.798 79.719c-7.139 0-12.925 5.787-12.925 12.925v4.944c0 9.281 7.524 16.805 16.805 16.805h156.644c9.281 0 16.805-7.524 16.805-16.805v-4.944c0-7.138-5.787-12.925-12.925-12.925z" fill="#f2d98d"/><path d="m173.798 79.719c-7.138 0-12.925 5.787-12.925 12.925v4.943c0 9.281 7.524 16.805 16.805 16.805h54.832c-9.438-7.81-14.017-23.675-9.656-34.674h-49.056z" fill="#eec076"/><path d="m352.37 284.603c8.848 0 15.297-8.38 13.031-16.933l-1.867-7.049c-2.77-10.453-12.229-17.733-23.043-17.733h-168.981c-10.814 0-20.273 7.279-23.043 17.733l-1.867 7.049c-2.266 8.553 4.183 16.933 13.031 16.933z" fill="#e7c7af"/></g><path d="m277.392 341.955c-3.123-2.722-7.86-2.397-10.582.727-2.729 3.132-6.669 4.928-10.81 4.928s-8.08-1.796-10.81-4.928c-2.723-3.123-7.46-3.447-10.582-.727-3.123 2.722-3.447 7.46-.727 10.582 5.579 6.401 13.641 10.072 22.118 10.072 8.478 0 16.539-3.671 22.118-10.072 2.722-3.122 2.398-7.86-.725-10.582zm41.056-13.489c-4.143 0-7.5 3.357-7.5 7.5v12c0 4.143 3.357 7.5 7.5 7.5s7.5-3.357 7.5-7.5v-12c0-4.143-3.357-7.5-7.5-7.5zm19.944-187.121c-.994-6.2-1.861-12.72-2.534-19.505 12.688-.796 22.769-11.366 22.769-24.251v-4.944c0-8.449-5.157-15.716-12.489-18.82 3.319-8.517 10.136-17.467 10.136-33.681v-20.171c0-11.013-8.959-19.973-19.972-19.973h-43.357c-11.014 0-19.974 8.96-19.974 19.973v12.744c0 1.504-1.223 2.727-2.726 2.727h-28.49c-1.503 0-2.726-1.223-2.726-2.727v-12.744c0-11.013-8.96-19.973-19.973-19.973h-17.089c-4.143 0-7.5 3.357-7.5 7.5s3.357 7.5 7.5 7.5h17.089c2.742 0 4.974 2.23 4.974 4.973v12.744c0 9.774 7.952 17.727 17.726 17.727h28.49c9.774 0 17.726-7.952 17.726-17.727v-12.744c0-2.742 2.231-4.973 4.974-4.973h43.357c2.742 0 4.973 2.23 4.973 4.973v20.171c0 5.498-1.161 10.821-3.452 15.82l-7.448 16.256h-148.749l-7.449-16.256c-2.291-4.999-3.452-10.322-3.452-15.82v-20.171c0-1.435.59-2.752 1.661-3.71 3.088-2.761 3.353-7.502.592-10.59-2.761-3.089-7.502-3.353-10.59-.592-4.234 3.786-6.663 9.214-6.663 14.892v20.171c0 16.172 6.838 25.217 10.137 33.681-7.332 3.103-12.489 10.37-12.489 18.82v4.944c0 12.885 10.081 23.456 22.77 24.251-.673 6.785-1.54 13.306-2.534 19.505-68.224 31.942-112.08 100.647-112.08 176.186 0 107.231 87.239 194.469 194.47 194.469 47.847 0 93.833-17.535 129.486-49.375 3.089-2.759 3.358-7.5.598-10.59-2.759-3.088-7.5-3.357-10.59-.598-4.904 4.379-10.024 8.458-15.325 12.241-17.522-17.856-28.42-30.547-31.539-45.695-2.071-10.06-3.01-35.174 32.919-51.064 12.252-5.417 39.37 3.282 67.013.231-6.098 21.299-16.165 41.343-29.959 59.363-2.518 3.289-1.893 7.996 1.396 10.514 3.273 2.507 7.987 1.906 10.514-1.396 26.141-34.148 39.957-74.987 39.957-118.1 0-75.539-43.857-144.244-112.078-176.186zm92.97 138.043c-22.674 11.407-45.598 10.827-63.113 5.447 4.574-5.315 6.185-12.352 4.402-19.085l-1.868-7.05c-3.023-11.411-12.151-19.939-23.3-22.498 1.441-3.674 6.138-10.678 6.895-22.189 11.89-8.614 25.137-11.65 37.132-14.124 19.595 22.597 33.408 49.91 39.852 79.499zm-51.979-92.18c-8.623 2.088-17.904 5.045-26.981 10.266-.953-3.059-5.937-16.64-10.495-37.54 13.778 7.518 26.342 16.716 37.476 27.274zm-211.01-89.619v-4.944c0-2.991 2.434-5.425 5.426-5.425h164.403c2.991 0 5.425 2.434 5.425 5.425v4.944c0 5.131-4.174 9.305-9.305 9.305h-156.643c-5.131 0-9.306-4.174-9.306-9.305zm5.835 103.428c6.112-17.684 13.823-45.347 17.006-79.123h129.574c3.183 33.778 10.893 61.44 17.005 79.123 2.601 7.521 2.189 15.653-1.155 22.897l-5.299 11.475h-150.677l-5.299-11.475c-3.344-7.244-3.756-15.376-1.155-22.897zm166.282 49.372c7.403 0 13.897 4.998 15.793 12.153l1.868 7.05c1.006 3.794-1.853 7.512-5.781 7.512h-192.74c-3.925 0-6.788-3.715-5.781-7.512l1.868-7.05c1.896-7.155 8.39-12.153 15.793-12.153zm-170.399-90.449c-4.046 18.549-7.894 29.442-10.361 37.118-7.33-3.885-15.724-7.705-25.322-11.521 10.684-9.857 22.64-18.479 35.683-25.597zm-93.561 157.591c0-45.318 17.108-87.966 46.374-120.365 14.012 5.29 25.427 10.5 34.656 15.821.517 12.033 5.424 19.255 6.956 23.214-11.149 2.559-20.276 11.087-23.3 22.498l-1.868 7.05c-3.527 13.317 6.505 26.353 20.281 26.353h14.774c-17.313 18.004-42.098 28.617-40.894 49.351.871 15.04 15.861 30.647 50.121 52.185 9.572 6.018 14.246 13.43 14.286 22.659.08 18.369-18.128 40.531-36.566 53.647-50.881-31.712-84.82-88.169-84.82-152.413zm278.952 35.67c-31.855 14.088-47.386 39.436-41.544 67.808 3.966 19.266 17.742 35.012 33.395 51.02-27.461 16.248-58.932 24.971-91.333 24.971-28.878 0-56.18-6.866-80.374-19.036 19.483-15.547 37.389-39.139 37.291-61.732-.044-10.018-3.775-24.273-21.304-35.293-28.09-17.659-42.601-31.236-43.129-40.354-.736-12.702 29.12-25.085 45.339-48.482h153.164c24.557 13.483 57.642 15.838 87.028 2.633.96 7.497 1.454 15.107 1.454 22.795 0 11.522-1.076 22.865-3.181 33.935-29.135 5.145-57.971-6.591-76.806 1.735zm-161.931-24.735c-4.143 0-7.5 3.357-7.5 7.5v12c0 4.143 3.357 7.5 7.5 7.5s7.5-3.357 7.5-7.5v-12c0-4.143-3.358-7.5-7.5-7.5z"/></g></svg>