<svg id="Capa_1" enable-background="new 0 0 512.048 512.048" height="512" viewBox="0 0 512.048 512.048" width="512" xmlns="http://www.w3.org/2000/svg"><g><path d="m9.456 131.097c2.529-16.542 19.602-26.399 35.192-20.318 37.279 14.541 58.555 36.696 76.08 67.049 16.143 27.961 8.804 62.421-16.392 76.969-25.197 14.547-58.709 3.673-74.853-24.288-17.525-30.354-26.074-59.857-20.027-99.412z" fill="#8ee2cf"/><path d="m63.329 244.171c-1.839-16.633 12.101-30.573 28.734-28.735 39.772 4.397 66.057 20.29 90.841 45.074 22.83 22.83 24.66 58.016 4.087 78.589s-55.758 18.743-78.589-4.087c-24.783-24.784-40.676-51.069-45.073-90.841z" fill="#b2ecde"/><path d="m502.592 131.097c-2.529-16.542-19.602-26.399-35.192-20.318-37.279 14.541-58.555 36.696-76.08 67.049-16.144 27.961-8.804 62.421 16.392 76.969 25.197 14.547 58.71 3.673 74.853-24.288 17.525-30.354 26.074-59.857 20.027-99.412z" fill="#8ee2cf"/><path d="m448.718 244.171c1.839-16.633-12.101-30.573-28.734-28.735-39.772 4.397-66.057 20.29-90.841 45.074-22.83 22.83-24.66 58.016-4.087 78.589s55.758 18.743 78.589-4.087c24.783-24.784 40.677-51.069 45.073-90.841z" fill="#b2ecde"/><g><ellipse cx="256.024" cy="82.708" fill="#f2d98d" rx="30.601" ry="30.601" transform="matrix(.987 -.16 .16 .987 -9.943 42.079)"/><path d="m326.489 156.102c9.366-12.966 14.796-27.855 17.765-41.26 2.742-12.384-9.66-22.776-21.387-17.941-25.141 10.366-44.387 4.476-57.352-5.271-5.645-4.243-13.339-4.243-18.983 0-12.965 9.746-32.211 15.637-57.352 5.271-11.726-4.835-24.129 5.557-21.387 17.941 2.969 13.404 8.399 28.293 17.765 41.26z" fill="#daa985"/><path d="m341.637 316.787c-10.933-27.614-12.682-98.18-12.682-122.54h-145.863c0 24.36-1.749 94.926-12.682 122.54z" fill="#daa985"/><path d="m333.467 277.955c-.203-.063-.399-.138-.603-.198l-25.259-7.446-14.888-21.723c-8.298-12.107-22.015-19.336-36.693-19.336s-28.396 7.229-36.694 19.336l-14.887 21.723-25.261 7.446c-.203.06-.4.135-.602.198-1.88 15.527-4.51 29.587-8.17 38.832h171.227c-3.66-9.245-6.289-23.305-8.17-38.832z" fill="#d2896f"/><path d="m335.817 194.247h-159.586c-7.778 0-14.637-5.101-16.874-12.551-3.831-12.755 5.719-25.595 19.037-25.595h155.262c13.317 0 22.868 12.84 19.036 25.595-2.239 7.45-9.097 12.551-16.875 12.551z" fill="#f2d98d"/><path d="m235.332 156.102h-56.939c-13.318 0-22.868 12.84-19.037 25.595 2.238 7.45 9.096 12.551 16.874 12.551h70.133c-13.918-7.673-15.487-27.44-11.031-38.146z" fill="#eec076"/><path d="m344.124 316.787h-176.2c-12.989 0-24.254 8.978-27.152 21.64l-4.92 21.501c-2.051 8.964 4.76 17.509 13.955 17.509h212.434c9.195 0 16.006-8.545 13.955-17.509l-4.92-21.501c-2.898-12.662-14.163-21.64-27.152-21.64z" fill="#e7c7af"/></g><path d="m80.004 443.273 1.65-14.861c.446-4.013-1.824-7.834-5.56-9.363l-21.74-8.898c-9.557-3.912-11.039-16.821-2.624-22.807 23.039-16.388 49.293-31.619 83.999-43.108l23.644 71.426c3.047 9.204-1.781 19.183-10.907 22.456-16.513 5.921-32.51 12.494-46.243 19.961-10.717 5.825-23.565-2.682-22.219-14.806z" fill="#e26e7e"/><path d="m432.044 443.273-1.65-14.861c-.446-4.013 1.824-7.834 5.56-9.363l21.74-8.898c9.557-3.912 11.039-16.821 2.624-22.807-23.039-16.388-49.293-31.619-83.999-43.108l-23.644 71.426c-3.047 9.204 1.781 19.183 10.907 22.456 16.513 5.921 32.51 12.494 46.243 19.961 10.717 5.825 23.565-2.682 22.219-14.806z" fill="#e26e7e"/><path d="m392.989 397.442c-2.91 9.632-12.979 15.221-22.671 12.52-30.329-8.451-57.738-13.108-114.294-13.108-56.711 0-84.423 4.786-114.284 13.104-9.696 2.701-19.77-2.881-22.681-12.516l-16.148-53.441c-3.009-9.958 2.764-20.433 12.781-23.237 38.271-10.715 73.514-16.837 140.332-16.837 67.429 0 102.895 6.333 140.407 16.853 9.987 2.801 15.707 13.287 12.707 23.216z" fill="#e7889d"/><path d="m147.941 312.867c-2.1 12.16.92 24.752 8.564 34.687l16.059 20.872-.724 26.323c-.075 2.73.106 5.424.509 8.063 21.192-3.847 46.049-5.956 83.675-5.956 37.663 0 62.396 2.068 83.677 5.943.401-2.634.582-5.323.507-8.049l-.724-26.325 16.06-20.872c7.643-9.934 10.663-22.527 8.563-34.688-27.972-5.696-59.848-8.938-108.082-8.938-48.08 0-79.81 3.17-108.084 8.94z" fill="#e26e7e"/><path d="m251.171 398.947-30.01 10.672c-9.589 3.41-19.612-3.872-19.332-14.046l.876-31.839c.092-3.33-.968-6.59-2.999-9.231l-19.423-25.244c-6.206-8.066-2.378-19.848 7.384-22.726l30.552-9.006c3.196-.942 5.969-2.957 7.852-5.705l18.006-26.273c5.753-8.395 18.142-8.395 23.896 0l18.006 26.273c1.883 2.748 4.657 4.763 7.852 5.705l30.552 9.006c9.762 2.878 13.59 14.66 7.384 22.726l-19.423 25.244c-2.032 2.641-3.091 5.901-2.999 9.231l.876 31.839c.28 10.173-9.743 17.455-19.332 14.046l-30.01-10.672c-3.141-1.116-6.569-1.116-9.708 0z" fill="#f2d98d"/><path d="m510.006 129.962c-2.404-15.725-15.133-27.414-30.953-28.426-4.13-.273-7.699 2.872-7.964 7.006-.264 4.134 2.873 7.699 7.006 7.963 8.729.559 15.753 7.024 17.083 15.725 5.274 34.5-.262 61.887-19.108 94.528-4.942 8.56-11.987 15.576-20.144 20.308.084-.689.171-1.377.247-2.072 1.473-13.325-4.958-25.554-15.566-32.173l20.128-34.861c2.071-3.587.842-8.174-2.745-10.245s-8.174-.843-10.245 2.745l-21.636 37.475c-2.285-.216-4.61-.212-6.948.047-10.202 1.128-19.7 2.969-28.699 5.609-.9-10.809 1.64-22.115 7.354-32.013 14.512-25.135 30.358-41.746 51.379-53.859 3.589-2.067 4.822-6.653 2.754-10.243-2.069-3.589-6.653-4.82-10.243-2.753-23.434 13.503-40.976 31.81-56.88 59.355-7.918 13.715-11.029 29.652-8.873 44.652-13.388 5.603-25.808 13.329-38.035 23.555-.871-14.764-1.29-29.079-1.416-40.564 10.882-.288 20.226-7.383 23.375-17.866 4.711-15.686-5.23-31.309-20.268-34.603 5.282-9.749 9.298-20.723 11.97-32.787 4.047-18.278-14.246-33.64-31.568-26.496-10.69 4.408-19.94 5.435-27.775 4.564 8.062-24.693-10.448-49.925-36.209-49.925-25.771 0-44.269 25.238-36.209 49.925-7.835.871-17.085-.157-27.775-4.565-17.302-7.137-35.62 8.199-31.568 26.495 2.672 12.064 6.687 23.039 11.969 32.788-15.039 3.295-24.978 18.918-20.267 34.603 3.149 10.483 12.492 17.578 23.374 17.866-.127 11.484-.545 25.797-1.416 40.561-12.227-10.226-24.647-17.954-38.035-23.555 2.154-14.999-.956-30.935-8.874-44.648-20.443-35.409-44.324-56.429-79.849-70.286-9.564-3.73-20.123-2.941-28.97 2.167-8.847 5.107-14.811 13.856-16.362 24.004-5.762 37.695.502 68.887 20.946 104.296 8.299 14.375 21.354 25.38 36.273 30.773 5.846 25.141 17.424 46.542 36.147 67.208-2.408 9.419 1.246 15.966 1.953 19.319-9.587 4.56-18.872 9.582-28.211 15.275-3.537 2.156-4.656 6.771-2.5 10.309 2.151 3.528 6.765 4.66 10.308 2.5 8.224-5.013 16.398-9.482 24.793-13.556l10.13 33.525c4.09 13.536 18.448 21.316 31.873 17.572 2.445-.681 4.96-1.361 7.551-2.034l.949 2.868c1.758 5.31-1.076 11.159-6.318 13.039-19.195 6.882-34.665 13.564-47.295 20.431-5.416 2.944-11.858-1.297-11.182-7.388l1.65-14.86c.811-7.304-3.373-14.349-10.173-17.133l-21.74-8.898c-2.98-1.22-3.829-4.174-3.356-6.402.859-4.052-1.729-8.033-5.781-8.893-4.054-.855-8.033 1.729-8.893 5.781-2.073 9.779 3.12 19.619 12.348 23.396l21.74 8.898c.633.259 1.022.915.947 1.596l-1.65 14.859c-1.497 13.482 9.112 24.995 22.395 24.995 11.751-.003 9.167-5.453 56.053-22.264 12.838-4.603 19.789-18.901 15.495-31.872l-.531-1.604c9.032-1.889 19.24-3.569 31.259-4.819 5.276 9.23 16.418 13.375 26.452 9.804l30.01-10.672c1.51-.537 3.172-.537 4.681 0l30.01 10.672c10.112 3.596 21.228-.643 26.463-9.821 11.988 1.246 22.199 2.931 31.25 4.829l-.533 1.611c-4.293 12.971 2.658 27.269 15.496 31.872 46.105 16.531 44.546 22.263 56.053 22.263 13.282 0 23.893-11.501 22.395-24.993l-1.65-14.861c-.076-.68.314-1.336.947-1.595l21.74-8.898c15.036-6.155 17.378-26.435 4.13-35.859-17.017-12.105-33.052-21.632-49.975-29.677.729-3.459 4.343-9.964 1.957-19.322 18.719-20.664 30.296-42.063 36.141-67.202 14.919-5.393 27.973-16.397 36.273-30.773 20.439-35.409 26.703-66.6 20.941-104.296zm-253.982-70.354c15.867 0 27.084 15.725 21.779 30.776-2.95-1.425-5.546-3.069-7.781-4.748-8.373-6.293-19.624-6.292-27.997 0-2.234 1.68-4.83 3.324-7.78 4.749-5.315-15.08 5.947-30.777 21.779-30.777zm-69.702 44.227c30.133 12.426 51.825 3.481 64.717-6.209 2.981-2.242 6.988-2.242 9.97 0 12.892 9.691 34.584 18.635 64.717 6.209 6.133-2.529 12.639 2.91 11.205 9.385-2.949 13.314-7.903 25.457-14.396 35.382h-133.023c-6.493-9.926-11.447-22.068-14.395-35.382-1.432-6.461 5.06-11.918 11.205-9.385zm-19.783 75.704c-2.387-7.946 3.551-15.938 11.854-15.938 5.693 0 160.449.002 155.262 0 8.297 0 14.242 7.986 11.853 15.938-1.295 4.312-5.189 7.208-9.691 7.208h-159.586c-4.502 0-8.397-2.896-9.692-7.208zm162.729 120.336c-2.393-.263-1.262-.094-2.765-.537l-30.551-9.005c-1.537-.454-2.882-1.431-3.787-2.752l-18.006-26.273c-8.727-12.733-27.546-12.728-36.269 0l-18.006 26.273c-.905 1.321-2.251 2.298-3.787 2.751-35.787 10.351-29.996 9.166-33.315 9.533 6.332-32.104 7.535-79.261 7.76-98.118h130.964c.224 18.859 1.428 66.024 7.762 98.128zm-273.394-54.88c.078.706.166 1.403.251 2.102-8.161-4.737-15.203-11.774-20.148-20.338-18.846-32.642-24.382-60.029-19.108-94.528.859-5.622 4.152-10.463 9.034-13.281 4.881-2.818 10.719-3.251 16.019-1.183 32.515 12.683 53.464 31.17 72.31 63.811 5.714 9.897 8.254 21.202 7.354 32.011-8.999-2.639-18.496-4.478-28.699-5.606-2.338-.259-4.663-.264-6.948-.048l-21.635-37.475c-2.071-3.588-6.658-4.815-10.245-2.745-3.587 2.071-4.817 6.658-2.745 10.245l20.127 34.861c-10.585 6.606-17.043 18.822-15.567 32.174zm14.91-1.649c-1.311-11.855 8.584-21.757 20.456-20.456 32.317 3.573 56.891 15.059 81.526 38.23-1.316 15.082-3.178 29.533-5.756 40.778-1.911.285-3.814.586-5.714.898l-38.092-38.091c-2.929-2.928-7.678-2.928-10.606 0-2.929 2.93-2.929 7.678 0 10.608l30.846 30.846c-9.536 2.024-19.294 4.448-29.775 7.383-3.765 1.055-7.165 2.893-10.03 5.371-19.604-22.663-29.554-45.71-32.855-75.567zm123.637 148.75c-23.351 2.508-40.088 6.569-54.694 10.637-5.714 1.586-11.765-1.756-13.489-7.461l-16.147-53.44c-1.791-5.926 1.632-12.169 7.623-13.846 18.87-5.284 35.32-8.871 52.404-11.374-1.064 6.033.426 12.289 4.219 17.22l19.424 25.245c.977 1.269 1.49 2.849 1.446 4.45zm111.978-42.167c-3.075 3.996-4.691 8.972-4.552 14.011l.875 31.839c.135 4.894-4.673 8.425-9.322 6.773l-30.01-10.672c-4.75-1.689-9.981-1.689-14.731 0l-30.011 10.672c-4.616 1.638-9.458-1.844-9.322-6.773l.875-31.838c.139-5.041-1.478-10.017-4.552-14.011l-19.423-25.244c-2.991-3.888-1.163-9.567 3.56-10.959l30.552-9.007c4.836-1.426 9.068-4.501 11.918-8.658l18.006-26.273c2.767-4.038 8.734-4.069 11.522 0l18.006 26.273c2.85 4.157 7.082 7.232 11.918 8.659l30.551 9.006c4.707 1.387 6.563 7.056 3.561 10.959zm11.227 42.142-.785-28.544c-.044-1.601.469-3.181 1.446-4.45l19.423-25.244c3.793-4.931 5.284-11.187 4.219-17.22 17.158 2.509 33.623 6.103 52.475 11.389 5.937 1.664 9.344 7.9 7.554 13.826l-16.149 53.445c-1.725 5.706-7.771 9.054-13.479 7.465-19.616-5.467-35.954-8.67-54.704-10.667zm138.344 1.384c3.603 2.563 2.976 8.079-1.118 9.754l-21.739 8.898c-6.801 2.784-10.985 9.83-10.173 17.133l1.65 14.861c.676 6.084-5.759 10.333-11.182 7.387-12.629-6.866-28.1-13.549-47.294-20.431-5.242-1.88-8.077-7.729-6.319-13.039l.95-2.869c7.666 1.992 9.818 2.977 14.422 2.977 11.182 0 21.624-7.334 25.002-18.516l10.13-33.525c15.375 7.46 30.076 16.276 45.671 27.37zm-14.706-150.109c-3.3 29.85-13.247 52.894-32.844 75.551-2.848-2.462-6.225-4.29-9.963-5.339-10.497-2.943-20.278-5.374-29.85-7.403l30.843-30.842c2.929-2.93 2.929-7.678 0-10.608-2.928-2.927-7.677-2.929-10.607 0l-38.094 38.094c-1.898-.311-3.8-.611-5.71-.895-2.579-11.246-4.441-25.699-5.757-40.783 24.636-23.171 49.209-34.658 81.526-38.23 11.858-1.3 21.768 8.585 20.456 20.455zm-167.358 84.015h-35.761c-4.142 0-7.5 3.357-7.5 7.5s3.358 7.5 7.5 7.5h35.761c4.142 0 7.5-3.357 7.5-7.5s-3.358-7.5-7.5-7.5z"/></g></svg>