<svg id="Capa_1" enable-background="new 0 0 512 512" height="512" viewBox="0 0 512 512" width="512" xmlns="http://www.w3.org/2000/svg"><g><path d="m368.766 504.5h-281.313c-17.224 0-31.187-13.963-31.187-31.187v-434.626c0-17.224 13.963-31.187 31.187-31.187h337.094c17.224 0 31.187 13.963 31.187 31.187v378.845c0 48.031-38.937 86.968-86.968 86.968z" fill="#bae7ff"/><path d="m87.453 7.5c-17.224 0-31.187 13.963-31.187 31.187v434.626c0 17.224 13.963 31.187 31.187 31.187h183.975c-157.351-89.149-150.422-264.977-143.16-497z" fill="#a3defe"/><path d="m256 248.978c72.485 0 133.239-40.838 199.734-38.574v-171.717c0-17.224-13.963-31.187-31.187-31.187h-337.094c-17.224 0-31.187 13.963-31.187 31.187v171.717c66.495-2.264 127.249 38.574 199.734 38.574z" fill="#b0ade2"/><path d="m127.267 220.969c-3.835-64.059-1.437-135.599 1.001-213.469h-40.815c-17.224 0-31.187 13.963-31.187 31.187v171.717c24.145-.823 47.533 4.04 71.001 10.565z" fill="#a78cd6"/><g><path d="m350.855 333.485 8.653-18.739c4.896-10.604 5.515-22.687 1.7-33.725-6.804-19.685-17.12-55.583-20.357-99.636h-169.702c-3.236 44.053-13.553 79.951-20.357 99.636-3.816 11.039-3.197 23.122 1.7 33.725l8.653 18.739z" fill="#daa985"/><path d="m349.733 140.341 11.191-24.422c3.224-7.036 4.893-14.684 4.893-22.423v-23.876c0-8.154-6.61-14.764-14.764-14.764h-51.323c-8.154 0-14.764 6.61-14.764 14.764v15.085c0 6.685-5.419 12.105-12.105 12.105h-33.723c-6.685 0-12.105-5.42-12.105-12.105v-15.085c0-8.154-6.61-14.764-14.764-14.764h-51.322c-8.154 0-14.764 6.61-14.764 14.764v23.876c0 7.739 1.669 15.388 4.893 22.423l11.191 24.422z" fill="#daa985"/><path d="m340.851 181.385h-169.702c-.942 12.825-2.487 24.952-4.368 36.195h178.438c-1.881-11.244-3.426-23.37-4.368-36.195z" fill="#d2896f"/><path d="m158.698 140.341c-8.45 0-15.3 6.85-15.3 15.3v5.852c0 10.986 8.906 19.892 19.892 19.892h185.419c10.986 0 19.892-8.906 19.892-19.892v-5.852c0-8.45-6.85-15.3-15.3-15.3z" fill="#f2d98d"/><path d="m158.698 140.341c-8.45 0-15.3 6.85-15.3 15.3v5.851c0 10.986 8.906 19.892 19.892 19.892h64.904c-11.172-9.245-16.591-28.024-11.43-41.044h-58.066z" fill="#eec076"/><path d="m370.073 382.862c10.474 0 18.107-9.919 15.424-20.044l-2.211-8.344c-3.279-12.374-14.475-20.99-27.276-20.99h-200.021c-12.801 0-23.997 8.617-27.276 20.99l-2.211 8.344c-2.682 10.124 4.951 20.044 15.424 20.044z" fill="#e7c7af"/></g><path d="m455.734 382.862c0 29.698-28.018 41.65-51.114 45.978-12.424 2.328-22.218 12.121-24.546 24.546-4.328 23.096-16.28 51.114-45.978 51.114h34.669c48.031 0 86.968-38.937 86.968-86.968v-34.67z" fill="#7acefa"/><path d="m455.734 241.628v-116.673c-13.913-12.536-32.327-20.171-52.529-20.171-43.359 0-78.508 35.149-78.508 78.508s35.149 78.508 78.508 78.508c20.202-.001 38.616-7.637 52.529-20.172z" fill="#8ee2cf"/><path d="m128.713 354.475-2.211 8.344c-2.682 10.124 4.951 20.044 15.424 20.044h18.714c-6.503-14.831-11.881-30.458-16.309-46.846-7.531 3.421-13.396 10.071-15.618 18.458z" fill="#daa985"/><path d="m231.256 455.59c-4.142 0-7.5 3.357-7.5 7.5s3.358 7.5 7.5 7.5h49.488c4.143 0 7.5-3.357 7.5-7.5s-3.357-7.5-7.5-7.5zm151.69-272.299c0 4.143 3.357 7.5 7.5 7.5h25.518c4.143 0 7.5-3.357 7.5-7.5s-3.357-7.5-7.5-7.5h-25.518c-4.143 0-7.5 3.357-7.5 7.5zm-77.148 238.936c0-4.143-3.358-7.5-7.5-7.5h-84.595c-4.142 0-7.5 3.357-7.5 7.5s3.358 7.5 7.5 7.5h84.595c4.142 0 7.5-3.358 7.5-7.5zm118.749-422.227h-11.618c-4.143 0-7.5 3.357-7.5 7.5s3.357 7.5 7.5 7.5h11.618c13.061 0 23.688 10.626 23.688 23.687v71.328c-22.369-13.766-50.336-16.757-75.649-7.078 1.193-7.698.546-10.925.732-33.317 0-12.276-9.988-22.264-22.265-22.264h-51.323c-12.276 0-22.264 9.987-22.264 22.264v15.086c0 2.539-2.066 4.604-4.605 4.604h-33.723c-2.539 0-4.605-2.065-4.605-4.604v-15.087c0-12.276-9.988-22.264-22.265-22.264h-51.322c-12.276 0-22.264 9.987-22.264 22.264v23.877c0 8.88 1.876 17.476 5.575 25.547l6.911 15.081c-8.882 3.117-15.27 11.583-15.27 21.517l.001 5.852c0 15.002 12.126 27.221 27.09 27.384-1.134 11.899-2.777 23.125-4.675 33.471-30.947-9.443-62.226-19.079-94.548-19.511v-164.15c0-13.061 10.626-23.687 23.687-23.687h290.061c4.143 0 7.5-3.357 7.5-7.5s-3.357-7.5-7.5-7.5h-290.061c-21.332 0-38.687 17.354-38.687 38.687v434.627c0 21.332 17.355 38.686 38.687 38.686h29.373c4.142 0 7.5-3.357 7.5-7.5s-3.358-7.5-7.5-7.5h-29.373c-13.061 0-23.687-10.626-23.687-23.686v-255.483c31.013.411 61.437 10.118 91.555 19.284-3.98 17.917-8.432 32.239-11.617 41.455-4.466 12.92-3.764 26.885 1.979 39.32l3.999 8.66c-13.46 2.417-24.622 12.432-28.219 26.003l-2.211 8.344c-3.943 14.883 7.265 29.465 22.674 29.465h228.146c15.395 0 26.622-14.571 22.675-29.465l-2.211-8.344c-3.596-13.571-14.759-23.586-28.219-26.003l3.999-8.66c5.743-12.435 6.446-26.399 1.98-39.32-2.204-6.375-4.265-12.972-6.173-19.735 12.214 6.668 26.212 10.464 41.08 10.464 16.031 0 31.575-4.452 45.029-12.731v126.294c0 13.766-7.807 31.638-44.996 38.605-15.382 2.883-27.653 15.154-30.536 30.537-6.965 37.189-24.837 44.996-38.604 44.996h-180.643c-4.142 0-7.5 3.357-7.5 7.5s3.358 7.5 7.5 7.5h215.312c52.09 0 94.469-42.379 94.469-94.469v-378.844c0-21.333-17.355-38.687-38.687-38.687zm23.687 417.531c0 43.819-35.649 79.469-79.469 79.469h-.08c8.931-9.691 15.329-23.917 18.761-42.232 1.751-9.348 9.208-16.805 18.555-18.556 18.316-3.432 32.543-9.83 42.233-18.761zm-294.551-347.912c0-4.005 3.259-7.264 7.264-7.264h51.322c4.006 0 7.265 3.259 7.265 7.264v15.086c0 10.81 8.794 19.604 19.605 19.604h33.723c10.811 0 19.605-8.795 19.605-19.604v-15.086c0-4.005 3.259-7.264 7.264-7.264h51.322c4.006 0 7.265 3.259 7.265 7.264v23.877c0 6.677-1.407 13.141-4.174 19.213-7.916 5.52-14.861 12.331-20.532 20.132h-166.532l-9.186-20.047c-2.794-6.097-4.211-12.59-4.211-19.298zm-2.784 91.873-.001-5.852c0-4.301 3.499-7.8 7.8-7.8h166.176c-3.679 8.096-6.148 16.851-7.153 26.044h-154.43c-6.833.001-12.392-5.558-12.392-12.392zm6.981 121.979c7.285-21.077 16.492-54.178 20.173-94.586h139.346c1.405 21.768 10.935 41.35 25.593 55.743 3.144 13.492 6.88 26.554 11.128 38.843 3.194 9.24 2.689 19.23-1.42 28.131l-6.642 14.383h-180.116l-6.642-14.383c-4.109-8.901-4.614-18.891-1.42-28.131zm218.157 72.925 2.211 8.344c1.422 5.366-2.619 10.623-8.175 10.623h-228.146c-5.553 0-9.597-5.254-8.174-10.623l2.21-8.344c2.404-9.073 10.639-15.411 20.026-15.411h200.022c9.386-.001 17.622 6.336 20.026 15.411zm72.197-118.207c-12.679 10.412-28.543 16.11-45.029 16.11-39.154 0-71.008-31.854-71.008-71.008 0-38.976 31.719-71.008 71.008-71.008 16.487 0 32.351 5.699 45.029 16.111z"/></g></svg>