<svg id="Capa_1" enable-background="new 0 0 512 512" height="512" viewBox="0 0 512 512" width="512" xmlns="http://www.w3.org/2000/svg"><g><path d="m131.293 227.803h-95.952c-15.376 0-27.841-12.465-27.841-27.841v-91.106c0-15.376 12.465-27.841 27.841-27.841h112.08v130.659c0 8.908-7.221 16.129-16.128 16.129z" fill="#6ad7be"/><path d="m231.257 191.022h-145.952c-15.376 0-27.841-12.465-27.841-27.841v-91.105c0-15.376 12.465-27.841 27.841-27.841h99.987z" fill="#8ee2cf"/><path d="m185.292 44.235h-46.149c.488 4.986 1.601 9.945 3.36 14.776l48.048 132.011h40.706z" fill="#6ad7be"/><path d="m237.034 231.02h63.85l-73.81-202.791c-5.667-15.57-22.884-23.598-38.451-17.93-15.569 5.666-23.597 22.882-17.93 38.451z" fill="#404656"/><path d="m380.707 227.803h95.952c15.376 0 27.841-12.465 27.841-27.841v-91.106c0-15.376-12.465-27.841-27.841-27.841h-112.08v130.659c0 8.908 7.221 16.129 16.128 16.129z" fill="#e26e7e"/><path d="m280.743 191.022h145.952c15.376 0 27.841-12.465 27.841-27.841v-91.105c0-15.376-12.465-27.841-27.841-27.841h-99.987z" fill="#e7889d"/><path d="m326.708 44.235-45.965 146.787h40.706l48.048-132.011c1.759-4.831 2.871-9.79 3.36-14.776z" fill="#e26e7e"/><path d="m274.966 231.02 66.34-182.27c5.667-15.569-2.36-32.785-17.93-38.451-15.567-5.668-32.784 2.359-38.451 17.93l-73.81 202.791z" fill="#4e5660"/><g><path d="m354.26 452.374 8.964-19.411c5.072-10.984 5.713-23.501 1.761-34.936-7.048-20.392-17.735-57.578-21.088-103.212h-175.793c-3.353 45.634-14.039 82.82-21.088 103.212-3.952 11.435-3.312 23.952 1.761 34.936l8.964 19.411z" fill="#daa985"/><path d="m353.098 252.299 11.592-25.298c3.34-7.288 5.068-15.211 5.068-23.228v-24.733c0-8.447-6.847-15.294-15.294-15.294h-53.164c-8.447 0-15.294 6.847-15.294 15.294v15.626c0 6.925-5.614 12.539-12.539 12.539h-34.933c-6.925 0-12.539-5.614-12.539-12.539v-15.626c0-8.447-6.847-15.294-15.294-15.294h-53.164c-8.447 0-15.294 6.847-15.294 15.294v24.733c0 8.017 1.729 15.94 5.068 23.228l11.592 25.298z" fill="#daa985"/><path d="m343.897 294.816h-175.793c-.976 13.285-2.576 25.847-4.525 37.494h184.842c-1.948-11.647-3.548-24.209-4.524-37.494z" fill="#d2896f"/><path d="m155.206 252.299c-8.753 0-15.849 7.096-15.849 15.849v6.062c0 11.38 9.226 20.606 20.606 20.606h192.073c11.38 0 20.606-9.226 20.606-20.606v-6.062c0-8.753-7.096-15.849-15.849-15.849z" fill="#f2d98d"/><path d="m155.206 252.299c-8.753 0-15.849 7.096-15.849 15.849v6.061c0 11.38 9.226 20.606 20.606 20.606h67.234c-11.572-9.577-17.187-29.03-11.84-42.517h-60.151z" fill="#eec076"/><path d="m374.167 503.524c10.85 0 18.757-10.275 15.978-20.763l-2.29-8.643c-3.396-12.818-14.995-21.743-28.255-21.743h-207.2c-13.26 0-24.859 8.926-28.255 21.743l-2.29 8.643c-2.779 10.488 5.129 20.763 15.978 20.763z" fill="#e7c7af"/></g><g><g fill="#fff"><ellipse cx="176.443" cy="415.11" rx="29.355" ry="23.377"/><ellipse cx="335.557" cy="415.11" rx="29.355" ry="23.377"/></g></g><path d="m476.659 73.515h-14.623v-1.439c0-19.487-15.854-35.341-35.342-35.341h-76.102c-.68-14.506-9.867-28.103-24.649-33.483-19.477-7.087-40.976 2.933-48.065 22.412l-21.878 60.109-21.878-60.109c-7.087-19.473-28.585-29.503-48.064-22.412-14.699 5.349-23.968 18.904-24.651 33.483h-55.88c-4.142 0-7.5 3.357-7.5 7.5s3.358 7.5 7.5 7.5h58.271l38.038 104.511h-44.3c-12.568 0-22.794 10.226-22.794 22.794v4.482h-49.436c-11.217 0-20.342-9.125-20.342-20.341v-91.105c0-6.769 3.354-13.075 8.974-16.871 3.433-2.318 4.335-6.98 2.017-10.413-2.319-3.433-6.98-4.335-10.413-2.017-9.754 6.589-15.577 17.542-15.577 29.301v1.439h-14.624c-19.487 0-35.341 15.854-35.341 35.341v91.106c0 19.487 15.854 35.341 35.341 35.341h95.952c3.694 0 7.253-.863 10.452-2.444l6.03 13.16c-9.241 3.112-15.917 11.853-15.917 22.129v6.061c0 15.492 12.598 28.096 28.088 28.106-3.98 42.094-14.105 76.155-20.018 93.261-4.603 13.319-3.878 27.714 2.041 40.531l4.287 9.284c-13.994 2.376-25.632 12.734-29.36 26.805l-2.29 8.644c-4.038 15.246 7.443 30.184 23.228 30.184h185.53c4.143 0 7.5-3.357 7.5-7.5s-3.357-7.5-7.5-7.5h-185.53c-5.926 0-10.248-5.608-8.728-11.342l2.29-8.644c2.521-9.517 11.159-16.164 21.005-16.164.369 0 215.341.003 207.201 0 9.846 0 18.483 6.647 21.005 16.164l2.29 8.644c1.518 5.729-2.797 11.342-8.729 11.342h-14.894c-4.143 0-7.5 3.357-7.5 7.5s3.357 7.5 7.5 7.5h14.894c15.772 0 27.27-14.926 23.229-30.184l-2.29-8.644c-3.728-14.071-15.366-24.429-29.36-26.805l4.287-9.284c5.919-12.817 6.644-27.212 2.041-40.531-5.913-17.106-16.038-51.168-20.019-93.261 15.49-.01 28.088-12.614 28.088-28.106v-6.061c0-10.276-6.677-19.017-15.918-22.129l6.03-13.16c3.198 1.58 6.758 2.444 10.452 2.444h95.952c19.487 0 35.341-15.854 35.341-35.341v-91.106c-.001-19.487-15.854-35.341-35.342-35.341zm-345.366 146.787h-95.952c-11.216 0-20.341-9.125-20.341-20.341v-91.106c0-11.216 9.125-20.341 20.341-20.341h14.623v74.666c0 19.487 15.854 35.341 35.342 35.341h49.437c.137 3.463-.593 10.227 1.758 20.01-1.481 1.13-3.294 1.771-5.208 1.771zm160.681-189.507c4.253-11.687 17.15-17.7 28.839-13.447 11.683 4.252 17.7 17.151 13.446 28.838l-40.531 111.359c-8.857 3.129-15.222 11.581-15.222 21.496v15.626c0 2.778-2.261 5.039-5.039 5.039h-34.934c-2.778 0-5.039-2.261-5.039-5.039v-3.2zm-114.233 15.39c-4.253-11.684 1.76-24.586 13.447-28.838 11.677-4.257 24.584 1.759 28.838 13.447l27.992 76.907-20.408 56.071c-2.521-2.79-5.722-4.952-9.338-6.229zm-27.999 132.855c0-4.298 3.496-7.794 7.794-7.794 54.977.015 53.37-.04 54.042.053 3.886.438 6.916 3.74 6.916 7.741v15.626c0 11.05 8.989 20.039 20.039 20.039h34.934c11.05 0 20.039-8.989 20.039-20.039v-15.626c0-3.966 2.98-7.243 6.818-7.726.933-.115-1.919-.052 54.14-.068 4.298 0 7.794 3.496 7.794 7.794v24.732c0 7.245-1.718 14.281-4.387 20.104l-9.587 20.923h-184.568l-9.587-20.924c-2.753-6.006-4.387-13.045-4.387-20.104zm208.154 221.437c3.332 9.639 2.806 20.06-1.48 29.342l-6.953 15.056h-186.925l-6.953-15.056c-4.286-9.282-4.813-19.703-1.48-29.342 7.556-21.859 17.108-56.214 20.904-98.161h161.983c3.795 41.947 13.347 76.302 20.904 98.161zm7.247-132.329v6.061c0 7.227-5.88 13.107-13.107 13.107h-192.072c-7.227 0-13.106-5.88-13.106-13.107v-6.061c0-4.604 3.745-8.349 8.349-8.349 15.618 0 206.894 0 201.588 0 4.602.001 8.348 3.746 8.348 8.349zm-10.679-111.902h-44.3l38.038-104.511h78.492c11.217 0 20.342 9.125 20.342 20.341v91.105c0 11.216-9.125 20.341-20.342 20.341h-49.436v-4.482c0-12.569-10.226-22.794-22.794-22.794zm142.536 43.716c0 11.216-9.125 20.341-20.341 20.341h-95.952c-1.914 0-3.727-.642-5.207-1.77 2.358-9.813 1.623-16.603 1.758-20.01h49.436c19.487 0 35.342-15.854 35.342-35.341v-74.667h14.623c11.216 0 20.341 9.125 20.341 20.341zm-303.449 173.145c-4.143 0-7.5 3.357-7.5 7.5v12c0 4.143 3.357 7.5 7.5 7.5s7.5-3.357 7.5-7.5v-12c0-4.142-3.358-7.5-7.5-7.5zm124.897 0c-4.143 0-7.5 3.357-7.5 7.5v12c0 4.143 3.357 7.5 7.5 7.5s7.5-3.357 7.5-7.5v-12c0-4.142-3.357-7.5-7.5-7.5zm-41.057 13.488c-3.123-2.722-7.86-2.398-10.581.727-2.729 3.132-6.669 4.928-10.81 4.928s-8.08-1.796-10.81-4.928c-2.721-3.124-7.459-3.448-10.581-.727-3.123 2.721-3.449 7.459-.728 10.581 5.578 6.402 13.641 10.074 22.118 10.074 8.478 0 16.54-3.672 22.118-10.074 2.723-3.122 2.397-7.86-.726-10.581z"/></g></svg>